<svg xmlns="http://www.w3.org/2000/svg" width="16.521" height="16.581" viewBox="0 0 16.521 16.581">
  <g id="Group_34283" data-name="Group 34283" transform="translate(-155.568 -415.65)">
    <rect id="Rectangle_6196" data-name="Rectangle 6196" width="16" height="16" transform="translate(156 416)" fill="#777" opacity="0"/>
    <g id="Arrow_Outline" data-name="Arrow Outline" transform="translate(156 416)">
      <path id="Path_22878" data-name="Path 22878" d="M16.2,17.884l-2.644-.294a.77.77,0,0,0-.629.221h0A.706.706,0,0,0,13.29,19l.558.109a6.024,6.024,0,0,1-3.486,1.094,6.094,6.094,0,0,1-5.888-7.65.874.874,0,0,0-1.69-.448,7.828,7.828,0,0,0,12.448,8.136l.17.872a.706.706,0,0,0,1.193.366h0a.77.77,0,0,0,.221-.629l-.294-2.644A.369.369,0,0,0,16.2,17.884Z" transform="translate(-2.52 -6.255)" fill="#777" stroke="#fff" stroke-width="0.7"/>
      <path id="Path_22879" data-name="Path 22879" d="M11.4,2.529a7.862,7.862,0,0,0-4.87,1.71l-.17-.872A.706.706,0,0,0,5.164,3h0a.77.77,0,0,0-.221.629l.294,2.644a.369.369,0,0,0,.326.326l2.644.294a.77.77,0,0,0,.629-.221h0A.706.706,0,0,0,8.47,5.48l-.559-.109A6.024,6.024,0,0,1,11.4,4.277a6.094,6.094,0,0,1,5.888,7.65A.875.875,0,0,0,17.906,13a.886.886,0,0,0,.224.029.875.875,0,0,0,.845-.65A7.843,7.843,0,0,0,11.4,2.529Z" transform="translate(-3.529 -2.529)" fill="#777" stroke="#fff" stroke-width="0.7"/>
    </g>
    <path id="path3923" d="M5.964,25.237a.593.593,0,0,0,.177.427.739.739,0,0,0,.53.175,1.065,1.065,0,0,0,.53-.161,2.151,2.151,0,0,0,.51-.413,2.383,2.383,0,0,0,.394-.56,1.425,1.425,0,0,0,.177-.6l-.163.014a.915.915,0,0,1-.673-.224,1.055,1.055,0,0,1-.218-.749.926.926,0,0,1,.075-.392.773.773,0,0,1,.2-.259.757.757,0,0,1,.292-.147,1.152,1.152,0,0,1,.333-.049.967.967,0,0,1,.53.147,1.173,1.173,0,0,1,.381.371,1.58,1.58,0,0,1,.231.511,1.971,1.971,0,0,1,.082.553,2.384,2.384,0,0,1-.231,1.015,3.109,3.109,0,0,1-.612.882,3.057,3.057,0,0,1-.864.623,2.275,2.275,0,0,1-.993.231,1.043,1.043,0,0,1-.428-.105,2.193,2.193,0,0,1-.422-.259,2.275,2.275,0,0,1-.347-.35,1.037,1.037,0,0,1-.2-.364V23.283H4.6L3.951,22.6H5.263V21.239a.414.414,0,0,0-.129-.35.7.7,0,0,0-.36-.14.425.425,0,0,0-.292.07q-.082-.147-.129-.238l-.068-.161a.591.591,0,0,1-.034-.112.485.485,0,0,1-.007-.077.261.261,0,0,1,.1-.21.893.893,0,0,1,.245-.133,1.4,1.4,0,0,1,.435-.1.739.739,0,0,1,.388.1.785.785,0,0,1,.286.266,1.263,1.263,0,0,1,.177.413,2.578,2.578,0,0,1,.088.525V22.6h.388L7,23.283H5.964v1.953" transform="translate(157.44 400.734)" fill="#777"/>
  </g>
</svg>
