<svg xmlns="http://www.w3.org/2000/svg" width="11.293" height="11.549" viewBox="0 0 11.293 11.549">
  <g id="calendar" transform="translate(-5.104 0.603)">
    <rect id="Rectangle_5823" data-name="Rectangle 5823" width="10.383" height="10.356" transform="translate(5.545 0.019)" fill="#fff" opacity="0"/>
    <g id="Group_6894" data-name="Group 6894" transform="translate(5.104 -0.603)">
      <path id="Path_13637" data-name="Path 13637" d="M118.624,258.531a.289.289,0,0,0-.289-.289h-1.01a.289.289,0,0,0-.289.289v1.01a.289.289,0,0,0,.289.289h1.01a.289.289,0,0,0,.289-.289v-1.01Z" transform="translate(-114.434 -252.223)" fill="#e2136e"/>
      <path id="Path_13638" data-name="Path 13638" d="M215.258,258.531a.289.289,0,0,0-.289-.289h-1.01a.289.289,0,0,0-.289.289v1.01a.289.289,0,0,0,.289.289h1.01a.289.289,0,0,0,.289-.289Z" transform="translate(-208.818 -252.223)" fill="#e2136e"/>
      <path id="Path_13639" data-name="Path 13639" d="M311.887,258.531a.289.289,0,0,0-.289-.289h-1.01a.289.289,0,0,0-.289.289v1.01a.289.289,0,0,0,.289.289h1.01a.289.289,0,0,0,.289-.289Z" transform="translate(-303.195 -252.223)" fill="#e2136e"/>
      <path id="Path_13640" data-name="Path 13640" d="M118.624,355.164a.289.289,0,0,0-.289-.289h-1.01a.289.289,0,0,0-.289.289v1.01a.289.289,0,0,0,.289.289h1.01a.289.289,0,0,0,.289-.289v-1.01Z" transform="translate(-114.434 -346.807)" fill="#e2136e"/>
      <path id="Path_13641" data-name="Path 13641" d="M215.258,355.164a.289.289,0,0,0-.289-.289h-1.01a.289.289,0,0,0-.289.289v1.01a.289.289,0,0,0,.289.289h1.01a.289.289,0,0,0,.289-.289Z" transform="translate(-208.818 -346.807)" fill="#e2136e"/>
      <path id="Path_13642" data-name="Path 13642" d="M311.887,355.164a.289.289,0,0,0-.289-.289h-1.01a.289.289,0,0,0-.289.289v1.01a.289.289,0,0,0,.289.289h1.01a.289.289,0,0,0,.289-.289v-1.01Z" transform="translate(-303.195 -346.807)" fill="#e2136e"/>
      <path id="Path_13643" data-name="Path 13643" d="M15.7,54.147v1.379a1.134,1.134,0,0,1-1.144,1.125h-.721a1.14,1.14,0,0,1-1.15-1.125V54.142H9.432v1.384a1.14,1.14,0,0,1-1.15,1.125H7.56a1.134,1.134,0,0,1-1.144-1.125V54.147a1.033,1.033,0,0,0-1.005,1.021v8.081a1.034,1.034,0,0,0,1.035,1.028h9.222A1.035,1.035,0,0,0,16.7,63.249V55.168A1.033,1.033,0,0,0,15.7,54.147Zm-.335,8.6a.445.445,0,0,1-.448.442H7.179a.445.445,0,0,1-.448-.442V58.572a.445.445,0,0,1,.448-.442h7.737a.445.445,0,0,1,.448.442v4.174Z" transform="translate(-5.411 -52.728)" fill="#e2136e"/>
      <path id="Path_13644" data-name="Path 13644" d="M79.983,3.394h.788a.433.433,0,0,0,.433-.433V.433A.433.433,0,0,0,80.771,0h-.788a.433.433,0,0,0-.433.433V2.961A.433.433,0,0,0,79.983,3.394Z" transform="translate(-77.824)" fill="#e2136e"/>
      <path id="Path_13645" data-name="Path 13645" d="M344.891,3.394h.788a.433.433,0,0,0,.433-.433V.433A.433.433,0,0,0,345.679,0h-.788a.433.433,0,0,0-.433.433V2.961A.433.433,0,0,0,344.891,3.394Z" transform="translate(-336.564)" fill="#e2136e"/>
    </g>
  </g>
</svg>
