<svg xmlns="http://www.w3.org/2000/svg" width="20.669" height="20.744" viewBox="0 0 20.669 20.744">
  <g id="Group_33715" data-name="Group 33715" transform="translate(-155.547 -415.65)">
    <rect id="Rectangle_6196" data-name="Rectangle 6196" width="20" height="20" transform="translate(156 416)" fill="#fff" opacity="0"/>
    <g id="Arrow_Outline" data-name="Arrow Outline" transform="translate(156 416)">
      <path id="Path_22878" data-name="Path 22878" d="M19.786,19.569,16.448,19.2a.972.972,0,0,0-.794.279h0a.891.891,0,0,0,.463,1.506l.7.138a7.6,7.6,0,0,1-4.4,1.381,7.692,7.692,0,0,1-7.432-9.656,1.1,1.1,0,1,0-2.133-.565A9.882,9.882,0,0,0,18.568,22.55l.215,1.1a.891.891,0,0,0,1.506.463h0a.971.971,0,0,0,.279-.794L20.2,19.98A.465.465,0,0,0,19.786,19.569Z" transform="translate(-2.52 -4.89)" fill="#e2136e" stroke="#fff" stroke-width="0.7"/>
      <path id="Path_22879" data-name="Path 22879" d="M13.091,2.529A9.925,9.925,0,0,0,6.944,4.688l-.215-1.1a.891.891,0,0,0-1.506-.463h0a.971.971,0,0,0-.279.794l.371,3.337a.465.465,0,0,0,.411.411l3.337.371a.972.972,0,0,0,.794-.279h0A.891.891,0,0,0,9.4,6.254l-.705-.138a7.6,7.6,0,0,1,4.4-1.381,7.692,7.692,0,0,1,7.432,9.656,1.1,1.1,0,0,0,.784,1.349,1.118,1.118,0,0,0,.283.037,1.1,1.1,0,0,0,1.066-.821A9.9,9.9,0,0,0,13.091,2.529Z" transform="translate(-3.159 -2.529)" fill="#e2136e" stroke="#fff" stroke-width="0.7"/>
    </g>
    <path id="path3923" d="M6.492,26.665a.749.749,0,0,0,.223.539.933.933,0,0,0,.669.221,1.344,1.344,0,0,0,.669-.2A2.715,2.715,0,0,0,8.7,26.7a3.008,3.008,0,0,0,.5-.707,1.8,1.8,0,0,0,.223-.76l-.206.018a1.155,1.155,0,0,1-.85-.283,1.331,1.331,0,0,1-.275-.946,1.169,1.169,0,0,1,.094-.495A.976.976,0,0,1,8.44,23.2a.956.956,0,0,1,.369-.186,1.455,1.455,0,0,1,.421-.062,1.221,1.221,0,0,1,.669.186,1.48,1.48,0,0,1,.481.468,2,2,0,0,1,.292.645,2.488,2.488,0,0,1,.1.7,3.01,3.01,0,0,1-.292,1.281,3.925,3.925,0,0,1-.772,1.114,3.859,3.859,0,0,1-1.09.787,2.872,2.872,0,0,1-1.253.292,1.317,1.317,0,0,1-.541-.133,2.768,2.768,0,0,1-.532-.327,2.872,2.872,0,0,1-.438-.442,1.309,1.309,0,0,1-.249-.46V24.2H4.767l-.815-.866H5.608V21.619a.523.523,0,0,0-.163-.442A.888.888,0,0,0,4.99,21a.536.536,0,0,0-.369.088q-.1-.186-.163-.3t-.086-.2a.746.746,0,0,1-.043-.141.612.612,0,0,1-.009-.1.33.33,0,0,1,.129-.265,1.127,1.127,0,0,1,.309-.168,1.77,1.77,0,0,1,.549-.124.933.933,0,0,1,.489.124.991.991,0,0,1,.36.336,1.6,1.6,0,0,1,.223.521,3.254,3.254,0,0,1,.112.663v1.9h.489L7.8,24.2H6.492v2.466" transform="translate(158.854 401.92)" fill="#e2136e"/>
  </g>
</svg>
