<svg xmlns="http://www.w3.org/2000/svg" width="22" height="22" viewBox="0 0 22 22">
  <g id="bill" transform="translate(0.05 0.013)">
    <path id="Path_11247" data-name="Path 11247" d="M21.95,10.979a11,11,0,1,1-4.116-8.571A11,11,0,0,1,21.95,10.979Zm0,0" transform="translate(0 0)" fill="#ffbfe0"/>
    <path id="Path_11248" data-name="Path 11248" d="M59.438,21.066a10.987,10.987,0,0,1-15.676,3.5A74.835,74.835,0,0,1,40.939,9.246q-.161-2.079-.209-4.169,1.348.586,2.7,1.128,1.311-.644,2.633-1.245l.36.145q1.168.464,2.342.9,1.313-.6,2.635-1.155,1.346.5,2.7.951l.543-.228q1.045-.435,2.1-.842.024,1.106.09,2.209A58.792,58.792,0,0,0,59.438,21.066Zm0,0" transform="translate(-38.999 -4.525)" fill="#e2136e"/>
    <path id="Path_11249" data-name="Path 11249" d="M111.55,370.829a10.987,10.987,0,0,1-15.679,3.5q-.371-1.257-.7-2.525a10.983,10.983,0,0,0,16.166-1.641Q111.446,370.5,111.55,370.829Zm0,0" transform="translate(-91.111 -354.288)" fill="#d0055e"/>
    <g id="Group_4952" data-name="Group 4952" transform="translate(3.982 3.883)">
      <path id="Path_11250" data-name="Path 11250" d="M93.938,93.353a.672.672,0,0,1-.082-1.34l11.216-1.4a.673.673,0,1,1,.166,1.335l-11.216,1.4A.676.676,0,0,1,93.938,93.353Zm0,0" transform="translate(-93.263 -90.605)" fill="#fff"/>
      <path id="Path_11251" data-name="Path 11251" d="M108.916,167a.672.672,0,0,1-.091-1.339l10.983-1.519a.672.672,0,1,1,.184,1.332l-10.983,1.519a.674.674,0,0,1-.093.007Zm0,0" transform="translate(-107.599 -160.98)" fill="#fff"/>
      <path id="Path_11252" data-name="Path 11252" d="M248.064,313.741a.672.672,0,0,1-.119-1.334l6.648-1.2a.672.672,0,1,1,.239,1.323l-6.649,1.2A.683.683,0,0,1,248.064,313.741Zm0,0" transform="translate(-240.777 -301.732)" fill="#fff"/>
    </g>
    <g id="Group_4910" data-name="Group 4910" transform="translate(4.113 12.806) rotate(-11)">
      <path id="Path_11221" data-name="Path 11221" d="M4.008,2.6l-.534.467a1.064,1.064,0,0,1,.6.937A1.551,1.551,0,0,1,2.54,5.543c-.4,0-.735-.4-.735-1V3.2h.8V2.536H1.8V1.4C1.8.467,1.2,0,.8,0L.467.467a.873.873,0,0,1,.6.935V2.536H0V3.2H1.068V4.539a1.557,1.557,0,0,0,1.469,1.6,2.165,2.165,0,0,0,2.136-2.2A1.307,1.307,0,0,0,4.008,2.6" transform="translate(0 0)" fill="#fff"/>
    </g>
  </g>
</svg>
