<svg xmlns="http://www.w3.org/2000/svg" width="58.454" height="58.455" viewBox="0 0 58.454 58.455">
  <g id="bill" transform="translate(0.05 0.013)">
    <path id="Path_11247" data-name="Path 11247" d="M58.4,29.191A29.226,29.226,0,1,1,47.469,6.419,29.226,29.226,0,0,1,58.4,29.191Zm0,0" transform="translate(0 0)" fill="#a3ccbc"/>
    <g id="graph" transform="translate(9.999 10.243)">
      <rect id="Rectangle_6134" data-name="Rectangle 6134" width="38.931" height="38.931" transform="translate(-0.288 -0.494)" fill="#b2b2b2" opacity="0"/>
      <g id="graph-2" transform="translate(0.449 0.324)">
        <g id="Group_33649" data-name="Group 33649" transform="translate(0 0)">
          <path id="Path_21702" data-name="Path 21702" d="M75.554,17.6c.1.116.193.232.309.347L84.314,26.4c.1.1.193.212.289.309a.3.3,0,0,1-.212.212,2.067,2.067,0,0,0-.849.83c-.039.077-.077.174-.193.154,0-.154-.135-.251-.232-.347-2.817-2.817-5.653-5.634-8.47-8.451-.1-.1-.193-.232-.347-.232A7.83,7.83,0,0,0,75.554,17.6Z" transform="translate(-60.521 -14.589)" fill="#cdebe0"/>
          <path id="Path_21703" data-name="Path 21703" d="M27.135,18.873c-.193.019-.289.174-.405.289L19.3,26.591c-.116.116-.193.251-.347.309a.175.175,0,0,1-.135-.058A2.422,2.422,0,0,0,17.8,25.9a.153.153,0,0,1-.1-.154.708.708,0,0,0,.328-.193c2.547-2.6,5.113-5.171,7.679-7.737a2.05,2.05,0,0,0,.174-.212c.116,0,.154.077.193.174a2.5,2.5,0,0,0,.888.907C27.058,18.719,27.154,18.758,27.135,18.873Z" transform="translate(-14.664 -14.589)" fill="#cdebe0"/>
          <path id="Path_21704" data-name="Path 21704" d="M134.939,32.928c.154,0,.232-.116.328-.212l7.216-7.216a2.048,2.048,0,0,0,.174-.212c.1-.019.135.058.174.116a2.075,2.075,0,0,0,.888.888c.058.039.135.077.1.174a2.049,2.049,0,0,1-.174.212l-7.216,7.216a2.042,2.042,0,0,1-.232.193.116.116,0,0,1-.077-.019,3.079,3.079,0,0,0-1.177-1.1C134.92,33.005,134.92,32.967,134.939,32.928Z" transform="translate(-109.619 -20.791)" fill="#cdebe0"/>
          <path id="Path_21705" data-name="Path 21705" d="M174.656,13.9a2.754,2.754,0,0,1-1.293-1.312,2.345,2.345,0,0,1,.791-2.7,2.3,2.3,0,1,1,.965,4.09C174.964,13.962,174.81,13.923,174.656,13.9Z" transform="translate(-140.537 -7.998)" fill="#fff"/>
          <path id="Path_21706" data-name="Path 21706" d="M122.448,63.436a2.71,2.71,0,0,1,1.37,1.293,2.463,2.463,0,0,1-.386,2.354,2.292,2.292,0,0,1-3.994-1.987,2.037,2.037,0,0,1,.1-.367,2.571,2.571,0,0,1,1.389-1.312A2.918,2.918,0,0,1,122.448,63.436Z" transform="translate(-96.96 -51.492)" fill="#fff"/>
          <path id="Path_21707" data-name="Path 21707" d="M5.059,58.25a2.633,2.633,0,0,1,1.37,1.293,2.41,2.41,0,0,1-.463,2.47,2.3,2.3,0,1,1-1.138-3.8A.72.72,0,0,1,5.059,58.25Z" transform="translate(-1.965 -47.309)" fill="#fff"/>
          <path id="Path_21708" data-name="Path 21708" d="M60.027,6.471a2.608,2.608,0,0,1-1.37-1.389,2.323,2.323,0,0,1,.752-2.566,2.261,2.261,0,0,1,2.682-.154,2.308,2.308,0,0,1,.984,2.508c-.019.077-.019.135-.039.212a2.545,2.545,0,0,1-1.37,1.389A2.647,2.647,0,0,1,60.027,6.471Z" transform="translate(-47.748 -1.994)" fill="#fff"/>
        </g>
        <path id="Path_21709" data-name="Path 21709" d="M10.016,126.085H4.479a.58.58,0,0,1-.579-.579V111.479a.58.58,0,0,1,.579-.579h5.538a.58.58,0,0,1,.579.579v14.027A.593.593,0,0,1,10.016,126.085Z" transform="translate(-3.527 -88.527)" fill="#dbece4"/>
        <path id="Path_21710" data-name="Path 21710" d="M62.216,100.178H56.679A.58.58,0,0,1,56.1,99.6V79.379a.58.58,0,0,1,.579-.579h5.538a.58.58,0,0,1,.579.579V99.6A.593.593,0,0,1,62.216,100.178Z" transform="translate(-45.772 -62.62)" fill="#dbece4"/>
        <path id="Path_21711" data-name="Path 21711" d="M114.416,126.085h-5.538a.58.58,0,0,1-.579-.579V111.479a.581.581,0,0,1,.579-.579h5.538a.58.58,0,0,1,.579.579v14.027A.58.58,0,0,1,114.416,126.085Z" transform="translate(-88.014 -88.527)" fill="#dbece4"/>
        <path id="Path_21712" data-name="Path 21712" d="M166.616,87.265h-5.537a.581.581,0,0,1-.579-.579V63.379a.581.581,0,0,1,.579-.579h5.537a.58.58,0,0,1,.579.579V86.687A.58.58,0,0,1,166.616,87.265Z" transform="translate(-130.259 -49.707)" fill="#dbece4"/>
      </g>
    </g>
  </g>
</svg>
