<svg xmlns="http://www.w3.org/2000/svg" width="22" height="22" viewBox="0 0 22 22">
  <g id="graph" transform="translate(0.288 0.494)">
    <rect id="Rectangle_6134" data-name="Rectangle 6134" width="22" height="22" transform="translate(-0.288 -0.494)" fill="#b2b2b2" opacity="0"/>
    <g id="graph-2" transform="translate(0.129 -0.032)">
      <g id="Group_33649" data-name="Group 33649" transform="translate(0 0)">
        <path id="Path_21702" data-name="Path 21702" d="M75.009,17.6c.055.065.109.131.174.2l4.776,4.776c.055.055.109.12.164.174a.167.167,0,0,1-.12.12,1.168,1.168,0,0,0-.48.469c-.022.044-.044.1-.109.087,0-.087-.076-.142-.131-.2-1.592-1.592-3.195-3.184-4.787-4.776-.055-.055-.109-.131-.2-.131A4.425,4.425,0,0,0,75.009,17.6Z" transform="translate(-66.513 -15.898)" fill="#e5b5cc"/>
        <path id="Path_21703" data-name="Path 21703" d="M23.032,18.32c-.109.011-.164.1-.229.164l-4.2,4.2c-.065.065-.109.142-.2.174a.1.1,0,0,1-.076-.033,1.369,1.369,0,0,0-.578-.534A.086.086,0,0,1,17.7,22.2a.4.4,0,0,0,.185-.109c1.439-1.472,2.889-2.922,4.339-4.372a1.158,1.158,0,0,0,.1-.12c.065,0,.087.044.109.1a1.413,1.413,0,0,0,.5.512C22.988,18.232,23.043,18.254,23.032,18.32Z" transform="translate(-15.984 -15.898)" fill="#e5b5cc"/>
        <path id="Path_21704" data-name="Path 21704" d="M134.933,29.6c.087,0,.131-.065.185-.12l4.078-4.078a1.156,1.156,0,0,0,.1-.12c.055-.011.076.033.1.065a1.172,1.172,0,0,0,.5.5c.033.022.076.044.055.1a1.159,1.159,0,0,1-.1.12l-4.078,4.078a1.153,1.153,0,0,1-.131.109.066.066,0,0,1-.044-.011,1.74,1.74,0,0,0-.665-.621C134.922,29.647,134.922,29.626,134.933,29.6Z" transform="translate(-120.624 -22.745)" fill="#e5b5cc"/>
        <path id="Path_21705" data-name="Path 21705" d="M174.038,11.96a1.556,1.556,0,0,1-.73-.741,1.325,1.325,0,0,1,.447-1.526A1.3,1.3,0,1,1,174.3,12C174.212,11.993,174.125,11.971,174.038,11.96Z" transform="translate(-154.757 -8.623)" fill="#e2136e"/>
        <path id="Path_21706" data-name="Path 21706" d="M121.112,63.388a1.531,1.531,0,0,1,.774.731,1.392,1.392,0,0,1-.218,1.33,1.3,1.3,0,0,1-2.257-1.123,1.151,1.151,0,0,1,.055-.207,1.453,1.453,0,0,1,.785-.741A1.649,1.649,0,0,1,121.112,63.388Z" transform="translate(-106.708 -56.638)" fill="#e2136e"/>
        <path id="Path_21707" data-name="Path 21707" d="M3.713,58.2a1.488,1.488,0,0,1,.774.731,1.362,1.362,0,0,1-.262,1.4,1.3,1.3,0,1,1-.643-2.148A.407.407,0,0,1,3.713,58.2Z" transform="translate(-1.965 -52.02)" fill="#e2136e"/>
        <path id="Path_21708" data-name="Path 21708" d="M59.386,4.524a1.474,1.474,0,0,1-.774-.785,1.313,1.313,0,0,1,.425-1.45A1.277,1.277,0,0,1,60.552,2.2a1.3,1.3,0,0,1,.556,1.417c-.011.044-.011.076-.022.12a1.438,1.438,0,0,1-.774.785A1.5,1.5,0,0,1,59.386,4.524Z" transform="translate(-52.447 -1.994)" fill="#e2136e"/>
      </g>
      <path id="Path_21709" data-name="Path 21709" d="M7.356,119.481H4.227a.328.328,0,0,1-.327-.327v-7.927a.328.328,0,0,1,.327-.327H7.356a.328.328,0,0,1,.327.327v7.927A.335.335,0,0,1,7.356,119.481Z" transform="translate(-3.689 -98.257)" fill="#e2136e"/>
      <path id="Path_21710" data-name="Path 21710" d="M59.556,90.881H56.427a.328.328,0,0,1-.327-.327V79.127a.328.328,0,0,1,.327-.327h3.129a.328.328,0,0,1,.327.327V90.554A.335.335,0,0,1,59.556,90.881Z" transform="translate(-50.264 -69.657)" fill="#e2136e"/>
      <path id="Path_21711" data-name="Path 21711" d="M111.756,119.481h-3.129a.328.328,0,0,1-.327-.327v-7.927a.328.328,0,0,1,.327-.327h3.129a.328.328,0,0,1,.327.327v7.927A.328.328,0,0,1,111.756,119.481Z" transform="translate(-96.836 -98.257)" fill="#e2136e"/>
      <path id="Path_21712" data-name="Path 21712" d="M163.956,76.625h-3.129a.328.328,0,0,1-.327-.327V63.127a.328.328,0,0,1,.327-.327h3.129a.328.328,0,0,1,.327.327V76.3A.328.328,0,0,1,163.956,76.625Z" transform="translate(-143.411 -55.401)" fill="#e2136e"/>
    </g>
  </g>
</svg>