<svg xmlns="http://www.w3.org/2000/svg" width="16" height="13.602" viewBox="0 0 16 13.602">
  <g id="danger" transform="translate(0 -38.365)">
    <g id="Group_9848" data-name="Group 9848" transform="translate(0 38.365)">
      <path id="Path_15231" data-name="Path 15231" d="M15.859,50.481,8.84,38.839a.98.98,0,0,0-1.679,0L.141,50.481a.98.98,0,0,0,.84,1.487H15.02a.98.98,0,0,0,.84-1.487ZM8.005,42.392a.664.664,0,0,1,.744.631c0,1.23-.145,3-.145,4.228,0,.32-.351.455-.6.455-.331,0-.61-.134-.61-.455,0-1.23-.145-3-.145-4.228C7.251,42.619,7.581,42.392,8.005,42.392Zm.01,7.618a.8.8,0,1,1,.786-.8A.808.808,0,0,1,8.016,50.01Z" transform="translate(0 -38.365)" fill="#fff"/>
    </g>
  </g>
</svg>
