<svg xmlns="http://www.w3.org/2000/svg" width="14.315" height="8.757" viewBox="0 0 14.315 8.757">
  <g id="increase" transform="translate(-2.322 -14.622)">
    <g id="Group_10041" data-name="Group 10041" transform="translate(2.322 14.622)">
      <path id="Path_16440" data-name="Path 16440" d="M16.635,15.02l-.285,2.748a.363.363,0,0,1-.615.219l-.674-.674-4.244,4.244a.728.728,0,0,1-1,0L7.477,19.219l-3.95,3.952a.707.707,0,0,1-1-1L6.978,17.72a.725.725,0,0,1,1,0l2.34,2.338,3.745-3.745-.789-.789a.361.361,0,0,1,.217-.615l2.748-.285A.361.361,0,0,1,16.635,15.02Z" transform="translate(-2.322 -14.622)" fill="#d0021b"/>
    </g>
  </g>
</svg>
