<svg xmlns="http://www.w3.org/2000/svg" width="30.75" height="30.75" viewBox="0 0 30.75 30.75">
  <g id="Group_7244" transform="translate(-297.625 -97.625)">
    <g id="success" transform="translate(298 98)">
      <path id="Path_4233" d="M15,0A15,15,0,1,0,30,15,15.017,15.017,0,0,0,15,0Zm0,28.846A13.846,13.846,0,1,1,28.846,15,13.862,13.862,0,0,1,15,28.846Z" fill="#d0021b" stroke="#d0021b" stroke-width="0.75"/>
    </g>
    <path id="Path_4917" d="M.764-5.173H-.911l-.13-10.468H.9Zm-1.876,3.2A1.106,1.106,0,0,1-.836-2.74a1.04,1.04,0,0,1,.818-.309A1.056,1.056,0,0,1,.8-2.74a1.094,1.094,0,0,1,.281.765A1.058,1.058,0,0,1,.8-1.221a1.076,1.076,0,0,1-.823.3,1.059,1.059,0,0,1-.818-.3A1.069,1.069,0,0,1-1.112-1.975Z" transform="translate(313.017 121.448)" fill="#d0021b"/>
  </g>
</svg>
