<svg xmlns="http://www.w3.org/2000/svg" width="30.75" height="30.75" viewBox="0 0 30.75 30.75">
  <g id="success" transform="translate(0.375 0.375)">
    <path id="Path_4233"
      d="M15,0A15,15,0,1,0,30,15,15.017,15.017,0,0,0,15,0Zm0,28.846A13.846,13.846,0,1,1,28.846,15,13.862,13.862,0,0,1,15,28.846Z"
      fill="#01846c" stroke="#01846c" stroke-width="0.75" />
    <path id="Path_4234"
      d="M26.948,15.2,18.2,25.324l-5.272-4.338a.559.559,0,0,0-.8.091.6.6,0,0,0,.089.824l5.694,4.686a.559.559,0,0,0,.782-.069L27.8,15.974a.6.6,0,0,0-.047-.826A.558.558,0,0,0,26.948,15.2Z"
      transform="translate(-4.971 -6.428)" fill="#01846c" stroke="#01846c" stroke-width="0.75" />
  </g>
</svg>
