<?xml version="1.0" encoding="utf-8"?>
<!-- Generator: Adobe Illustrator 22.1.0, SVG Export Plug-In . SVG Version: 6.00 Build 0)  -->
<svg version="1.1" id="Layer_1" xmlns="http://www.w3.org/2000/svg" xmlns:xlink="http://www.w3.org/1999/xlink" x="0px" y="0px"
	 viewBox="0 0 800 1200" style="enable-background:new 0 0 800 1200;" xml:space="preserve">
<style type="text/css">
	.st0{display:none;}
	.st1{display:inline;fill:#F7F6FB;}
	.st2{clip-path:url(#SVGID_2_);fill:#FFFFFF;enable-background:new    ;}
	.st3{clip-path:url(#SVGID_2_);fill:none;}
</style>
<g id="Layer_1_2_">
	<g id="Layer_1_copy" class="st0">
		<rect class="st1" width="800" height="1200"/>
	</g>
	<g id="Layer_2_1_">
	</g>
</g>
<g>
	<defs>
		<rect id="SVGID_1_" width="800" height="1200"/>
	</defs>
	<clipPath id="SVGID_2_">
		<use xlink:href="#SVGID_1_"  style="overflow:visible;"/>
	</clipPath>
	<path class="st2" d="M122.6,1150.6L-78.6,949.4c-8.7-8.7-8.7-22.7,0-31.4l201.2-201.2c8.7-8.7,22.7-8.7,31.4,0L355,918
		c8.7,8.7,8.7,22.7,0,31.4l-201.2,201.2C145.3,1159.1,131.1,1159.1,122.6,1150.6z" fill="#fff" fill-opacity="0.1"/>
	<path class="st2" d="M42.2,716.2L-392,282c-8.7-8.7-8.7-22.7,0-31.4L42.2-183.5c8.7-8.7,22.7-8.7,31.4,0l434.2,434.2
		c8.7,8.7,8.7,22.7,0,31.4L73.6,716.2C65.1,724.7,50.9,724.7,42.2,716.2z" fill="#fff" fill-opacity="0.1"/>
	<path class="st2" d="M866.4,504.5l-97.2-97.2c-8.7-8.7-8.7-22.7,0-31.4l97.2-97.2c8.7-8.7,22.7-8.7,31.4,0l97.2,97.2
		c8.7,8.7,8.7,22.7,0,31.4l-97.2,97.2C889.1,513,875.1,513,866.4,504.5z" fill="#fff" fill-opacity="0.1"/>
	<path class="st2" d="M738.5,1268.9L381.2,911.8c-8.7-8.7-8.7-22.7,0-31.4L738.5,523c8.7-8.7,22.7-8.7,31.4,0l357.3,357.3
		c8.7,8.7,8.7,22.7,0,31.4L769.9,1269C761.3,1277.6,747,1277.6,738.5,1268.9z" fill="#fff" fill-opacity="0.1"/>
	<path class="st2" d="M586.4,1041.3L438.6,893.5c-8.7-8.7-8.7-22.7,0-31.4l147.8-147.8c8.7-8.7,22.7-8.7,31.4,0l147.8,147.8
		c8.7,8.7,8.7,22.7,0,31.4l-147.8,147.8C609.2,1049.8,594.9,1049.8,586.4,1041.3z" fill="#fff" fill-opacity="0.1"/>
	<path class="st2" d="M411.4,624.4L263.6,476.6c-8.7-8.7-8.7-22.7,0-31.4l147.8-147.8c8.7-8.7,22.7-8.7,31.4,0l147.8,147.8
		c8.7,8.7,8.7,22.7,0,31.4L442.8,624.4C434.3,633.1,420,633.1,411.4,624.4z" fill="#fff" fill-opacity="0.1"/>
	<path class="st2" d="M586.5,737.7l-44.3-44.3c-8.7-8.7-8.7-22.7,0-31.4l44.3-44.3c8.7-8.7,22.7-8.7,31.4,0l44.3,44.3
		c8.7,8.7,8.7,22.7,0,31.4l-44.3,44.3C609.2,746.2,595,746.2,586.5,737.7z" fill="#fff" fill-opacity="0.1"/>
	<path class="st2" d="M380,261.7l-96.8-96.8c-8.7-8.7-8.7-22.7,0-31.4L380,36.7c8.7-8.7,22.7-8.7,31.4,0l96.8,96.8
		c8.7,8.7,8.7,22.7,0,31.4l-96.8,96.8C402.7,270.4,388.5,270.4,380,261.7z" fill="#fff" fill-opacity="0.1"/>
	<rect x="-1" class="st3" width="802" height="1200"/>
	<path class="st2" d="M330.5,1035.5l-51.4-51.3c-4.7-4.7-4.7-12.3,0-17l51.4-51.3c4.7-4.7,12.3-4.7,17,0l51.4,51.3
		c4.7,4.7,4.7,12.3,0,17l-51.4,51.3C342.8,1040.2,335.1,1040.2,330.5,1035.5z" fill="#fff" fill-opacity="0.1"/>
	<rect class="st3" width="800" height="1200"/>
	<path class="st2" d="M-34.6,602.4L-356.1,281c-8.7-8.7-8.7-22.7,0-31.4L-34.6-71.9c8.7-8.7,22.7-8.7,31.4,0l321.5,321.5
		c8.7,8.7,8.7,22.7,0,31.4L-3.2,602.4C-11.7,610.9-25.9,610.9-34.6,602.4z" fill="#fff" fill-opacity="0.1"/>
	<rect class="st3" width="800" height="1200"/>
	<path class="st2" d="M340.1,574.1l-37.7-37.7c-4.7-4.7-4.7-12.3,0-17l37.7-37.7c4.7-4.7,12.3-4.7,17,0l37.7,37.7
		c4.7,4.7,4.7,12.3,0,17L357,574.1C352.4,578.7,344.7,578.7,340.1,574.1z" fill="#fff" fill-opacity="0.1"/>
</g>
</svg>
