<?xml version="1.0" encoding="utf-8"?>
<!-- Generator: Adobe Illustrator 22.1.0, SVG Export Plug-In . SVG Version: 6.00 Build 0)  -->
<svg version="1.1" id="Layer_1" xmlns="http://www.w3.org/2000/svg" xmlns:xlink="http://www.w3.org/1999/xlink" x="0px" y="0px"
	 viewBox="0 0 72 27" style="enable-background:new 0 0 72 27;" xml:space="preserve">
<g>
	<path d="M12.2,15.4l-1.1,2.4H9l0,0l3.6-7.5c0,0,0.4-0.9-0.4-1.3c-0.5-0.2-2.3-0.3-2.3-0.3V8.5h6.1l1.1,9.3h-2.1l-0.2-2.4H12.2z
		 M14.8,13.9l-0.2-2c0-0.5-0.1-1.3-0.1-1.8h0c-0.2,0.6-0.5,1.3-0.7,1.8l-0.9,2H14.8z"/>
	<path d="M22.9,17.6C22.5,17.8,21.8,18,21,18c-1.7,0-2.8-1-2.8-2.8c0-2.4,1.8-4.3,4.4-4.3c0.6,0,1.1,0.1,1.4,0.2l-0.5,1.5
		c-0.2-0.1-0.5-0.2-0.9-0.2c-1.4,0-2.3,1.2-2.3,2.5c0,0.9,0.6,1.4,1.3,1.4c0.6,0,1-0.1,1.3-0.3L22.9,17.6z"/>
	<path d="M28.8,17.6c-0.4,0.2-1.1,0.3-1.9,0.3c-1.7,0-2.8-1-2.8-2.8c0-2.4,1.8-4.3,4.4-4.3c0.6,0,1.1,0.1,1.4,0.2l-0.5,1.5
		c-0.2-0.1-0.5-0.2-0.9-0.2c-1.4,0-2.3,1.2-2.3,2.5c0,0.9,0.6,1.4,1.3,1.4c0.6,0,1-0.1,1.3-0.3L28.8,17.6z"/>
	<path d="M36.8,13.7c0,2.5-1.7,4.3-4,4.3c-1.7,0-2.9-1.1-2.9-2.8c0-2.3,1.6-4.3,4-4.3C35.8,10.9,36.8,12.2,36.8,13.7z M32,15.2
		c0,0.8,0.4,1.3,1.1,1.3c1.1,0,1.7-1.6,1.7-2.8c0-0.6-0.3-1.3-1.1-1.3C32.6,12.4,32,14.1,32,15.2z"/>
	<path d="M44.8,11.1l-0.9,4.6c-0.2,0.9-0.3,1.6-0.4,2.2h-1.8l0.1-1.1h0c-0.7,0.9-1.5,1.3-2.3,1.3c-1.1,0-1.7-0.6-1.7-1.9
		c0-0.4,0-0.8,0.1-1.2l0.7-3.8h2L40,14.7c-0.1,0.3-0.1,0.6-0.1,0.9c0,0.4,0.2,0.8,0.7,0.8c0.7,0,1.4-0.8,1.6-2.2l0.6-3.1H44.8z"/>
	<path d="M45.2,17.8l0.9-4.6c0.2-0.9,0.3-1.6,0.4-2.2h1.8L48,12.2h0c0.6-0.9,1.5-1.3,2.4-1.3c1.1,0,1.7,0.7,1.7,1.8
		c0,0.3-0.1,0.8-0.1,1.1l-0.7,3.9h-2l0.7-3.7c0-0.2,0.1-0.5,0.1-0.8c0-0.5-0.2-0.8-0.7-0.8c-0.6,0-1.4,0.8-1.7,2.3l-0.6,3H45.2z"/>
	<path d="M56.8,9.2l-0.4,1.9h1.4l-0.3,1.5h-1.4l-0.5,2.3c-0.1,0.3-0.1,0.6-0.1,0.9c0,0.3,0.1,0.6,0.6,0.6c0.2,0,0.4,0,0.6,0
		l-0.2,1.6c-0.2,0.1-0.7,0.2-1.2,0.2c-1.2,0-1.8-0.6-1.8-1.5c0-0.4,0-0.7,0.1-1.3l0.5-2.7h-0.9l0.3-1.5h0.9l0.3-1.4L56.8,9.2z"/>
	<path d="M58,16.1c0.4,0.2,1.1,0.5,1.8,0.5c0.6,0,0.9-0.3,0.9-0.6c0-0.3-0.2-0.6-0.8-0.9c-0.8-0.4-1.4-1-1.4-1.8
		c0-1.4,1.2-2.3,3-2.3c0.8,0,1.4,0.2,1.7,0.3l-0.5,1.4c-0.3-0.1-0.8-0.3-1.4-0.3c-0.5,0-0.9,0.2-0.9,0.6c0,0.3,0.3,0.5,0.8,0.8
		c0.7,0.4,1.5,0.9,1.5,1.9c0,1.5-1.3,2.4-3.1,2.4c-0.9,0-1.7-0.2-2.1-0.5L58,16.1z"/>
</g>
</svg>
