<?xml version="1.0" encoding="utf-8"?>
<!-- Generator: Adobe Illustrator 22.1.0, SVG Export Plug-In . SVG Version: 6.00 Build 0)  -->
<svg version="1.1" id="Layer_1" xmlns="http://www.w3.org/2000/svg" xmlns:xlink="http://www.w3.org/1999/xlink" x="0px" y="0px"
	 viewBox="0 0 800 1200" style="enable-background:new 0 0 800 1200;" xml:space="preserve">
<style type="text/css">
	.st0{display:none;}
	.st1{display:inline;fill:#F7F6FB;}
	.st2{opacity:0.1;fill:#0072BC;enable-background:new    ;}
	.st3{clip-path:url(#SVGID_2_);}
	.st4{fill:#0072BC;}
	.st5{clip-path:url(#SVGID_4_);}
	.st6{clip-path:url(#SVGID_6_);}
	.st7{opacity:5.000000e-02;fill:#FFFFFF;enable-background:new    ;}
	.st8{fill:none;}
	.st9{opacity:0.5;}
	.st10{fill:#9C9C9C;}
	.st11{fill:#949494;}
	.st12{fill:#313131;}
	.st13{fill:#959595;}
	.st14{fill:#232323;}
	.st15{fill:#6A6A6A;}
	.st16{fill:#414141;}
	.st17{fill:#D7D7D7;}
	.st18{fill:#474747;}
	.st19{fill:#717171;}
	.st20{fill:#E3E3E3;}
	.st21{fill:#A8A8A8;}
	.st22{fill:#FFFFFF;}
	.st23{fill:#A1A1A1;}
	.st24{fill:#101010;}
	.st25{fill:#737373;}
	.st26{fill:#1E1E1E;}
	.st27{fill:#2D2D2D;}
	.st28{fill:#989898;}
	.st29{opacity:0.3;}
	.st30{clip-path:url(#SVGID_8_);}
	.st31{fill:#B9B9B9;}
	.st32{fill:#353535;}
	.st33{fill:#505050;}
</style>
<g>
	<g id="Layer_1_1_">
		<g id="Layer_1_copy" class="st0">
			<rect class="st1" width="800" height="1200"/>
		</g>
		<g id="Layer_2_1_">
		</g>
	</g>
	<g>
		<path class="st2" d="M800,0v379.6c0,0-104.5,136.7-400.9,136.7C115.3,516.3,0,380.7,0,380.7V0h400.8H800z"/>
		<g id="Layer_1_3_">
			<g>
				<g>
					<defs>
						<path id="SVGID_1_" d="M800,0v377.6c0,0-104.5,111.7-400.9,111.7C115.3,489.3,0,378.6,0,378.6V0l400.8-0.5L800,0z"/>
					</defs>
					<clipPath id="SVGID_2_">
						<use xlink:href="#SVGID_1_"  style="overflow:visible;"/>
					</clipPath>
					<g id="Layer_1_2_" class="st3">
						<rect class="st4" width="800" height="1200"/>
					</g>
				</g>
				<g>
					<defs>
						<path id="SVGID_3_" d="M800,0v377.6c0,0-104.5,111.7-400.9,111.7C115.3,489.3,0,378.6,0,378.6V0l400.8-0.5L800,0z"/>
					</defs>
					<clipPath id="SVGID_4_">
						<use xlink:href="#SVGID_3_"  style="overflow:visible;"/>
					</clipPath>
					<g id="Layer_2_2_" class="st5">
						<g>
							<defs>
								<path id="SVGID_5_" d="M800,0.5v377.6c0,0-104.5,111.7-400.9,111.7C115.3,489.8,0,379.1,0,379.1V0.5L400.8,0L800,0.5z"/>
							</defs>
							<clipPath id="SVGID_6_">
								<use xlink:href="#SVGID_5_"  style="overflow:visible;"/>
							</clipPath>
							<g class="st6">
								<path class="st7" d="M205.6,968.1L4.4,766.9c-8.7-8.7-8.7-22.7,0-31.4l201.2-201.2c8.7-8.7,22.7-8.7,31.4,0l201,201.2
									c8.7,8.7,8.7,22.7,0,31.4L236.8,968.1C228.3,976.6,214.1,976.6,205.6,968.1z"/>
								<path class="st7" d="M125.2,533.7L-308.9,99.6c-8.7-8.7-8.7-22.7,0-31.4L125.3-366c8.7-8.7,22.7-8.7,31.4,0L590.8,68.2
									c8.7,8.7,8.7,22.7,0,31.4L156.6,533.7C148.1,542.2,133.9,542.2,125.2,533.7z"/>
								<path class="st7" d="M949.4,322l-97.2-97.2c-8.7-8.7-8.7-22.7,0-31.4l97.2-97.2c8.7-8.7,22.7-8.7,31.4,0l97.2,97.2
									c8.7,8.7,8.7,22.7,0,31.4L980.8,322C972.1,330.5,958.1,330.5,949.4,322z"/>
								<path class="st7" d="M821.5,1086.4L464.2,729.3c-8.7-8.7-8.7-22.7,0-31.4l357.3-357.4c8.7-8.7,22.7-8.7,31.4,0l357.3,357.3
									c8.7,8.7,8.7,22.7,0,31.4l-357.3,357.3C844.3,1095.1,830,1095.1,821.5,1086.4z"/>
								<path class="st7" d="M669.4,858.8L521.6,711c-8.7-8.7-8.7-22.7,0-31.4l147.8-147.8c8.7-8.7,22.7-8.7,31.4,0l147.8,147.8
									c8.7,8.7,8.7,22.7,0,31.4L700.8,858.8C692.2,867.3,677.9,867.3,669.4,858.8z"/>
								<path class="st7" d="M494.4,441.9L346.6,294.1c-8.7-8.7-8.7-22.7,0-31.4l147.8-147.8c8.7-8.7,22.7-8.7,31.4,0l147.8,147.8
									c8.7,8.7,8.7,22.7,0,31.4L525.8,441.9C517.3,450.6,503,450.6,494.4,441.9z"/>
								<path class="st7" d="M669.5,555.2l-44.3-44.3c-8.7-8.7-8.7-22.7,0-31.4l44.3-44.3c8.7-8.7,22.7-8.7,31.4,0l44.3,44.3
									c8.7,8.7,8.7,22.7,0,31.4l-44.3,44.3C692.2,563.7,678,563.7,669.5,555.2z"/>
								<path class="st7" d="M463,79.2l-96.8-96.8c-8.7-8.7-8.7-22.7,0-31.4l96.8-96.8c8.7-8.7,22.7-8.7,31.4,0L591.2-49
									c8.7,8.7,8.7,22.7,0,31.4l-96.8,96.8C485.7,87.9,471.5,87.9,463,79.2z"/>
								<rect x="82" y="-182.5" class="st8" width="802" height="1200"/>
								<path class="st7" d="M413.5,853l-51.4-51.3c-4.7-4.7-4.7-12.3,0-17l51.4-51.3c4.7-4.7,12.3-4.7,17,0l51.4,51.3
									c4.7,4.7,4.7,12.3,0,17L430.5,853C425.8,857.7,418.1,857.7,413.5,853z"/>
								<rect x="83" y="-182.5" class="st8" width="800" height="1200"/>
								<path class="st7" d="M48.4,419.9L-273.1,98.5c-8.7-8.7-8.7-22.7,0-31.4L48.4-254.4c8.7-8.7,22.7-8.7,31.4,0L401.2,67.1
									c8.7,8.7,8.7,22.7,0,31.4L79.8,419.9C71.3,428.4,57.1,428.4,48.4,419.9z"/>
								<rect x="83" y="-182.5" class="st8" width="800" height="1200"/>
								<path class="st7" d="M423.1,391.6l-37.7-37.7c-4.7-4.7-4.7-12.3,0-17l37.7-37.7c4.7-4.7,12.3-4.7,17,0l37.7,37.7
									c4.7,4.7,4.7,12.3,0,17L440,391.6C435.4,396.2,427.7,396.2,423.1,391.6z"/>
							</g>
						</g>
						<g class="st9">
							<path class="st10" d="M108.8,216.8h-8.7v3.3h-1.8v11.8h-2.7v3.3h-10v-7.5H45.4v9.2H42v-1.7h-4.2v-16.3h-7.3v4.3h-2.1v12h-2.5
								v107.9h85.3v-123h-2.4V216.8L108.8,216.8z M357.1,263.9L357.1,263.9h-9.2v5H344V343h17v-74.1h-3.9V263.9L357.1,263.9z
								 M456.3,236.4L456.3,236.4H450v3.3h-2.2V159h-12.5v-12.5h-10.4v72h-2.1v3.1h-2.1v2.4h-2.2v-2.4H405v28.1h-25.7v25.8h-11.9
								V343h110.8V239.7h-21.9L456.3,236.4L456.3,236.4z M220,246.9L220,246.9h-5.4v12.8h-3V343h44v-83.3h-31.4L220,246.9L220,246.9
								z M177.5,223.2L177.5,223.2h-9.7v6.9h-10V343h49.7V216h-30V223.2L177.5,223.2z M332,175.3L332,175.3h-8.4v3.3h-2.4v-2.3h-2.4
								v2.3h-1.2v-2.3h-2.5v2.3h-1.3V266h-12.2v-8.3h-11.5v8.3h-7.3v77H336V178.6h-4L332,175.3L332,175.3z M791.6,284.1L791.6,284.1
								v-4.7h-8.7v4.7H781v-5.2h-4.8v-3.1h-7.6v3.1h-8.9v-17.3h-9.5V343h45.3v-59h-3.9V284.1z M523.4,237.7L523.4,237.7h-5.2v-1.3
								h-2.7v-13.5h-15.7v120.2h63.1v-99h-39.5L523.4,237.7L523.4,237.7z M733.7,343L733.7,343h12.1v-73.6h-12.1V343L733.7,343z
								 M716,217.5L716,217.5h-13.6v3.8h-1v4.7H691v4.2h-2.7v3.3h-4.6v109.6h41.8V221.3H716V217.5L716,217.5z M604.9,252.8
								L604.9,252.8h-13.1v-26.9h-3.3v-3.1h-7.6v3.1H579v12.6h-2.7v23.1H570V343h45v-81.4h-10.1V252.8z"/>
							<path class="st11" d="M95.2,289h-1.6v-2.1h1.6v-1.5h-1.6v-2.1h1.6v-1.5h-1.6v-2.1h1.6v-1.5h-1.6v-2.1h1.6v-1.5h-1.6v-2.2h1.6
								v-1.5h-1.6v-2.1h1.6v-1.5h-1.6v-2.1h1.6v-1.5h-1.6v-2.1h1.6v-1.5h-1.6V258h1.6v-1.6h-1.6v-2.1h1.6v-1.5h-1.6v-2.1h1.6v-1.5
								h-1.6v-2.1h1.6v-1.5h-1.6v-2.1h1.6V242h-1.6v-2.1h1.6v-1.5h-1.6v-2.1h1.6v-1.5h-1.6v-2.1h1.6v-1.5h-1.6v-2.1h1.6v-1.5h-1.6
								v-2.2h1.6v-1.5h-1.6v-2.1h1.6v-1.5h-1.6v-2.1h1.6v-1.5h-1.6v-1.5h-2.3v-7.4H81.1v7.4h-2.3v1.5h-1.6v1.5h1.6v2.1h-1.6v1.5h1.6
								v2.1h-1.6v1.5h1.6v2.1h-1.6v1.5h1.6v2.1h-1.6v1.5h1.6v2.1h-1.6v1.5h1.6v2.1h-1.6v1.5h1.6v2.1h-1.6v1.5h1.6v2.1h-1.6v1.5h1.6
								v2.1h-1.6v1.5h1.6v2.1h-1.6v1.5h1.6v2.1h-1.6v1.5h1.6v2.1h-1.6v1.5h1.6v2.1h-1.6v1.5h1.6v2.1h-1.6v1.5h1.6v2.1h-1.6v1.5h1.6
								v2.1h-1.6v1.5h1.6v2.1h-1.6v1.5h1.6v2.1h-1.6v1.5h1.6v2.1h-1.6v1.5h1.6v2.1h-1.6v1.4H42.4v9.1h-3.8v-37.6h-7.5V252h-3.9v3.8
								h-7.5V252h-3.9v9.6H8.7v37.6h-3v44.1h91.2v-52.9h-1.7V289L95.2,289z M287.3,205L287.3,205H286v-6.5h-2v-9.4h-1.1v9.4h-1.2
								v-6.9h-1.1v6.9h-1.2v-6.9h-1.1v6.9H277v-6.9h-1v6.9h-1.2v-6.9h-1.1v6.9h-1.2v-6.9h-1.1v6.9h-1.2v-6.9H269v6.9h-1.2v-6.9h-1.1
								v6.9h-1.2v-6.9h-1.1v6.9h-1.2v-6.9h-1.1v6.9h-1.2v-6.9h-1.1v6.9h-1.2v-6.9h-1.1v6.9h-1.2v-6.9h-1.1v6.9H254v-6.9h-1.1v6.9
								h-1.2v-6.9h-1.1v6.9h-1.2v-6.9h-1.1v6.9H247v-6.9h-1.1v6.9h-1.2v-6.9h-1.1v6.9h-1.2v-6.9h-1.1v6.9h-1.2v-6.9H239v6.9h-1.2
								v-6.9h-1.1v6.9h-1.2v-6.9h-1.1v6.9h-1.2v-6.9h-1.1v6.9h-1.2v-6.9h-1.1v6.9h-1.2v-9.4h-1.1v9.4h-2v6.5h-1.3v-6.5h-1.5v22.6
								h4.7v2.9h-1.8v119.7h60.3V223.9h-1.8V221h4.7v-22.6h-1.5V205L287.3,205z M342.3,240.2L342.3,240.2h-8.6v3.5h-5.5v15.8h-3.8
								v22.4H321v-13.3h-6.2v-6.2h-7v6.2h-3v74.9H346v-99.9h-3.6v-3.4H342.3z M403.9,213L403.9,213h-17.8v5.8h-2.5v72.3h-3.8v10.1
								h-6.3v42.4h35.6V218.8h-5.2L403.9,213L403.9,213z M121.2,343.6L121.2,343.6h27.4V190.4h-27.4L121.2,343.6L121.2,343.6z
								 M198.6,249.2L198.6,249.2h-20.3v3.6H169v90.8h32v-90.8h-2.3L198.6,249.2L198.6,249.2z M669.2,210.1L669.2,210.1h-2v-2.9
								h-7.5v2.9h-1.9v2h-11.4v5.3h-7.7v126.3H675V217.4h-5.9v-7.3H669.2z M625.1,204.3L625.1,204.3h-2.3v-7.4h-21.1v7.4h-2.3v1.5
								h-1.6v1.5h1.6v2.1h-1.6v1.5h1.6v2.1h-1.6v1.5h1.6v2.1h-1.6v1.5h1.6v2.1h-1.6v1.5h1.6v2.1h-1.6v1.5h1.6v2.1h-1.6v1.5h1.6v2.1
								h-1.6v1.5h1.6v2.1h-1.6v1.5h1.6v2.1h-1.6v1.5h1.6v2.1h-1.6v1.5h1.6v2.1h-1.6v1.5h1.6v2.1h-1.6v1.5h1.6v2.1h-1.6v1.5h1.6v2.1
								h-1.6v1.5h1.6v2.1h-1.6v1.5h1.6v2.1h-1.6v1.5h1.6v2.1h-1.6v1.5h1.6v2.1h-1.6v1.5h1.6v2.1h-1.6v1.5h1.6v2.1h-1.6v1.5h1.6v2.1
								h-1.6v1.5h1.6v2.1h-1.6v1.5h1.6v2.1h-1.6v1.5h1.6v2.1h-1.6v1.5h1.6v2.1h-1.6v1.5h1.6v2.1h-1.6v1.5h1.6v2.1h-1.6v1.5h1.6v2.1
								h-1.6v1.5h1.6v2.1h-1.6v1.5h1.6v2.1h-1.6v1.5h1.6v2.1h-1.6v1.5h1.6v2.1h-1.6v1.5h1.6v2.1h-1.6v1.5h1.6v2.1h-1.6v1.5h1.6v2.1
								h-1.6v1.5h1.6v9.6H625v-9.6h1.6v-1.5H625v-1.4h1.6v-1.5H625v-2.1h1.6v-1.5H625v-2.1h1.6v-1.5H625v-2.1h1.6v-1.5H625V316h1.6
								v-1.6H625v-2.1h1.6v-1.5H625v-2.1h1.6v-1.5H625v-2.1h1.6v-1.5H625v-2.2h1.6v-1.5H625v-2.1h1.6v-1.5H625v-2.1h1.6v-1.5H625
								v-2.1h1.6v-1.5H625V287h1.6v-1.6H625v-2.1h1.6v-1.5H625v-2.1h1.6v-1.5H625v-2.1h1.6v-1.5H625v-2.2h1.6v-1.5H625v-2.1h1.6
								v-1.5H625v-2.1h1.6v-1.5H625v-2.1h1.6v-1.5H625V258h1.6v-1.5H625v-2.1h1.6v-1.5H625v-2.1h1.6v-1.5H625v-2.1h1.6v-1.5H625
								v-2.1h1.6v-1.5H625V240h1.6v-1.6H625v-2.1h1.6v-1.5H625v-2.1h1.6v-1.5H625v-2.1h1.6v-1.5H625v-2.2h1.6v-1.5H625v-2.1h1.6
								v-1.5H625v-2.1h1.6v-1.5H625v-2.1h1.6v-1.5H625V211h1.6v-1.6H625v-2.1h1.6v-1.5H625L625.1,204.3L625.1,204.3z M571.3,204.6
								L571.3,204.6h-1.8v-6h1.8v-1.5h-1.8v-5.2h1.8v-1.5h-1.8v-5.2h1.8v-1.5h-4.9v-2.8h1.5v-1.5h-1.5v-1.6h1.5v-1.5h-1.5v-1.6h1.5
								v-1.5h-1.5v-5.8h-2.3v-3.5h-2.6v-3.3h-0.1l0.3-0.2l-10.9-20.9V138h-0.4v-13.6h-0.8V138h-0.4v1.5l-10.9,20.9l0.3,0.2h-0.1v3.3
								H536v3.5h-2.3v5.9h-1.5v1.5h1.5v1.6h-1.5v1.5h1.5v1.6h-1.5v1.5h1.5v2.8h-4.9v1.5h1.8v5.2h-1.8v1.5h1.8v5.2h-1.8v1.5h1.8v6
								h-1.8v31.2h-4v1.4h2.1v2.1h-2.1v1.4h2.1v2.1h-2.1v1.4h2.1v2.1h-2.1v1.4h2.1v2.1h-2.1v1.4h2.1v2.1h-2.1v1.4h2.1v2.1h-2.1v1.4
								h2.1v2.1h-2.1v1.4h2.1v2.1h-2.1v1.4h2.1v2.1h-2.1v1.4h2.1v2.1h-2.1v1.4h2.1v2.1h-2.1v1.4h2.1v2.1h-2.1v1.4h2.1v2.1h-2.1v1.4
								h2.1v2.1h-2.1v1.4h2.1v2.1h-2.1v1.4h2.1v2.1h-2.1v1.4h2.1v2.1h-2.1v1.4h2.1v2.1h-2.1v1.4h2.1v2.1h-2.1v1.4h2.1v2.1h-2.1v1.4
								h2.1v2.1h-2.1v1.4h2.1v2.1h-2.1v1.4h2.1v2.1h-2.1v1.4h2.1v2.1h-2.1v1.4h2.1v21.9h46.3v-21.9h2.1v-1.4h-2.1v-2.1h2.1v-1.4
								h-2.1v-2.1h2.1v-1.4h-2.1v-2.1h2.1v-1.4h-2.1v-2.1h2.1v-1.4h-2.1v-2.1h2.1v-1.4h-2.1v-2.1h2.1v-1.4h-2.1v-2.1h2.1v-1.4h-2.1
								v-2.1h2.1v-1.4h-2.1v-2.1h2.1v-1.4h-2.1v-2.1h2.1v-1.4h-2.1v-2.1h2.1v-1.4h-2.1v-2h2.1V278h-2.1v-2.1h2.1v-1.4h-2.1v-2.1h2.1
								V271h-2.1v-2.1h2.1v-1.4h-2.1v-2.1h2.1V264h-2.1v-2.1h2.1v-1.4h-2.1v-2.1h2.1V257h-2.1v-2.1h2.1v-1.5h-2.1v-2.1h2.1v-1.4
								h-2.1v-2.1h2.1v-1.4h-2.1v-2.1h2.1v-1.4h-2.1v-2.1h2.1v-1.4h-2.1v-2.1h2.1v-1.4h-4L571.3,204.6L571.3,204.6z M549.3,158
								L549.3,158h-1.6l1.6-6.1V158L549.3,158z M549.3,149.2L549.3,149.2l-2.3,8.7l0.3,0.1h-4.1l6-12.4L549.3,149.2L549.3,149.2z
								 M549.3,144.1L549.3,144.1l-6.7,13.8l0.4,0.2v2.6h-3.9l10.2-19.6V144.1L549.3,144.1z M550.9,158L550.9,158v-6.1l1.6,6.1
								H550.9L550.9,158z M552.8,158L552.8,158l0.3-0.1l-2.3-8.7v-3.6l6,12.4L552.8,158L552.8,158z M557.2,160.6L557.2,160.6V158
								l0.4-0.2l-6.7-13.8v-3l10.2,19.6H557.2L557.2,160.6z M504.6,204.6L504.6,204.6h-1.8v-6h1.8v-1.5h-1.8v-5.2h1.8v-1.5h-1.8
								v-5.2h1.8v-1.5h-4.9v-2.8h1.5v-1.5h-1.5v-1.6h1.5v-1.5h-1.5v-1.6h1.5v-1.5h-1.5v-5.8h-2.3v-3.5h-2.6v-3.3h-0.1l0.3-0.2
								l-10.9-20.9V138h-0.4v-13.6H483V138h-0.4v1.5l-10.9,20.9l0.3,0.2h-0.1v3.3h-2.6v3.5H467v5.9h-1.5v1.5h1.5v1.6h-1.5v1.5h1.5
								v1.6h-1.5v1.5h1.5v2.8h-4.9v1.5h1.8v5.2h-1.8v1.5h1.8v5.2h-1.8v1.5h1.8v6h-1.8v31.2h-4v1.4h2.1v2.1h-2.1v1.4h2.1v2.1h-2.1
								v1.4h2.1v2.1h-2.1v1.4h2.1v2.1h-2.1v1.4h2.1v2.1h-2.1v1.4h2.1v2.1h-2.1v1.4h2.1v2.1h-2.1v1.4h2.1v2.1h-2.1v1.4h2.1v2.1h-2.1
								v1.4h2.1v2.1h-2.1v1.4h2.1v2.1h-2.1v1.4h2.1v2.1h-2.1v1.4h2.1v2.1h-2.1v1.4h2.1v2.1h-2.1v1.4h2.1v2.1h-2.1v1.4h2.1v2.1h-2.1
								v1.4h2.1v2.1h-2.1v1.4h2.1v2.1h-2.1v1.4h2.1v2.1h-2.1v1.4h2.1v2.1h-2.1v1.4h2.1v2.1h-2.1v1.4h2.1v2.1h-2.1v1.4h2.1v2.1h-2.1
								v1.4h2.1v2.1h-2.1v1.4h2.1v21.9h46.3v-21.9h2.1v-1.4h-2.1v-2.1h2.1v-1.4h-2.1v-2.1h2.1v-1.4h-2.1v-2.1h2.1v-1.4h-2.1v-2.1
								h2.1v-1.4h-2.1v-2.1h2.1v-1.4h-2.1v-2.1h2.1v-1.4h-2.1v-2.1h2.1v-1.4h-2.1v-2.1h2.1v-1.4h-2.1v-2.1h2.1v-1.4h-2.1v-2.1h2.1
								v-1.4h-2.1v-2.1h2.1v-1.4h-2.1v-2h2.1V278h-2.1v-2.1h2.1v-1.4h-2.1v-2.1h2.1V271h-2.1v-2.1h2.1v-1.4h-2.1v-2.1h2.1V264h-2.1
								v-2.1h2.1v-1.4h-2.1v-2.1h2.1V257h-2.1v-2.1h2.1v-1.5h-2.1v-2.1h2.1v-1.4h-2.1v-2.1h2.1v-1.4h-2.1v-2.1h2.1v-1.4h-2.1v-2.1
								h2.1v-1.4h-2.1v-2.1h2.1v-1.4h-4V204.6L504.6,204.6z M482.6,158L482.6,158H481l1.6-6.1V158L482.6,158z M482.6,149.2
								L482.6,149.2l-2.3,8.7l0.3,0.1h-4.1l6-12.4v3.6H482.6z M482.6,144.1L482.6,144.1l-6.7,13.8l0.4,0.2v2.6h-3.9l10.2-19.6V144.1
								L482.6,144.1z M484.2,158L484.2,158v-6.1l1.6,6.1H484.2L484.2,158z M486.1,158L486.1,158l0.3-0.1l-2.3-8.7v-3.6l6,12.4
								L486.1,158L486.1,158z M490.5,160.6L490.5,160.6V158l0.4-0.2l-6.7-13.8v-3l10.2,19.6H490.5L490.5,160.6z M797.8,296.3
								L797.8,296.3V295h-9.6v1.3h-2.6v-2.6h-9.4v-5.4h-4.8v3.9h-3.1v-1.8h-2.1v-3.8h-8.6v5.6h-2.2v-9.8h-16.3V278h-11.4v-2.9H726
								v-2.9h-4.4v2.9h-1.9v2.9h-2.5v9.5h-7.3v-26.1h-3v-1.5h-2v1.5h-2.4v-3h-4.8v3h-2.5v10.8h-3v-12.3H680v83.6h119.6v-47.3
								L797.8,296.3L797.8,296.3z M444.4,277.7L444.4,277.7h-6.3v1.8h-1.9v7.8h-6.5v56.4h21.5v-64.3h-6.8L444.4,277.7L444.4,277.7z"
								/>
							<path class="st12" d="M783.7,274v10l-2-0.4c-0.5-0.1-0.6-0.8-0.8-1.1c-7.1-9.2-15.6-14.9-25.5-13.5v-11
								C767,259.5,776.5,264.8,783.7,274L783.7,274z M755.3,256.1c10.9,0.6,20.2,5.3,27.9,14.3c-1-3.2-2.1-6.5-3.4-9.8
								c-6.6-6.5-14.8-10.4-24.5-11.6V256.1L755.3,256.1z M755.3,247v-5.5c7.2,0.9,13.5,3.3,19,7.1c1.3,2.5,2.5,4.9,3.5,7.4
								C771.3,250.4,763.8,247.4,755.3,247L755.3,247z M755.3,239.6c6.1,0.3,11.7,1.9,16.8,4.9c-1.3-2.4-2.7-4.8-4.2-7.2
								c-3.9-1.7-8.1-2.9-12.6-3.5V239.6L755.3,239.6z M755.3,231.9v-4.8c2.6,0.3,5,0.8,7.4,1.5c0.8,1.5,1.8,3.2,3.1,5.3
								C762.5,232.8,759,232.1,755.3,231.9L755.3,231.9z M755.3,225.2v-25.8c0.8,4.8,1.6,9.2,2.4,13c1.4,6.7,2.1,10.1,3.7,13.6
								C759.4,225.6,757.4,225.3,755.3,225.2z"/>
							<g>
								<path class="st13" d="M787.8,304.5c0-5.3,2.4-10.1,6.2-13.2c-6.4,2.5-10.9,8.7-10.9,16c0,9.5,7.7,17.2,17.2,17.2
									c4.2,0,8-1.5,11-4c-2,0.8-4.1,1.2-6.3,1.2C795.5,321.7,787.8,314,787.8,304.5z"/>
								<path class="st13" d="M817.5,307.3c0-9.5-7.7-17.2-17.2-17.2c-2.2,0-4.4,0.4-6.3,1.2c-3.8,3.1-6.2,7.9-6.2,13.2
									c0,9.5,7.7,17.2,17.2,17.2c2.2,0,4.4-0.4,6.3-1.2C815.1,317.3,817.5,312.6,817.5,307.3z"/>
								<path class="st14" d="M808.5,313.2c-0.2-0.2-0.6-0.2-0.8,0.1l-6.6,7.6v-14.2l3.5-5.3c0.2-0.3,0.1-0.6-0.2-0.8
									c-0.3-0.2-0.6-0.1-0.8,0.2l-2.6,3.9v-6.4c0-0.5-0.4-0.9-0.9-0.9s-0.9,0.4-0.9,0.9v13l-4.9-6.2c-0.2-0.3-0.6-0.3-0.8-0.1
									c-0.3,0.2-0.3,0.6-0.1,0.8l5.8,7.3v21.3c0,0.5,0.4,0.9,0.9,0.9s0.9-0.4,0.9-0.9v-11.8l7.4-8.6
									C808.8,313.7,808.8,313.4,808.5,313.2z"/>
								<g>
									<path class="st13" d="M815.2,305.2c-0.3,0-0.6-0.2-0.6-0.6c-0.5-4.3-2.8-7.7-6.7-10c-2.9-1.7-5.8-2.1-5.8-2.1
										c-0.4-0.1-0.6-0.4-0.5-0.7c0-0.3,0.4-0.6,0.7-0.5c0.1,0,3.1,0.4,6.2,2.3c4.2,2.4,6.8,6.2,7.4,10.9
										C815.9,304.8,815.7,305.1,815.2,305.2C815.3,305.2,815.3,305.2,815.2,305.2z"/>
								</g>
							</g>
							<path class="st15" d="M755.3,270.5c-9.7-0.9-17.7,4.5-24.7,13.4V332h5.9v-44.4c5.4-9.5,11.5-15.1,18.9-14.2
								c7.4-1,13.5,4.7,18.9,14.2V332h5.9v-48.1C773,275,765,269.6,755.3,270.5z"/>
							<g>
								<path class="st13" d="M-21.7,294.6c0-7,3.2-13.3,8.2-17.5c-8.4,3.3-14.4,11.5-14.4,21.1c0,12.5,10.2,22.7,22.7,22.7
									c5.5,0,10.6-2,14.5-5.2c-2.6,1-5.4,1.6-8.3,1.6C-11.5,317.3-21.7,307.2-21.7,294.6z"/>
								<path class="st13" d="M17.6,298.3c0-12.5-10.2-22.7-22.7-22.7c-2.9,0-5.8,0.6-8.3,1.6c-5,4.2-8.2,10.4-8.2,17.5
									c0,12.5,10.2,22.7,22.7,22.7c2.9,0,5.8-0.6,8.3-1.6C14.4,311.6,17.6,305.3,17.6,298.3z"/>
								<path class="st14" d="M5.7,306c-0.3-0.3-0.8-0.2-1.1,0.1l-8.7,10v-18.8l4.7-7c0.2-0.4,0.1-0.8-0.2-1.1
									c-0.4-0.2-0.8-0.1-1.1,0.2l-3.4,5.1v-8.4c0-0.6-0.5-1.1-1.1-1.1s-1.1,0.5-1.1,1.1v17.3l-6.4-8.1c-0.3-0.3-0.7-0.4-1.1-0.1
									c-0.3,0.3-0.4,0.7-0.1,1.1l7.6,9.7v28.2c0,0.6,0.5,1.1,1.1,1.1s1.1-0.5,1.1-1.1v-15.6l9.8-11.4C6,306.8,6,306.3,5.7,306z"/>
								<g>
									<path class="st13" d="M14.5,295.5c-0.4,0-0.8-0.3-0.8-0.7c-0.7-5.7-3.7-10.2-8.9-13.2c-3.9-2.3-7.7-2.8-7.7-2.8
										c-0.5-0.1-0.8-0.5-0.7-1s0.5-0.8,0.9-0.7c0.2,0,4.1,0.6,8.2,3c5.6,3.2,8.9,8.2,9.7,14.4c0.1,0.5-0.3,0.9-0.7,0.9
										C14.6,295.5,14.6,295.5,14.5,295.5z"/>
								</g>
							</g>
							<path class="st12" d="M726.9,274v10l2-0.4c0.5-0.1,0.6-0.8,0.8-1.1c7.1-9.2,15.6-14.9,25.5-13.5v-11
								C743.5,259.5,734.1,264.8,726.9,274L726.9,274z M755.3,256.1c-10.9,0.6-20.2,5.3-27.9,14.3c1-3.2,2.1-6.5,3.4-9.8
								c6.6-6.5,14.8-10.4,24.5-11.6V256.1L755.3,256.1z M755.3,247v-5.5c-7.2,0.9-13.5,3.3-19,7.1c-1.3,2.5-2.5,4.9-3.5,7.4
								C739.3,250.4,746.8,247.4,755.3,247L755.3,247z M755.3,239.6c-6.1,0.3-11.7,1.9-16.8,4.9c1.3-2.4,2.7-4.8,4.2-7.2
								c3.9-1.7,8.1-2.9,12.6-3.5V239.6L755.3,239.6z M755.3,231.9v-4.8c-2.6,0.3-5,0.8-7.4,1.5c-0.8,1.5-1.8,3.2-3.1,5.3
								C748.1,232.8,751.6,232.1,755.3,231.9L755.3,231.9z M755.3,225.2v-25.8c-0.8,4.8-1.6,9.2-2.4,13c-1.4,6.7-2.1,10.1-3.7,13.6
								C751.2,225.6,753.2,225.3,755.3,225.2z"/>
							<rect x="736.4" y="293.1" class="st16" width="37.7" height="1.4"/>
							<rect x="736.4" y="299" class="st16" width="37.7" height="1.4"/>
							<g>
								<rect x="747.5" y="293.1" class="st16" width="1.8" height="39"/>
								<rect x="761.8" y="293.1" class="st16" width="1.8" height="39"/>
							</g>
							<rect x="-344.9" y="338.5" class="st17" width="1400.3" height="218.2"/>
							<path class="st18" d="M755.3,304.5L755.3,304.5c2.2,0,4,1.8,4,4V332h-8.1v-23.5C751.2,306.3,753.1,304.5,755.3,304.5z"/>
							<path class="st18" d="M742.2,304.5L742.2,304.5c1.9,0,3.4,1.5,3.4,3.4V332h-6.8v-24.1C738.8,306,740.3,304.5,742.2,304.5z"/>
							<path class="st18" d="M768.8,304.5L768.8,304.5c1.9,0,3.4,1.5,3.4,3.4V332h-6.8v-24.1C765.4,306,767,304.5,768.8,304.5z"/>
							<rect x="720" y="294.9" class="st15" width="8.5" height="37.2"/>
							<path class="st12" d="M721.8,274v10l-2-0.4c-0.5-0.1-0.6-0.8-0.8-1.1c-7.1-9.2-15.6-14.9-25.5-13.5v-11
								C705.2,259.5,714.7,264.8,721.8,274L721.8,274z M693.4,256.1c10.9,0.6,20.2,5.3,27.9,14.3c-1-3.2-2.1-6.5-3.4-9.8
								c-6.6-6.5-14.8-10.4-24.5-11.6V256.1L693.4,256.1z M693.4,247v-5.5c7.2,0.9,13.5,3.3,19,7.1c1.3,2.5,2.5,4.9,3.5,7.4
								C709.5,250.4,701.9,247.4,693.4,247L693.4,247z M693.4,239.6c6.1,0.3,11.7,1.9,16.8,4.9c-1.3-2.4-2.7-4.8-4.2-7.2
								c-3.9-1.7-8.1-2.9-12.6-3.5V239.6L693.4,239.6z M693.4,231.9v-4.8c2.6,0.3,5,0.8,7.4,1.5c0.8,1.5,1.8,3.2,3.1,5.3
								C700.6,232.8,697.1,232.1,693.4,231.9L693.4,231.9z M693.4,225.2v-25.8c0.8,4.8,1.6,9.2,2.4,13c1.4,6.7,2.1,10.1,3.7,13.6
								C697.5,225.6,695.5,225.3,693.4,225.2z"/>
							<path class="st15" d="M693.4,270.5c-9.7-0.9-17.7,4.5-24.7,13.4V332h5.9v-44.4c5.4-9.5,11.5-15.1,18.9-14.2
								c7.4-1,13.5,4.7,18.9,14.2V332h5.9v-48.1C711.1,275,703.1,269.6,693.4,270.5z"/>
							<path class="st12" d="M665,274v10l2-0.4c0.5-0.1,0.6-0.8,0.8-1.1c7.1-9.2,15.6-14.9,25.5-13.5v-11
								C681.7,259.5,672.2,264.8,665,274L665,274z M693.4,256.1c-10.9,0.6-20.2,5.3-27.9,14.3c0.9-3.2,2.1-6.5,3.4-9.8
								c6.6-6.5,14.8-10.4,24.5-11.6V256.1L693.4,256.1z M693.4,247v-5.5c-7.2,0.9-13.5,3.3-19,7.1c-1.3,2.5-2.5,4.9-3.5,7.4
								C677.4,250.4,684.9,247.4,693.4,247L693.4,247z M693.4,239.6c-6.1,0.3-11.7,1.9-16.8,4.9c1.3-2.4,2.7-4.8,4.2-7.2
								c3.9-1.7,8.1-2.9,12.6-3.5V239.6L693.4,239.6z M693.4,231.9v-4.8c-2.6,0.3-5,0.8-7.4,1.5c-0.8,1.5-1.8,3.2-3.1,5.3
								C686.3,232.8,689.7,232.1,693.4,231.9L693.4,231.9z M693.4,225.2v-25.8c-0.8,4.8-1.6,9.2-2.4,13c-1.4,6.7-2.1,10.1-3.7,13.6
								C689.3,225.6,691.4,225.3,693.4,225.2z"/>
							<rect x="674.6" y="293.1" class="st16" width="37.7" height="1.4"/>
							<rect x="674.6" y="299" class="st16" width="37.7" height="1.4"/>
							<g>
								<rect x="685.7" y="293.1" class="st16" width="1.8" height="39"/>
								<rect x="699.9" y="293.1" class="st16" width="1.8" height="39"/>
							</g>
							<path class="st18" d="M693.4,304.5L693.4,304.5c2.2,0,4,1.8,4,4V332h-8.1v-23.5C689.4,306.3,691.2,304.5,693.4,304.5z"/>
							<path class="st18" d="M680.4,304.5L680.4,304.5c1.9,0,3.4,1.5,3.4,3.4V332H677v-24.1C676.9,306,678.5,304.5,680.4,304.5z"/>
							<path class="st18" d="M707,304.5L707,304.5c1.9,0,3.4,1.5,3.4,3.4V332h-6.8v-24.1C703.6,306,705.1,304.5,707,304.5z"/>
							<rect x="658.2" y="294.9" class="st15" width="8.5" height="37.2"/>
							<path class="st12" d="M659.7,274v10l-2-0.4c-0.5-0.1-0.6-0.8-0.8-1.1c-7.1-9.2-15.6-14.9-25.5-13.5v-11
								C643,259.5,652.5,264.8,659.7,274L659.7,274z M631.3,256.1c10.9,0.6,20.2,5.3,27.9,14.3c-1-3.2-2.1-6.5-3.4-9.8
								c-6.6-6.5-14.8-10.4-24.5-11.6V256.1L631.3,256.1z M631.3,247v-5.5c7.2,0.9,13.5,3.3,19,7.1c1.3,2.5,2.5,4.9,3.5,7.4
								C647.3,250.4,639.8,247.4,631.3,247L631.3,247z M631.3,239.6c6.1,0.3,11.7,1.9,16.8,4.9c-1.3-2.4-2.7-4.8-4.2-7.2
								c-3.9-1.7-8.1-2.9-12.6-3.5V239.6L631.3,239.6z M631.3,231.9v-4.8c2.6,0.3,5,0.8,7.4,1.5c0.8,1.5,1.8,3.2,3.1,5.3
								C638.5,232.8,635,232.1,631.3,231.9L631.3,231.9z M631.3,225.2v-25.8c0.8,4.8,1.6,9.2,2.4,13c1.4,6.7,2.1,10.1,3.7,13.6
								C635.4,225.6,633.4,225.3,631.3,225.2z"/>
							<path class="st15" d="M631.3,270.5c-9.7-0.9-17.7,4.5-24.7,13.4V332h5.9v-44.4c5.4-9.5,11.5-15.1,18.9-14.2
								c7.4-1,13.5,4.7,18.9,14.2V332h5.9v-48.1C649,275,641,269.6,631.3,270.5z"/>
							<path class="st12" d="M602.9,274v10l2-0.4c0.5-0.1,0.6-0.8,0.9-1.1c7.1-9.2,15.6-14.9,25.5-13.5v-11
								C619.5,259.5,610.1,264.8,602.9,274L602.9,274z M631.3,256.1c-10.9,0.6-20.2,5.3-27.9,14.3c0.9-3.2,2.1-6.5,3.4-9.8
								c6.6-6.5,14.8-10.4,24.5-11.6V256.1L631.3,256.1z M631.3,247v-5.5c-7.2,0.9-13.5,3.3-19,7.1c-1.3,2.5-2.5,4.9-3.5,7.4
								C615.3,250.4,622.8,247.4,631.3,247L631.3,247z M631.3,239.6c-6.1,0.3-11.7,1.9-16.8,4.9c1.3-2.4,2.7-4.8,4.2-7.2
								c3.9-1.7,8.1-2.9,12.6-3.5V239.6L631.3,239.6z M631.3,231.9v-4.8c-2.6,0.3-5,0.8-7.4,1.5c-0.8,1.5-1.8,3.2-3.1,5.3
								C624.1,232.8,627.6,232.1,631.3,231.9L631.3,231.9z M631.3,225.2v-25.8c-0.8,4.8-1.6,9.2-2.4,13c-1.4,6.7-2.1,10.1-3.7,13.6
								C627.2,225.6,629.2,225.3,631.3,225.2z"/>
							<rect x="612.4" y="293.1" class="st16" width="37.7" height="1.4"/>
							<rect x="612.4" y="299" class="st16" width="37.7" height="1.4"/>
							<g>
								<rect x="623.6" y="293.1" class="st16" width="1.8" height="39"/>
								<rect x="637.8" y="293.1" class="st16" width="1.8" height="39"/>
							</g>
							<path class="st18" d="M631.3,304.5L631.3,304.5c2.2,0,4,1.8,4,4V332h-8.1v-23.5C627.3,306.3,629.1,304.5,631.3,304.5z"/>
							<path class="st18" d="M618.2,304.5L618.2,304.5c1.9,0,3.4,1.5,3.4,3.4V332h-6.8v-24.1C614.8,306,616.3,304.5,618.2,304.5z"/>
							<path class="st18" d="M644.8,304.5L644.8,304.5c1.9,0,3.4,1.5,3.4,3.4V332h-6.8v-24.1C641.4,306,643,304.5,644.8,304.5z"/>
							<rect x="596" y="294.9" class="st15" width="8.5" height="37.2"/>
							<path class="st12" d="M597.6,274v10l-2-0.4c-0.5-0.1-0.6-0.8-0.8-1.1c-7.1-9.2-15.6-14.9-25.5-13.5v-11
								C581,259.5,590.5,264.8,597.6,274L597.6,274z M569.2,256.1c10.9,0.6,20.2,5.3,27.9,14.3c-1-3.2-2.1-6.5-3.4-9.8
								c-6.6-6.5-14.8-10.4-24.5-11.6V256.1L569.2,256.1z M569.2,247v-5.5c7.2,0.9,13.5,3.3,19,7.1c1.3,2.5,2.5,4.9,3.5,7.4
								C585.3,250.4,577.7,247.4,569.2,247L569.2,247z M569.2,239.6c6.1,0.3,11.7,1.9,16.8,4.9c-1.3-2.4-2.7-4.8-4.2-7.2
								c-3.9-1.7-8.1-2.9-12.6-3.5V239.6L569.2,239.6z M569.2,231.9v-4.8c2.6,0.3,5,0.8,7.4,1.5c0.8,1.5,1.8,3.2,3.1,5.3
								C576.4,232.8,572.9,232.1,569.2,231.9L569.2,231.9z M569.2,225.2v-25.8c0.8,4.8,1.6,9.2,2.4,13c1.4,6.7,2.1,10.1,3.7,13.6
								C573.3,225.6,571.3,225.3,569.2,225.2z"/>
							<path class="st15" d="M569.2,270.5c-9.7-0.9-17.7,4.5-24.8,13.4V332h5.9v-44.4c5.4-9.5,11.5-15.1,18.9-14.2
								c7.4-1,13.5,4.7,18.9,14.2V332h5.9v-48.1C586.9,275,578.9,269.6,569.2,270.5z"/>
							<path class="st12" d="M540.8,274v10l2-0.4c0.5-0.1,0.6-0.8,0.8-1.1c7.1-9.2,15.6-14.9,25.5-13.5v-11
								C557.5,259.5,548,264.8,540.8,274L540.8,274z M569.2,256.1c-10.9,0.6-20.2,5.3-27.9,14.3c1-3.2,2.1-6.5,3.4-9.8
								c6.6-6.5,14.8-10.4,24.5-11.6V256.1L569.2,256.1z M569.2,247v-5.5c-7.2,0.9-13.5,3.3-19,7.1c-1.3,2.5-2.5,4.9-3.5,7.4
								C553.2,250.4,560.7,247.4,569.2,247L569.2,247z M569.2,239.6c-6.1,0.3-11.7,1.9-16.8,4.9c1.3-2.4,2.7-4.8,4.2-7.2
								c3.9-1.7,8.1-2.9,12.6-3.5V239.6L569.2,239.6z M569.2,231.9v-4.8c-2.6,0.3-5,0.8-7.4,1.5c-0.8,1.5-1.8,3.2-3.1,5.3
								C562.1,232.8,565.5,232.1,569.2,231.9L569.2,231.9z M569.2,225.2v-25.8c-0.8,4.8-1.6,9.2-2.4,13c-1.4,6.7-2.1,10.1-3.7,13.6
								C565.1,225.6,567.2,225.3,569.2,225.2z"/>
							<rect x="550.4" y="293.1" class="st16" width="37.7" height="1.4"/>
							<rect x="550.4" y="299" class="st16" width="37.7" height="1.4"/>
							<g>
								<rect x="561.5" y="293.1" class="st16" width="1.8" height="39"/>
								<rect x="575.7" y="293.1" class="st16" width="1.8" height="39"/>
							</g>
							<path class="st18" d="M569.2,304.5L569.2,304.5c2.2,0,4,1.8,4,4V332h-8.1v-23.5C565.2,306.3,567,304.5,569.2,304.5z"/>
							<path class="st18" d="M556.2,304.5L556.2,304.5c1.9,0,3.4,1.5,3.4,3.4V332h-6.8v-24.1C552.7,306,554.3,304.5,556.2,304.5z"/>
							<path class="st18" d="M582.8,304.5L582.8,304.5c1.9,0,3.4,1.5,3.4,3.4V332h-6.8v-24.1C579.4,306,580.9,304.5,582.8,304.5z"/>
							<g>
								<rect x="11.6" y="320.9" class="st19" width="187.3" height="11.2"/>
								<polygon class="st20" points="118.5,320.9 40.4,320.9 29.1,286.6 								"/>
								<polygon class="st21" points="118.5,320.9 44.5,292.5 38,252.3 								"/>
								<polygon class="st20" points="118.5,320.9 58.6,269.8 52.3,218.7 131.6,320.9 								"/>
								<polygon class="st21" points="131.6,320.9 62.6,231.9 58.9,172.7 145.3,320.9 								"/>
								<polygon class="st20" points="145.3,320.9 75.1,200.5 82.7,136.7 156.1,320.9 								"/>
								<polygon class="st21" points="156.1,320.9 94.8,167.1 108.3,94.4 166.7,320.9 								"/>
								<polygon class="st22" points="166.7,320.9 126.7,165.5 148.1,88.5 176.1,320.9 								"/>
							</g>
							<rect x="221.6" y="210.5" class="st23" width="94.6" height="121.7"/>
							<rect x="325.3" y="202.3" class="st24" width="77.3" height="8.2"/>
							<rect x="316.2" y="210.5" class="st23" width="95.5" height="121.7"/>
							<rect x="316.2" y="210.5" class="st25" width="11.4" height="121.7"/>
							<rect x="400.3" y="210.5" class="st25" width="11.4" height="121.7"/>
							<g>
								<path class="st22" d="M364,252.2L364,252.2c14.2,0,25.8,11.6,25.8,25.8v54.3h-51.5V278C338.2,263.8,349.8,252.2,364,252.2z"
									/>
								<rect x="350.9" y="284" class="st26" width="26.1" height="48.2"/>
							</g>
							<path class="st27" d="M362.2,155.7c-21.9,4.5-37.6,24.1-36.9,46.6c14.5,0,27.4,0,38.7,0c11.3,0,24.2,0,38.7,0
								c0.7-22.5-15-42.1-36.9-46.6c0.4-0.6,0.6-1.4,0.6-2.4c0-1.9-1.1-3.5-2.4-3.5s-2.4,1.6-2.4,3.5
								C361.5,154.2,361.8,155,362.2,155.7z"/>
							<g>
								<rect x="304.9" y="210.5" class="st25" width="11.4" height="121.7"/>
								<rect x="221.6" y="210.5" class="st25" width="11.4" height="121.7"/>
							</g>
							<g>
								<path class="st22" d="M268.9,266.4L268.9,266.4c9.6,0,17.4,7.8,17.4,17.4v48.5h-34.7v-48.5
									C251.5,274.2,259.4,266.4,268.9,266.4z"/>
								<rect x="260.1" y="292.5" class="st26" width="17.6" height="39.7"/>
							</g>
							<g>
								<rect x="205.6" y="176.3" class="st23" width="16" height="155.9"/>
								<rect x="201.3" y="173.2" class="st22" width="24.7" height="3.1"/>
								<path class="st23" d="M213.6,155c-4.3,3.3-7.2,8.9-8,18.2h8h8C220.8,164,217.9,158.3,213.6,155z"/>
								<path class="st23" d="M214.3,135.8c3.5,0.6,6.2,5.8,6.2,12.1c0,6.7-3.1,12.2-6.9,12.2c-3.8,0-6.9-5.5-6.9-12.2
									c0-6.3,2.7-11.5,6.2-12.1v-10.1h1.3L214.3,135.8L214.3,135.8z"/>
							</g>
							<path class="st27" d="M267.5,166.3c-17.8,3.7-30.6,19.6-30,38c11.8,0,22.3,0,31.5,0s19.7,0,31.5,0c0.6-18.4-12.2-34.3-30-38
								c0.3-0.5,0.5-1.2,0.5-1.9c0-1.6-0.9-2.9-2-2.9s-2,1.3-2,2.9C267,165.1,267.1,165.8,267.5,166.3z"/>
							<rect x="237.3" y="204.3" class="st24" width="63.2" height="6.2"/>
							<g>
								<rect x="411.7" y="210.5" class="st23" width="94.6" height="121.7"/>
								<g>
									<rect x="411.7" y="210.5" class="st25" width="11.4" height="121.7"/>
									<rect x="495" y="210.5" class="st25" width="11.4" height="121.7"/>
								</g>
								<g>
									<path class="st22" d="M459,266.4L459,266.4c-9.6,0-17.4,7.8-17.4,17.4v48.5h34.7v-48.5C476.4,274.2,468.6,266.4,459,266.4z
										"/>
									<rect x="450.2" y="292.5" class="st26" width="17.6" height="39.7"/>
								</g>
								<g>
									<rect x="506.3" y="176.3" class="st23" width="16" height="155.9"/>
									<rect x="502" y="173.2" class="st22" width="24.7" height="3.1"/>
									<path class="st23" d="M514.3,155c4.3,3.3,7.2,8.9,8,18.2h-8h-8C507.1,164,510,158.3,514.3,155z"/>
									<path class="st23" d="M513.6,135.8c-3.5,0.6-6.2,5.8-6.2,12.1c0,6.7,3.1,12.2,6.9,12.2c3.8,0,6.9-5.5,6.9-12.2
										c0-6.3-2.7-11.5-6.2-12.1v-10.1h-1.4V135.8z"/>
								</g>
								<path class="st27" d="M460.5,166.3c17.8,3.7,30.6,19.6,30,38c-11.8,0-22.3,0-31.5,0s-19.7,0-31.5,0
									c-0.6-18.4,12.2-34.3,30-38c-0.3-0.5-0.5-1.2-0.5-1.9c0-1.6,0.9-2.9,2-2.9s2,1.3,2,2.9C461,165.1,460.8,165.8,460.5,166.3z"
									/>
								<rect x="427.4" y="204.3" class="st24" width="63.2" height="6.2"/>
							</g>
							<rect x="221.6" y="210.5" class="st22" width="284.7" height="6.1"/>
							<path class="st28" d="M588.1,287.7c-5.4-9.5-11.5-15.1-18.9-14.2c-7.4-1-13.5,4.7-18.9,14.2v5.5h11.1v-0.1h1.8v0.1h12.4v-0.1
								h1.8v0.1h10.5v-5.5H588.1z"/>
							<rect x="563.3" y="294.6" class="st28" width="12.4" height="4.4"/>
							<rect x="550.4" y="294.6" class="st28" width="11.1" height="4.4"/>
							<rect x="577.6" y="294.6" class="st28" width="10.5" height="4.4"/>
							<path class="st28" d="M588.1,300.4h-10.5v31.7h1.8V308c0-1.9,1.5-3.4,3.4-3.4s3.4,1.5,3.4,3.4v24.1h1.9L588.1,300.4
								L588.1,300.4z"/>
							<path class="st28" d="M575.7,332.1v-31.7h-12.4v31.7h1.9v-23.5c0-2.2,1.8-4,4-4s4,1.8,4,4v23.5H575.7z"/>
							<path class="st28" d="M561.5,332.1v-31.7h-11.1v31.7h2.4V308c0-1.9,1.5-3.4,3.4-3.4s3.4,1.5,3.4,3.4v24.1H561.5z"/>
							<path class="st28" d="M612.4,293.1h11.1V293h1.8v0.1h12.4V293h1.8v0.1H650v-5.5c-5.4-9.5-11.5-15.1-18.9-14.2
								c-7.4-1-13.5,4.7-18.9,14.2v5.5H612.4z"/>
							<rect x="625.4" y="294.6" class="st28" width="12.4" height="4.4"/>
							<rect x="612.4" y="294.6" class="st28" width="11.1" height="4.4"/>
							<rect x="639.6" y="294.6" class="st28" width="10.5" height="4.4"/>
							<path class="st28" d="M650.1,300.4h-10.5v31.7h1.8V308c0-1.9,1.5-3.4,3.4-3.4s3.4,1.5,3.4,3.4v24.1h1.9L650.1,300.4
								L650.1,300.4z"/>
							<path class="st28" d="M623.6,332.1v-31.7h-11.1v31.7h2.4V308c0-1.9,1.5-3.4,3.4-3.4s3.4,1.5,3.4,3.4v24.1H623.6z"/>
							<path class="st28" d="M627.3,308.6c0-2.2,1.8-4,4-4s4,1.8,4,4v23.5h2.5v-31.7h-12.4v31.7h1.9V308.6z"/>
							<path class="st28" d="M674.6,287.7v5.5h11.1v-0.1h1.8v0.1h12.4v-0.1h1.8v0.1h10.5v-5.5c-5.4-9.5-11.5-15.1-18.9-14.2
								C686,272.5,679.9,278.2,674.6,287.7z"/>
							<rect x="687.5" y="294.6" class="st28" width="12.4" height="4.4"/>
							<rect x="674.6" y="294.6" class="st28" width="11.1" height="4.4"/>
							<rect x="701.8" y="294.6" class="st28" width="10.5" height="4.4"/>
							<path class="st28" d="M712.3,300.4h-10.5v31.7h1.8V308c0-1.9,1.5-3.4,3.4-3.4s3.4,1.5,3.4,3.4v24.1h1.9L712.3,300.4
								L712.3,300.4z"/>
							<path class="st28" d="M699.9,332.1v-31.7h-12.4v31.7h1.9v-23.5c0-2.2,1.8-4,4-4s4,1.8,4,4v23.5H699.9z"/>
							<path class="st28" d="M685.7,332.1v-31.7h-11.1v31.7h2.4V308c0-1.9,1.5-3.4,3.4-3.4s3.4,1.5,3.4,3.4v24.1H685.7z"/>
							<path class="st28" d="M736.4,293.1h11.1V293h1.8v0.1h12.4V293h1.8v0.1H774v-5.5c-5.4-9.5-11.5-15.1-18.9-14.2
								c-7.4-1-13.5,4.7-18.9,14.2v5.5H736.4z"/>
							<rect x="749.4" y="294.6" class="st28" width="12.4" height="4.4"/>
							<rect x="763.6" y="294.6" class="st28" width="10.5" height="4.4"/>
							<path class="st28" d="M774.1,300.4h-10.5v31.7h1.8V308c0-1.9,1.5-3.4,3.4-3.4s3.4,1.5,3.4,3.4v24.1h1.9L774.1,300.4
								L774.1,300.4z"/>
							<path class="st28" d="M761.8,332.1v-31.7h-12.4v31.7h1.9v-23.5c0-2.2,1.8-4,4-4s4,1.8,4,4v23.5H761.8z"/>
							<path class="st28" d="M747.5,332.1v-31.7h-11.1v31.7h2.4V308c0-1.9,1.5-3.4,3.4-3.4s3.4,1.5,3.4,3.4v24.1H747.5z"/>
							<rect x="736.4" y="294.6" class="st28" width="11.1" height="4.4"/>
							<g class="st29">
								<g>
									<defs>
										<path id="SVGID_7_" d="M-103.3,335.6L-103.3,335.6v-3.8c0-0.3,0-0.6-0.1-0.9h0.1V335.6L-103.3,335.6z"/>
									</defs>
									<clipPath id="SVGID_8_">
										<use xlink:href="#SVGID_7_"  style="overflow:visible;"/>
									</clipPath>
									<g class="st30">
										
											<image style="overflow:visible;enable-background:new    ;" width="4" height="14" xlink:href="F2A89142.jpg"  transform="matrix(0.4609 0 0 0.4177 -104.0985 330.3631)">
										</image>
									</g>
								</g>
								<g>
									<path class="st31" d="M515.5,298.8c0-6.3,2.9-11.9,7.4-15.7c-7.5,3-12.9,10.3-12.9,19c0,11.3,9.1,20.4,20.4,20.4
										c4.9,0,9.5-1.8,13-4.7c-2.3,0.9-4.8,1.4-7.5,1.4C524.7,319.2,515.5,310,515.5,298.8z"/>
									<path class="st31" d="M550.8,302.1c0-11.3-9.1-20.4-20.4-20.4c-2.6,0-5.2,0.5-7.5,1.4c-4.5,3.7-7.4,9.4-7.4,15.7
										c0,11.3,9.1,20.4,20.4,20.4c2.6,0,5.2-0.5,7.5-1.4C547.9,314,550.8,308.4,550.8,302.1z"/>
									<path class="st32" d="M540.1,309c-0.3-0.2-0.7-0.2-1,0.1l-7.8,9v-16.9l4.2-6.3c0.2-0.3,0.1-0.7-0.2-1
										c-0.3-0.2-0.7-0.1-1,0.2l-3.1,4.6v-7.6c0-0.6-0.5-1-1-1c-0.6,0-1,0.5-1,1v15.5l-5.8-7.3c-0.2-0.3-0.7-0.4-1-0.1
										c-0.3,0.2-0.3,0.7-0.1,1l6.8,8.7v25.3c0,0.6,0.5,1,1,1c0.6,0,1-0.5,1-1v-14l8.8-10.2C540.4,309.7,540.4,309.3,540.1,309z"
										/>
									<g>
										<path class="st31" d="M548.1,299.5c-0.4,0-0.7-0.3-0.7-0.7c-0.7-5.2-3.3-9.1-8-11.8c-3.5-2-6.9-2.5-6.9-2.5
											c-0.4-0.1-0.7-0.4-0.6-0.9c0.1-0.4,0.4-0.7,0.9-0.6c0.1,0,3.7,0.5,7.4,2.7c5,2.9,8,7.4,8.7,13
											C548.9,299.1,548.6,299.5,548.1,299.5L548.1,299.5z"/>
									</g>
								</g>
								<path class="st33" d="M-14.2,332.1h825c3,0,5.5,2.5,5.5,5.5l0,0c0,3-2.5,5.5-5.5,5.5h-825c-3,0-5.5-2.5-5.5-5.5l0,0
									C-19.7,334.5-17.2,332.1-14.2,332.1z"/>
							</g>
						</g>
					</g>
				</g>
			</g>
		</g>
		<g id="Layer_2_3_">
		</g>
	</g>
</g>
</svg>
