<?xml version="1.0" encoding="utf-8"?>
<!-- Generator: Adobe Illustrator 22.1.0, SVG Export Plug-In . SVG Version: 6.00 Build 0)  -->
<svg version="1.1" xmlns="http://www.w3.org/2000/svg" xmlns:xlink="http://www.w3.org/1999/xlink" x="0px" y="0px"
	 viewBox="0 0 800 1200" style="enable-background:new 0 0 800 1200;" xml:space="preserve">
<style type="text/css">
	.st0{display:none;}
	.st1{display:inline;fill:url(#SVGID_1_);}
	.st2{display:inline;fill:#F7F6FB;}
	.st3{opacity:0.1;}
	.st4{clip-path:url(#SVGID_3_);fill:none;stroke:#BE1E2D;stroke-width:2;stroke-miterlimit:10;}
	.st5{clip-path:url(#SVGID_3_);fill:none;stroke:#0054A5;stroke-width:2;stroke-miterlimit:10;}
	.st6{opacity:0.51;clip-path:url(#SVGID_3_);fill:none;stroke:#FAAF40;stroke-width:2;stroke-miterlimit:10;}
	.st7{clip-path:url(#SVGID_3_);fill:none;stroke:#00ADEE;stroke-width:2;stroke-miterlimit:10;}
	.st8{clip-path:url(#SVGID_3_);fill:none;stroke:#8BC53F;stroke-width:2;stroke-miterlimit:10;}
</style>
<g id="Layer_1" class="st0">
	<linearGradient id="SVGID_1_" gradientUnits="userSpaceOnUse" x1="188.146" y1="923.8657" x2="630.1865" y2="248.1091">
		<stop  offset="0" style="stop-color:#000000"/>
		<stop  offset="1" style="stop-color:#FFFFFF"/>
	</linearGradient>
	<rect class="st1" width="800" height="1200"/>
</g>
<g id="Layer_1_copy" class="st0">
	<rect class="st2" width="800" height="1200"/>
</g>
<g id="Layer_2">
	<g class="st3">
		<g>
			<defs>
				<rect id="SVGID_2_" width="800" height="1200"/>
			</defs>
			<clipPath id="SVGID_3_">
				<use xlink:href="#SVGID_2_"  style="overflow:visible;"/>
			</clipPath>
			<path class="st4" d="M744.2,1057.4L635.3,948.5c-4.7-4.7-4.7-12.3,0-17l108.9-108.9c4.7-4.7,12.3-4.7,17,0L870,931.5
				c4.7,4.7,4.7,12.3,0,17l-108.9,108.9C756.5,1062,748.8,1062,744.2,1057.4z"/>
			<path class="st4" d="M23.4,788.8l-235-235c-4.7-4.7-4.7-12.3,0-17l235-235c4.7-4.7,12.3-4.7,17,0l235,235c4.7,4.7,4.7,12.3,0,17
				l-235,235C35.8,793.4,28.1,793.4,23.4,788.8z"/>
			<path class="st4" d="M469.5,674.2l-52.6-52.6c-4.7-4.7-4.7-12.3,0-17l52.6-52.6c4.7-4.7,12.3-4.7,17,0l52.6,52.6
				c4.7,4.7,4.7,12.3,0,17l-52.6,52.6C481.8,678.8,474.2,678.8,469.5,674.2z"/>
			<path class="st5" d="M675.2,1138.5L481.8,945.2c-4.7-4.7-4.7-12.3,0-17l193.4-193.4c4.7-4.7,12.3-4.7,17,0l193.4,193.4
				c4.7,4.7,4.7,12.3,0,17l-193.4,193.4C687.5,1143.2,679.8,1143.2,675.2,1138.5z"/>
			<path class="st6" d="M518.6,917.8l-80-80c-4.7-4.7-4.7-12.3,0-17l80-80c4.7-4.7,12.3-4.7,17,0l80,80c4.7,4.7,4.7,12.3,0,17
				l-80,80C530.9,922.4,523.2,922.4,518.6,917.8z"/>
			<path class="st6" d="M223.2,739.1l-80-80c-4.7-4.7-4.7-12.3,0-17l80-80c4.7-4.7,12.3-4.7,17,0l80,80c4.7,4.7,4.7,12.3,0,17
				l-80,80C235.6,743.8,227.9,743.8,223.2,739.1z"/>
			<path class="st7" d="M454.6,815.8l-24-24c-4.7-4.7-4.7-12.3,0-17l24-24c4.7-4.7,12.3-4.7,17,0l24,24c4.7,4.7,4.7,12.3,0,17
				l-24,24C466.9,820.4,459.2,820.4,454.6,815.8z"/>
			<path class="st7" d="M206.2,542.8l-52.4-52.4c-4.7-4.7-4.7-12.3,0-17l52.4-52.4c4.7-4.7,12.3-4.7,17,0l52.4,52.4
				c4.7,4.7,4.7,12.3,0,17l-52.4,52.4C218.5,547.5,210.8,547.5,206.2,542.8z"/>
			<path class="st8" d="M602.6,860.4l-51.3-51.3c-4.7-4.7-4.7-12.3,0-17l51.3-51.3c4.7-4.7,12.3-4.7,17,0l51.3,51.3
				c4.7,4.7,4.7,12.3,0,17l-51.3,51.3C614.9,865.1,607.2,865.1,602.6,860.4z"/>
			<path class="st8" d="M-18.2,727.2l-174-174c-4.7-4.7-4.7-12.3,0-17l174-174c4.7-4.7,12.3-4.7,17,0l174,174c4.7,4.7,4.7,12.3,0,17
				l-174,174C-5.8,731.8-13.5,731.8-18.2,727.2z"/>
			<path class="st8" d="M340.1,574.1l-37.7-37.7c-4.7-4.7-4.7-12.3,0-17l37.7-37.7c4.7-4.7,12.3-4.7,17,0l37.7,37.7
				c4.7,4.7,4.7,12.3,0,17L357,574.1C352.4,578.7,344.7,578.7,340.1,574.1z"/>
		</g>
	</g>
</g>
</svg>
