<?xml version="1.0" encoding="utf-8"?>
<!-- Generator: Adobe Illustrator 23.1.0, SVG Export Plug-In . SVG Version: 6.00 Build 0)  -->
<svg version="1.1" id="Layer_1" xmlns="http://www.w3.org/2000/svg" xmlns:xlink="http://www.w3.org/1999/xlink" x="0px" y="0px"
	 viewBox="0 0 254.94 100" style="enable-background:new 0 0 254.94 100;" xml:space="preserve">
<style type="text/css">
	.st0{clip-path:url(#SVGID_2_);}
	.st1{fill:none;stroke:#0054A6;stroke-width:0.75;stroke-miterlimit:10;}
	.st2{opacity:0.7;fill:none;stroke:#FFFFFF;stroke-width:0.75;stroke-miterlimit:10;}
	.st3{fill:none;stroke:#BE1E2D;stroke-width:0.75;stroke-miterlimit:10;}
	.st4{opacity:0.87;fill:none;stroke:#00AEEF;stroke-width:0.75;stroke-miterlimit:10;}
	.st5{opacity:0.5;fill:none;stroke:#FFC20E;stroke-width:0.75;stroke-miterlimit:10;}
	.st6{opacity:0.7;fill:none;stroke:#FFC20E;stroke-width:0.75;stroke-miterlimit:10;}
	.st7{fill:none;stroke:#8DC63F;stroke-width:0.75;stroke-miterlimit:10;}
	.st8{opacity:0.51;fill:none;stroke:#FBB040;stroke-width:0.75;stroke-miterlimit:10;}
	.st9{opacity:0.5;fill:none;stroke:#0054A6;stroke-width:0.75;stroke-miterlimit:10;}
	.st10{opacity:0.5;fill:none;stroke:#8DC63F;stroke-width:0.75;stroke-miterlimit:10;}
	.st11{opacity:0.47;fill:none;stroke:#FFC20E;stroke-width:0.75;stroke-miterlimit:10;}
	.st12{opacity:0.5;}
	.st13{opacity:0.5;fill:none;stroke:#CBDB2A;stroke-width:0.75;stroke-miterlimit:10;}
	.st14{opacity:0.65;fill:none;stroke:#00AEEF;stroke-width:0.75;stroke-miterlimit:10;}
	.st15{opacity:0.85;fill:none;stroke:#F7941D;stroke-width:0.75;stroke-miterlimit:10;}
	.st16{opacity:0.75;fill:none;stroke:#FFC20E;stroke-width:0.75;stroke-miterlimit:10;}
	.st17{opacity:0.7;fill:none;stroke:#70CDDD;stroke-width:0.75;stroke-miterlimit:10;}
	.st18{opacity:0.8;fill:none;stroke:#8DC63F;stroke-width:0.75;stroke-miterlimit:10;}
	.st19{opacity:0.35;fill:none;stroke:#BE1E2D;stroke-width:0.75;stroke-miterlimit:10;}
	.st20{opacity:0.47;fill:none;stroke:#70CDDD;stroke-width:0.75;stroke-miterlimit:10;}
	.st21{opacity:0.5;fill:none;stroke:#70CDDD;stroke-width:0.75;stroke-miterlimit:10;}
</style>
<g>
	<defs>
		<rect id="SVGID_1_" y="1.83" width="254.94" height="98.33"/>
	</defs>
	<clipPath id="SVGID_2_">
		<use xlink:href="#SVGID_1_"  style="overflow:visible;"/>
	</clipPath>
	<g class="st0">
		<path class="st1" d="M149.7,202.57c0.92-0.9,0.9-2.35-0.02-3.24l-44.37-42.03c-0.93-0.88-2.45-0.87-3.36,0.03l-43.57,42.8
			c-0.91,0.9-0.89,2.35,0.04,3.24l44.36,42.03c0.94,0.88,2.45,0.86,3.36-0.03L149.7,202.57z"/>
		<path class="st2" d="M171.74,157.46c0.92-0.9,0.91-2.35-0.02-3.23l-11.31-10.72c-0.93-0.88-2.44-0.87-3.36,0.04l-11.1,10.9
			c-0.92,0.9-0.9,2.36,0.03,3.24l11.32,10.71c0.93,0.88,2.45,0.86,3.36-0.03L171.74,157.46z"/>
		<path class="st3" d="M254.25,101.41c0.76-0.72,0.75-1.91,0.01-2.64l-54.22-52.29c-0.76-0.72-1.99-0.72-2.74,0l-54.21,52.29
			c-0.75,0.73-0.75,1.92,0,2.64l54.21,52.29c0.76,0.73,1.99,0.73,2.74,0L254.25,101.41z"/>
		<path class="st4" d="M198.93,111.8c0.75-0.73,1.98-0.73,2.74,0l23.97,23.12c0.75,0.73,0.76,1.92,0,2.64l-23.97,23.13
			c-0.76,0.72-1.99,0.72-2.75,0l-23.97-23.12c-0.75-0.73-0.75-1.92,0-2.65L198.93,111.8z"/>
		<path class="st5" d="M197.01,62.21c0.76-0.72,1.99-0.71,2.74,0.02l35.52,34.88c0.75,0.74,0.74,1.92-0.02,2.64l-36.18,34.26
			c-0.76,0.73-1.98,0.71-2.73-0.03L160.82,99.1c-0.75-0.73-0.72-1.92,0.03-2.63L197.01,62.21z"/>
		<path class="st4" d="M150.52,45.98c0.75-0.72,1.99-0.71,2.73,0.03l35.52,34.88c0.75,0.73,0.73,1.92-0.02,2.64l-36.18,34.26
			c-0.75,0.72-1.98,0.71-2.73-0.02l-35.52-34.88c-0.75-0.73-0.74-1.92,0.02-2.64L150.52,45.98z"/>
		<path class="st6" d="M184.73,67.9c0.76-0.72,1.99-0.7,2.74,0.02l9.05,8.9c0.75,0.73,0.74,1.92-0.02,2.64l-9.22,8.73
			c-0.75,0.72-1.99,0.71-2.73-0.03l-9.06-8.88c-0.75-0.74-0.74-1.92,0.02-2.64L184.73,67.9z"/>
		<path class="st7" d="M137.78,41.19c0.76-0.72,1.99-0.71,2.74,0.02l19.2,18.86c0.75,0.74,0.74,1.92-0.02,2.64l-19.56,18.53
			c-0.76,0.72-1.99,0.71-2.74-0.02L118.2,62.35c-0.74-0.73-0.73-1.92,0.03-2.64L137.78,41.19z"/>
		<path class="st8" d="M175.18,30.62c0.76-0.73,1.99-0.72,2.74,0l14.66,14.15c0.76,0.72,0.76,1.91,0,2.64l-14.66,14.14
			c-0.75,0.73-1.99,0.73-2.74,0L160.52,47.4c-0.75-0.72-0.75-1.91,0-2.63L175.18,30.62z"/>
		<path class="st1" d="M175.57,6.11c0.68-0.66,1.8-0.65,2.47,0.02l20.1,19.74c0.67,0.67,0.67,1.74-0.02,2.39l-20.47,19.39
			c-0.69,0.66-1.8,0.65-2.48-0.02l-20.1-19.74c-0.67-0.67-0.67-1.74,0.02-2.39L175.57,6.11z"/>
		<path class="st9" d="M165.74,8.93c0.69-0.64,1.81-0.64,2.49,0.03l4.48,4.41c0.68,0.66,0.67,1.74-0.02,2.39l-4.56,4.32
			c-0.69,0.65-1.81,0.65-2.48-0.02l-4.48-4.4c-0.68-0.67-0.67-1.74,0.02-2.4L165.74,8.93z"/>
		<path class="st10" d="M253.33,157.53c0.75-0.73,0.73-1.92-0.03-2.64l-36.17-34.26c-0.75-0.72-1.99-0.71-2.73,0.02l-35.52,34.88
			c-0.75,0.73-0.73,1.92,0.03,2.64l36.17,34.26c0.76,0.72,1.99,0.71,2.73-0.03L253.33,157.53z"/>
		<path class="st7" d="M212.91,37.53c0.74-0.73,0.74-1.91-0.01-2.64l-7.74-7.47c-0.76-0.72-1.99-0.72-2.75,0l-7.74,7.47
			c-0.76,0.73-0.76,1.91,0,2.64l7.74,7.48c0.76,0.72,1.99,0.72,2.75,0L212.91,37.53z"/>
		<path class="st3" d="M196.08,18.57c0.74-0.73,0.74-1.91-0.01-2.64l-7.74-7.47c-0.76-0.72-1.99-0.72-2.75,0l-7.74,7.47
			c-0.76,0.73-0.76,1.91,0,2.64l7.74,7.48c0.76,0.72,1.99,0.72,2.75,0L196.08,18.57z"/>
		<path class="st3" d="M25.49,70.15c0.75-0.73,0.75-1.91-0.01-2.64l-7.74-7.47c-0.76-0.72-1.99-0.72-2.75,0l-7.74,7.47
			c-0.76,0.73-0.76,1.91,0,2.64L15,77.63c0.76,0.72,1.99,0.72,2.75,0L25.49,70.15z"/>
		<path class="st11" d="M65.89,204.57c-0.94,0.89-2.45,0.87-3.36-0.03l-0.96-0.94c-0.91-0.9-0.9-2.35,0.03-3.23l0.97-0.92
			c0.93-0.88,2.45-0.87,3.36,0.03l0.95,0.93c0.91,0.9,0.9,2.36-0.03,3.25L65.89,204.57z"/>
		<g class="st12">
			<path class="st6" d="M223.14,199.72c0.92-0.89,0.92-2.35,0-3.24l-20.27-19.55c-0.92-0.89-2.44-0.89-3.36,0l-20.28,19.55
				c-0.92,0.89-0.92,2.35,0,3.24l20.28,19.56c0.92,0.89,2.44,0.89,3.36,0L223.14,199.72z"/>
		</g>
		<path class="st13" d="M120.72,143.33c0.93-0.9,0.93-2.35,0-3.24l-29.4-28.36c-0.92-0.89-2.44-0.89-3.36-0.01l-29.4,28.37
			c-0.93,0.89-0.92,2.36,0,3.24l29.4,28.36c0.92,0.89,2.43,0.89,3.36,0L120.72,143.33z"/>
		<path class="st7" d="M181.44,142.28c0.92-0.9,0.9-2.36-0.03-3.24l-44.36-42.02c-0.94-0.87-2.45-0.86-3.36,0.04l-43.57,42.79
			c-0.91,0.9-0.9,2.36,0.04,3.24l44.35,42.02c0.93,0.88,2.45,0.87,3.36-0.03L181.44,142.28z"/>
		<path class="st14" d="M199.62,197.94c0.91-0.9,0.9-2.36-0.04-3.24l-44.36-42.03c-0.94-0.88-2.45-0.87-3.36,0.03l-43.59,42.79
			c-0.9,0.89-0.9,2.36,0.04,3.24l44.36,42.03c0.94,0.88,2.44,0.87,3.36-0.03L199.62,197.94z"/>
		<path class="st7" d="M200.77,207.99c0.91-0.9,0.91-2.35-0.03-3.24l-23.98-22.73c-0.94-0.88-2.45-0.87-3.36,0.03l-23.57,23.14
			c-0.91,0.9-0.9,2.36,0.03,3.24l23.99,22.72c0.93,0.88,2.44,0.87,3.36-0.03L200.77,207.99z"/>
		<path class="st15" d="M103.24,78.98c0.94-0.89,2.44-0.87,3.36,0.03l43.57,42.78c0.92,0.9,0.9,2.35-0.03,3.23l-44.37,42.02
			c-0.93,0.89-2.44,0.87-3.36-0.03l-43.56-42.79c-0.92-0.9-0.9-2.36,0.03-3.23L103.24,78.98z"/>
		<path class="st8" d="M168.7,125.53c0.84-0.81,0.84-2.15,0-2.95l-60.79-58.53c-0.84-0.81-2.23-0.81-3.07,0l-60.69,58.63
			c-0.84,0.81-0.84,2.15,0,2.95l60.79,58.53c0.84,0.81,2.22,0.81,3.07,0L168.7,125.53z"/>
		<path class="st3" d="M88.52,41.17c0.75-0.72,1.98-0.71,2.72,0.02l22.01,21.62c0.75,0.73,0.73,1.91-0.02,2.62L90.82,86.68
			c-0.75,0.72-1.97,0.71-2.72-0.02L66.08,65.03c-0.74-0.73-0.73-1.91,0.03-2.63L88.52,41.17z"/>
		<path class="st4" d="M86.97,128.43c0.92-0.89,2.43-0.89,3.36,0l29.4,28.36c0.93,0.89,0.93,2.35,0,3.24l-29.4,28.37
			c-0.94,0.89-2.44,0.89-3.37,0l-29.4-28.37c-0.93-0.89-0.93-2.34,0-3.24L86.97,128.43z"/>
		<path class="st1" d="M45.19,56.39c0.93-0.88,2.45-0.87,3.36,0.03l43.57,42.78c0.91,0.9,0.9,2.36-0.03,3.24l-44.37,42.03
			c-0.93,0.88-2.43,0.86-3.36-0.03L0.79,101.66c-0.91-0.9-0.9-2.36,0.04-3.24L45.19,56.39z"/>
		<path class="st6" d="M86.69,84.29c0.94-0.88,2.45-0.87,3.36,0.03l11.1,10.9c0.91,0.9,0.9,2.36-0.03,3.24l-11.3,10.71
			c-0.93,0.88-2.45,0.86-3.36-0.03l-11.1-10.91c-0.91-0.89-0.9-2.35,0.03-3.23L86.69,84.29z"/>
		<path class="st16" d="M27.89,57.84c0.94-0.89,2.45-0.87,3.36,0.03L54.82,81c0.91,0.89,0.9,2.35-0.03,3.24l-23.99,22.72
			c-0.92,0.88-2.44,0.87-3.35-0.02L3.88,83.79c-0.92-0.9-0.9-2.36,0.03-3.25L27.89,57.84z"/>
		<path class="st7" d="M62.52,41.46c0.93-0.9,2.43-0.9,3.36,0l17.99,17.35c0.91,0.88,0.92,2.34,0,3.23L65.89,79.39
			c-0.93,0.89-2.45,0.89-3.37,0L44.54,62.04c-0.92-0.89-0.92-2.35,0.01-3.24L62.52,41.46z"/>
		<path class="st17" d="M114.83,40.17c0.93-0.88,2.45-0.86,3.36,0.03l6.07,5.97c0.92,0.89,0.91,2.35-0.03,3.23l-6.18,5.87
			c-0.93,0.88-2.43,0.86-3.35-0.04l-6.08-5.96c-0.91-0.91-0.9-2.37,0.04-3.24L114.83,40.17z"/>
		<path class="st4" d="M9.75,82.56c0.93-0.88,2.45-0.86,3.36,0.03l6.07,5.97c0.92,0.89,0.9,2.35-0.03,3.23l-6.19,5.86
			c-0.93,0.88-2.43,0.86-3.35-0.04l-6.08-5.96c-0.91-0.91-0.9-2.37,0.03-3.24L9.75,82.56z"/>
		<path class="st18" d="M35.3,75.23c0.93-0.88,2.45-0.86,3.36,0.03l6.07,5.97c0.92,0.89,0.9,2.35-0.03,3.23l-6.19,5.86
			c-0.93,0.88-2.43,0.86-3.35-0.04l-6.08-5.96c-0.91-0.91-0.9-2.37,0.03-3.24L35.3,75.23z"/>
		<path class="st4" d="M54.01,91.42c0.93-0.88,2.45-0.86,3.36,0.03l6.07,5.97c0.92,0.89,0.9,2.35-0.03,3.23l-6.19,5.86
			c-0.93,0.88-2.43,0.86-3.35-0.04l-6.08-5.96c-0.91-0.91-0.9-2.37,0.03-3.24L54.01,91.42z"/>
		<path class="st19" d="M117.09,182.61c0.92-0.88,0.92-2.34,0-3.23l-29.41-28.37c-0.93-0.9-2.43-0.9-3.36,0l-29.41,28.37
			c-0.92,0.89-0.92,2.35,0,3.23l29.41,28.37c0.92,0.89,2.43,0.89,3.36,0L117.09,182.61z"/>
		<path class="st20" d="M56.47,167.29c-0.92,0.9-0.9,2.36,0.03,3.25l0.97,0.92c0.93,0.88,2.45,0.86,3.36-0.03l0.96-0.94
			c0.91-0.9,0.9-2.36-0.03-3.24l-0.97-0.92c-0.93-0.88-2.45-0.87-3.36,0.03L56.47,167.29z"/>
		<path class="st21" d="M61.55,84.32c-0.92,0.9-0.9,2.36,0.03,3.25l0.97,0.92c0.93,0.88,2.45,0.86,3.36-0.03l0.96-0.94
			c0.91-0.9,0.9-2.36-0.03-3.24l-0.97-0.92c-0.93-0.88-2.45-0.87-3.36,0.03L61.55,84.32z"/>
		<path class="st20" d="M171.81,162.38c-0.92,0.9-0.9,2.36,0.03,3.25l0.97,0.92c0.93,0.88,2.45,0.86,3.36-0.03l0.96-0.94
			c0.91-0.9,0.9-2.36-0.03-3.24l-0.97-0.92c-0.93-0.88-2.45-0.87-3.36,0.03L171.81,162.38z"/>
		<path class="st1" d="M127.33,57.88c0.92-0.89,0.92-2.35,0-3.23l-9.5-9.17c-0.92-0.89-2.43-0.89-3.35,0l-9.51,9.17
			c-0.92,0.88-0.92,2.34,0,3.23l9.51,9.17c0.92,0.89,2.43,0.89,3.35,0L127.33,57.88z"/>
		<path class="st1" d="M211.44,161.76c0.75-0.73,0.74-1.92,0-2.64l-23.98-23.13c-0.75-0.72-1.99-0.72-2.74,0l-23.97,23.13
			c-0.76,0.72-0.76,1.91,0,2.63l23.97,23.13c0.75,0.72,1.99,0.73,2.74,0L211.44,161.76z"/>
		<path class="st18" d="M231.49,108.32c0.75-0.73,0.75-1.91,0-2.64l-23.97-23.11c-0.75-0.73-1.99-0.73-2.74-0.01l-23.98,23.12
			c-0.75,0.73-0.75,1.92,0.01,2.64l23.97,23.12c0.75,0.73,1.98,0.73,2.74,0L231.49,108.32z"/>
	</g>
</g>
</svg>
