<?xml version="1.0" encoding="utf-8"?>
<!-- Generator: Adobe Illustrator 23.1.0, SVG Export Plug-In . SVG Version: 6.00 Build 0)  -->
<svg version="1.1" id="Layer_1" xmlns="http://www.w3.org/2000/svg" xmlns:xlink="http://www.w3.org/1999/xlink" x="0px" y="0px"
	 viewBox="0 0 199.95 83.9" style="enable-background:new 0 0 199.95 83.9;" xml:space="preserve">
<style type="text/css">
	.st0{clip-path:url(#SVGID_2_);}
	.st1{fill:none;stroke:#0054A6;stroke-width:0.75;stroke-miterlimit:10;}
	.st2{opacity:0.7;fill:none;stroke:#FFFFFF;stroke-width:0.75;stroke-miterlimit:10;}
	.st3{fill:none;stroke:#BE1E2D;stroke-width:0.75;stroke-miterlimit:10;}
	.st4{opacity:0.87;fill:none;stroke:#00AEEF;stroke-width:0.75;stroke-miterlimit:10;}
	.st5{opacity:0.5;fill:none;stroke:#FFC20E;stroke-width:0.75;stroke-miterlimit:10;}
	.st6{opacity:0.7;fill:none;stroke:#FFC20E;stroke-width:0.75;stroke-miterlimit:10;}
	.st7{fill:none;stroke:#8DC63F;stroke-width:0.75;stroke-miterlimit:10;}
	.st8{opacity:0.51;fill:none;stroke:#FBB040;stroke-width:0.75;stroke-miterlimit:10;}
	.st9{opacity:0.5;fill:none;stroke:#0054A6;stroke-width:0.75;stroke-miterlimit:10;}
	.st10{opacity:0.5;fill:none;stroke:#8DC63F;stroke-width:0.75;stroke-miterlimit:10;}
	.st11{opacity:0.47;fill:none;stroke:#FFC20E;stroke-width:0.75;stroke-miterlimit:10;}
	.st12{opacity:0.5;}
	.st13{opacity:0.5;fill:none;stroke:#CBDB2A;stroke-width:0.75;stroke-miterlimit:10;}
	.st14{opacity:0.65;fill:none;stroke:#00AEEF;stroke-width:0.75;stroke-miterlimit:10;}
	.st15{opacity:0.85;fill:none;stroke:#F7941D;stroke-width:0.75;stroke-miterlimit:10;}
	.st16{opacity:0.75;fill:none;stroke:#FFC20E;stroke-width:0.75;stroke-miterlimit:10;}
	.st17{opacity:0.7;fill:none;stroke:#70CDDD;stroke-width:0.75;stroke-miterlimit:10;}
	.st18{opacity:0.8;fill:none;stroke:#8DC63F;stroke-width:0.75;stroke-miterlimit:10;}
	.st19{opacity:0.35;fill:none;stroke:#BE1E2D;stroke-width:0.75;stroke-miterlimit:10;}
	.st20{opacity:0.47;fill:none;stroke:#70CDDD;stroke-width:0.75;stroke-miterlimit:10;}
	.st21{opacity:0.5;fill:none;stroke:#70CDDD;stroke-width:0.75;stroke-miterlimit:10;}
	.st22{clip-path:url(#SVGID_4_);}
</style>
<g>
	<defs>
		<rect id="SVGID_1_" x="-156" y="6.9" width="200" height="77.14"/>
	</defs>
	<clipPath id="SVGID_2_">
		<use xlink:href="#SVGID_1_"  style="overflow:visible;"/>
	</clipPath>
	<g class="st0">
		<path class="st1" d="M-38.56,164.38c0.72-0.71,0.71-1.85-0.02-2.54l-34.81-32.97c-0.73-0.69-1.92-0.68-2.63,0.02l-34.18,33.57
			c-0.72,0.7-0.7,1.84,0.03,2.54l34.8,32.97c0.74,0.69,1.92,0.68,2.63-0.02L-38.56,164.38z"/>
		<path class="st2" d="M-21.28,128.99c0.72-0.7,0.71-1.85-0.02-2.54l-8.87-8.41c-0.73-0.69-1.91-0.68-2.64,0.03l-8.71,8.55
			c-0.72,0.7-0.71,1.85,0.02,2.54l8.88,8.4c0.73,0.69,1.92,0.68,2.63-0.02L-21.28,128.99z"/>
		<path class="st3" d="M43.46,85.03c0.6-0.56,0.59-1.5,0.01-2.07L0.93,41.94c-0.59-0.57-1.56-0.57-2.15,0l-42.53,41.02
			c-0.59,0.57-0.59,1.51,0,2.07l42.53,41.02c0.59,0.57,1.56,0.57,2.15,0L43.46,85.03z"/>
		<path class="st4" d="M0.05,93.17c0.59-0.57,1.55-0.57,2.15,0L21,111.31c0.59,0.57,0.6,1.5,0,2.07L2.2,131.52
			c-0.59,0.57-1.56,0.57-2.15,0l-18.81-18.13c-0.59-0.58-0.59-1.51,0-2.08L0.05,93.17z"/>
		<path class="st5" d="M-1.45,54.27c0.6-0.56,1.56-0.56,2.15,0.02l27.87,27.36c0.59,0.58,0.58,1.51-0.02,2.07L0.17,110.59
			c-0.6,0.57-1.56,0.56-2.14-0.02l-27.87-27.36c-0.59-0.57-0.57-1.5,0.02-2.07L-1.45,54.27z"/>
		<path class="st4" d="M-37.93,41.54c0.59-0.56,1.56-0.56,2.14,0.02l27.87,27.36c0.59,0.58,0.58,1.51-0.02,2.07l-28.38,26.87
			c-0.59,0.57-1.56,0.56-2.14-0.02l-27.87-27.36c-0.59-0.58-0.58-1.51,0.02-2.07L-37.93,41.54z"/>
		<path class="st6" d="M-11.08,58.73c0.6-0.56,1.56-0.55,2.15,0.02l7.1,6.98c0.59,0.57,0.58,1.51-0.02,2.07l-7.23,6.85
			c-0.59,0.56-1.56,0.56-2.14-0.02l-7.1-6.97c-0.59-0.58-0.58-1.51,0.02-2.07L-11.08,58.73z"/>
		<path class="st7" d="M-47.91,37.78c0.6-0.56,1.56-0.56,2.15,0.02l15.07,14.79c0.59,0.58,0.58,1.51-0.02,2.07L-46.06,69.2
			c-0.6,0.56-1.56,0.56-2.15-0.02l-15.07-14.8c-0.58-0.57-0.57-1.51,0.03-2.07L-47.91,37.78z"/>
		<path class="st8" d="M-18.58,29.48c0.6-0.57,1.56-0.57,2.15,0l11.5,11.1c0.6,0.57,0.6,1.5,0,2.07l-11.5,11.09
			c-0.59,0.57-1.56,0.57-2.15,0l-11.5-11.1c-0.59-0.56-0.59-1.5,0-2.07L-18.58,29.48z"/>
		<path class="st1" d="M-18.27,10.26c0.53-0.52,1.41-0.51,1.94,0.01l15.77,15.49c0.53,0.52,0.52,1.37-0.02,1.88l-16.06,15.21
			c-0.54,0.51-1.41,0.51-1.95-0.01l-15.77-15.49c-0.53-0.52-0.52-1.37,0.02-1.88L-18.27,10.26z"/>
		<path class="st9" d="M-25.99,12.47c0.54-0.5,1.42-0.5,1.95,0.02l3.52,3.46c0.53,0.52,0.52,1.37-0.02,1.88l-3.58,3.39
			c-0.54,0.51-1.42,0.51-1.95-0.02l-3.51-3.46c-0.53-0.53-0.53-1.37,0.01-1.88L-25.99,12.47z"/>
		<path class="st10" d="M42.73,129.05c0.59-0.57,0.57-1.5-0.02-2.07L14.33,100.1c-0.59-0.56-1.56-0.56-2.15,0.02l-27.87,27.37
			c-0.59,0.58-0.57,1.51,0.02,2.07l28.37,26.88c0.6,0.56,1.56,0.55,2.14-0.02L42.73,129.05z"/>
		<path class="st7" d="M11.02,34.91c0.58-0.57,0.58-1.5-0.01-2.07l-6.07-5.86c-0.59-0.57-1.56-0.57-2.15,0l-6.07,5.86
			c-0.59,0.57-0.59,1.5,0,2.07l6.07,5.86c0.59,0.57,1.56,0.57,2.15,0L11.02,34.91z"/>
		<path class="st3" d="M-2.18,20.04c0.58-0.57,0.58-1.5-0.01-2.07l-6.07-5.86c-0.59-0.57-1.56-0.57-2.15,0l-6.07,5.86
			c-0.59,0.57-0.59,1.5,0,2.07l6.07,5.86c0.59,0.57,1.56,0.57,2.15,0L-2.18,20.04z"/>
		<path class="st3" d="M-136.01,60.5c0.59-0.57,0.59-1.5-0.01-2.07l-6.07-5.86c-0.59-0.57-1.56-0.57-2.16,0l-6.07,5.86
			c-0.59,0.57-0.59,1.5,0,2.07l6.07,5.87c0.59,0.57,1.56,0.57,2.16,0L-136.01,60.5z"/>
		<path class="st11" d="M-104.31,165.95c-0.74,0.7-1.92,0.69-2.63-0.02l-0.75-0.74c-0.72-0.7-0.7-1.84,0.03-2.54l0.76-0.72
			c0.73-0.69,1.92-0.69,2.64,0.02l0.75,0.73c0.71,0.7,0.7,1.85-0.02,2.55L-104.31,165.95z"/>
		<g class="st12">
			<path class="st6" d="M19.05,162.14c0.72-0.7,0.72-1.84,0-2.54l-15.9-15.34c-0.72-0.7-1.91-0.7-2.63,0L-15.4,159.6
				c-0.72,0.7-0.72,1.85,0,2.54l15.91,15.34c0.72,0.7,1.91,0.7,2.63,0L19.05,162.14z"/>
		</g>
		<path class="st13" d="M-61.3,117.91c0.73-0.7,0.73-1.84,0-2.54l-23.06-22.25c-0.72-0.7-1.92-0.7-2.64-0.01l-23.07,22.25
			c-0.73,0.7-0.72,1.85,0,2.54L-87,140.15c0.72,0.7,1.91,0.7,2.64,0L-61.3,117.91z"/>
		<path class="st7" d="M-13.67,117.08c0.72-0.71,0.7-1.85-0.02-2.55l-34.8-32.97c-0.73-0.68-1.92-0.68-2.63,0.03l-34.18,33.57
			c-0.71,0.71-0.7,1.85,0.03,2.54l34.79,32.97c0.73,0.69,1.92,0.69,2.64-0.02L-13.67,117.08z"/>
		<path class="st14" d="M0.59,160.75c0.72-0.71,0.7-1.85-0.03-2.54l-34.8-32.97c-0.74-0.69-1.92-0.68-2.63,0.03l-34.19,33.57
			c-0.71,0.7-0.7,1.85,0.03,2.54l34.8,32.97c0.74,0.69,1.92,0.68,2.64-0.02L0.59,160.75z"/>
		<path class="st7" d="M1.5,168.64c0.72-0.71,0.71-1.85-0.02-2.54l-18.81-17.83c-0.74-0.69-1.92-0.69-2.63,0.02l-18.49,18.15
			c-0.71,0.71-0.7,1.85,0.03,2.54l18.82,17.82c0.73,0.69,1.92,0.68,2.63-0.03L1.5,168.64z"/>
		<path class="st15" d="M-75.01,67.43c0.74-0.7,1.92-0.68,2.63,0.03l34.18,33.56c0.72,0.7,0.71,1.85-0.02,2.54l-34.8,32.97
			c-0.73,0.7-1.91,0.68-2.64-0.02l-34.17-33.57c-0.72-0.71-0.71-1.85,0.02-2.54L-75.01,67.43z"/>
		<path class="st8" d="M-23.66,103.95c0.66-0.63,0.66-1.68,0-2.32l-47.69-45.91c-0.66-0.64-1.75-0.63-2.4,0l-47.61,46
			c-0.66,0.63-0.66,1.69,0,2.32l47.69,45.92c0.66,0.63,1.74,0.63,2.4,0L-23.66,103.95z"/>
		<path class="st3" d="M-86.56,37.77c0.59-0.56,1.55-0.56,2.13,0.02l17.27,16.96c0.59,0.57,0.58,1.5-0.02,2.05l-17.59,16.66
			c-0.59,0.56-1.55,0.55-2.13-0.02l-17.27-16.96c-0.58-0.57-0.57-1.5,0.02-2.06L-86.56,37.77z"/>
		<path class="st4" d="M-87.77,106.22c0.72-0.7,1.9-0.7,2.64,0l23.06,22.25c0.73,0.7,0.73,1.85,0,2.54l-23.06,22.26
			c-0.73,0.7-1.91,0.7-2.64,0l-23.06-22.26c-0.73-0.7-0.73-1.84,0-2.54L-87.77,106.22z"/>
		<path class="st1" d="M-120.56,49.71c0.73-0.69,1.92-0.68,2.63,0.02l34.18,33.56c0.72,0.71,0.71,1.85-0.02,2.54l-34.81,32.97
			c-0.73,0.69-1.91,0.68-2.63-0.03l-34.18-33.56c-0.71-0.7-0.71-1.85,0.03-2.54L-120.56,49.71z"/>
		<path class="st6" d="M-88,71.59c0.74-0.69,1.92-0.68,2.64,0.02l8.71,8.55c0.72,0.71,0.7,1.85-0.02,2.54l-8.87,8.4
			c-0.73,0.69-1.92,0.68-2.64-0.03l-8.71-8.56c-0.72-0.7-0.7-1.84,0.03-2.53L-88,71.59z"/>
		<path class="st16" d="M-134.12,50.84c0.74-0.69,1.92-0.68,2.63,0.02L-113,69.01c0.72,0.7,0.71,1.84-0.03,2.54l-18.82,17.82
			c-0.72,0.69-1.91,0.69-2.63-0.02l-18.48-18.15c-0.72-0.7-0.7-1.85,0.02-2.55L-134.12,50.84z"/>
		<path class="st7" d="M-106.95,37.99c0.73-0.7,1.91-0.7,2.63,0l14.11,13.61c0.72,0.69,0.72,1.84,0,2.54l-14.11,13.61
			c-0.73,0.7-1.92,0.7-2.64,0l-14.11-13.61c-0.72-0.7-0.72-1.84,0.01-2.54L-106.95,37.99z"/>
		<path class="st17" d="M-65.92,36.98c0.73-0.69,1.92-0.68,2.64,0.02l4.76,4.68c0.72,0.7,0.71,1.84-0.02,2.54l-4.85,4.6
			c-0.73,0.69-1.91,0.68-2.63-0.03l-4.77-4.68c-0.72-0.71-0.71-1.86,0.03-2.55L-65.92,36.98z"/>
		<path class="st4" d="M-148.35,70.24c0.73-0.69,1.92-0.68,2.64,0.02l4.76,4.69c0.72,0.7,0.71,1.84-0.02,2.54l-4.85,4.6
			c-0.73,0.69-1.91,0.68-2.63-0.03l-4.77-4.67c-0.72-0.71-0.71-1.86,0.03-2.55L-148.35,70.24z"/>
		<path class="st18" d="M-128.31,64.48c0.73-0.69,1.92-0.68,2.64,0.02l4.76,4.69c0.72,0.7,0.71,1.84-0.02,2.54l-4.85,4.6
			c-0.73,0.69-1.91,0.68-2.63-0.03l-4.77-4.67c-0.72-0.71-0.71-1.86,0.03-2.55L-128.31,64.48z"/>
		<path class="st4" d="M-113.63,77.18c0.73-0.69,1.92-0.68,2.64,0.02l4.76,4.69c0.72,0.7,0.71,1.84-0.02,2.54l-4.85,4.6
			c-0.73,0.69-1.91,0.68-2.63-0.03l-4.77-4.67c-0.72-0.71-0.71-1.86,0.03-2.55L-113.63,77.18z"/>
		<path class="st19" d="M-64.15,148.73c0.72-0.69,0.72-1.84,0-2.54l-23.07-22.25c-0.73-0.7-1.91-0.7-2.63,0l-23.07,22.25
			c-0.72,0.7-0.72,1.85,0,2.54l23.07,22.25c0.72,0.7,1.91,0.7,2.63,0L-64.15,148.73z"/>
		<path class="st20" d="M-111.7,136.71c-0.72,0.71-0.7,1.85,0.02,2.55l0.76,0.72c0.73,0.69,1.92,0.68,2.63-0.02l0.75-0.73
			c0.72-0.71,0.71-1.85-0.03-2.54l-0.76-0.72c-0.73-0.69-1.92-0.68-2.64,0.02L-111.7,136.71z"/>
		<path class="st21" d="M-107.72,71.61c-0.72,0.71-0.7,1.85,0.02,2.55l0.76,0.72c0.73,0.69,1.92,0.68,2.63-0.02l0.75-0.73
			c0.72-0.71,0.71-1.85-0.03-2.54l-0.76-0.72c-0.73-0.69-1.92-0.68-2.64,0.02L-107.72,71.61z"/>
		<path class="st20" d="M-21.22,132.85c-0.72,0.71-0.7,1.85,0.02,2.55l0.76,0.72c0.73,0.69,1.92,0.68,2.63-0.02l0.75-0.73
			c0.72-0.71,0.71-1.85-0.03-2.54l-0.76-0.72c-0.73-0.69-1.92-0.68-2.64,0.02L-21.22,132.85z"/>
		<path class="st1" d="M-56.11,50.87c0.72-0.7,0.72-1.84,0-2.54l-7.45-7.19c-0.72-0.7-1.91-0.7-2.63,0l-7.46,7.19
			c-0.72,0.69-0.72,1.84,0,2.54l7.46,7.19c0.72,0.7,1.91,0.7,2.63,0L-56.11,50.87z"/>
		<path class="st1" d="M9.87,132.36c0.59-0.57,0.58-1.5,0-2.07l-18.81-18.14c-0.59-0.57-1.56-0.57-2.15,0l-18.81,18.14
			c-0.6,0.57-0.6,1.5,0,2.06l18.81,18.14c0.59,0.57,1.56,0.57,2.15,0L9.87,132.36z"/>
		<path class="st18" d="M25.6,90.44c0.59-0.57,0.59-1.5,0-2.07L6.8,70.24c-0.59-0.57-1.56-0.57-2.15-0.01l-18.81,18.14
			c-0.59,0.57-0.59,1.5,0.01,2.07l18.81,18.14c0.59,0.57,1.55,0.57,2.15,0L25.6,90.44z"/>
	</g>
</g>
<g>
	<defs>
		<rect id="SVGID_3_" x="44" y="6.9" width="200" height="77.14"/>
	</defs>
	<clipPath id="SVGID_4_">
		<use xlink:href="#SVGID_3_"  style="overflow:visible;"/>
	</clipPath>
	<g class="st22">
		<path class="st1" d="M161.44,164.38c0.72-0.71,0.71-1.85-0.02-2.54l-34.81-32.97c-0.73-0.69-1.92-0.68-2.63,0.02L89.8,162.47
			c-0.72,0.7-0.7,1.84,0.03,2.54l34.8,32.97c0.74,0.69,1.92,0.68,2.63-0.02L161.44,164.38z"/>
		<path class="st2" d="M178.72,128.99c0.72-0.7,0.71-1.85-0.02-2.54l-8.87-8.41c-0.73-0.69-1.91-0.68-2.64,0.03l-8.71,8.55
			c-0.72,0.7-0.71,1.85,0.02,2.54l8.88,8.4c0.73,0.69,1.92,0.68,2.63-0.02L178.72,128.99z"/>
		<path class="st3" d="M243.46,85.03c0.6-0.56,0.59-1.5,0.01-2.07l-42.53-41.02c-0.59-0.57-1.56-0.57-2.15,0l-42.53,41.02
			c-0.59,0.57-0.59,1.51,0,2.07l42.53,41.02c0.59,0.57,1.56,0.57,2.15,0L243.46,85.03z"/>
		<path class="st4" d="M200.05,93.17c0.59-0.57,1.55-0.57,2.15,0L221,111.31c0.59,0.57,0.6,1.5,0,2.07l-18.81,18.14
			c-0.59,0.57-1.56,0.57-2.15,0l-18.81-18.13c-0.59-0.58-0.59-1.51,0-2.08L200.05,93.17z"/>
		<path class="st5" d="M198.55,54.27c0.6-0.56,1.56-0.56,2.15,0.02l27.87,27.36c0.59,0.58,0.58,1.51-0.02,2.07l-28.38,26.88
			c-0.6,0.57-1.56,0.56-2.14-0.02l-27.87-27.36c-0.59-0.57-0.57-1.5,0.02-2.07L198.55,54.27z"/>
		<path class="st4" d="M162.07,41.54c0.59-0.56,1.56-0.56,2.14,0.02l27.87,27.36c0.59,0.58,0.58,1.51-0.02,2.07l-28.38,26.87
			c-0.59,0.57-1.56,0.56-2.14-0.02l-27.87-27.36c-0.59-0.58-0.58-1.51,0.02-2.07L162.07,41.54z"/>
		<path class="st6" d="M188.92,58.73c0.6-0.56,1.56-0.55,2.15,0.02l7.1,6.98c0.59,0.57,0.58,1.51-0.02,2.07l-7.23,6.85
			c-0.59,0.56-1.56,0.56-2.14-0.02l-7.1-6.97c-0.59-0.58-0.58-1.51,0.02-2.07L188.92,58.73z"/>
		<path class="st7" d="M152.09,37.78c0.6-0.56,1.56-0.56,2.15,0.02l15.07,14.79c0.59,0.58,0.58,1.51-0.02,2.07L153.94,69.2
			c-0.6,0.56-1.56,0.56-2.15-0.02l-15.07-14.8c-0.58-0.57-0.57-1.51,0.03-2.07L152.09,37.78z"/>
		<path class="st8" d="M181.42,29.48c0.6-0.57,1.56-0.57,2.15,0l11.5,11.1c0.6,0.57,0.6,1.5,0,2.07l-11.5,11.09
			c-0.59,0.57-1.56,0.57-2.15,0l-11.5-11.1c-0.59-0.56-0.59-1.5,0-2.07L181.42,29.48z"/>
		<path class="st1" d="M181.73,10.26c0.53-0.52,1.41-0.51,1.94,0.01l15.77,15.49c0.53,0.52,0.52,1.37-0.02,1.88l-16.06,15.21
			c-0.54,0.51-1.41,0.51-1.95-0.01l-15.77-15.49c-0.53-0.52-0.52-1.37,0.02-1.88L181.73,10.26z"/>
		<path class="st9" d="M174.01,12.47c0.54-0.5,1.42-0.5,1.95,0.02l3.52,3.46c0.53,0.52,0.52,1.37-0.02,1.88l-3.58,3.39
			c-0.54,0.51-1.42,0.51-1.95-0.02l-3.51-3.46c-0.53-0.53-0.53-1.37,0.01-1.88L174.01,12.47z"/>
		<path class="st10" d="M242.73,129.05c0.59-0.57,0.57-1.5-0.02-2.07l-28.38-26.88c-0.59-0.56-1.56-0.56-2.15,0.02l-27.87,27.37
			c-0.59,0.58-0.57,1.51,0.02,2.07l28.37,26.88c0.6,0.56,1.56,0.55,2.14-0.02L242.73,129.05z"/>
		<path class="st7" d="M211.02,34.91c0.58-0.57,0.58-1.5-0.01-2.07l-6.07-5.86c-0.59-0.57-1.56-0.57-2.15,0l-6.07,5.86
			c-0.59,0.57-0.59,1.5,0,2.07l6.07,5.86c0.59,0.57,1.56,0.57,2.15,0L211.02,34.91z"/>
		<path class="st3" d="M197.82,20.04c0.58-0.57,0.58-1.5-0.01-2.07l-6.07-5.86c-0.59-0.57-1.56-0.57-2.15,0l-6.07,5.86
			c-0.59,0.57-0.59,1.5,0,2.07l6.07,5.86c0.59,0.57,1.56,0.57,2.15,0L197.82,20.04z"/>
		<path class="st3" d="M63.99,60.5c0.59-0.57,0.59-1.5-0.01-2.07l-6.07-5.86c-0.59-0.57-1.56-0.57-2.16,0l-6.07,5.86
			c-0.59,0.57-0.59,1.5,0,2.07l6.07,5.87c0.59,0.57,1.56,0.57,2.16,0L63.99,60.5z"/>
		<path class="st11" d="M95.69,165.95c-0.74,0.7-1.92,0.69-2.63-0.02l-0.75-0.74c-0.72-0.7-0.7-1.84,0.03-2.54l0.76-0.72
			c0.73-0.69,1.92-0.69,2.64,0.02l0.75,0.73c0.71,0.7,0.7,1.85-0.02,2.55L95.69,165.95z"/>
		<g class="st12">
			<path class="st6" d="M219.05,162.14c0.72-0.7,0.72-1.84,0-2.54l-15.9-15.34c-0.72-0.7-1.91-0.7-2.63,0L184.6,159.6
				c-0.72,0.7-0.72,1.85,0,2.54l15.91,15.34c0.72,0.7,1.91,0.7,2.63,0L219.05,162.14z"/>
		</g>
		<path class="st13" d="M138.7,117.91c0.73-0.7,0.73-1.84,0-2.54l-23.06-22.25c-0.72-0.7-1.92-0.7-2.64-0.01l-23.07,22.25
			c-0.73,0.7-0.72,1.85,0,2.54L113,140.15c0.72,0.7,1.91,0.7,2.64,0L138.7,117.91z"/>
		<path class="st7" d="M186.33,117.08c0.72-0.71,0.7-1.85-0.02-2.55l-34.8-32.97c-0.73-0.68-1.92-0.68-2.63,0.03l-34.18,33.57
			c-0.71,0.71-0.7,1.85,0.03,2.54l34.79,32.97c0.73,0.69,1.92,0.69,2.64-0.02L186.33,117.08z"/>
		<path class="st14" d="M200.59,160.75c0.72-0.71,0.7-1.85-0.03-2.54l-34.8-32.97c-0.74-0.69-1.92-0.68-2.63,0.03l-34.19,33.57
			c-0.71,0.7-0.7,1.85,0.03,2.54l34.8,32.97c0.74,0.69,1.92,0.68,2.64-0.02L200.59,160.75z"/>
		<path class="st7" d="M201.5,168.64c0.72-0.71,0.71-1.85-0.02-2.54l-18.81-17.83c-0.74-0.69-1.92-0.69-2.63,0.02l-18.49,18.15
			c-0.71,0.71-0.7,1.85,0.03,2.54l18.82,17.82c0.73,0.69,1.92,0.68,2.63-0.03L201.5,168.64z"/>
		<path class="st15" d="M124.99,67.43c0.74-0.7,1.92-0.68,2.63,0.03l34.18,33.56c0.72,0.7,0.71,1.85-0.02,2.54l-34.8,32.97
			c-0.73,0.7-1.91,0.68-2.64-0.02l-34.17-33.57c-0.72-0.71-0.71-1.85,0.02-2.54L124.99,67.43z"/>
		<path class="st8" d="M176.34,103.95c0.66-0.63,0.66-1.68,0-2.32l-47.69-45.91c-0.66-0.64-1.75-0.63-2.4,0l-47.61,46
			c-0.66,0.63-0.66,1.69,0,2.32l47.69,45.92c0.66,0.63,1.74,0.63,2.4,0L176.34,103.95z"/>
		<path class="st3" d="M113.44,37.77c0.59-0.56,1.55-0.56,2.13,0.02l17.27,16.96c0.59,0.57,0.58,1.5-0.02,2.05l-17.59,16.66
			c-0.59,0.56-1.55,0.55-2.13-0.02L95.83,56.48c-0.58-0.57-0.57-1.5,0.02-2.06L113.44,37.77z"/>
		<path class="st4" d="M112.23,106.22c0.72-0.7,1.9-0.7,2.64,0l23.06,22.25c0.73,0.7,0.73,1.85,0,2.54l-23.06,22.26
			c-0.73,0.7-1.91,0.7-2.64,0l-23.06-22.26c-0.73-0.7-0.73-1.84,0-2.54L112.23,106.22z"/>
		<path class="st1" d="M79.44,49.71c0.73-0.69,1.92-0.68,2.63,0.02l34.18,33.56c0.72,0.71,0.71,1.85-0.02,2.54l-34.81,32.97
			c-0.73,0.69-1.91,0.68-2.63-0.03L44.62,85.22c-0.71-0.7-0.71-1.85,0.03-2.54L79.44,49.71z"/>
		<path class="st6" d="M112,71.59c0.74-0.69,1.92-0.68,2.64,0.02l8.71,8.55c0.72,0.71,0.7,1.85-0.02,2.54l-8.87,8.4
			c-0.73,0.69-1.92,0.68-2.64-0.03l-8.71-8.56c-0.72-0.7-0.7-1.84,0.03-2.53L112,71.59z"/>
		<path class="st16" d="M65.88,50.84c0.74-0.69,1.92-0.68,2.63,0.02L87,69.01c0.72,0.7,0.71,1.84-0.03,2.54L68.15,89.37
			c-0.72,0.69-1.91,0.69-2.63-0.02L47.04,71.2c-0.72-0.7-0.7-1.85,0.02-2.55L65.88,50.84z"/>
		<path class="st7" d="M93.05,37.99c0.73-0.7,1.91-0.7,2.63,0l14.11,13.61c0.72,0.69,0.72,1.84,0,2.54L95.69,67.75
			c-0.73,0.7-1.92,0.7-2.64,0L78.94,54.14c-0.72-0.7-0.72-1.84,0.01-2.54L93.05,37.99z"/>
		<path class="st17" d="M134.08,36.98c0.73-0.69,1.92-0.68,2.64,0.02l4.76,4.68c0.72,0.7,0.71,1.84-0.02,2.54l-4.85,4.6
			c-0.73,0.69-1.91,0.68-2.63-0.03l-4.77-4.68c-0.72-0.71-0.71-1.86,0.03-2.55L134.08,36.98z"/>
		<path class="st4" d="M51.65,70.24c0.73-0.69,1.92-0.68,2.64,0.02l4.76,4.69c0.72,0.7,0.71,1.84-0.02,2.54l-4.85,4.6
			c-0.73,0.69-1.91,0.68-2.63-0.03l-4.77-4.67c-0.72-0.71-0.71-1.86,0.03-2.55L51.65,70.24z"/>
		<path class="st18" d="M71.69,64.48c0.73-0.69,1.92-0.68,2.64,0.02l4.76,4.69c0.72,0.7,0.71,1.84-0.02,2.54l-4.85,4.6
			c-0.73,0.69-1.91,0.68-2.63-0.03l-4.77-4.67c-0.72-0.71-0.71-1.86,0.03-2.55L71.69,64.48z"/>
		<path class="st4" d="M86.37,77.18c0.73-0.69,1.92-0.68,2.64,0.02l4.76,4.69c0.72,0.7,0.71,1.84-0.02,2.54l-4.85,4.6
			c-0.73,0.69-1.91,0.68-2.63-0.03l-4.77-4.67c-0.72-0.71-0.71-1.86,0.03-2.55L86.37,77.18z"/>
		<path class="st19" d="M135.85,148.73c0.72-0.69,0.72-1.84,0-2.54l-23.07-22.25c-0.73-0.7-1.91-0.7-2.63,0l-23.07,22.25
			c-0.72,0.7-0.72,1.85,0,2.54l23.07,22.25c0.72,0.7,1.91,0.7,2.63,0L135.85,148.73z"/>
		<path class="st20" d="M88.3,136.71c-0.72,0.71-0.7,1.85,0.02,2.55l0.76,0.72c0.73,0.69,1.92,0.68,2.63-0.02l0.75-0.73
			c0.72-0.71,0.71-1.85-0.03-2.54l-0.76-0.72c-0.73-0.69-1.92-0.68-2.64,0.02L88.3,136.71z"/>
		<path class="st21" d="M92.28,71.61c-0.72,0.71-0.7,1.85,0.02,2.55l0.76,0.72c0.73,0.69,1.92,0.68,2.63-0.02l0.75-0.73
			c0.72-0.71,0.71-1.85-0.03-2.54l-0.76-0.72c-0.73-0.69-1.92-0.68-2.64,0.02L92.28,71.61z"/>
		<path class="st20" d="M178.78,132.85c-0.72,0.71-0.7,1.85,0.02,2.55l0.76,0.72c0.73,0.69,1.92,0.68,2.63-0.02l0.75-0.73
			c0.72-0.71,0.71-1.85-0.03-2.54l-0.76-0.72c-0.73-0.69-1.92-0.68-2.64,0.02L178.78,132.85z"/>
		<path class="st1" d="M143.89,50.87c0.72-0.7,0.72-1.84,0-2.54l-7.45-7.19c-0.72-0.7-1.91-0.7-2.63,0l-7.46,7.19
			c-0.72,0.69-0.72,1.84,0,2.54l7.46,7.19c0.72,0.7,1.91,0.7,2.63,0L143.89,50.87z"/>
		<path class="st1" d="M209.87,132.36c0.59-0.57,0.58-1.5,0-2.07l-18.81-18.14c-0.59-0.57-1.56-0.57-2.15,0l-18.81,18.14
			c-0.6,0.57-0.6,1.5,0,2.06l18.81,18.14c0.59,0.57,1.56,0.57,2.15,0L209.87,132.36z"/>
		<path class="st18" d="M225.6,90.44c0.59-0.57,0.59-1.5,0-2.07L206.8,70.24c-0.59-0.57-1.56-0.57-2.15-0.01l-18.81,18.14
			c-0.59,0.57-0.59,1.5,0.01,2.07l18.81,18.14c0.59,0.57,1.55,0.57,2.15,0L225.6,90.44z"/>
	</g>
</g>
</svg>
