<?xml version="1.0" encoding="utf-8"?>
<!-- Generator: Adobe Illustrator 22.1.0, SVG Export Plug-In . SVG Version: 6.00 Build 0)  -->
<svg version="1.1" id="Layer_1" xmlns="http://www.w3.org/2000/svg" xmlns:xlink="http://www.w3.org/1999/xlink" x="0px" y="0px"
	 viewBox="0 0 216 1080" style="enable-background:new 0 0 216 1080;" xml:space="preserve">
<style type="text/css">
	.st0{display:none;}
	.st1{display:inline;fill:#EFEFEF;stroke:#000000;stroke-miterlimit:10;}
	.st2{fill:#0092DB;}
	.st3{fill:#E8AC00;}
	.st4{clip-path:url(#SVGID_2_);fill:#0092DB;}
	.st5{clip-path:url(#SVGID_4_);fill:#0092DB;}
	.st6{clip-path:url(#SVGID_6_);fill:#0092DB;}
	.st7{clip-path:url(#SVGID_8_);fill:#E8AC00;}
	.st8{fill:none;stroke:#E8AC00;stroke-width:2;stroke-linecap:round;stroke-miterlimit:10;}
	.st9{clip-path:url(#SVGID_10_);}
	.st10{fill:#0069B4;}
	.st11{fill:none;stroke:#0092DB;stroke-width:1.3;stroke-miterlimit:10;}
	.st12{fill:none;stroke:#E8AC00;stroke-miterlimit:10;}
	.st13{fill:#D61D11;}
	.st14{fill:#E7971F;}
	.st15{fill:#1F1F1F;}
	.st16{fill:#FFFFFF;}
	.st17{fill:#FFCC3B;}
	.st18{fill:#BC8526;}
	.st19{enable-background:new    ;}
	.st20{fill:#005BAC;}
	.st21{fill:#F6AC1D;}
	.st22{fill:#5CB85C;}
</style>
<g id="Layer_2_1_" class="st0">
	<rect class="st1" width="216" height="1080"/>
</g>
<title>icon_home</title>
<g>
	<g>
		<path class="st2" d="M49.1,41.2c1.1-0.7,1.8-2,1.8-3.4c0-2.3-1.8-4.1-4.1-4.1s-4.1,1.8-4.1,4.1c0,1.4,0.7,2.6,1.8,3.4
			c-0.9,0.3-1.7,0.8-2.4,1.4c-1-0.8-2.1-1.4-3.3-1.8c1.5-0.9,2.5-2.6,2.5-4.5c0-2.9-2.3-5.2-5.2-5.2s-5.2,2.3-5.2,5.2
			c0,1.9,1,3.5,2.5,4.5c-1.2,0.4-2.3,1-3.3,1.8c-0.7-0.6-1.5-1.1-2.4-1.4c1.1-0.7,1.8-2,1.8-3.4c0-2.3-1.8-4.1-4.1-4.1
			s-4.1,1.8-4.1,4.1c0,1.4,0.7,2.6,1.8,3.4C20,42.2,18,44.9,18,48v0.5l0,0h8.7c0,0.4-0.1,0.8-0.1,1.2v0.5c0,2.1,1.7,3.8,3.8,3.8h11
			c2.1,0,3.8-1.7,3.8-3.8v-0.5c0-0.4,0-0.8-0.1-1.2H54l0,0V48C54,44.9,52,42.2,49.1,41.2z M43.8,37.8c0-1.6,1.3-3,3-3s3,1.3,3,3
			c0,1.6-1.3,2.9-2.9,3c0,0,0,0-0.1,0c0,0,0,0-0.1,0C45.1,40.8,43.8,39.5,43.8,37.8z M31.9,36.3c0-2.2,1.8-4.1,4.1-4.1
			s4.1,1.8,4.1,4.1c0,2.2-1.7,3.9-3.8,4.1c-0.1,0-0.2,0-0.2,0h-0.2C33.6,40.3,31.9,38.5,31.9,36.3z M22.2,37.8c0-1.6,1.3-3,3-3
			s3,1.3,3,3c0,1.6-1.3,2.9-2.9,3c0,0,0,0-0.1,0c0,0,0,0-0.1,0C23.5,40.8,22.2,39.5,22.2,37.8z M26.9,47.4h-7.8c0.3-3,2.9-5.4,6-5.4
			l0,0l0,0c1.5,0,2.8,0.6,3.9,1.4C28.1,44.5,27.3,45.9,26.9,47.4z M44.1,50.2c0,1.5-1.2,2.6-2.6,2.6h-11c-1.5,0-2.6-1.2-2.6-2.6
			v-0.5c0-4.4,3.5-8,7.9-8.2c0.1,0,0.2,0,0.2,0h0.2c4.4,0.1,7.9,3.7,7.9,8.2C44.1,49.7,44.1,50.2,44.1,50.2z M45,47.4
			c-0.4-1.5-1.1-2.8-2.2-4c1.1-0.9,2.4-1.5,3.9-1.5l0,0l0,0c3.1,0,5.7,2.4,6,5.4L45,47.4L45,47.4z"/>
	</g>
</g>
<g>
	<path class="st2" d="M126,31.6L126,31.6c0-1.5-0.4-3-1.2-4.3c-1.7-2.9-4.8-4.6-8.3-4.6l0,0h-12.8c-0.3,0-0.5,0.2-0.5,0.5
		c0,0.2,0.3,0.5,0.5,0.5h12.8c3,0,5.9,1.6,7.4,4c0.6,1,0.9,2.1,1,3.3H117v-0.2c0-1.7-1.4-3.1-3.3-3.1h-11.5c-1.8,0-3.3,1.3-3.3,3.1
		V31H91c0.2-1.9,1-3.7,2.5-5.1c1.6-1.5,3.7-2.3,6-2.3h2.1c0.3,0,0.5-0.2,0.5-0.5s-0.3-0.5-0.5-0.5h-2.1l0,0c-2.5,0-4.9,1-6.7,2.6
		C91,27,90,29.3,90,31.6l0,0l0,0v2.1c0,1,0.9,1.9,2,1.9h5.9c1.1,0,2-0.9,2-1.9V31c0-1.1,1-2.1,2.2-2.1h11.5c1.2,0,2.2,1,2.2,2.1v2.8
		c0,1,0.9,1.9,2,1.9h5.9c1.1,0,2-0.9,2-1.9L126,31.6L126,31.6L126,31.6z M97.9,34.6H92c-0.6,0-1-0.4-1-1V32h7.9v1.6
		C99,34.3,98.5,34.6,97.9,34.6L97.9,34.6z M124,34.6h-5.9c-0.6,0-1-0.4-1-1V32h7.9v1.6C125,34.3,124.5,34.6,124,34.6L124,34.6z"/>
	<path class="st2" d="M120.6,49.7L120.6,49.7v-5c0-0.2-0.3-0.5-0.5-0.5c-0.3,0-0.5,0.2-0.5,0.5v5H96.3V39.6c0-0.7,0.5-1.3,1.2-1.4
		c2.9-0.7,4.9-3,5.2-5.8h1.7l0,0c0,1.8,1.6,3.3,3.5,3.3s3.5-1.5,3.5-3.3v-0.1h1.7c0.3,2.7,2.3,5.1,5.2,5.8c0.8,0.2,1.2,0.8,1.2,1.4
		v3c0,0.2,0.3,0.5,0.5,0.5c0.3,0,0.5-0.2,0.5-0.5v-3c0-1.1-0.8-2.1-2-2.5c-2.5-0.6-4.3-2.8-4.3-5.3c0-0.2-0.3-0.5-0.5-0.5H111
		c-0.3,0-0.5,0.2-0.5,0.5v0.6c0,1.3-1.1,2.4-2.5,2.4s-2.5-1-2.5-2.4v-0.6c0-0.2-0.3-0.5-0.5-0.5h-2.7c-0.3,0-0.5,0.2-0.5,0.5
		c0,2.5-1.8,4.7-4.3,5.3c-1.2,0.3-2,1.3-2,2.5v10.1l0,0c-1.3,0-2.3,1-2.3,2.1s1,2.1,2.3,2.1h25.4c1.3,0,2.3-1,2.3-2.1
		S121.9,49.7,120.6,49.7L120.6,49.7z M120.6,53H95.2c-0.7,0-1.3-0.6-1.3-1.2s0.6-1.2,1.3-1.2h25.4c0.7,0,1.3,0.6,1.3,1.2
		S121.4,53,120.6,53L120.6,53z"/>
	<g>
		<rect x="99.4" y="40.1" class="st3" width="4.6" height="0.6"/>
		<rect x="105.6" y="40.1" class="st3" width="4.6" height="0.6"/>
		<rect x="112" y="40.1" class="st3" width="4.6" height="0.6"/>
		<rect x="99.4" y="43.4" class="st3" width="4.6" height="0.6"/>
		<rect x="105.6" y="43.4" class="st3" width="4.6" height="0.6"/>
		<rect x="112" y="43.4" class="st3" width="4.6" height="0.6"/>
		<rect x="99.4" y="46.5" class="st3" width="4.6" height="0.6"/>
		<rect x="105.6" y="46.5" class="st3" width="4.6" height="0.6"/>
		<rect x="112" y="46.5" class="st3" width="4.6" height="0.6"/>
	</g>
</g>
<g>
	<path class="st2" d="M195.8,41l-19.1-19.1l-1.5,1.5l-5.4-5.4l-7.9,7.9l5.4,5.4l-1.5,1.5l19.2,19c1.5,1.5,3.5,2.2,5.4,2.2
		c2,0,3.9-0.8,5.4-2.2c1.5-1.5,2.2-3.4,2.2-5.4C198.1,44.2,197.2,42.3,195.8,41L195.8,41z M163.9,25.8l0.5-0.5l1.7,1.7l1-0.9
		l-1.7-1.7l1-0.9l1.7,1.7l1-0.9l-1.7-1.7l1-0.9l1.7,1.7l1-0.9l-1.7-1.7l0.5-0.5l4.4,4.4l-5.9,5.9L163.9,25.8z M194.8,50.7
		c-2.4,2.4-6.4,2.4-8.8,0l-18.2-18.1l8.8-8.8l18.2,18.1c1.2,1.2,1.8,2.8,1.8,4.4C196.7,48,196,49.5,194.8,50.7L194.8,50.7z"/>
	<path class="st3" d="M192.4,48.3c-1.1,1.1-2.9,1.1-3.9,0c-0.3-0.3-0.7-0.3-1,0s-0.3,0.7,0,0.9c0.8,0.8,1.9,1.2,2.9,1.2
		s2.2-0.4,2.9-1.2c0.3-0.3,0.3-0.7,0-0.9C193.1,48,192.6,48,192.4,48.3L192.4,48.3z"/>
</g>
<g>
	<g>
		<g>
			<g>
				<g>
					<g>
						<defs>
							<rect id="SVGID_1_" x="18" y="90" width="36" height="36"/>
						</defs>
						<clipPath id="SVGID_2_">
							<use xlink:href="#SVGID_1_"  style="overflow:visible;"/>
						</clipPath>
						<path class="st4" d="M37.9,124.9l-5.4-4.5l0,0l-3.8-3.1v-5c0-0.3-0.3-0.6-0.6-0.6c-0.4,0-0.6,0.3-0.6,0.6v5l-9.2,7.5
							c-0.3,0.2-0.3,0.6-0.1,0.9c0.2,0.3,0.6,0.3,0.9,0.1l5.1-4.1l3.3,1.7v2c0,0.3,0.3,0.6,0.6,0.6c0.4,0,0.6-0.3,0.6-0.6v-2
							l3.3-1.7l5.1,4.1c0.1,0.1,0.3,0.2,0.4,0.2c0.2,0,0.4-0.1,0.5-0.2C38.2,125.5,38.2,125.1,37.9,124.9L37.9,124.9z M25.1,120.8
							l2.3-1.9v3.1L25.1,120.8z M28.6,122v-3.1l2.3,1.9L28.6,122z"/>
					</g>
				</g>
			</g>
		</g>
		<g>
			<g>
				<g>
					<g>
						<defs>
							<rect id="SVGID_3_" x="18" y="90" width="36" height="36"/>
						</defs>
						<clipPath id="SVGID_4_">
							<use xlink:href="#SVGID_3_"  style="overflow:visible;"/>
						</clipPath>
						<path class="st5" d="M48.5,108.9L48.5,108.9c-0.4,0-0.6,0.3-0.6,0.6c0,1.3-0.4,2.3-1.2,3.1l0,0c-1.4,1.3-3.6,1.5-6.6,0.5
							c-3.1-0.9-6.4-3-9.3-5.8c-2.9-2.7-5.1-5.9-6.1-8.8c-1-2.7-0.8-5,0.5-6.3c1.4-1.3,3.6-1.5,6.6-0.5c3.1,0.9,6.4,3,9.3,5.8
							c2.3,2.1,4.2,4.5,5.3,6.9c0.2,0.3,0.5,0.4,0.8,0.3c0.3-0.2,0.5-0.5,0.3-0.8c-1.3-2.5-3.2-5.1-5.6-7.3
							c-3.1-2.9-6.5-5.1-9.7-6.1c-3.4-1.1-6.2-0.8-7.8,0.8l0,0l-0.5,0.5c-2.1,2-2.9,5.1-2.1,8.6c0.7,3.4,2.9,6.9,6,9.9
							c4.4,4.2,8.8,5.4,11.6,5.7c0.5,0,0.8,0.1,1.3,0.1c2.7,0,5.2-0.8,6.6-2.1l0.6-0.6l0,0c1-0.9,1.5-2.3,1.5-3.9
							C49.1,109.3,48.9,108.9,48.5,108.9L48.5,108.9z M39.3,114.9c-2.6-0.3-6.7-1.3-10.8-5.3c-4.5-4.3-6.6-9.8-5.6-13.6
							c0.1,0.9,0.3,1.9,0.6,3c1.1,3.1,3.3,6.4,6.4,9.3s6.5,5.1,9.7,6.1c0.8,0.3,1.6,0.4,2.3,0.5C41.2,114.9,40.3,114.9,39.3,114.9
							L39.3,114.9z"/>
					</g>
				</g>
			</g>
		</g>
	</g>
	<path class="st3" d="M53.8,101.1L51,98.5c-0.3-0.3-0.6-0.3-0.9,0c-0.3,0.3-0.3,0.6,0,0.9l0.2,0.2l-1.4,1.3c-0.3,0.3-0.3,0.6,0,0.9
		c0.1,0.1,0.3,0.2,0.5,0.2s0.4-0.1,0.5-0.2l1.4-1.3l1.4,1.3l-8.8,8.3c-0.3,0.3-0.3,0.6,0,0.9c0.1,0.1,0.3,0.2,0.5,0.2
		s0.4-0.1,0.5-0.2l9.1-8.8c0.1-0.1,0.2-0.3,0.2-0.4S53.9,101.2,53.8,101.1L53.8,101.1z"/>
</g>
<g>
	<path class="st3" d="M32.2,175.5c-0.3,0.3-0.3,0.6,0,0.9c0.3,0.3,0.6,0.3,0.9,0c0.8-0.8,1.8-1.2,3-1.2c1.1,0,2.2,0.4,3,1.2
		c0.1,0.1,0.3,0.2,0.4,0.2c0.2,0,0.3-0.1,0.4-0.2c0.3-0.3,0.3-0.6,0-0.9c-1-1-2.4-1.6-3.8-1.6C34.5,173.9,33.2,174.5,32.2,175.5
		L32.2,175.5z"/>
	<g>
		<g>
			<g>
				<g>
					<g>
						<defs>
							<rect id="SVGID_5_" x="18" y="166.7" width="36" height="31.3"/>
						</defs>
						<clipPath id="SVGID_6_">
							<use xlink:href="#SVGID_5_"  style="overflow:visible;"/>
						</clipPath>
						<path class="st6" d="M44.4,191.3c0-1-0.8-1.8-1.8-1.8s-1.8,0.8-1.8,1.8s0.8,1.8,1.8,1.8C43.6,193.1,44.4,192.3,44.4,191.3
							L44.4,191.3z M42,191.3c0-0.3,0.3-0.6,0.6-0.6s0.6,0.3,0.6,0.6s-0.3,0.6-0.6,0.6C42.3,191.9,42,191.6,42,191.3L42,191.3z"/>
					</g>
				</g>
			</g>
		</g>
		<g>
			<g>
				<g>
					<g>
						<defs>
							<rect id="SVGID_7_" x="18" y="166.7" width="36" height="31.3"/>
						</defs>
						<clipPath id="SVGID_8_">
							<use xlink:href="#SVGID_7_"  style="overflow:visible;"/>
						</clipPath>
						<path class="st7" d="M27.6,171.5c0.2,0,0.3-0.1,0.4-0.2c2.1-2.2,5-3.4,8-3.4c3.1,0,5.9,1.2,8,3.4c0.3,0.3,0.6,0.3,0.9,0
							c0.3-0.3,0.3-0.6,0-0.9c-2.3-2.4-5.4-3.8-8.8-3.8c-3.3,0-6.5,1.3-8.8,3.8c-0.3,0.3-0.3,0.6,0,0.9
							C27.3,171.4,27.4,171.5,27.6,171.5L27.6,171.5z"/>
					</g>
				</g>
			</g>
		</g>
	</g>
	<path class="st3" d="M41.9,174c0.2,0,0.3-0.1,0.4-0.2c0.3-0.3,0.3-0.6,0-0.9c-1.7-1.7-3.9-2.6-6.4-2.6c-2.4,0-4.6,1-6.4,2.6
		c-0.3,0.3-0.3,0.6,0,0.9c0.3,0.3,0.6,0.3,0.9,0c1.5-1.5,3.4-2.3,5.5-2.3s4,0.8,5.5,2.3C41.6,173.9,41.8,174,41.9,174L41.9,174z"/>
	<path class="st2" d="M49.2,191.3c0-1-0.8-1.8-1.8-1.8s-1.8,0.8-1.8,1.8s0.8,1.8,1.8,1.8S49.2,192.3,49.2,191.3L49.2,191.3z
		 M46.7,191.3c0-0.3,0.3-0.6,0.6-0.6s0.6,0.3,0.6,0.6s-0.3,0.6-0.6,0.6C47.1,191.9,46.7,191.6,46.7,191.3L46.7,191.3z"/>
	<path class="st2" d="M50.9,184.7H38.4c-0.3,0-0.6,0.3-0.6,0.6s0.3,0.6,0.6,0.6H51c1,0,1.8,0.8,1.8,1.8v7.2c0,1-0.8,1.8-1.8,1.8H21
		c-1,0-1.8-0.8-1.8-1.8v-7.2c0-1,0.8-1.8,1.8-1.8h15c0.3,0,0.6-0.3,0.6-0.6V181c0.7-0.3,1.2-0.9,1.2-1.7c0-1-0.8-1.8-1.8-1.8
		s-1.8,0.8-1.8,1.8c0,0.8,0.5,1.4,1.2,1.7v3.7H21c-1.7,0-3,1.3-3,3v7.2c0,1.7,1.3,3,3,3h30c1.7,0,3-1.3,3-3v-7.2
		C54,186,52.6,184.7,50.9,184.7L50.9,184.7z M36,178.7c0.3,0,0.6,0.3,0.6,0.6s-0.3,0.6-0.6,0.6s-0.6-0.3-0.6-0.6
		S35.7,178.7,36,178.7L36,178.7z"/>
	<path class="st2" d="M24.6,190.7c-0.3,0-0.6,0.3-0.6,0.6s0.3,0.6,0.6,0.6h12c0.3,0,0.6-0.3,0.6-0.6s-0.3-0.6-0.6-0.6H24.6z"/>
</g>
<g>
	<path class="st2" d="M90,102v12c0,0.3,0.3,0.6,0.6,0.6h4.2c0.3,0,0.6-0.3,0.6-0.6v-1.8h5.4v0.6c0,0.3,0.3,0.6,0.6,0.6h13.2
		c0.3,0,0.6-0.3,0.6-0.6v-1.2h3c0.3,0,0.6,0.3,0.6,0.6v3.6c0,0.3,0.3,0.6,0.6,0.6h6c0.3,0,0.6-0.3,0.6-0.6v-3.6
		c0-4.3-3.5-7.8-7.8-7.8h-3v-1.2c0-0.3-0.3-0.6-0.6-0.6h-2.4v-3c0-0.3-0.3-0.6-0.6-0.6h-1.8v-3.6h1.7l3.6,0.7c0.2,0,0.3,0.1,0.5,0.1
		s0.3,0,0.5-0.1c1.4-0.3,2.3-1.6,2-3s-1.6-2.3-3.1-2l-3.6,0.7h-1.7v-1.2c0-0.3-0.3-0.6-0.6-0.6h-2.4c-0.3,0-0.6,0.3-0.6,0.6v1.2
		h-1.7l-3.6-0.7c-0.3-0.1-0.7-0.1-1,0c-1.4,0.3-2.3,1.6-2,3s1.6,2.3,3.1,2l3.6-0.7h1.7V99h-1.8c-0.3,0-0.6,0.3-0.6,0.6v3h-2.4
		c-0.3,0-0.6,0.3-0.6,0.6v0.6h-5.4V102c0-0.3-0.3-0.6-0.6-0.6h-4.2C90.3,101.4,90,101.8,90,102z M106.2,93.1v1.2h-1.8h-0.1l-3.7,0.8
		c-0.2,0-0.3,0-0.5,0c-0.8-0.2-1.2-0.8-1.1-1.6c0.2-0.8,0.9-1.2,1.6-1.1l3.7,0.8h0.1h1.8V93.1z M107.4,93.1h1.2v1.2h-1.2V93.1z
		 M108.6,91.9h-1.2v-0.6h1.2V91.9z M109.8,94.3v-1.2h1.8h0.1l3.7-0.8c0.2,0,0.3,0,0.5,0c0.8,0.2,1.2,0.8,1.1,1.6
		c-0.2,0.8-0.9,1.2-1.6,1.1l-3.7-0.8h-0.1h-1.8V94.3z M108.6,99.1h-1.2v-3.6h1.2V99.1z M111,102.7h-6v-2.4h6V102.7z M115.2,110.4
		v-4.7h3c3.7,0,6.6,3,6.6,6.6v3H120v-3c0-1-0.8-1.8-1.8-1.8L115.2,110.4L115.2,110.4z M102,103.9h12v8.4h-12V103.9z M95.4,111v-6
		h5.4v6H95.4z M91.2,102.7h3v10.8h-3V102.7z"/>
	<path class="st3" d="M125.1,124.6c0.5-0.8,0.5-1.9,0.1-2.6l-2.1-4c-0.1-0.1-0.1-0.2-0.2-0.2c-0.3-0.2-0.7-0.1-0.9,0.2l-2.1,4
		c-0.4,0.8-0.4,1.9,0.1,2.6c0.6,0.9,1.5,1.4,2.6,1.4C123.5,126,124.5,125.5,125.1,124.6z M124,124c-0.3,0.5-0.9,0.8-1.6,0.8
		s-1.3-0.3-1.6-0.8c-0.3-0.4-0.3-1,0-1.4l1.6-3l1.6,3C124.3,123,124.3,123.5,124,124z"/>
</g>
<g>
	<path class="st2" d="M176.8,94.6V91h0.7c0.3,0,0.6-0.3,0.6-0.5s-0.3-0.5-0.6-0.5h-12.9c-0.3,0-0.6,0.3-0.6,0.5
		c0,0.3,0.3,0.5,0.6,0.5h0.7v3.6c-1.9,0.5-3.2,2-3.2,3.8v21.5c0,2,1.6,3.5,3.7,3.9l-0.5,1.6c0,0.2,0,0.3,0.1,0.4s0.3,0.2,0.5,0.2
		h10.4c0.2,0,0.4-0.1,0.5-0.2s0.2-0.3,0.1-0.4l-0.5-1.6c2.2-0.3,3.7-2,3.7-3.9V98.4C180,96.6,178.6,95.1,176.8,94.6z M166.4,91h9.1
		v3.4l0,0h-3.9v-1.2h1c0.3,0,0.6-0.3,0.6-0.5c0-0.3-0.3-0.5-0.6-0.5h-3.2c-0.3,0-0.6,0.3-0.6,0.5s0.3,0.5,0.6,0.5h1v1.2h-3.9l0,0V91
		H166.4z M175.5,122.7h-5.2c-0.3,0-0.6,0.3-0.6,0.5c0,0.3,0.3,0.5,0.6,0.5h4.7l0.4,1.2h-8.8l0.4-1.2h0.8c0.3,0,0.6-0.3,0.6-0.5
		c0-0.3-0.3-0.5-0.6-0.5h-1.3c-1.8,0-3.2-1.3-3.2-2.8v-10.2h11.1c0.3,0,0.6-0.3,0.6-0.5s-0.3-0.5-0.6-0.5h-11.1V98.4
		c0-1.5,1.5-2.8,3.2-2.8h9c1.8,0,3.2,1.3,3.2,2.8v10.2h-2c-0.3,0-0.6,0.3-0.6,0.5c0,0.3,0.3,0.5,0.6,0.5h2v10.2
		C178.8,121.5,177.4,122.7,175.5,122.7z"/>
	<path class="st8" d="M167.3,97.9c0,0-1.5,0.3-1.8,1.5"/>
	<path class="st8" d="M166.9,120c0,0.2-0.2,0.3-0.4,0.3s-0.4-0.2-0.4-0.3s0.2-0.3,0.4-0.3C166.7,119.6,166.9,119.7,166.9,120z"/>
	<path class="st8" d="M171.2,120c0,0.2-0.2,0.3-0.4,0.3s-0.4-0.2-0.4-0.3s0.2-0.3,0.4-0.3C171,119.6,171.2,119.7,171.2,120z"/>
	<path class="st8" d="M175.5,120c0,0.2-0.2,0.3-0.4,0.3s-0.4-0.2-0.4-0.3s0.2-0.3,0.4-0.3C175.3,119.6,175.5,119.7,175.5,120z"/>
</g>
<g>
	<path class="st2" d="M94.9,251.3L94.9,251.3c-0.4,0.1-0.7,0.5-0.6,0.9c0.1,0.3,0.4,0.5,0.7,0.5c0.1,0,0.1,0,0.2,0l0,0
		c0.4-0.1,0.6-0.5,0.5-0.8C95.7,251.5,95.3,251.2,94.9,251.3L94.9,251.3z"/>
	<g>
		<path class="st2" d="M117.7,241.7h-2.9c-0.4,0-0.7,0.3-0.7,0.7v2.9c0,0.4,0.3,0.7,0.7,0.7h2.9c0.4,0,0.7-0.3,0.7-0.7v-2.9
			C118.4,242,118.1,241.7,117.7,241.7L117.7,241.7z M117,244.6h-1.5v-1.5h1.5V244.6z"/>
		<path class="st2" d="M114.7,262.3h2.9c0.4,0,0.7-0.3,0.7-0.7v-2.9c0-0.4-0.3-0.7-0.7-0.7h-2.9c-0.4,0-0.7,0.3-0.7,0.7v2.9
			C114,262,114.3,262.3,114.7,262.3L114.7,262.3z M115.4,259.4h1.5v1.5h-1.5V259.4z"/>
		<g>
			<path class="st2" d="M94.3,239v9.8c0,0.4,0.3,0.7,0.7,0.7h9.8c0.4,0,0.7-0.3,0.7-0.7v-1.9c0-0.4-0.3-0.7-0.7-0.7
				c-0.4,0-0.7,0.3-0.7,0.7v1.1h-8.4v-8.4h8.4v1.7c0,0.4,0.3,0.7,0.7,0.7c0.4,0,0.7-0.3,0.7-0.7V239c0-0.4-0.3-0.7-0.7-0.7H95
				C94.7,238.3,94.3,238.6,94.3,239L94.3,239z"/>
			<path class="st2" d="M98.5,241.7c-0.4,0-0.7,0.3-0.7,0.7v2.9c0,0.4,0.3,0.7,0.7,0.7h2.9c0.4,0,0.7-0.3,0.7-0.7v-2.9
				c0-0.4-0.3-0.7-0.7-0.7H98.5z M100.7,244.6h-1.5v-1.5h1.5V244.6z"/>
			<path class="st2" d="M104.8,254.5H95c-0.4,0-0.7,0.3-0.7,0.7v9.8c0,0.4,0.3,0.7,0.7,0.7h9.8c0.4,0,0.7-0.3,0.7-0.7v-9.8
				C105.5,254.8,105.2,254.5,104.8,254.5L104.8,254.5z M104.1,264.3h-8.4v-8.4h8.4V264.3z"/>
			<path class="st2" d="M111.3,249.5h9.8c0.4,0,0.7-0.3,0.7-0.7V239c0-0.4-0.3-0.7-0.7-0.7h-9.8c-0.4,0-0.7,0.3-0.7,0.7v9.8
				C110.6,249.1,110.9,249.5,111.3,249.5L111.3,249.5z M112,239.7h8.4v8.4H112V239.7z"/>
			<path class="st2" d="M121.8,265v-9.8c0-0.4-0.3-0.7-0.7-0.7h-9.8c-0.4,0-0.7,0.3-0.7,0.7v9.8c0,0.4,0.3,0.7,0.7,0.7h9.8
				C121.5,265.7,121.8,265.4,121.8,265L121.8,265z M120.4,264.3H112v-8.4h8.4V264.3z"/>
			<path class="st2" d="M121.1,252.7c0.4,0,0.7-0.3,0.7-0.7s-0.3-0.7-0.7-0.7h-12.4v-12.4c0-0.4-0.3-0.7-0.7-0.7
				c-0.4,0-0.7,0.3-0.7,0.7v12.4h-9.4c-0.4,0-0.7,0.3-0.7,0.7s0.3,0.7,0.7,0.7h9.4V265c0,0.4,0.3,0.7,0.7,0.7c0.4,0,0.7-0.3,0.7-0.7
				v-12.2h12.4V252.7z"/>
			<path class="st2" d="M98.5,262.3h2.9c0.4,0,0.7-0.3,0.7-0.7v-2.9c0-0.4-0.3-0.7-0.7-0.7h-2.9c-0.4,0-0.7,0.3-0.7,0.7v2.9
				C97.8,262,98.1,262.3,98.5,262.3L98.5,262.3z M99.2,259.4h1.5v1.5h-1.5V259.4z"/>
			<path class="st2" d="M104.7,243.4L104.7,243.4c-0.4,0.1-0.7,0.5-0.6,0.9c0.1,0.3,0.4,0.5,0.7,0.5c0.1,0,0.1,0,0.2,0l0,0
				c0.4-0.1,0.6-0.5,0.5-0.8C105.4,243.6,105.1,243.4,104.7,243.4L104.7,243.4z"/>
		</g>
	</g>
	<path class="st3" d="M90.7,239.8c0.4,0,0.7-0.3,0.7-0.7v-3.7h3.5c0.4,0,0.7-0.3,0.7-0.7s-0.3-0.7-0.7-0.7h-4.2
		c-0.4,0-0.7,0.3-0.7,0.7v4.4C90,239.5,90.3,239.8,90.7,239.8L90.7,239.8z"/>
	<path class="st3" d="M125.3,234h-4.2c-0.4,0-0.7,0.3-0.7,0.7s0.3,0.7,0.7,0.7h3.5v3.7c0,0.4,0.3,0.7,0.7,0.7c0.4,0,0.7-0.3,0.7-0.7
		v-4.4C126,234.3,125.7,234,125.3,234L125.3,234z"/>
	<path class="st3" d="M94.9,268.6h-3.5v-3.7c0-0.4-0.3-0.7-0.7-0.7c-0.4,0-0.7,0.3-0.7,0.7v4.4c0,0.4,0.3,0.7,0.7,0.7h4.2
		c0.4,0,0.7-0.3,0.7-0.7C95.6,268.9,95.3,268.6,94.9,268.6L94.9,268.6z"/>
	<path class="st3" d="M125.3,264.2c-0.4,0-0.7,0.3-0.7,0.7v3.7h-3.5c-0.4,0-0.7,0.3-0.7,0.7c0,0.4,0.3,0.7,0.7,0.7h4.2
		c0.4,0,0.7-0.3,0.7-0.7v-4.4C126,264.5,125.7,264.2,125.3,264.2L125.3,264.2z"/>
</g>
<g>
	<g>
		<path class="st3" d="M48,253.2c1.7,0,3-1.3,3-3s-1.3-3-3-3s-3,1.3-3,3S46.3,253.2,48,253.2L48,253.2z M48,248.4
			c1,0,1.8,0.8,1.8,1.8S49,252,48,252s-1.8-0.8-1.8-1.8S47,248.4,48,248.4L48,248.4z"/>
		<path class="st2" d="M48.6,244.2V234H23.4v10.2H18v20.4h3.6v1.8h1.8v3.6h25.2v-3.6h1.8v-1.8H54v-20.4L48.6,244.2L48.6,244.2z
			 M24.6,235.2h22.8v9H24.6V235.2z M23.4,245.4h29.4v9.6H19.2v-9.6H23.4z M22.8,265.2V261c0-0.3-0.3-0.6-0.6-0.6
			c-0.3,0-0.6,0.3-0.6,0.6v2.4h-2.4v-7.2h4.2v9L22.8,265.2L22.8,265.2z M47.4,268.8H24.6v-12.6h22.8V268.8z M50.4,263.4V261
			c0-0.3-0.3-0.6-0.6-0.6s-0.6,0.3-0.6,0.6v4.2h-0.6v-9h4.2v7.2L50.4,263.4L50.4,263.4z"/>
	</g>
	<g>
		<g>
			<g>
				<g>
					<g>
						<defs>
							<rect id="SVGID_9_" x="27.1" y="254.9" width="18.3" height="8"/>
						</defs>
						<clipPath id="SVGID_10_">
							<use xlink:href="#SVGID_9_"  style="overflow:visible;"/>
						</clipPath>
						<g class="st9">
							<path class="st10" d="M41.7,249.7h-1.6c-0.2,0-0.4,0.2-0.4,0.4v1.6c0,0.2,0.2,0.4,0.4,0.4h1.6c0.2,0,0.4-0.2,0.4-0.4V250
								C42.1,249.8,41.9,249.7,41.7,249.7L41.7,249.7z M41.3,251.3h-0.8v-0.8h0.8V251.3z"/>
							<path class="st3" d="M40.1,260.9h1.6c0.2,0,0.4-0.2,0.4-0.4v-1.6c0-0.2-0.2-0.4-0.4-0.4h-1.6c-0.2,0-0.4,0.2-0.4,0.4v1.6
								C39.7,260.7,39.9,260.9,40.1,260.9L40.1,260.9z M40.5,259.3h0.8v0.8h-0.8V259.3z"/>
							<g>
								<path class="st10" d="M29,248.2v5.3c0,0.2,0.2,0.4,0.4,0.4h5.3c0.2,0,0.4-0.2,0.4-0.4v-1c0-0.2-0.2-0.4-0.4-0.4
									s-0.4,0.2-0.4,0.4v0.6h-4.5v-4.5h4.5v0.9c0,0.2,0.2,0.4,0.4,0.4s0.4-0.2,0.4-0.4v-1.3c0-0.2-0.2-0.4-0.4-0.4h-5.3
									C29.2,247.8,29,248,29,248.2L29,248.2z"/>
								<path class="st10" d="M31.3,249.7c-0.2,0-0.4,0.2-0.4,0.4v1.6c0,0.2,0.2,0.4,0.4,0.4h1.6c0.2,0,0.4-0.2,0.4-0.4V250
									c0-0.2-0.2-0.4-0.4-0.4L31.3,249.7L31.3,249.7z M32.5,251.3h-0.8v-0.8h0.8V251.3z"/>
								<path class="st2" d="M34.7,256.6h-5.3c-0.2,0-0.4,0.2-0.4,0.4v5.3c0,0.2,0.2,0.4,0.4,0.4h5.3c0.2,0,0.4-0.2,0.4-0.4V257
									C35.1,256.8,34.9,256.6,34.7,256.6L34.7,256.6z M34.3,261.9h-4.5v-4.5h4.5V261.9z"/>
								<path class="st10" d="M38.3,253.9h5.3c0.2,0,0.4-0.2,0.4-0.4v-5.3c0-0.2-0.2-0.4-0.4-0.4h-5.3c-0.2,0-0.4,0.2-0.4,0.4v5.3
									C37.9,253.7,38,253.9,38.3,253.9L38.3,253.9z M38.6,248.6h4.5v4.5h-4.5V248.6z"/>
								<path class="st2" d="M43.9,262.3V257c0-0.2-0.2-0.4-0.4-0.4h-5.3c-0.2,0-0.4,0.2-0.4,0.4v5.3c0,0.2,0.2,0.4,0.4,0.4h5.3
									C43.8,262.7,43.9,262.5,43.9,262.3L43.9,262.3z M43.2,261.9h-4.5v-4.5h4.5V261.9z"/>
								<path class="st2" d="M43.6,255.7c0.2,0,0.4-0.2,0.4-0.4s-0.2-0.4-0.4-0.4h-6.7v-6.7c0-0.2-0.2-0.4-0.4-0.4s-0.4,0.2-0.4,0.4
									v6.7H31c-0.2,0-0.4,0.2-0.4,0.4s0.2,0.4,0.4,0.4h5.1v6.7c0,0.2,0.2,0.4,0.4,0.4s0.4-0.2,0.4-0.4v-6.7H43.6z"/>
								<path class="st3" d="M31.3,260.9h1.6c0.2,0,0.4-0.2,0.4-0.4v-1.6c0-0.2-0.2-0.4-0.4-0.4h-1.6c-0.2,0-0.4,0.2-0.4,0.4v1.6
									C30.9,260.7,31.1,260.9,31.3,260.9L31.3,260.9z M31.7,259.3h0.8v0.8h-0.8V259.3z"/>
								<path class="st10" d="M34.6,250.6L34.6,250.6c-0.2,0.1-0.4,0.3-0.3,0.5c0,0.2,0.2,0.3,0.4,0.3h0.1l0,0
									c0.2,0,0.3-0.3,0.3-0.5C35.1,250.7,34.8,250.6,34.6,250.6L34.6,250.6z"/>
							</g>
						</g>
					</g>
				</g>
			</g>
		</g>
		<path class="st3" d="M29.7,263.7h-1.9v-2c0-0.2-0.2-0.4-0.4-0.4c-0.2,0-0.4,0.2-0.4,0.4v2.3c0,0.2,0.2,0.4,0.4,0.4h2.3
			c0.2,0,0.4-0.2,0.4-0.4C30.1,263.9,29.9,263.7,29.7,263.7L29.7,263.7z"/>
		<path class="st3" d="M45.5,261.4c-0.2,0-0.4,0.2-0.4,0.4v2h-1.9c-0.2,0-0.4,0.2-0.4,0.4c0,0.2,0.2,0.4,0.4,0.4h2.3
			c0.2,0,0.4-0.2,0.4-0.4v-2.3C45.9,261.5,45.7,261.4,45.5,261.4L45.5,261.4z"/>
	</g>
</g>
<g>
	<path class="st2" d="M114.8,166.1c8.6,2.8,13.2,12.1,10.4,20.6s-12.1,13.2-20.6,10.4c-0.5-0.2-0.8-0.7-0.6-1.2
		c0.2-0.5,0.7-0.8,1.2-0.6c7.5,2.5,15.7-1.6,18.2-9.2c2.5-7.5-1.6-15.7-9.2-18.2c-7.5-2.5-15.7,1.6-18.2,9.2l-0.5,1.6l3.3-1.4
		c0.5-0.2,1.1,0,1.3,0.5c0.2,0.5,0,1.1-0.5,1.3l-4.7,2.1c-0.8,0.3-1.7,0-2.1-0.7l-2.6-4.5c-0.1-0.2-0.2-0.5-0.1-0.8
		c0.1-0.2,0.2-0.4,0.4-0.5c0.5-0.3,1.1-0.1,1.3,0.4l1.8,3.1l0.5-1.6C97,168,106.2,163.3,114.8,166.1z"/>
	<path class="st3" d="M109.6,171.1c0.4,0,0.7-0.3,0.7-0.7V169c0-0.4-0.3-0.7-0.7-0.7s-0.7,0.3-0.7,0.7v1.4
		C108.9,170.8,109.2,171.1,109.6,171.1L109.6,171.1z"/>
	<path class="st3" d="M109.6,191.8c-0.4,0-0.7,0.3-0.7,0.7v1.4c0,0.4,0.3,0.7,0.7,0.7s0.7-0.3,0.7-0.7v-1.4
		C110.3,192.1,110,191.8,109.6,191.8L109.6,191.8z"/>
	<path class="st3" d="M120.6,182.1h1.4c0.4,0,0.7-0.3,0.7-0.7s-0.3-0.7-0.7-0.7h-1.4c-0.4,0-0.7,0.3-0.7,0.7
		S120.2,182.1,120.6,182.1L120.6,182.1z"/>
	<path class="st2" d="M110.3,178.1v-3.5c0-0.4-0.3-0.7-0.7-0.7s-0.7,0.3-0.7,0.7v3.5c-1.2,0.3-2.1,1.4-2.1,2.7c0,0.5,0.1,1,0.4,1.4
		l-5.7,5.7c-0.3,0.3-0.3,0.7,0,1c0.1,0.1,0.3,0.2,0.5,0.2s0.4-0.1,0.5-0.2l5.7-5.7c0.4,0.2,0.9,0.4,1.4,0.4c1.5,0,2.8-1.2,2.8-2.8
		C112.3,179.5,111.5,178.4,110.3,178.1L110.3,178.1z M109.6,182.1c-0.8,0-1.4-0.6-1.4-1.4c0-0.8,0.6-1.4,1.4-1.4s1.4,0.6,1.4,1.4
		S110.4,182.1,109.6,182.1L109.6,182.1z"/>
</g>
<g>
	<path class="st11" d="M175,180.7c5,0,6.8-5,7.2-9c0.6-5-1.8-8.8-7.2-8.8s-7.8,3.8-7.2,8.8C168.3,175.8,170.1,180.7,175,180.7
		L175,180.7z"/>
	<path class="st11" d="M185.8,182.8c0.2,0,0.3,0,0.5,0c-0.2-0.3-0.5-0.6-0.8-0.9c-1-0.7-2.2-1-3.3-1.4c-0.5-0.2-1-0.4-1.5-0.7
		c-1.5,1.7-3.4,2.5-5.8,2.5c-2.3,0-4.2-0.9-5.8-2.5c-0.5,0.2-0.9,0.5-1.5,0.7c-1.1,0.4-2.4,0.7-3.3,1.4c-1.7,1.3-2.1,4-2.4,5.9
		c-0.3,1.6-0.5,3.1-0.5,4.7c0,1.3,0.6,1.4,1.6,1.8c1.3,0.5,2.6,0.8,3.9,1.1c2.5,0.6,5.3,1,7.9,1c1.3,0,2.5-0.1,3.8-0.3
		c-1-1.4-1.5-3-1.5-4.8C177.3,186.7,181.1,182.8,185.8,182.8L185.8,182.8z"/>
	<g>
		<path class="st3" d="M192,189.7h-1.3c-0.1-0.2-0.2-0.5-0.3-0.7l0.9-0.9c0.2-0.2,0.2-0.5,0-0.6l-1.6-1.6c-0.2-0.2-0.5-0.2-0.6,0
			l-0.9,0.9c-0.2-0.1-0.5-0.2-0.7-0.3v-1.3c0-0.3-0.2-0.5-0.5-0.5h-2.3c-0.3,0-0.5,0.2-0.5,0.5v1.3c-0.2,0.1-0.5,0.2-0.7,0.3l-1-0.9
			c-0.2-0.2-0.5-0.2-0.6,0l-1.6,1.6c-0.2,0.2-0.2,0.5,0,0.6l1,1c-0.1,0.2-0.2,0.4-0.3,0.7h-1.4c-0.3,0-0.5,0.2-0.5,0.5v2.3
			c0,0.3,0.2,0.5,0.5,0.5h1.4c0.1,0.2,0.2,0.4,0.3,0.7l-1,1c-0.2,0.2-0.2,0.5,0,0.6l1.6,1.6c0.2,0.2,0.5,0.2,0.6,0l0.9-0.9
			c0.2,0.1,0.4,0.2,0.7,0.3v1.3c0,0.3,0.2,0.5,0.5,0.5h2.3c0.3,0,0.5-0.2,0.5-0.5v-1.3c0.2-0.1,0.5-0.2,0.7-0.3l0.9,0.9
			c0.2,0.2,0.5,0.2,0.6,0l1.6-1.6c0.2-0.2,0.2-0.5,0-0.6l-0.9-0.9c0.1-0.2,0.2-0.5,0.3-0.7h1.3c0.3,0,0.5-0.2,0.5-0.5v-2.3
			C192.5,189.9,192.3,189.7,192,189.7z M191.6,192h-1.2c-0.2,0-0.4,0.1-0.5,0.3c-0.1,0.4-0.3,0.8-0.5,1.1c-0.1,0.2-0.1,0.4,0.1,0.6
			l0.8,0.8l-1,1l-0.8-0.8c-0.1-0.1-0.4-0.2-0.6-0.1c-0.3,0.2-0.7,0.4-1.1,0.5c-0.2,0.1-0.4,0.2-0.3,0.5v1.2h-1.4v-1.2
			c0-0.2-0.1-0.4-0.3-0.5c-0.4-0.1-0.8-0.3-1.1-0.5c-0.2-0.1-0.4-0.1-0.6,0.1l-0.9,0.9l-1-1l0.9-0.9c0.1-0.1,0.2-0.4,0.1-0.6
			c-0.2-0.3-0.4-0.7-0.5-1.1c-0.1-0.2-0.2-0.3-0.5-0.3H180v-1.4h1.2c0.2,0,0.4-0.1,0.5-0.3c0.1-0.4,0.3-0.7,0.5-1.1
			c0.1-0.2,0-0.4-0.1-0.5l-0.9-0.9l1-1l0.9,0.9c0.1,0.1,0.4,0.2,0.6,0.1c0.3-0.2,0.7-0.4,1.1-0.5c0.2-0.1,0.3-0.2,0.3-0.5v-1.2h1.4
			v1.2c0,0.2,0.1,0.4,0.3,0.5c0.4,0.1,0.8,0.3,1.1,0.5c0.2,0.1,0.4,0.1,0.6-0.1l0.8-0.8l1,1l-0.8,0.8c-0.1,0.1-0.2,0.4-0.1,0.6
			c0.2,0.4,0.4,0.7,0.5,1.1c0.1,0.2,0.2,0.3,0.5,0.3h1.2V192z"/>
		<circle class="st12" cx="185.8" cy="191.4" r="2.2"/>
	</g>
</g>
<g>
	<g>
		<path class="st2" d="M188.9,241.7l-7.5-7.5c-0.1-0.1-0.3-0.2-0.5-0.2h-15.8c-1.7,0-3,1.4-3,3v30c0,1.7,1.4,3,3,3h21
			c1.7,0,3-1.4,3-3v-24.8C189.1,242,189,241.8,188.9,241.7z M181.6,236.6l5,5h-3.5c-0.8,0-1.5-0.7-1.5-1.5V236.6z M186.2,268.5h-21
			c-0.8,0-1.5-0.7-1.5-1.5v-30c0-0.8,0.7-1.5,1.5-1.5h15.1v4.5c0,1.7,1.4,3,3,3h4.5v24C187.7,267.9,187,268.5,186.2,268.5z"/>
		<path class="st2" d="M183.9,259.3h-16.6c-0.4,0-0.8,0.3-0.8,0.8s0.3,0.8,0.8,0.8h16.6c0.4,0,0.8-0.3,0.8-0.8
			S184.3,259.3,183.9,259.3z"/>
		<path class="st2" d="M183.9,263.8h-16.6c-0.4,0-0.8,0.3-0.8,0.8c0,0.4,0.3,0.8,0.8,0.8h16.6c0.4,0,0.8-0.3,0.8-0.8
			C184.7,264,184.3,263.8,183.9,263.8z"/>
	</g>
	<g>
		<path class="st3" d="M181.5,248h-1.3c-0.1-0.2-0.2-0.5-0.3-0.7l0.9-0.9c0.2-0.2,0.2-0.5,0-0.7l-1.7-1.7c-0.2-0.2-0.5-0.2-0.7,0
			l-0.9,0.9c-0.2-0.1-0.5-0.2-0.7-0.3v-1.3c0-0.3-0.2-0.5-0.5-0.5H174c-0.3,0-0.5,0.2-0.5,0.5v1.4c-0.2,0.1-0.5,0.2-0.7,0.3l-1-1
			c-0.2-0.2-0.5-0.2-0.7,0l-1.7,1.7c-0.2,0.2-0.2,0.5,0,0.7l1,1c-0.1,0.2-0.2,0.4-0.3,0.7h-1.4c-0.3,0-0.5,0.2-0.5,0.5v2.4
			c0,0.3,0.2,0.5,0.5,0.5h1.4c0.1,0.2,0.2,0.5,0.3,0.7l-1,1c-0.2,0.2-0.2,0.5,0,0.7l1.7,1.7c0.2,0.2,0.5,0.2,0.7,0l1-1
			c0.2,0.1,0.4,0.2,0.7,0.3v1.4c0,0.3,0.2,0.5,0.5,0.5h2.4c0.3,0,0.5-0.2,0.5-0.5V255c0.2-0.1,0.5-0.2,0.7-0.3l0.9,0.9
			c0.2,0.2,0.5,0.2,0.7,0l1.7-1.7c0.2-0.2,0.2-0.5,0-0.7l-0.9-0.9c0.1-0.2,0.2-0.5,0.3-0.7h1.3c0.3,0,0.5-0.2,0.5-0.5v-2.4
			C182,248.2,181.8,248,181.5,248z M181.1,250.4h-1.2c-0.2,0-0.4,0.1-0.5,0.3c-0.1,0.4-0.3,0.8-0.5,1.1c-0.1,0.2-0.1,0.4,0.1,0.6
			l0.8,0.8l-1,1l-0.9-0.9c-0.1-0.1-0.4-0.2-0.6-0.1c-0.4,0.2-0.7,0.4-1.1,0.5c-0.2,0.1-0.4,0.2-0.4,0.5v1.2h-1.4v-1.2
			c0-0.2-0.1-0.4-0.3-0.5c-0.4-0.1-0.8-0.3-1.1-0.5c-0.2-0.1-0.4-0.1-0.6,0.1l-0.9,0.9l-1-1l0.9-0.9c0.1-0.1,0.2-0.4,0.1-0.6
			c-0.2-0.3-0.4-0.7-0.5-1.1c-0.1-0.2-0.2-0.4-0.5-0.3h-1.2V249h1.3c0.2,0,0.4-0.1,0.5-0.3c0.1-0.4,0.3-0.8,0.5-1.1
			c0.1-0.2,0-0.4-0.1-0.6l-0.9-0.9l1-1l0.9,0.9c0.2,0.2,0.4,0.2,0.6,0.1c0.3-0.2,0.7-0.4,1.1-0.5c0.2-0.1,0.4-0.2,0.3-0.5v-1.2h1.4
			v1.2c0,0.2,0.1,0.4,0.4,0.5c0.4,0.1,0.8,0.3,1.1,0.5c0.2,0.1,0.4,0.1,0.6-0.1l0.9-0.9l1,1l-0.8,0.8c-0.2,0.2-0.2,0.4-0.1,0.6
			c0.2,0.4,0.4,0.7,0.5,1.1c0.1,0.2,0.2,0.4,0.5,0.3h1.2v1.5L181.1,250.4L181.1,250.4z"/>
		<circle class="st12" cx="175.2" cy="249.8" r="2.3"/>
	</g>
</g>
<g>
	<path class="st13" d="M101,320.1c6,0,11,4.9,11,11c0,6-4.9,11-11,11c-6,0-11-4.9-11-11S94.9,320.1,101,320.1L101,320.1z"/>
	<path class="st14" d="M115,320.1c6,0,11,4.9,11,11c0,6-4.9,11-11,11c-2.7,0-5.2-1-7.1-2.6h0.1c0.5-0.4,0.9-0.8,1.3-1.3h-2.7
		c-0.4-0.4-0.7-0.9-1-1.3h4.6c0.3-0.4,0.5-0.9,0.7-1.3h-6c-0.2-0.4-0.4-0.9-0.5-1.3h6.9c0.1-0.4,0.2-0.9,0.3-1.3h-7.5
		c-0.1-0.6-0.1-1.2-0.1-1.8c0-2.2,0.7-4.3,1.8-6.1h4.1c-0.3-0.5-0.7-0.9-1-1.3h-2.1C109,321.5,111.8,320.1,115,320.1L115,320.1z"/>
	<path class="st13" d="M110.8,326.3c0.2,0.4,0.4,0.9,0.5,1.3H90.5c0.1-0.5,0.3-0.9,0.5-1.3H110.8L110.8,326.3z"/>
	<path class="st15" d="M95.2,332.4l0.6-4.6h-1.3l-0.8,1.7c-0.2,0.4-0.4,0.9-0.6,1.5l0,0c0-0.5-0.1-1-0.1-1.5l-0.1-1.7h-1.3l-1.1,4.6
		h0.9l0.5-1.9c0.1-0.5,0.3-1.2,0.4-1.8l0,0c0,0.6,0.1,1.2,0.1,1.7l0.2,1.8h0.8l0.9-1.9c0.3-0.5,0.5-1.1,0.8-1.7l0,0
		c-0.1,0.7-0.2,1.3-0.3,1.8l-0.3,1.9h0.7V332.4z"/>
	<path class="st15" d="M99.1,332.4c0-0.4,0-1.1,0.1-1.5l0.4-1.7c-0.3-0.1-0.7-0.2-1.1-0.2c-1.6,0-2.4,1.2-2.4,2.3
		c0,0.7,0.4,1.2,1,1.2c0.4,0,0.8-0.2,1.1-0.7l0,0c0,0.2,0,0.5,0,0.7L99.1,332.4L99.1,332.4z M98.3,330.6c-0.1,0.8-0.5,1.1-0.8,1.1
		s-0.4-0.2-0.4-0.5c0-0.6,0.5-1.4,1.1-1.4c0.1,0,0.2,0,0.3,0L98.3,330.6L98.3,330.6z"/>
	<path class="st15" d="M99.6,332.2c0.2,0.1,0.6,0.3,1,0.3c0.9,0,1.5-0.4,1.5-1.2c0-0.5-0.4-0.7-0.7-0.9c-0.3-0.1-0.4-0.2-0.4-0.4
		c0-0.2,0.2-0.3,0.4-0.3c0.3,0,0.5,0.1,0.7,0.1l0.2-0.7c-0.2-0.1-0.5-0.2-0.9-0.2c-0.9,0-1.5,0.5-1.5,1.1c0,0.4,0.3,0.7,0.7,0.9
		c0.3,0.1,0.4,0.3,0.4,0.4c0,0.2-0.1,0.3-0.4,0.3s-0.7-0.1-0.9-0.2L99.6,332.2L99.6,332.2z"/>
	<path class="st15" d="M103.4,328.4l-0.1,0.7h-0.4l-0.1,0.7h0.4l-0.3,1.3c0,0.3-0.1,0.4-0.1,0.6c0,0.4,0.3,0.7,0.9,0.7
		c0.2,0,0.5,0,0.6-0.1l0.1-0.8c-0.1,0-0.2,0-0.3,0c-0.2,0-0.3-0.1-0.3-0.3c0-0.1,0-0.3,0.1-0.4l0.2-1.1h0.7l0.1-0.7h-0.7l0.2-0.9
		L103.4,328.4L103.4,328.4z"/>
	<path class="st15" d="M107.6,331.5c-0.3,0.1-0.6,0.2-0.9,0.2s-0.5-0.1-0.6-0.3c-0.1-0.1-0.1-0.2-0.1-0.3c1.3,0,2.1-0.3,2.1-1.1
		c0-0.6-0.5-1-1.2-1c-1.2,0-1.9,1-1.9,2.1c0,0.9,0.5,1.4,1.4,1.4c0.4,0,0.8-0.1,1.2-0.3V331.5L107.6,331.5z M107.2,330
		c0,0.3-0.4,0.4-1.1,0.4c0.1-0.3,0.3-0.7,0.8-0.7C107,329.7,107.2,329.8,107.2,330L107.2,330z"/>
	<path class="st15" d="M109.3,332.4l0.2-1.2c0.1-0.6,0.4-1.2,1-1.2c0.1,0,0.1,0,0.2,0l0.2-0.9c-0.1,0-0.1,0-0.2,0
		c-0.5,0-0.8,0.3-1.1,0.8l0,0c0-0.2,0-0.5,0.1-0.7h-0.8c0,0.3-0.1,0.8-0.2,1.3l-0.4,2L109.3,332.4L109.3,332.4z"/>
	<path class="st15" d="M114.2,331.5c-0.2,0.1-0.5,0.1-0.9,0.1c-0.8,0-1.2-0.5-1.2-1.2c0-0.6,0.2-1.2,0.6-1.5c0.3-0.2,0.7-0.4,1-0.4
		c0.4,0,0.7,0.1,0.8,0.1l0.3-0.8c-0.1-0.1-0.5-0.2-1-0.2c-0.6,0-1.2,0.2-1.7,0.5c-0.7,0.5-1.2,1.3-1.2,2.3c0,1.2,0.8,1.9,2,1.9
		c0.5,0,1-0.1,1.2-0.2L114.2,331.5L114.2,331.5z"/>
	<path class="st15" d="M117.7,332.4c0-0.4,0-1.1,0.1-1.5l0.4-1.7c-0.3-0.1-0.7-0.2-1.1-0.2c-1.6,0-2.4,1.2-2.4,2.3
		c0,0.7,0.4,1.2,1,1.2c0.4,0,0.8-0.2,1.1-0.7l0,0c0,0.2,0,0.5,0,0.7L117.7,332.4L117.7,332.4z M117,330.6c-0.1,0.8-0.5,1.1-0.8,1.1
		s-0.4-0.2-0.4-0.5c0-0.6,0.5-1.4,1.1-1.4c0.1,0,0.2,0,0.3,0L117,330.6L117,330.6z"/>
	<path class="st15" d="M119.4,332.4l0.2-1.2c0.1-0.6,0.4-1.2,1-1.2c0.1,0,0.1,0,0.2,0l0.2-0.9c-0.1,0-0.1,0-0.2,0
		c-0.5,0-0.8,0.3-1.1,0.8l0,0c0-0.2,0-0.5,0.1-0.7H119c0,0.3-0.1,0.8-0.2,1.3l-0.4,2L119.4,332.4L119.4,332.4z"/>
	<path class="st15" d="M123.9,327.6l-0.3,1.5c-0.1-0.1-0.3-0.1-0.5-0.1c-1.3,0-2.1,1.1-2.1,2.2c0,0.8,0.5,1.3,1,1.3
		c0.4,0,0.8-0.2,1.1-0.6l0,0v0.5h0.9c0-0.4,0.1-0.9,0.2-1.3l0.7-3.5H123.9L123.9,327.6z M123.3,330.8c-0.1,0.6-0.5,0.9-0.8,0.9
		s-0.5-0.2-0.5-0.6c0-0.6,0.4-1.3,1-1.3c0.2,0,0.3,0.1,0.4,0.1L123.3,330.8L123.3,330.8z"/>
	<path class="st16" d="M95.4,332.2l0.6-4.6h-1.3l-0.8,1.7c-0.2,0.4-0.4,0.9-0.6,1.5l0,0c0-0.5-0.1-1-0.1-1.5l-0.1-1.7h-1.3l-1.1,4.6
		h0.9l0.5-1.9c0.1-0.5,0.3-1.2,0.4-1.8l0,0c0,0.6,0.1,1.2,0.1,1.7l0.2,1.8h0.8l0.9-1.9c0.3-0.5,0.5-1.1,0.8-1.7l0,0
		c-0.1,0.7-0.2,1.3-0.3,1.8l-0.3,1.9h0.7V332.2z"/>
	<path class="st16" d="M99.2,332.2c0-0.4,0-1.1,0.1-1.5l0.4-1.7c-0.3-0.1-0.7-0.2-1.1-0.2c-1.6,0-2.4,1.2-2.4,2.3
		c0,0.7,0.4,1.2,1,1.2c0.4,0,0.8-0.2,1.1-0.7l0,0c0,0.2,0,0.5,0,0.7L99.2,332.2L99.2,332.2z M98.5,330.4c-0.1,0.8-0.5,1.1-0.8,1.1
		s-0.4-0.2-0.4-0.5c0-0.6,0.5-1.4,1.1-1.4c0.1,0,0.2,0,0.3,0L98.5,330.4L98.5,330.4z"/>
	<path class="st16" d="M99.8,332c0.2,0.1,0.6,0.3,1,0.3c0.9,0,1.5-0.4,1.5-1.2c0-0.5-0.4-0.7-0.7-0.9c-0.3-0.1-0.4-0.2-0.4-0.4
		c0-0.2,0.2-0.3,0.4-0.3c0.3,0,0.5,0.1,0.7,0.1l0.2-0.7c-0.2-0.1-0.5-0.2-0.9-0.2c-0.9,0-1.5,0.5-1.5,1.1c0,0.4,0.3,0.7,0.7,0.9
		c0.3,0.1,0.4,0.3,0.4,0.4s-0.1,0.3-0.4,0.3s-0.7-0.1-0.9-0.2L99.8,332L99.8,332z"/>
	<path class="st16" d="M103.6,328.2l-0.1,0.7h-0.4l-0.1,0.7h0.4l-0.3,1.3c0,0.3-0.1,0.4-0.1,0.6c0,0.4,0.3,0.7,0.9,0.7
		c0.2,0,0.5,0,0.6-0.1l0.1-0.8c-0.1,0-0.2,0-0.3,0c-0.2,0-0.3-0.1-0.3-0.3c0-0.1,0-0.3,0.1-0.4l0.2-1.1h0.7l0.1-0.7h-0.7l0.2-0.9
		L103.6,328.2L103.6,328.2z"/>
	<path class="st16" d="M107.8,331.3c-0.3,0.1-0.6,0.2-0.9,0.2s-0.5-0.1-0.6-0.3c-0.1-0.1-0.1-0.2-0.1-0.3c1.3,0,2.1-0.3,2.1-1.1
		c0-0.6-0.5-1-1.2-1c-1.2,0-1.9,1-1.9,2.1c0,0.9,0.5,1.4,1.4,1.4c0.4,0,0.8-0.1,1.2-0.3V331.3L107.8,331.3z M107.3,329.8
		c0,0.3-0.4,0.4-1.1,0.4c0.1-0.3,0.3-0.7,0.8-0.7C107.2,329.6,107.3,329.7,107.3,329.8L107.3,329.8z"/>
	<path class="st16" d="M109.4,332.2l0.2-1.2c0.1-0.7,0.4-1.2,1-1.2c0.1,0,0.1,0,0.2,0l0.2-0.9c-0.1,0-0.1,0-0.2,0
		c-0.5,0-0.8,0.3-1.1,0.8l0,0c0-0.2,0-0.5,0.1-0.7H109c0,0.3-0.1,0.8-0.2,1.3l-0.4,2L109.4,332.2L109.4,332.2z"/>
	<path class="st16" d="M114.4,331.3c-0.2,0.1-0.5,0.1-0.9,0.1c-0.8,0-1.2-0.5-1.2-1.2c0-0.6,0.2-1.2,0.6-1.5c0.3-0.2,0.7-0.4,1-0.4
		c0.4,0,0.7,0.1,0.8,0.1l0.3-0.8c-0.1-0.1-0.5-0.2-1-0.2c-0.6,0-1.2,0.2-1.7,0.5c-0.7,0.5-1.2,1.3-1.2,2.3c0,1.2,0.8,1.9,2,1.9
		c0.5,0,1-0.1,1.2-0.2L114.4,331.3L114.4,331.3z"/>
	<path class="st16" d="M117.9,332.2c0-0.4,0-1.1,0.1-1.5l0.4-1.7c-0.3-0.1-0.7-0.2-1.1-0.2c-1.6,0-2.4,1.2-2.4,2.3
		c0,0.7,0.4,1.2,1,1.2c0.4,0,0.8-0.2,1.1-0.7l0,0c0,0.2,0,0.5,0,0.7L117.9,332.2L117.9,332.2z M117.1,330.4
		c-0.1,0.8-0.5,1.1-0.8,1.1s-0.4-0.2-0.4-0.5c0-0.6,0.5-1.4,1.1-1.4c0.1,0,0.2,0,0.3,0L117.1,330.4L117.1,330.4z"/>
	<path class="st16" d="M119.6,332.2l0.2-1.2c0.1-0.7,0.4-1.2,1-1.2c0.1,0,0.1,0,0.2,0l0.2-0.9c-0.1,0-0.1,0-0.2,0
		c-0.5,0-0.8,0.3-1.1,0.8l0,0c0-0.2,0-0.5,0.1-0.7h-0.8c0,0.3-0.1,0.8-0.2,1.3l-0.4,2L119.6,332.2L119.6,332.2z"/>
	<path class="st16" d="M124,327.4l-0.3,1.5c-0.1-0.1-0.3-0.1-0.5-0.1c-1.3,0-2.1,1.1-2.1,2.2c0,0.8,0.5,1.3,1,1.3
		c0.4,0,0.8-0.2,1.1-0.6l0,0v0.5h0.9c0-0.4,0.1-0.9,0.2-1.3l0.7-3.5H124L124,327.4z M123.4,330.6c-0.1,0.6-0.5,0.9-0.8,0.9
		s-0.5-0.2-0.5-0.6c0-0.6,0.4-1.3,1-1.3c0.2,0,0.3,0.1,0.4,0.1L123.4,330.6L123.4,330.6z"/>
</g>
<g>
	<path class="st17" d="M53.3,317.6V337c0,2.4-1.9,4.3-4.3,4.3H23.1c-2.4,0-4.3-1.9-4.3-4.3v-19.4c0-2.4,1.9-4.3,4.3-4.3H49
		C51.3,313.2,53.3,315.2,53.3,317.6z"/>
	<path class="st18" d="M18,317.6V337c0,2.8,2.3,5.1,5.1,5.1H49c2.8,0,5.1-2.3,5.1-5.1v-19.4c0-2.8-2.3-5.1-5.1-5.1H23.1
		C20.3,312.5,18,314.8,18,317.6z M23.1,340.5c-2,0-3.6-1.6-3.6-3.6v-4.5h2.7c0.4,0,0.7-0.3,0.7-0.7c0-0.4-0.3-0.7-0.7-0.7h-2.7v-7.4
		h9c0.1,0,0.2,0,0.4,0.1c0,0,0,0,0.1,0c0.5,0.2,0.8,0.6,0.8,1.2v4.9c0,0.5-0.3,1-0.8,1.2c0,0,0,0-0.1,0s-0.2,0.1-0.4,0.1h-2.8
		c-0.4,0-0.7,0.3-0.7,0.7c0,0.4,0.3,0.7,0.7,0.7h2.7v0.3c0,2.8,1.6,5.3,4.2,6.4c0.1,0,0.2,0.2,0.2,0.3v1H23.1z M52.5,332.4v4.5
		c0,2-1.6,3.6-3.6,3.6h-9.6v-1c0-0.1,0.1-0.2,0.2-0.3c2.5-1.1,4.2-3.6,4.2-6.4v-0.3h8.8V332.4z M48.9,314c2,0,3.6,1.6,3.6,3.6v4.5
		h-3c-0.4,0-0.7,0.3-0.7,0.7c0,0.4,0.3,0.7,0.7,0.7h3v7.4h-9c-0.1,0-0.2,0-0.4-0.1c0,0,0,0-0.1,0c-0.5-0.2-0.8-0.6-0.8-1.2v-4.9
		c0-0.5,0.3-1,0.8-1.2c0,0,0,0,0.1,0s0.2-0.1,0.4-0.1h2.6c0.4,0,0.7-0.3,0.7-0.7c0-0.4-0.3-0.7-0.7-0.7h-2.4v-0.3
		c0-2.8-1.6-5.3-4.2-6.4c-0.1,0-0.2-0.2-0.2-0.3v-1H48.9z M37.8,314v1c0,0.7,0.4,1.3,1.1,1.6c2,0.9,3.3,2.9,3.3,5.1v0.7
		c-0.8,0.5-1.4,1.3-1.4,2.4v4.9c0,1,0.5,1.9,1.4,2.4v0.7c0,2.2-1.3,4.2-3.3,5.1c-0.6,0.3-1.1,0.9-1.1,1.6v1h-3.7v-1
		c0-0.7-0.4-1.3-1.1-1.6c-2-0.9-3.3-2.9-3.3-5.1v-0.7c0.8-0.5,1.4-1.3,1.4-2.4v-4.9c0-1-0.5-1.9-1.4-2.4v-0.7c0-2.2,1.3-4.2,3.3-5.1
		c0.6-0.3,1.1-0.9,1.1-1.6v-1H37.8z M32.7,314v1c0,0.1-0.1,0.2-0.2,0.3c-2.5,1.1-4.2,3.6-4.2,6.4v0.3h-8.9v-4.5c0-2,1.6-3.6,3.6-3.6
		h9.7V314z"/>
</g>
<g>
	<g id="形状_1_3_" class="st19">
		<g id="形状_1">
			<g>
				<path class="st20" d="M176.6,330.5l-1.8,11.3h2.9l1.8-11.3H176.6L176.6,330.5z M172.3,330.5l-2.8,7.8l-0.3-1.7l0,0l-0.1-0.4
					c-0.3-0.7-1.1-2.1-2.6-3.3c-0.4-0.3-0.9-0.6-1.3-0.9l2.5,9.8h3.1l4.7-11.3H172.3L172.3,330.5z M183.7,333.7
					c0-1.3,2.9-1.1,4.1-0.4l0.4-2.4c0,0-1.3-0.5-2.6-0.5c-1.5,0-4.9,0.6-4.9,3.7c0,2.9,4.1,2.9,4.1,4.5c0,1.5-3.6,1.3-4.8,0.3
					l-0.4,2.5c0,0,1.3,0.6,3.3,0.6s5-1,5-3.9C187.8,335.2,183.7,334.9,183.7,333.7z M195.7,330.5h-2.4c-1.1,0-1.4,0.8-1.4,0.8
					l-4.4,10.4h3.1l0.6-1.7h3.7l0.3,1.7h2.7L195.7,330.5z M192.1,337.8l1.5-4.2l0.9,4.2H192.1z"/>
			</g>
		</g>
	</g>
	<g id="形状_1_2_" class="st19">
		<g id="形状_1_1_">
			<g>
				<path class="st21" d="M168.2,331.6c0,0-0.1-1-1.4-1h-4.7l-0.1,0.2c0,0,2.3,0.5,4.4,2.2c2.1,1.7,2.8,3.7,2.8,3.7L168.2,331.6z"/>
			</g>
		</g>
	</g>
</g>
<g>
	<path class="st13" d="M111.2,396l14.2-14.2c0.9-0.9,0.9-2.3,0-3.2c-0.9-0.9-2.3-0.9-3.2,0L108,392.8l-14.2-14.2
		c-0.9-0.9-2.3-0.9-3.2,0c-0.9,0.9-0.9,2.3,0,3.2l14.2,14.2l-14.2,14.2c-0.9,0.9-0.9,2.3,0,3.2c0.4,0.4,1,0.7,1.6,0.7
		s1.2-0.2,1.6-0.7l14.2-14.2l14.2,14.2c0.4,0.4,1,0.7,1.6,0.7s1.2-0.2,1.6-0.7c0.9-0.9,0.9-2.3,0-3.2L111.2,396z"/>
</g>
<g>
	<g id="do-not-disturb">
		<path class="st13" d="M180,378c-9.9,0-18,8.1-18,18s8.1,18,18,18s18-8.1,18-18S189.9,378,180,378z M165.6,396
			c0-7.9,6.5-14.4,14.4-14.4c3.2,0,6.3,1.1,8.8,3.1l-20.2,20.2C166.7,402.3,165.6,399.2,165.6,396z M180,410.4
			c-3.2,0-6.3-1.1-8.8-3.1l20.2-20.2c2,2.5,3.1,5.6,3.1,8.8C194.4,403.9,187.9,410.4,180,410.4z"/>
	</g>
</g>
<g>
	<g>
		<path class="st22" d="M53.5,389.3c-0.7-0.7-1.8-0.7-2.4,0l-20.5,20.5l-7.9-7.9c-0.7-0.7-1.8-0.7-2.4,0c-0.7,0.7-0.7,1.8,0,2.4
			l9.1,9.1c0.7,0.7,1.8,0.7,2.4,0l21.7-21.7C54.2,391.1,54.2,390,53.5,389.3z"/>
	</g>
</g>
<g>
	<path class="st3" d="M34.4,468.3c0.7,0,1.3-0.6,1.3-1.3v-15.8c0-0.7-0.6-1.3-1.3-1.3c-0.7,0-1.3,0.6-1.3,1.3v15.8
		C33.2,467.7,33.7,468.3,34.4,468.3z"/>
	<path class="st2" d="M50.8,468.3c0-0.1,0-0.1,0-0.2c-0.5-6.3-4.7-11.6-10.4-13.9c-0.1,0-0.1,0-0.2-0.1c-0.4-0.1-0.7-0.3-1.1-0.4
		c0,0-0.1,0-0.1,0c0,0,0,0,0,0c-0.8-0.2-1.6-0.4-2.4-0.5v2.6c6.6,1.1,11.7,6.8,11.7,13.7c0,7.7-6.2,13.9-13.9,13.9
		s-13.9-6.2-13.9-13.9c0-6.9,5.1-12.7,11.7-13.7v-2.6c-0.8,0.1-1.6,0.3-2.4,0.5c0,0,0,0,0,0c0,0-0.1,0-0.1,0
		c-0.4,0.1-0.8,0.2-1.1,0.4c-0.1,0-0.1,0-0.2,0.1c-0.8,0.3-1.6,0.7-2.3,1.1c0,0,0,0,0,0c-4.5,2.6-7.6,7.3-8.1,12.8
		c0,0.1,0,0.1,0,0.2c0,0.4-0.1,0.8-0.1,1.2c0,9.1,7.4,16.4,16.4,16.4s16.4-7.4,16.4-16.4C50.8,469.2,50.8,468.7,50.8,468.3z"/>
</g>
<g>
	<g>
		<path class="st2" d="M110.6,466.5l-16-16c-0.4-0.4-0.9-0.6-1.4-0.6s-1,0.2-1.4,0.6l-1.2,1.2c-0.8,0.8-0.8,2,0,2.8l13.5,13.5
			l-13.5,13.4c-0.4,0.4-0.6,0.9-0.6,1.4s0.2,1,0.6,1.4l1.2,1.2c0.4,0.4,0.9,0.6,1.4,0.6s1-0.2,1.4-0.6l16-16
			c0.4-0.4,0.6-0.9,0.6-1.4C111.2,467.4,111,466.9,110.6,466.5z"/>
	</g>
</g>
</svg>
