<?xml version="1.0" encoding="utf-8"?>
<!-- Generator: Adobe Illustrator 24.0.1, SVG Export Plug-In . SVG Version: 6.00 Build 0)  -->
<svg version="1.1" id="Layer_1" xmlns="http://www.w3.org/2000/svg" xmlns:xlink="http://www.w3.org/1999/xlink" x="0px" y="0px"
	 viewBox="0 0 500 500" style="enable-background:new 0 0 500 500;" xml:space="preserve">
<style type="text/css">
	.st0{fill:#EAF5F9;}
	.st1{opacity:0.1;fill:#0072BC;enable-background:new    ;}
	.st2{fill:#D9F1FC;}
	.st3{fill:#0072BC;}
	.st4{fill:#E5A812;}
	.st5{opacity:0.3;fill:#FFFFFF;enable-background:new    ;}
	.st6{opacity:0.1;fill:#FFFFFF;enable-background:new    ;}
	.st7{fill:#FFFFFF;}
	.st8{opacity:0.5;fill:#FFFFFF;enable-background:new    ;}
	.st9{fill:#E3A824;}
	.st10{fill:#F4C15D;}
	.st11{fill:#CCE3F2;}
	.st12{fill:none;stroke:#0072BC;stroke-miterlimit:10;}
	.st13{fill:none;stroke:#0072BC;stroke-linecap:round;stroke-miterlimit:10;}
	.st14{display:none;fill:#E5E5E5;}
	.st15{display:none;fill:#CCE3F2;}
	.st16{fill:#CCE3F2;stroke:#0072BC;stroke-miterlimit:10;}
	.st17{fill:#F4C15D;stroke:#0072BC;stroke-miterlimit:10;}
</style>
<g>
	<circle class="st0" cx="179.9" cy="36.9" r="26.1"/>
	<path class="st1" d="M163.5,22.8l-1.3,1.6C162.6,23.9,163.1,23.3,163.5,22.8L163.5,22.8z"/>
	<path class="st1" d="M163.4,23c-0.4,0.5-0.9,1-1.2,1.6h-5.4c-0.4,0-0.8-0.3-0.8-0.8c0-0.4,0.4-0.8,0.8-0.8
		C156.8,23,163.4,23,163.4,23z"/>
	<path class="st2" d="M207,46.4c0,0.4-0.4,0.8-0.8,0.8h-7.1c-0.4,0.7-0.8,1.4-1.2,2h5.3c0.4,0,0.8,0.4,0.8,0.8s-0.4,0.8-0.8,0.8
		h-6.5c-4,4.9-10,7.9-16.8,7.9c-12,0-21.7-9.7-21.7-21.7c0-3.2,0.7-6.3,2-9.1h-6.4c-0.4,0.1-0.8-0.3-0.8-0.7s0.4-0.8,0.8-0.8h7.2
		c0.4-0.7,0.8-1.4,1.3-2l1.3-1.6l0,0c4-4.6,9.8-7.5,16.4-7.5c12,0,21.7,9.7,21.7,21.7c0,3.1-0.6,6-1.8,8.6h6.4
		C206.6,45.6,207,46,207,46.4z"/>
	<polygon class="st1" points="156,17.7 156.4,18.5 157.3,18.6 156.7,19.3 156.8,20.2 156,19.7 155.2,20.2 155.4,19.3 154.7,18.6 
		155.6,18.5 	"/>
	<polygon class="st1" points="202.9,59.1 203.1,59.5 203.7,59.6 203.3,60 203.4,60.6 202.9,60.3 202.4,60.6 202.5,60 202.1,59.6 
		202.6,59.5 	"/>
	<path class="st1" d="M158.3,60.6c-0.8,0-1.4-0.6-1.4-1.4s0.6-1.4,1.4-1.4s1.4,0.6,1.4,1.4S159,60.6,158.3,60.6z M158.3,58.2
		c-0.6,0-1,0.5-1,1s0.5,1,1,1c0.6,0,1-0.5,1-1S158.9,58.2,158.3,58.2z"/>
	
		<rect x="200.9" y="12.6" transform="matrix(0.7071 -0.7071 0.7071 0.7071 49.556 146.6491)" class="st1" width="1.8" height="1.8"/>
</g>
<g>
	<g>
		<path class="st3" d="M181.9,44.6c0.3,0.1,0.7,0.2,1,0.2c-0.5,1.4-1.9,2.5-3.5,2.5h-9.5c-2.1,0-3.7-1.7-3.7-3.8V31.7
			c0-2.1,1.7-3.8,3.7-3.8h2.9c0.3-1.8,1.8-3.2,3.7-3.2h5.2c2.1,0,3.7,1.7,3.7,3.8V31c-0.3-0.1-0.7-0.1-1.1-0.1v-2.4
			c0-1.5-1.2-2.7-2.7-2.7h-5.2c-1.3,0-2.4,0.9-2.6,2.1h5.7c1.8,0,3.3,1.3,3.7,3c-0.4,0-0.7,0.1-1,0.2c-0.2-1.2-1.3-2.1-2.6-2.1h-9.7
			c-1.5,0-2.7,1.2-2.7,2.7v11.9c0,1.5,1.2,2.7,2.7,2.7h9.6C180.6,46.3,181.5,45.6,181.9,44.6z M176.4,31.8h-7.1v0.8h7.1V31.8
			L176.4,31.8z M174.8,35.4h-5.5v0.8h5.5V35.4z M169.3,39.8h5.5V39h-5.5V39.8z M169.3,43.5h7.1v-0.8h-7.1V43.5z"/>
	</g>
	<path class="st3" d="M188.4,43.6c-3.1,1.8-7,0.7-8.8-2.4c-1.8-3.2-0.7-7.2,2.4-9s7-0.7,8.8,2.4C192.5,37.8,191.5,41.7,188.4,43.6z
		 M187.9,42.6c2.6-1.5,3.4-4.9,2-7.4c-1.5-2.6-4.8-3.5-7.3-2c-2.6,1.5-3.4,4.9-2,7.4C182,43.2,185.3,44.2,187.9,42.6z"/>
	<polygon class="st3" points="187.2,44.8 190,43.1 192.1,46.9 189.4,48.5 	"/>
	<path class="st3" d="M192.5,47.4l-2.8,1.6c0.4,0.8,1.4,1,2.2,0.6C192.6,49.1,192.9,48.2,192.5,47.4z"/>
	<polygon class="st4" points="184.2,39 182.5,37.2 181.7,37.9 184.1,40.5 188.6,36.6 187.9,35.8 	"/>
</g>
<g>
	<g>
		<circle class="st5" cx="467.9" cy="36.9" r="26.1"/>
		<path class="st6" d="M451.5,22.8l-1.3,1.6C450.6,23.9,451.1,23.3,451.5,22.8L451.5,22.8z"/>
		<path class="st7" d="M451.4,23c-0.4,0.5-0.9,1-1.2,1.6h-5.4c-0.4,0-0.8-0.3-0.8-0.8c0-0.4,0.4-0.8,0.8-0.8
			C444.8,23,451.4,23,451.4,23z"/>
		<path class="st7" d="M495,46.4c0,0.4-0.4,0.8-0.8,0.8h-7.1c-0.4,0.7-0.8,1.4-1.2,2h5.3c0.4,0,0.8,0.4,0.8,0.8s-0.4,0.8-0.8,0.8
			h-6.5c-4,4.9-10,7.9-16.8,7.9c-12,0-21.7-9.7-21.7-21.7c0-3.2,0.7-6.3,2-9.1h-6.4c-0.4,0-0.8-0.4-0.8-0.8s0.4-0.8,0.8-0.8h7.2
			c0.4-0.7,0.8-1.4,1.3-2l1.3-1.6l0,0c4-4.6,9.8-7.5,16.4-7.5c12,0,21.7,9.7,21.7,21.7c0,3.1-0.6,6-1.8,8.6h6.4
			C494.6,45.6,495,46,495,46.4z"/>
		<polygon class="st8" points="444,17.7 444.4,18.5 445.3,18.6 444.7,19.3 444.8,20.2 444,19.7 443.2,20.2 443.4,19.3 442.7,18.6 
			443.6,18.5 		"/>
		<polygon class="st8" points="490.9,59.1 491.1,59.5 491.7,59.6 491.3,60 491.4,60.6 490.9,60.3 490.4,60.6 490.5,60 490.1,59.6 
			490.6,59.5 		"/>
		<path class="st8" d="M446.3,60.6c-0.8,0-1.4-0.6-1.4-1.4s0.6-1.4,1.4-1.4s1.4,0.6,1.4,1.4S447,60.6,446.3,60.6z M446.3,58.2
			c-0.6,0-1,0.5-1,1s0.5,1,1,1s1-0.5,1-1S446.9,58.2,446.3,58.2z"/>
		
			<rect x="488.9" y="12.5" transform="matrix(0.7071 -0.7071 0.7071 0.7071 133.9856 350.2618)" class="st8" width="1.8" height="1.8"/>
	</g>
	<g>
		<path class="st9" d="M478.2,41.2l-4,4l-2-1.4c-0.3-0.2-0.6-0.1-0.8,0.1c-0.2,0.3-0.1,0.6,0.1,0.8l2.3,1.7c0.1,0.1,0.2,0.1,0.3,0.1
			c0.2,0,0.3-0.1,0.4-0.2l4.3-4.4c0.2-0.2,0.2-0.6,0-0.8C478.7,40.9,478.4,41,478.2,41.2z"/>
		<g>
			<title>Layer 1</title>
			<path class="st7" d="M468.1,46.8h-11.7v-0.4c0-4.3,3.1-5.3,5.6-5.9c1.4-0.4,2.6-0.7,2.9-1.6v-1.6c-0.5-0.4-1.5-1.6-1.7-2.7
				c-0.4-0.1-0.9-0.6-1-1.8c-0.1-0.6,0.1-1,0.4-1.3c-0.1-0.4-0.4-1.2-0.4-2c0-3.7,2.3-6,6-6c1.9,0,2.7,1,3,1.4c1.8,0.1,3,1.9,3,4.6
				c0,0.9-0.2,1.6-0.4,2c0.2,0.3,0.4,0.7,0.4,1.2c-0.1,1.2-0.7,1.7-1,1.8c-0.1,0.7-0.6,1.3-0.8,1.7l-0.1,0.1l-0.1,0.1
				c-2.8,1.4-4.5,4.2-4.5,7.2c0,0.9,0.1,1.8,0.4,2.7L468.1,46.8z"/>
			<path class="st7" d="M475.5,50.5c-3.8,0-7-3.1-7-7s3.1-7,7-7c3.8,0,7,3.1,7,7S479.4,50.5,475.5,50.5z M475.5,37.3
				c-3.4,0-6.2,2.8-6.2,6.2s2.8,6.2,6.2,6.2c3.4,0,6.2-2.8,6.2-6.2C481.8,40.1,479,37.3,475.5,37.3z"/>
		</g>
	</g>
</g>
<g>
	<g>
		<g>
			<circle class="st5" cx="467.9" cy="180.9" r="26.1"/>
			<path class="st6" d="M451.5,166.8l-1.3,1.6C450.6,167.9,451.1,167.3,451.5,166.8L451.5,166.8z"/>
			<path class="st7" d="M451.4,167c-0.4,0.5-0.9,1-1.2,1.6h-5.4c-0.4,0-0.8-0.3-0.8-0.8c0-0.4,0.4-0.8,0.8-0.8H451.4z"/>
			<path class="st7" d="M495,190.4c0,0.4-0.4,0.8-0.8,0.8h-7.1c-0.4,0.7-0.8,1.4-1.2,2h5.3c0.4,0,0.8,0.4,0.8,0.8s-0.4,0.8-0.8,0.8
				h-6.5c-4,4.9-10,7.9-16.8,7.9c-12,0-21.7-9.7-21.7-21.7c0-3.2,0.7-6.3,2-9.1h-6.4c-0.4,0-0.8-0.4-0.8-0.8c0-0.4,0.4-0.8,0.8-0.8
				h7.2c0.4-0.7,0.8-1.4,1.3-2l1.3-1.6l0,0c4-4.6,9.8-7.5,16.4-7.5c12,0,21.7,9.7,21.7,21.7c0,3.1-0.6,6-1.8,8.6h6.4
				C494.6,189.6,495,190,495,190.4z"/>
			<polygon class="st8" points="444,161.7 444.4,162.5 445.3,162.6 444.7,163.3 444.8,164.2 444,163.7 443.2,164.2 443.4,163.3 
				442.7,162.6 443.6,162.5 			"/>
			<polygon class="st8" points="490.9,203.1 491.1,203.5 491.7,203.6 491.3,204 491.4,204.6 490.9,204.3 490.4,204.6 490.5,204 
				490.1,203.6 490.6,203.5 			"/>
			<path class="st8" d="M446.3,204.6c-0.8,0-1.4-0.6-1.4-1.4s0.6-1.4,1.4-1.4s1.4,0.6,1.4,1.4S447,204.6,446.3,204.6z M446.3,202.2
				c-0.6,0-1,0.5-1,1s0.5,1,1,1s1-0.5,1-1S446.9,202.2,446.3,202.2z"/>
			
				<rect x="488.9" y="156.5" transform="matrix(0.7071 -0.7071 0.7071 0.7071 32.1632 392.4378)" class="st8" width="1.8" height="1.8"/>
		</g>
	</g>
</g>
<g>
	<polygon class="st10" points="49.9,54.7 41.9,47 47.1,41.8 55.1,49.8 54.4,54.2 	"/>
	<path class="st11" d="M37.7,54.9H13c-1.9,0-3.4-1.5-3.4-3.3V19.8c0-1.8,1.5-3.3,3.4-3.3h4.4v-3.6l5.7-0.3l0.1-2.4L27,9.9l0.9,2.6
		l4.8,0.1l1.3,3.9h3.7c1.9,0,3.4,1.5,3.4,3.3v31.8C41.1,53.4,39.6,54.9,37.7,54.9z"/>
	<circle class="st10" cx="36.6" cy="36.3" r="12.2"/>
	<path class="st12" d="M41.2,47.7v3.8c0,1.9-1.6,3.5-3.5,3.5H13.2c-1.9,0-3.5-1.6-3.5-3.5V20.1c0-1.9,1.6-3.5,3.5-3.5h3.7"/>
	<path class="st12" d="M34,16.6h3.6c1.9,0,3.5,1.6,3.5,3.5v5.1"/>
	<path class="st12" d="M27.6,12.6h4.3c1,0,1.8,0.8,1.8,1.8V19c0,1-0.8,1.8-1.8,1.8H18.8c-1,0-1.8-0.8-1.8-1.8v-4.7
		c0-1,0.8-1.8,1.8-1.8h4.1l0,0v-1c0-1,0.8-1.8,1.8-1.8h1.2c1,0,1.8,0.8,1.8,1.8L27.6,12.6L27.6,12.6z"/>
	<line class="st13" x1="16.6" y1="26.8" x2="29.3" y2="26.8"/>
	<line class="st13" x1="16.6" y1="31.6" x2="25.5" y2="31.6"/>
	<line class="st13" x1="16.6" y1="36.5" x2="24.5" y2="36.5"/>
	<line class="st13" x1="16.6" y1="41.1" x2="25.4" y2="41.1"/>
	<line class="st13" x1="16.6" y1="45.9" x2="29.1" y2="45.9"/>
	<circle class="st12" cx="36.5" cy="36.4" r="12"/>
	<path class="st12" d="M47,42.1l6.7,6.7c1.3,1.3,1.3,3.6,0,4.9l0,0c-1.3,1.3-3.6,1.3-4.9,0l-6.6-6.6"/>
	<polyline class="st12" points="30.8,37.1 34.3,40.7 42.8,32.4 	"/>
</g>
<ellipse class="st14" cx="31.3" cy="62.7" rx="22.7" ry="1.2"/>
<path class="st15" d="M37.7,130.2H13c-1.9,0-3.4-1.5-3.4-3.3V95.1c0-1.8,1.5-3.3,3.4-3.3h4.4v-3.6l5.7-0.3l0.1-2.4l3.8-0.3l0.9,2.6
	l4.8,0.1l1.3,3.9h3.7c1.9,0,3.4,1.5,3.4,3.3v31.8C41.1,128.7,39.6,130.2,37.7,130.2z"/>
<g>
	<polygon class="st10" points="112.6,126 104.6,118.3 109.8,113.1 117.8,121.1 117.1,125.5 	"/>
	<circle class="st10" cx="99.3" cy="107.6" r="12.2"/>
	<circle class="st12" cx="99.2" cy="107.7" r="12"/>
	<path class="st12" d="M109.7,113.4l6.7,6.7c1.3,1.3,1.3,3.6,0,4.9l0,0c-1.3,1.3-3.6,1.3-4.9,0l-6.6-6.6"/>
	<polyline class="st12" points="93.5,108.4 97,112 105.5,103.7 	"/>
</g>
<ellipse class="st14" cx="31.3" cy="134" rx="22.7" ry="1.2"/>
<g>
	<path class="st16" d="M117.8,37.3c-0.4,0-0.7-0.1-1-0.3L86.6,20.8c-1.1-0.6-1.5-1.9-0.9-3l2-3.7c0.3-0.5,0.7-0.9,1.3-1.1
		c0.6-0.2,1.2-0.1,1.7,0.2l30.2,16.2c0.5,0.3,0.9,0.7,1.1,1.3c0.2,0.6,0.1,1.2-0.2,1.7l-2,3.7c-0.3,0.5-0.7,0.9-1.3,1.1
		C118.3,37.3,118,37.3,117.8,37.3z"/>
	<path class="st3" d="M106,31.1c-0.1,0-0.2,0-0.3-0.1l-8.9-4.8c-0.3-0.2-0.5-0.6-0.3-0.9l3.4-6.3c0.1-0.2,0.2-0.3,0.4-0.3
		c0.2-0.1,0.4,0,0.5,0.1l8.9,4.8c0.2,0.1,0.3,0.2,0.3,0.4c0.1,0.2,0,0.4-0.1,0.5l-3.4,6.3C106.4,31,106.3,31.1,106,31.1
		C106.2,31.1,106.1,31.1,106,31.1z"/>
	<path class="st17" d="M109.9,22.6c-2.1,0-3.8-0.8-4.2-2.2c-0.3-1,0.1-2.2,1.1-3.2c0.9-0.9,2.2-1.7,3.8-2.1c3.3-1,6.4-0.2,7,1.8
		c0.3,1-0.1,2.2-1.1,3.2c-0.9,0.9-2.2,1.7-3.8,2.1C111.7,22.5,110.7,22.6,109.9,22.6z"/>
	<g>
		<path class="st10" d="M105.2,20.5c-1.5-0.2-3.1-2.1-3.9-4.6c-0.9-3-0.3-5.9,1.4-6.4c0.2-0.1,0.4-0.1,0.6-0.1
			c0.7,0,1.4,0.4,2.1,1.1c0.9,0.8,1.6,2.1,2,3.5c0.2,0.6,0.3,1.1,0.4,1.7c0,0.1,0,0.2-0.1,0.2c-1.9,1-3,2.5-2.7,3.6
			c0.1,0.2,0.2,0.4,0.3,0.6c0.1,0.1,0.1,0.2,0,0.2C105.4,20.5,105.3,20.5,105.2,20.5L105.2,20.5z"/>
		<path class="st3" d="M103.4,10L103.4,10c0.6,0,1.2,0.3,1.8,0.9c0.8,0.8,1.5,2,1.9,3.3c0.1,0.5,0.2,0.9,0.3,1.4
			c-2.1,1.1-3.2,2.7-2.8,4.1l0,0c-1.1-0.6-2.2-2.1-2.8-4c-0.9-3-0.1-5.4,1.1-5.7C103.1,10,103.2,10,103.4,10 M103.4,9
			c-0.2,0-0.5,0-0.7,0.1c-2,0.6-2.8,3.7-1.8,7c0.8,2.7,2.5,4.7,4.3,4.9h0.1c0.3,0,0.5-0.1,0.6-0.4s0.1-0.6-0.1-0.8
			c-0.1-0.1-0.2-0.3-0.2-0.4c-0.3-0.9,0.8-2.2,2.4-3c0.3-0.1,0.4-0.4,0.4-0.7c-0.1-0.6-0.2-1.2-0.4-1.8c-0.5-1.5-1.2-2.8-2.1-3.8
			C105,9.4,104.2,9,103.4,9L103.4,9z"/>
	</g>
	<path class="st16" d="M110.8,55.3H85.1c-2.3,0-4.1-1.9-4.1-4.1V34.7c0-0.4,0.3-0.7,0.7-0.7h28.9c0.1,0,0.2,0,0.3,0.1l3.6,2
		c0.2,0.1,0.4,0.4,0.4,0.6v14.6C114.9,53.5,113.1,55.3,110.8,55.3z"/>
	<path class="st3" d="M94.3,40.5c-0.4,0-0.7-0.3-0.7-0.7v-5.2c0-0.4,0.3-0.7,0.7-0.7h7.4c0.4,0,0.7,0.3,0.7,0.7v5.2
		c0,0.4-0.3,0.7-0.7,0.7h-1.2"/>
	<path class="st3" d="M101.7,49.8c0.2,0.1,0.3,0.4,0.3,0.6v4.2c0,0.4-0.3,0.7-0.7,0.7H94c-0.4,0-0.7-0.3-0.7-0.7v-4.2
		c0-0.2,4.2-2.4,4.4-2.5"/>
	<path class="st17" d="M101.1,49.9c-0.3,0-0.6-0.1-0.9-0.3l-2.4-1.7h-0.1l-2.4,1.7c-0.5,0.4-1.2,0.4-1.8,0c-0.5-0.4-0.8-1.1-0.5-1.7
		l0.9-2.8V45l-2.4-1.7c-0.5-0.4-0.8-1.1-0.5-1.7c0.2-0.6,0.8-1,1.4-1h2.9c0,0,0.1,0,0.1-0.1l0.9-2.8c0.2-0.6,0.8-1,1.4-1
		c0.7,0,1.2,0.4,1.4,1l0.9,2.8l0.1,0.1h2.9c0.7,0,1.2,0.4,1.4,1c0.2,0.6,0,1.3-0.5,1.7l-2.4,1.7c0,0-0.1,0.1,0,0.1l0.9,2.8
		c0.2,0.6,0,1.3-0.5,1.7C101.7,49.8,101.4,49.9,101.1,49.9z"/>
	<path class="st17" d="M92.5,32.7c-0.1,0-0.2,0-0.2,0c-0.4-0.1-0.7-0.5-0.8-0.9l-0.1-0.9l-0.9-0.2c-0.4-0.1-0.7-0.5-0.8-0.9
		c0-0.4,0.2-0.9,0.6-1l0.9-0.4l-0.1-0.9c0-0.4,0.2-0.9,0.6-1c0.4-0.2,0.9-0.1,1.2,0.3l0.6,0.7l0.9-0.4c0.4-0.2,0.9-0.1,1.2,0.3
		c0.3,0.3,0.3,0.8,0.1,1.2l-0.5,0.8l0.6,0.7c0.3,0.3,0.3,0.8,0.1,1.2c-0.2,0.4-0.7,0.6-1.1,0.5l-0.9-0.2l-0.5,0.8
		C93.2,32.5,92.8,32.7,92.5,32.7z"/>
	<path class="st17" d="M84.1,29.4c-0.1,0-0.3,0-0.4-0.1c-0.4-0.2-0.7-0.6-0.6-1.1l0.1-1.2L82,26.5c-0.4-0.2-0.7-0.6-0.6-1.1
		c0-0.5,0.4-0.9,0.9-1l1.2-0.3l0.1-1.2c0-0.5,0.4-0.9,0.9-1s0.9,0.1,1.2,0.5l0.6,1l1.2-0.3c0.5-0.1,0.9,0.1,1.2,0.5
		c0.2,0.4,0.2,0.9-0.1,1.3l-1,1.1l0.6,1c0.2,0.4,0.2,0.9-0.1,1.3c-0.3,0.4-0.8,0.5-1.3,0.3l-1.1-0.5L84.9,29
		C84.7,29.3,84.4,29.4,84.1,29.4z"/>
	<path class="st3" d="M87.9,32.4l-1.1-0.9l0.5,0.4l-0.6,0.4c-0.1-0.1-0.4-0.6-0.8-1.1c-0.2-0.3-0.2-0.7,0.2-1c0.3-0.2,0.7-0.2,1,0.2
		C88.2,32,88.2,32,87.9,32.4z"/>
	<path class="st3" d="M99.3,32.4c-0.3,0-0.5-0.2-0.6-0.4l-0.8-1.9c-0.1-0.4,0-0.8,0.4-0.9s0.8,0,0.9,0.4l0.8,1.9
		c0.1,0.4,0,0.8-0.4,0.9C99.5,32.4,99.4,32.4,99.3,32.4z"/>
</g>
<ellipse class="st14" cx="100.5" cy="62" rx="19.5" ry="1"/>
<g>
	<path class="st10" d="M43.3,87.5l-4-3.9c0,0,2.3-3.3,4.9-1.2C45.4,83.3,45.8,85.5,43.3,87.5z"/>
	<path class="st11" d="M12.8,93.9h37.4c2.1,0,3.8,1.7,3.8,3.8v16.8c0,2.1-1.7,3.8-3.8,3.8H12.8c-2.1,0-3.8-1.7-3.8-3.8V97.7
		C9,95.6,10.7,93.9,12.8,93.9z"/>
	<polygon class="st10" points="22.6,100.2 38.3,84.3 42.5,88.3 26.9,104.1 26.7,104.3 	"/>
	<g>
		<g>
			<path class="st13" d="M23.1,93.9h-9.4C11.1,93.9,9,96,9,98.6v15c0,2.6,2.1,4.7,4.7,4.7h35.6c2.6,0,4.7-2.1,4.7-4.7v-15
				c0-2.6-2.1-4.7-4.7-4.7h-7.5"/>
		</g>
	</g>
	<g>
		<g>
			<path class="st3" d="M47.4,99.5H36.2c-0.5,0-0.9,0.4-0.9,0.9s0.4,0.9,0.9,0.9h11.3c0.5,0,0.9-0.4,0.9-0.9S48,99.5,47.4,99.5z"/>
		</g>
	</g>
	<g>
		<g>
			<path class="st3" d="M47.4,105.1H30.6c-0.5,0-0.9,0.4-0.9,0.9s0.4,0.9,0.9,0.9h16.9c0.5,0,0.9-0.4,0.9-0.9
				C48.4,105.6,48,105.1,47.4,105.1z"/>
		</g>
	</g>
	<g>
		<g>
			<path class="st3" d="M47.4,110.8H24.9c-0.5,0-0.9,0.4-0.9,0.9s0.4,0.9,0.9,0.9h22.5c0.5,0,0.9-0.4,0.9-0.9S48,110.8,47.4,110.8z"
				/>
		</g>
	</g>
	<g>
		<path class="st12" d="M38.4,83.9L22,100.3l-2.4,6.4c-0.1,0.3,0.1,0.6,0.4,0.6c0.1,0,0.1,0,0.2,0l6.4-2.4L43,88.4L38.4,83.9
			L38.4,83.9z"/>
	</g>
	<g>
		<g>
			<path class="st12" d="M42.3,81.2c-0.7,0-1.7,0.3-2.2,0.9l-1.4,1.4l4.5,4.6l1.3-1.3c1.2-1.2,1.2-3.4,0-4.6l0,0
				C44,81.5,43,81.2,42.3,81.2L42.3,81.2z"/>
		</g>
	</g>
	<line class="st12" x1="22.3" y1="100.4" x2="26.5" y2="104.5"/>
</g>
</svg>
