<?xml version="1.0" encoding="utf-8"?>
<!-- Generator: Adobe Illustrator 25.2.1, SVG Export Plug-In . SVG Version: 6.00 Build 0)  -->
<svg version="1.1" xmlns="http://www.w3.org/2000/svg" xmlns:xlink="http://www.w3.org/1999/xlink" x="0px" y="0px"
	 viewBox="0 0 36 36" style="enable-background:new 0 0 36 36;" xml:space="preserve">
<style type="text/css">
	.st0{display:none;}
	.st1{display:inline;}
	.st2{fill:none;stroke:#FFFFFF;stroke-miterlimit:10;}
	.st3{display:inline;fill:#FFFFFF;}
	.st4{fill:#FFFFFF;}
</style>
<g id="Layer_1" class="st0">
	<g class="st1">
		<g>
			<path class="st2" d="M1.3,3.6C0.9,4.1,0.8,4.8,1.1,5.4l6.1,11.4l-5.7,6.3c-0.2,0.3-0.3,0.6-0.1,0.9c0,0.1,0.1,0.2,0.2,0.2
				c0.2,0.2,0.4,0.3,0.6,0.2l6.5-0.3l1.3,7.4c0.1,0.3,0.2,0.6,0.5,0.9c0.5,0.5,1.4,0.6,2.1,0.2l22.2-14.9c0.3-0.2,0.4-0.5,0.4-0.8
				c0-0.3-0.2-0.6-0.5-0.7L3.2,3.1C2.5,2.9,1.8,3,1.3,3.6z"/>
		</g>
		<polyline class="st2" points="8.7,24.2 7.2,16.8 35.1,17.1 		"/>
	</g>
	
		<image style="display:inline;overflow:visible;" width="1920" height="1080" xlink:href="1C3D84AF.jpg"  transform="matrix(1 0 0 1 -936.9415 661.472)">
	</image>
	
		<image style="display:inline;overflow:visible;" width="540" height="1170" xlink:href="C:\Users\manikandan\Downloads\Screenshot_20210401-102950_WhatsApp.jpg"  transform="matrix(1 0 0 1 -1544.3235 -661)">
	</image>
</g>
<g id="Layer_2" class="st0">
	<path class="st3" d="M0.6,3.8c0,0-0.5-1.3,0.9-0.9C2.8,3.4,35,17.4,35,17.4s0.9,0.6,0,1.2C34,19,1.4,33.1,1.4,33.1
		s-1.2,0.4-0.9-0.7C0.7,31.9,7.2,21,7.2,21s0-0.3,0.5-0.5c0.4-0.1,6.6-2.5,6.6-2.5l-6.5-2.5c0,0-0.3,0-0.6-0.5
		C6.8,14.5,0.6,3.8,0.6,3.8z"/>
</g>
<g id="Layer_3">
	<path class="st4" d="M0.5,33.7V21.8c0-0.6,0.4-1.1,1-1.1l13-2.2L1.3,14.8c-0.5-0.1-0.8-0.6-0.8-1.1V2.3c0-0.8,0.9-1.4,1.6-1
		l32.7,15.3c0.9,0.4,0.9,1.7,0,2.1L2.2,34.7C1.4,35.1,0.5,34.6,0.5,33.7z"/>
</g>
</svg>
