<?xml version="1.0" encoding="utf-8"?>
<!-- Generator: Adobe Illustrator 25.2.3, SVG Export Plug-In . SVG Version: 6.00 Build 0)  -->
<svg version="1.1" xmlns="http://www.w3.org/2000/svg" xmlns:xlink="http://www.w3.org/1999/xlink" x="0px" y="0px"
	 viewBox="0 0 50 50" style="enable-background:new 0 0 50 50;" xml:space="preserve">
<style type="text/css">
	.st0{display:none;}
	.st1{display:inline;fill:#FFFFFF;}
	.st2{display:inline;}
	.st3{fill:#0072BC;}
	.st4{fill:#FFFFFF;}
	.st5{fill:#666666;}
</style>
<g id="Layer_1" class="st0">
	<rect id="Rectangle_2073" y="0" class="st1" width="50" height="50"/>
	<g class="st2">
		<path class="st3" d="M25,13.1c-7.6,0-14.6,4.2-19.7,11c-0.4,0.6-0.4,1.3,0,1.9c5.1,6.8,12,11,19.7,11s14.6-4.2,19.7-11
			c0.4-0.6,0.4-1.3,0-1.9C39.6,17.3,32.6,13.1,25,13.1z M25.5,33.4c-5.1,0.3-9.3-3.9-8.9-8.9c0.3-4.2,3.7-7.6,7.8-7.8
			c5.1-0.3,9.3,3.9,8.9,8.9C33.1,29.7,29.7,33.1,25.5,33.4z M25.3,29.5c-2.7,0.2-5-2.1-4.8-4.8c0.1-2.3,2-4.1,4.2-4.2
			c2.7-0.2,5,2.1,4.8,4.8C29.4,27.6,27.5,29.4,25.3,29.5z"/>
	</g>
</g>
<g id="Layer_3" class="st0">
	<g class="st2">
		<rect x="22.3" y="3" transform="matrix(0.7071 -0.7071 0.7071 0.7071 -11.2063 24.4749)" class="st3" width="3.3" height="45.6"/>
		<g>
			<path class="st3" d="M20.5,24.7c-0.2,2.7,2.1,5,4.8,4.8c1.2-0.1,2.3-0.7,3.1-1.6L22,21.6C21.2,22.4,20.6,23.4,20.5,24.7z"/>
			<path class="st3" d="M31.1,30.7c-1.4,1.5-3.4,2.5-5.6,2.7c-5.1,0.3-9.3-3.9-8.9-8.9c0.1-2.2,1.1-4.2,2.7-5.6l-3.6-3.6
				c-3.9,1.9-7.4,4.9-10.4,8.8c-0.4,0.6-0.4,1.3,0,1.9c5.1,6.8,12,11,19.7,11c3.5,0,6.8-0.9,9.9-2.5L31.1,30.7z"/>
			<path class="st3" d="M44.7,24c-5.1-6.8-12-11-19.7-11c-2,0-4,0.3-6,0.9l3.1,3.1c0.7-0.3,1.5-0.4,2.3-0.5c5.1-0.3,9.3,3.9,8.9,8.9
				c-0.1,0.8-0.2,1.6-0.5,2.3l4.9,4.9c2.5-1.8,4.9-4.1,6.9-6.8C45.1,25.4,45.1,24.6,44.7,24z"/>
			<path class="st3" d="M25.6,20.5l3.9,3.9C29.2,22.4,27.6,20.8,25.6,20.5z"/>
		</g>
	</g>
</g>
<g id="gray_eye">
	<rect id="Rectangle_2073_1_" y="0" class="st4" width="50" height="50"/>
	<g>
		<path class="st5" d="M25,13.1c-7.6,0-14.6,4.2-19.7,11c-0.4,0.6-0.4,1.3,0,1.9c5.1,6.8,12,11,19.7,11s14.6-4.2,19.7-11
			c0.4-0.6,0.4-1.3,0-1.9C39.6,17.3,32.6,13.1,25,13.1z M25.5,33.4c-5.1,0.3-9.3-3.9-8.9-8.9c0.3-4.2,3.7-7.6,7.8-7.8
			c5.1-0.3,9.3,3.9,8.9,8.9C33.1,29.7,29.7,33.1,25.5,33.4z M25.3,29.5c-2.7,0.2-5-2.1-4.8-4.8c0.1-2.3,2-4.1,4.2-4.2
			c2.7-0.2,5,2.1,4.8,4.8C29.4,27.6,27.5,29.4,25.3,29.5z"/>
	</g>
</g>
<g id="Layer_5" class="st0">
	<g class="st2">
		<rect x="22.3" y="3" transform="matrix(0.7071 -0.7071 0.7071 0.7071 -11.2063 24.4749)" class="st5" width="3.3" height="45.6"/>
		<g>
			<path class="st5" d="M20.5,24.7c-0.2,2.7,2.1,5,4.8,4.8c1.2-0.1,2.3-0.7,3.1-1.6L22,21.6C21.2,22.4,20.6,23.4,20.5,24.7z"/>
			<path class="st5" d="M31.1,30.7c-1.4,1.5-3.4,2.5-5.6,2.7c-5.1,0.3-9.3-3.9-8.9-8.9c0.1-2.2,1.1-4.2,2.7-5.6l-3.6-3.6
				c-3.9,1.9-7.4,4.9-10.4,8.8c-0.4,0.6-0.4,1.3,0,1.9c5.1,6.8,12,11,19.7,11c3.5,0,6.8-0.9,9.9-2.5L31.1,30.7z"/>
			<path class="st5" d="M44.7,24c-5.1-6.8-12-11-19.7-11c-2,0-4,0.3-6,0.9l3.1,3.1c0.7-0.3,1.5-0.4,2.3-0.5c5.1-0.3,9.3,3.9,8.9,8.9
				c-0.1,0.8-0.2,1.6-0.5,2.3l4.9,4.9c2.5-1.8,4.9-4.1,6.9-6.8C45.1,25.4,45.1,24.6,44.7,24z"/>
			<path class="st5" d="M25.6,20.5l3.9,3.9C29.2,22.4,27.6,20.8,25.6,20.5z"/>
		</g>
	</g>
</g>
</svg>
