<svg xmlns="http://www.w3.org/2000/svg" width="55.246" height="47.549" viewBox="0 0 55.246 47.549">
  <g id="danger" transform="translate(0.556 -35.357)">
    <g id="Group_15" transform="translate(0 35.857)">
      <g id="Group_14">
        <path id="Path_33" d="M53.434,75.032,31.23,38.209a4.863,4.863,0,0,0-8.329,0L.7,75.032a4.863,4.863,0,0,0,4.165,7.374h44.4a4.863,4.863,0,0,0,4.165-7.374Zm-3,3.169a1.341,1.341,0,0,1-1.166.68H4.861a1.339,1.339,0,0,1-1.146-2.03l22.2-36.823a1.339,1.339,0,0,1,2.293,0l22.2,36.823a1.34,1.34,0,0,1,.027,1.349Z" transform="translate(0 -35.857)" fill="#d0021b" stroke="#fff" stroke-width="1"/>
      </g>
    </g>
    <g id="Group_16" transform="translate(24.695 50.357)">
      <path id="Path_34" d="M235.965,173.005c-1.341,0-2.387.719-2.387,1.995,0,3.891.458,9.482.458,13.373,0,1.014.883,1.439,1.929,1.439.785,0,1.9-.425,1.9-1.439,0-3.891.458-9.482.458-13.373a2.1,2.1,0,0,0-2.358-2Z" transform="translate(-233.578 -173.005)" fill="#d0021b" stroke="#fff" stroke-width="1"/>
    </g>
    <g id="Group_18" transform="translate(24.597 69.42)">
      <g id="Group_17">
        <path id="Path_35" d="M235.169,353.306a2.518,2.518,0,1,0,2.518,2.518,2.517,2.517,0,0,0-2.518-2.518Z" transform="translate(-232.651 -353.306)" fill="#d0021b" stroke="#fff" stroke-width="1"/>
      </g>
    </g>
  </g>
</svg>