<svg id="check" xmlns="http://www.w3.org/2000/svg" width="56.132" height="56.132" viewBox="0 0 56.132 56.132">
  <path id="Path_31" d="M28.066,1A27.066,27.066,0,1,0,55.132,28.066,27.066,27.066,0,0,0,28.066,1Zm0,49.211A22.145,22.145,0,1,1,50.211,28.066,22.145,22.145,0,0,1,28.066,50.211Z" fill="#e2136e" stroke="#fff" stroke-width="2"/>
  <path id="Path_32" d="M29.942,9.147,16.916,21.088,11.2,15.372a2.46,2.46,0,0,0-3.479,3.479L15.1,26.233a2.461,2.461,0,0,0,3.4.074L33.269,12.774a2.461,2.461,0,1,0-3.327-3.627Z" transform="translate(8.763 10.954)" fill="#e2136e" stroke="#fff" stroke-width="2"/>
</svg>
