<svg width="40" height="40" viewBox="0 0 40 40" fill="none" xmlns="http://www.w3.org/2000/svg">
<defs>
<linearGradient id="paint0_linear_1501_176" x1="9.42502" y1="10.5879" x2="22.6" y2="10.5879" gradientUnits="userSpaceOnUse">
<stop stop-color="#ED1556"/>
<stop offset="0.0894" stop-color="#E4205F"/>
<stop offset="0.2708" stop-color="#D13175"/>
<stop offset="0.5" stop-color="#B24198"/>
<stop offset="1" stop-color="#2EB1E6"/>
</linearGradient>
<linearGradient id="paint1_linear_1501_176" x1="24.5375" y1="30.4149" x2="36.4208" y2="30.4149" gradientUnits="userSpaceOnUse">
<stop stop-color="#ED1556"/>
<stop offset="0.0894" stop-color="#E4205F"/>
<stop offset="0.2708" stop-color="#D13175"/>
<stop offset="0.5" stop-color="#B24198"/>
<stop offset="1" stop-color="#2EB1E6"/>
</linearGradient>
<linearGradient id="paint2_linear_1501_176" x1="27.25" y1="24.0212" x2="33.45" y2="24.0212" gradientUnits="userSpaceOnUse">
<stop stop-color="#ED1556"/>
<stop offset="0.0894" stop-color="#E4205F"/>
<stop offset="0.2708" stop-color="#D13175"/>
<stop offset="0.5" stop-color="#B24198"/>
<stop offset="1" stop-color="#2EB1E6"/>
</linearGradient>
<linearGradient id="paint3_linear_1501_176" x1="4.00003" y1="26.4755" x2="25.7" y2="26.4755" gradientUnits="userSpaceOnUse">
<stop stop-color="#ED1556"/>
<stop offset="0.0894" stop-color="#E4205F"/>
<stop offset="0.2708" stop-color="#D13175"/>
<stop offset="0.5" stop-color="#B24198"/>
<stop offset="1" stop-color="#2EB1E6"/>
</linearGradient>
</defs>
<path d="M16.0125 17.175C12.3958 17.175 9.425 14.2042 9.425 10.5875C9.425 6.97083 12.3958 4 16.0125 4C19.6292 4 22.6 6.97083 22.6 10.5875C22.6 14.2042 19.7583 17.175 16.0125 17.175ZM16.0125 5.55C13.1708 5.55 10.975 7.875 10.975 10.5875C10.975 13.3 13.3 15.625 16.0125 15.625C18.725 15.625 21.05 13.3 21.05 10.5875C21.05 7.875 18.8542 5.55 16.0125 5.55Z" fill="url(#paint0_linear_1501_176)"/>
<path d="M26.7333 35.0001C25.5708 35.0001 24.5375 34.0959 24.5375 32.8042V28.0251C24.5375 26.8626 25.4417 25.8292 26.7333 25.8292H34.225C35.3875 25.8292 36.4208 26.7334 36.4208 28.0251V32.8042C36.4208 33.9667 35.5167 35.0001 34.225 35.0001H26.7333ZM26.7333 27.5084C26.3458 27.5084 26.0875 27.7667 26.0875 28.1542V32.9334C26.0875 33.3209 26.3458 33.5792 26.7333 33.5792H34.225C34.6125 33.5792 34.8708 33.3209 34.8708 32.9334V28.1542C34.8708 27.7667 34.6125 27.5084 34.225 27.5084H26.7333Z" fill="url(#paint1_linear_1501_176)"/>
<path d="M28.025 27.5084C27.6375 27.5084 27.25 27.1209 27.25 26.7334V23.6334C27.25 21.8251 28.6708 20.5334 30.35 20.5334C32.1583 20.5334 33.45 21.9543 33.45 23.6334V26.7334C33.45 27.1209 33.0625 27.5084 32.675 27.5084H28.025ZM30.4792 21.9543C29.575 21.9543 28.8 22.7293 28.8 23.6334V25.9584H32.0292V23.6334C32.1583 22.7293 31.3833 21.9543 30.4792 21.9543Z" fill="url(#paint2_linear_1501_176)"/>
<path d="M4.775 32.2876C4.3875 32.2876 4 31.9001 4 31.5126V26.7334C4 23.2459 6.84167 20.5334 10.2 20.5334H22.2125C23.375 20.5334 24.4083 20.7918 25.3125 21.4376C25.4417 21.5668 25.5708 21.6959 25.7 21.9543C25.7 22.2126 25.7 22.3418 25.5708 22.4709C25.4417 22.7293 25.1833 22.8584 24.925 22.8584C24.7958 22.8584 24.6667 22.8584 24.5375 22.7293C23.7625 22.3418 22.9875 22.0834 22.2125 22.0834H10.2C7.61667 22.0834 5.42083 24.1501 5.42083 26.8626V30.8668H20.7917C21.1792 30.8668 21.5667 31.2543 21.5667 31.6418C21.5667 32.0293 21.1792 32.4168 20.7917 32.4168H4.775V32.2876Z" fill="url(#paint3_linear_1501_176)"/>

</svg>
