<svg width="40" height="40" viewBox="0 0 40 40" fill="none" xmlns="http://www.w3.org/2000/svg">
    <defs>
        <linearGradient id="paint0_linear_1443_206" x1="4" y1="19.9125" x2="36.2574" y2="19.9125" gradientUnits="userSpaceOnUse">
            <stop stop-color="#ED1556"/>
            <stop offset="0.0894" stop-color="#E4205F"/>
            <stop offset="0.2708" stop-color="#D13175"/>
            <stop offset="0.5" stop-color="#B24198"/>
            <stop offset="1" stop-color="#2EB1E6"/>
        </linearGradient>
        <linearGradient id="paint1_linear_1443_206" x1="17.66" y1="13.7716" x2="22.0835" y2="13.7716" gradientUnits="userSpaceOnUse">
            <stop stop-color="#ED1556"/>
            <stop offset="0.0894" stop-color="#E4205F"/>
            <stop offset="0.2708" stop-color="#D13175"/>
            <stop offset="0.5" stop-color="#B24198"/>
            <stop offset="1" stop-color="#2EB1E6"/>
        </linearGradient>
    </defs>
    <path d="M17.45 28.85C17.01 29.43 16.66 29.96 16.23 30.42C16.01 30.65 15.67 30.76 15.38 30.92C15.24 30.62 15 30.34 14.99 30.03C14.9 28.64 14.86 27.24 14.86 25.85C14.86 25.36 14.69 25.09 14.28 24.84C11.08 22.84 7.88 20.83 4.7 18.8C4.41 18.62 4.23 18.27 4 18C4.28 17.77 4.52 17.47 4.83 17.33C6.89 16.4 8.97 15.49 11.05 14.6C11.42 14.44 11.57 14.26 11.58 13.83C11.71 10.29 13.38 7.68 16.59 6.23C19.86 4.75 22.96 5.28 25.7 7.6C26.1 7.93 26.37 7.94 26.81 7.75C29.59 6.51 32.38 5.3 35.18 4.1C35.49 3.97 35.88 4.03 36.23 4C36.22 4.37 36.32 4.79 36.19 5.1C31.91 15.13 27.62 25.15 23.31 35.16C23.18 35.45 22.9 35.8 22.64 35.86C22.45 35.91 22.09 35.56 21.92 35.31C20.44 33.19 18.98 31.06 17.45 28.85ZM34.03 7.16C28.03 13.15 22.12 19.06 16.18 25C18.24 27.97 20.33 30.98 22.5 34.1C26.37 25.05 30.18 16.15 34.03 7.16ZM20.14 8.84C17.37 8.81 15.07 11.04 14.99 13.82C14.9 16.56 17.13 18.94 19.9 19.02C20.18 19.03 20.54 18.88 20.75 18.68C22.14 17.33 23.51 15.96 24.86 14.58C25.05 14.39 25.17 14.05 25.17 13.78C25.11 11.08 22.85 8.87 20.14 8.84ZM15.19 24.06C15.94 23.34 16.62 22.7 17.32 22.02C14.32 20.88 12.46 18.72 11.68 15.58C9.71 16.44 7.82 17.27 5.81 18.14C9.05 20.18 12.15 22.14 15.19 24.06ZM19.19 20.2C15.22 18.8 13.55 16.59 13.86 13.21C14.11 10.49 16.42 8.11 19.2 7.74C20.62 7.55 21.98 7.79 23.22 8.53C24.95 9.56 25.93 11.11 26.3 13.08C27.34 12.25 27.34 12.25 26.88 11.13C25.66 8.16 22.43 6.21 19.41 6.61C15.95 7.07 13.28 9.59 12.85 12.81C12.39 16.24 14.19 19.44 17.29 20.73C18.36 21.18 18.36 21.18 19.19 20.2ZM33.06 6.27C30.99 7.17 29.01 8.04 27.04 8.9C27.46 9.72 27.83 10.44 28.2 11.15C29.79 9.55 31.38 7.95 33.06 6.27ZM16.09 28.57C16.87 27.85 16.87 27.83 16.09 27.06C16.09 27.54 16.09 28 16.09 28.57Z" fill="url(#paint0_linear_1443_206)"/>
    <path d="M18.16 12C18.16 12.17 18.16 12.33 18.16 12.5C18.16 12.73 18.16 12.96 18.16 13.21C17.99 13.21 17.83 13.21 17.66 13.21V13.83C17.82 13.84 17.98 13.83 18.16 13.83V13.99C18.16 14.58 18.16 15.17 18.15 15.77C18.15 15.98 18.22 16.15 18.34 16.3C18.81 16.87 19.4 17.08 20.12 16.86C20.99 16.6 21.54 16 21.91 15.2C22.1 14.78 22.14 14.33 22 13.88C21.85 13.39 21.57 13 21.01 12.94C20.56 12.88 20.25 13.03 20.11 13.38C20.06 13.52 20.04 13.69 20.04 13.84C20.06 14.3 20.29 14.55 20.74 14.61C20.84 14.62 20.94 14.61 21.05 14.61L21.02 14.84C20.9 15.31 20.59 15.64 20.23 15.93C20.04 16.08 19.83 16.2 19.58 16.22C19.13 16.26 18.8 16.05 18.82 15.55C18.83 15.03 18.82 14.52 18.82 14L18.83 13.83C19.16 13.83 19.47 13.83 19.79 13.83L19.8 13.8C19.69 13.69 19.56 13.6 19.46 13.48C19.3 13.29 19.13 13.16 18.87 13.21L18.82 13.2V13.04C18.82 12.65 18.82 12.27 18.82 11.88C18.82 11.61 18.78 11.35 18.67 11.11C18.52 10.81 18.31 10.59 17.95 10.59C17.85 10.59 17.75 10.6 17.66 10.63V11.48C17.94 11.48 18.16 11.68 18.16 12Z" fill="url(#paint1_linear_1443_206)"/>
</svg>
