<svg width="40" height="40" viewBox="0 0 40 40" fill="none" xmlns="http://www.w3.org/2000/svg">
<path d="M36.0699 21.7114C35.8999 21.4614 35.6999 21.3014 35.4299 21.4814C35.1499 21.6614 35.2099 21.9214 35.3899 22.1614L35.4999 22.3214C36.5699 23.9514 37.0099 25.7614 36.8099 27.6914C36.3599 32.3214 32.1699 35.6114 27.5199 35.0214C22.1699 34.3414 18.8999 28.6514 20.9999 23.6814C23.0299 18.8614 28.8299 17.1314 33.2399 20.0314C33.4999 20.2014 33.7699 20.3514 33.9799 20.0114C34.1799 19.6914 33.9399 19.5114 33.6999 19.3514C31.8199 18.1014 29.7599 17.6114 27.5099 17.8814C23.0199 18.4214 19.5999 22.3014 19.5999 26.8314C19.6399 27.3214 19.6599 27.8214 19.7399 28.3114C20.5699 33.3314 25.4399 36.6914 30.4399 35.6814C36.7699 34.4114 39.7499 27.0114 36.0699 21.7114Z" fill="#C4C4C4"/>
<path d="M20.9598 11.6814C20.7598 10.2914 20.2398 9.02138 19.4398 7.86138C19.2598 7.61138 19.0498 7.50138 18.7798 7.71138C18.5198 7.92138 18.6398 8.14138 18.7898 8.37138C20.0298 10.2214 20.4799 12.2414 20.1199 14.4514C19.4099 18.8814 15.0198 21.9914 10.5798 21.1814C6.15985 20.3714 3.23985 16.3414 3.83985 11.8914C4.49985 7.02138 9.33985 3.81138 14.0898 5.07138C15.0298 5.32138 15.8998 5.72138 16.7098 6.27138C17.0398 6.50138 17.4298 6.38138 17.4098 6.05138C17.4098 5.88138 17.2498 5.67138 17.0998 5.57138C15.0798 4.21138 12.8698 3.72138 10.4598 4.15138C5.65985 5.00138 2.40985 9.49138 3.08985 14.2914C3.79985 19.2614 8.47985 22.7314 13.4198 21.9514C17.8098 21.2614 21.0298 17.5114 21.0798 13.0414C21.0398 12.5914 21.0298 12.1314 20.9598 11.6814Z" fill="#C4C4C4"/>
<path d="M11.9998 5.9014C8.0698 5.9214 4.8898 9.1314 4.8998 13.0714C4.8998 16.9714 8.1598 20.1814 12.0798 20.1614C15.9498 20.1414 19.1698 16.8914 19.1498 13.0314C19.1298 9.0814 15.9098 5.8814 11.9998 5.9014ZM11.9898 19.3214C8.4498 19.2914 5.6998 16.4714 5.7298 12.9014C5.7598 9.4614 8.6098 6.7114 12.1198 6.7314C15.5498 6.7514 18.3398 9.5914 18.3198 13.0514C18.2898 16.5614 15.4798 19.3414 11.9898 19.3214Z" fill="#C4C4C4"/>
<path d="M28.6999 19.7114C24.7599 19.7014 21.5399 22.8814 21.5299 26.8014C21.5099 30.7514 24.7199 33.9614 28.6699 33.9614C32.5399 33.9614 35.7599 30.7414 35.7699 26.8614C35.7799 22.9514 32.5899 19.7214 28.6999 19.7114ZM28.7299 33.1314C25.1599 33.1414 22.3699 30.3814 22.3499 26.8314C22.3399 23.3514 25.1499 20.5514 28.6699 20.5514C32.0999 20.5514 34.9299 23.3514 34.9499 26.7514C34.9599 30.2714 32.1799 33.1214 28.7299 33.1314Z" fill="#C4C4C4"/>
<path d="M22.7198 7.5514C22.8098 7.6114 22.9698 7.5814 23.0998 7.5814C23.9898 7.5814 24.8798 7.5514 25.7698 7.5914C27.5298 7.6714 28.7998 8.5414 29.6098 10.0814C30.2698 11.3414 30.0398 12.6914 30.0498 14.0314C29.9498 13.9414 29.8798 13.8314 29.8198 13.7314C29.4998 13.1914 29.1898 12.6414 28.8698 12.1014C28.7498 11.8914 28.5698 11.7614 28.3198 11.9014C28.0598 12.0414 28.0498 12.2614 28.1698 12.5014L28.2498 12.6414C28.8398 13.6714 29.4298 14.7014 30.0298 15.7314C30.3198 16.2414 30.6398 16.2414 30.9398 15.7214C31.4998 14.7514 32.0598 13.7714 32.6198 12.8014C32.6898 12.6814 32.8098 12.5514 32.8098 12.4214C32.8098 12.2514 32.7498 12.0014 32.6398 11.9414C32.5198 11.8714 32.2898 11.9714 32.1298 12.0414C32.0498 12.0814 32.0098 12.2314 31.9498 12.3314C31.6398 12.8814 31.3198 13.4314 31.0098 13.9814L30.9198 13.9614C30.9198 13.3314 30.9298 12.6914 30.9198 12.0614C30.8898 9.6114 29.2998 7.5214 26.9698 6.9214C25.5798 6.5614 24.1598 6.7814 22.7498 6.7514C22.6298 6.7514 22.4198 6.9814 22.4098 7.1214C22.3998 7.2814 22.5798 7.4514 22.7198 7.5514Z" fill="#C4C4C4"/>
<path d="M17.9698 32.3214C17.8798 32.2614 17.7198 32.2914 17.5898 32.2914C16.6698 32.2814 15.7598 32.3014 14.8398 32.2714C12.9398 32.2014 11.1898 30.8314 10.7898 28.9714C10.5998 28.0614 10.6598 27.1014 10.6098 26.1714C10.5998 26.0814 10.6298 25.9914 10.6498 25.8114C11.0398 26.4914 11.3898 27.0814 11.7298 27.6914C11.8698 27.9514 12.0598 28.1714 12.3698 27.9914C12.6898 27.8114 12.5898 27.5414 12.4398 27.2814C11.8398 26.2514 11.2498 25.2214 10.6598 24.1914C10.3698 23.6914 10.0398 23.6914 9.75981 24.1714C9.15981 25.2114 8.55981 26.2514 7.95981 27.2914C7.81981 27.5414 7.72981 27.8014 8.01981 27.9814C8.32981 28.1714 8.51981 27.9714 8.67981 27.7014C9.00981 27.1014 9.35981 26.5014 9.70981 25.9114L9.80981 25.9214C9.80981 26.6314 9.78981 27.3514 9.81981 28.0614C9.90981 30.3414 11.4398 32.2614 13.6298 32.8914C15.0598 33.3014 16.5198 33.0614 17.9698 33.0914C18.0698 33.0914 18.2798 32.8514 18.2798 32.7314C18.2698 32.5914 18.1098 32.4214 17.9698 32.3214Z" fill="#C4C4C4"/>
<path d="M34.7598 21.1114C34.8998 21.1214 35.0598 20.9214 35.3298 20.7414C35.0598 20.5514 34.9198 20.3814 34.7498 20.3514C34.4998 20.3114 34.3098 20.5214 34.3598 20.7514C34.3898 20.9014 34.6098 21.1014 34.7598 21.1114Z" fill="#C4C4C4"/>
<path d="M18.1099 7.30136C18.3599 7.36136 18.5599 7.18136 18.5199 6.92136C18.4899 6.76136 18.3299 6.61136 18.2299 6.46136H18.0499C17.9499 6.61136 17.7499 6.77136 17.7599 6.91136C17.7799 7.05136 17.9699 7.26136 18.1099 7.30136Z" fill="#C4C4C4"/>
<path d="M10.6399 13.2914L10.6599 13.1814C10.7799 13.0614 10.9099 12.9414 10.9999 12.7914C11.1799 12.5414 11.2099 12.2414 11.1999 11.9414C11.1699 11.4914 10.9599 11.1614 10.5499 10.9614C10.2899 10.8314 9.9999 10.7814 9.7099 10.7814C9.3099 10.7714 8.8999 10.7814 8.4899 10.7814L8.3999 10.8114C8.3999 12.2914 8.3999 13.7814 8.3999 15.2614L8.4999 15.2914C8.6499 15.2914 8.7999 15.2914 8.9499 15.2914C9.0699 15.2914 9.0799 15.2814 9.0799 15.1614C9.0799 14.6014 9.0799 14.0414 9.0799 13.4914V13.4014C9.3499 13.4014 9.6099 13.4114 9.8799 13.4014L10.0299 13.5014C10.2299 14.0714 10.4299 14.6314 10.6399 15.2014L10.7199 15.2814C10.9099 15.2914 11.0999 15.2914 11.2899 15.2814L11.3499 15.2014L11.3299 15.1314C11.0999 14.5214 10.8699 13.9114 10.6399 13.2914ZM10.0599 12.7714C9.8999 12.8314 9.7399 12.8514 9.5799 12.8514C9.4099 12.8514 9.2499 12.8514 9.0799 12.8514C9.0799 12.3414 9.0799 11.8414 9.0799 11.3414H9.0999C9.3899 11.3414 9.6899 11.3114 9.9899 11.3914C10.3299 11.4914 10.4999 11.7014 10.5199 12.0714C10.5299 12.3814 10.3499 12.6414 10.0599 12.7714Z" fill="#C4C4C4"/>
<path d="M15.9298 10.7914C15.7298 10.7914 15.5398 10.7914 15.3398 10.7914C15.1998 10.7914 15.1798 10.8014 15.1298 10.9314C14.7698 11.9214 14.4198 12.9014 14.0598 13.8814L14.0498 13.8614C13.7598 12.8614 13.3798 11.9014 13.0498 10.9214C13.0098 10.8214 12.9798 10.8014 12.8698 10.8014C12.6598 10.8014 12.4598 10.8014 12.2598 10.8014C12.1098 10.8014 12.0698 10.8414 12.0698 10.9814C12.0698 11.4714 12.0698 11.9614 12.0698 12.4514C12.0698 13.3414 12.0598 14.2314 12.0598 15.1314C12.0598 15.2714 12.1098 15.3114 12.2398 15.3114C12.3598 15.3114 12.4698 15.3114 12.5898 15.3114C12.7198 15.3114 12.7698 15.2714 12.7698 15.1314C12.7698 14.2714 12.7698 13.4214 12.7698 12.5614V12.4814L12.7998 12.5314C13.0898 13.4014 13.3798 14.2614 13.6798 15.1314C13.7198 15.2514 13.7498 15.2714 13.8698 15.2714C13.9798 15.2714 14.0798 15.2714 14.1898 15.2714C14.3098 15.2714 14.3398 15.2514 14.3798 15.1314C14.7098 14.2214 15.0398 13.3114 15.3598 12.4014L15.3898 12.3314C15.3998 12.8614 15.3998 13.3814 15.3998 13.9014C15.3998 14.3014 15.3998 14.7114 15.3998 15.1114C15.3998 15.2514 15.4498 15.2914 15.5898 15.2914C15.7098 15.2914 15.8198 15.2914 15.9398 15.2914C16.0698 15.2914 16.1198 15.2514 16.1198 15.1214C16.1198 13.7314 16.1098 12.3514 16.1098 10.9614C16.1098 10.8314 16.0698 10.7914 15.9298 10.7914Z" fill="#C4C4C4"/>
<path d="M30.6398 26.2214C30.4898 26.1014 30.3198 26.0314 30.1398 26.0014C29.9998 25.9814 29.8698 25.9914 29.7398 26.0114C29.6198 26.0314 29.5098 26.0614 29.4098 26.1314C29.2398 26.2514 29.1398 26.4214 29.0998 26.6314C29.0498 26.8414 29.0798 27.0614 29.1498 27.2714C29.2098 27.4514 29.3198 27.5914 29.4998 27.6714C29.5998 27.7214 29.6998 27.7514 29.8098 27.7614L30.0298 27.7714L30.1398 27.7614L30.1298 27.9014C30.0898 28.1114 30.0098 28.3114 29.8898 28.4914C29.7298 28.7414 29.5298 28.9514 29.2998 29.1314C29.1398 29.2614 28.9698 29.3614 28.7798 29.4114C28.6198 29.4614 28.4598 29.4614 28.2998 29.4314L28.0598 29.3414C27.8998 29.2214 27.8098 29.0614 27.8098 28.8514C27.8098 28.2314 27.8098 27.6114 27.8098 26.9914V26.9614C28.1598 26.9614 28.4998 26.9614 28.8498 26.9614L28.8398 26.9514C28.6298 26.7314 28.4198 26.5214 28.2098 26.3014L28.1798 26.2914C28.0698 26.2914 27.9498 26.2914 27.8398 26.2914H27.8098V26.2614C27.8098 25.8214 27.8098 25.3914 27.8098 24.9514C27.8098 24.8114 27.7998 24.6714 27.7798 24.5314C27.7398 24.2914 27.6598 24.0714 27.5098 23.8814C27.3198 23.6214 27.0598 23.5214 26.7398 23.5614C26.5898 23.5814 26.4498 23.6314 26.3098 23.7014L26.1298 23.8414L26.0998 24.0914C26.1398 24.1914 26.1898 24.2814 26.2298 24.3814L26.3198 24.5514L26.4298 24.5114C26.5498 24.4814 26.6698 24.4914 26.7898 24.5314L26.9998 24.6514C27.0798 24.7414 27.1098 24.8514 27.1098 24.9714C27.1098 25.4014 27.1098 25.8314 27.1098 26.2614V26.2914C26.6698 26.2914 26.2398 26.2914 25.7998 26.2914L25.8098 26.3014C26.0098 26.5214 26.2198 26.7314 26.4298 26.9514L26.4598 26.9614C26.6698 26.9614 26.8698 26.9614 27.0798 26.9614H27.1098V26.9914C27.1098 27.7114 27.1098 28.4214 27.1098 29.1414V29.1914C27.1498 29.2914 27.1998 29.3914 27.2598 29.4814C27.4598 29.7514 27.7098 29.9614 28.0198 30.1014C28.1798 30.1814 28.3398 30.2214 28.5198 30.2214C28.7098 30.2214 28.9098 30.2014 29.0898 30.1514C29.4198 30.0714 29.7198 29.9314 29.9898 29.7314C30.3198 29.4814 30.5898 29.1814 30.8098 28.8414C31.0398 28.4914 31.1798 28.1214 31.2098 27.7014C31.2298 27.4814 31.2098 27.2714 31.1598 27.0614C31.0798 26.7214 30.8998 26.4414 30.6398 26.2214Z" fill="#C4C4C4"/>
</svg>
