<svg xmlns="http://www.w3.org/2000/svg" width="25" height="25" viewBox="0 0 25 25">
  <g id="_11-Clock" transform="translate(-0.048 -0.048)">
    <path id="Path_16908" d="M25.484,15.742A9.742,9.742,0,1,1,15.742,6a9.742,9.742,0,0,1,9.742,9.742Z" transform="translate(-3.194 -3.194)" fill="#fbfbfb"/>
    <path id="Path_16909" d="M28.526,15.746a9.742,9.742,0,0,0-17.661-5.671,9.74,9.74,0,0,1,13.59,13.59A9.727,9.727,0,0,0,28.526,15.746Z" transform="translate(-6.236 -3.198)" fill="#e3effa"/>
    <path id="Path_16910" d="M13.5,1A12.5,12.5,0,1,1,1,13.5,12.5,12.5,0,0,1,13.5,1Zm0,22.984A10.484,10.484,0,1,0,3.016,13.5,10.484,10.484,0,0,0,13.5,23.984Z" transform="translate(-0.952 -0.952)" fill="#ffde50"/>
    <path id="Path_16911" d="M27.758,15.825v5.351a.728.728,0,0,1-.172.476l-2.353,2.863a.677.677,0,0,1-1.087-.1.878.878,0,0,1,.112-1.06L26.17,21.1a.363.363,0,0,0,.09-.244V15.825a.753.753,0,1,1,1.5,0Z" transform="translate(-14.461 -8.822)" fill="#555fa3"/>
    <path id="Path_16912" d="M22.9,25.041a.878.878,0,0,1,.112-1.06l1.911-2.256a.363.363,0,0,0,.09-.244V16.45a.88.88,0,0,1,.116-.437A.7.7,0,0,0,25.009,16a.789.789,0,0,0-.749.824v5.032a.363.363,0,0,1-.09.244l-1.911,2.256a.878.878,0,0,0-.112,1.06.677.677,0,0,0,1.087.1l.131-.16a.7.7,0,0,1-.468-.312Z" transform="translate(-13.21 -9.447)" fill="#e3effa"/>
    <path id="Path_16913" d="M14.491,4A10.491,10.491,0,1,0,24.982,14.491,10.491,10.491,0,0,0,14.491,4Zm0,20.233a9.742,9.742,0,1,1,9.742-9.742,9.742,9.742,0,0,1-9.742,9.742Z" transform="translate(-1.943 -1.943)" fill="#ed9b52"/>
    <g id="Group_9735" transform="translate(2.806 2.806)">
      <path id="Path_16914" d="M31.749,7.873V6.009C31.625,6,31.5,6,31.375,6s-.25,0-.375.009V7.873Z" transform="translate(-21.633 -6)" fill="#555fa3"/>
      <path id="Path_16915" d="M31,53v1.864c.124,0,.249.009.375.009s.25,0,.375-.009V53Z" transform="translate(-21.633 -35.39)" fill="#555fa3"/>
      <path id="Path_16916" d="M54.864,31H53v.749h1.864c0-.124.009-.249.009-.375S54.869,31.124,54.864,31Z" transform="translate(-35.39 -21.633)" fill="#555fa3"/>
      <path id="Path_16917" d="M7.873,31H6.009c0,.124-.009.249-.009.375s0,.25.009.375H7.873Z" transform="translate(-6 -21.633)" fill="#555fa3"/>
    </g>
  </g>
</svg>
