<svg
    xmlns="http://www.w3.org/2000/svg"
    viewBox="0 0 25 25"
    id="vector">
    <path
        id="path"
        d="M 25 12.5 C 25.003 15.795 23.705 18.962 21.39 21.307 C 19.075 23.652 15.926 24.992 12.631 25.032 C 9.336 25.073 6.155 23.811 3.783 21.524 C 1.411 19.236 0.036 16.102 -0.042 12.808 C -0.121 9.514 1.104 6.318 3.365 3.92 C 5.625 1.523 8.743 0.111 12.036 -0.005 C 15.329 -0.121 18.538 1.067 20.962 3.3 C 22.235 4.471 23.251 5.893 23.946 7.476 C 24.641 9.06 25 10.771 25 12.5 Z"
        fill="#f0cd00"
        stroke-width="1"/>
    <path
        id="path_1"
        d="M 25 12.5 C 25 15.734 23.746 18.844 21.502 21.173 C 19.259 23.502 16.197 24.871 12.966 24.992 C 9.734 24.873 6.671 23.504 4.427 21.175 C 2.182 18.846 0.927 15.735 0.927 12.501 C 0.927 9.266 2.182 6.155 4.427 3.826 C 6.671 1.497 9.734 0.128 12.966 0.009 C 16.197 0.13 19.259 1.499 21.502 3.828 C 23.745 6.156 25 9.267 25 12.5 Z"
        fill="#ffd15a"
        stroke-width="1"/>
    <path
        id="path_2"
        d="M 20.957 3.301 L 3.3 20.963 C 2.698 20.309 2.168 19.594 1.717 18.828 L 18.827 1.718 C 19.591 2.169 20.305 2.699 20.957 3.301 Z"
        fill="#fde8a9"
        stroke-width="1"/>
    <path
        id="path_3"
        d="M 24.138 7.93 L 7.93 24.138 C 6.792 23.69 5.725 23.078 4.765 22.32 L 22.32 4.765 C 23.078 5.725 23.691 6.791 24.138 7.93 Z"
        fill="#fde8a9"
        stroke-width="1"/>
    <path
        id="path_4"
        d="M 22.214 12.5 C 22.222 15.07 21.209 17.54 19.4 19.366 C 17.591 21.191 15.13 22.226 12.56 22.242 C 9.991 22.258 7.517 21.253 5.686 19.45 C 3.855 17.647 2.812 15.189 2.788 12.619 L 2.788 12.5 C 2.788 9.925 3.812 7.453 5.633 5.632 C 7.454 3.811 9.926 2.787 12.501 2.787 L 12.621 2.787 C 14.584 2.808 16.494 3.426 18.097 4.558 C 19.169 5.318 20.078 6.287 20.767 7.406 C 21.714 8.936 22.215 10.701 22.214 12.5 Z"
        fill="#ffbd00"
        stroke-width="1"/>
    <path
        id="path_5"
        d="M 19.367 5.632 L 5.632 19.367 C 3.837 17.578 2.816 15.153 2.788 12.619 L 2.788 12.5 C 2.788 9.925 3.812 7.453 5.633 5.632 C 7.454 3.811 9.926 2.787 12.501 2.787 L 12.621 2.787 C 14.584 2.808 16.494 3.426 18.097 4.558 C 18.55 4.879 18.975 5.239 19.367 5.632 Z"
        fill="#ffbd00"
        stroke-width="1"/>
    <path
        id="path_6"
        d="M 22.213 12.5 C 22.213 15.075 21.189 17.547 19.368 19.368 C 17.547 21.189 15.075 22.213 12.5 22.213 Q 12.224 22.213 11.952 22.198 C 14.437 22.069 16.78 20.991 18.493 19.186 C 20.206 17.382 21.163 14.986 21.163 12.498 C 21.163 10.01 20.206 7.614 18.493 5.81 C 16.78 4.005 14.437 2.927 11.952 2.798 Q 12.224 2.783 12.5 2.783 C 14.205 2.783 15.881 3.232 17.357 4.085 C 18.834 4.938 20.06 6.165 20.913 7.642 C 21.765 9.119 22.214 10.795 22.213 12.5 Z"
        fill="#ffbd00"
        stroke-width="1"/>
    <path
        id="path_7"
        d="M 12.5 11.162 C 12.145 11.162 11.805 11.303 11.554 11.554 C 11.303 11.805 11.162 12.145 11.162 12.5 C 11.162 12.855 11.303 13.195 11.554 13.446 C 11.805 13.697 12.145 13.838 12.5 13.838 C 12.855 13.838 13.195 13.697 13.446 13.446 C 13.697 13.195 13.838 12.855 13.838 12.5 C 13.838 12.145 13.697 11.805 13.446 11.554 C 13.195 11.303 12.855 11.162 12.5 11.162 Z"
        fill="#fde8a9"
        stroke-width="1"/>
    <path
        id="path_8"
        d="M 12.5 4.474 C 10.372 4.474 8.329 5.32 6.825 6.825 C 5.32 8.329 4.474 10.372 4.474 12.5 C 4.474 14.628 5.32 16.671 6.825 18.175 C 8.329 19.68 10.372 20.526 12.5 20.526 C 14.628 20.526 16.671 19.68 18.175 18.175 C 19.68 16.671 20.526 14.628 20.526 12.5 C 20.526 10.372 19.68 8.329 18.175 6.825 C 16.671 5.32 14.628 4.474 12.5 4.474 Z M 12.5 17.182 C 11.259 17.182 10.067 16.688 9.189 15.811 C 8.312 14.933 7.818 13.741 7.818 12.5 C 7.818 11.259 8.312 10.067 9.189 9.189 C 10.067 8.312 11.259 7.818 12.5 7.818 C 13.741 7.818 14.933 8.312 15.811 9.189 C 16.688 10.067 17.182 11.259 17.182 12.5 C 17.182 13.741 16.688 14.933 15.811 15.811 C 14.933 16.688 13.741 17.182 12.5 17.182 Z"
        fill="#fde8a9"
        stroke-width="1"/>
    <path
        id="path_9"
        d="M 12.242 13.114 L 11.642 12.514 L 11.642 13.702 C 11.924 13.905 12.269 14.001 12.616 13.974 C 12.962 13.947 13.288 13.798 13.535 13.553 C 13.781 13.309 13.934 12.984 13.964 12.638 C 13.995 12.292 13.902 11.946 13.702 11.662 Z"
        fill="#fde8a9"
        stroke-width="1"/>
    <path
        id="path_10"
        d="M 24.48 3.352 L 22.208 2.793 L 21.648 0.521 C 21.61 0.363 21.516 0.223 21.384 0.128 C 21.252 0.032 21.091 -0.013 20.928 0 C 20.766 0.013 20.614 0.084 20.499 0.2 L 18.068 2.631 C 17.876 2.823 17.737 3.061 17.664 3.322 C 17.591 3.584 17.587 3.86 17.652 4.123 L 18.289 6.708 L 20.874 7.345 C 21.137 7.41 21.413 7.406 21.675 7.333 C 21.936 7.26 22.174 7.121 22.366 6.929 L 24.799 4.5 C 24.914 4.385 24.984 4.233 24.997 4.072 C 25.011 3.91 24.966 3.748 24.871 3.617 C 24.776 3.485 24.637 3.392 24.479 3.353 Z"
        fill="#000000"
        stroke-width="1"/>
    <path
        id="path_11"
        d="M 24.48 3.352 L 22.208 2.793 L 21.648 0.521 C 21.61 0.363 21.516 0.223 21.384 0.128 C 21.252 0.032 21.091 -0.013 20.928 0 C 20.766 0.013 20.614 0.084 20.499 0.2 L 18.068 2.631 C 17.876 2.823 17.737 3.061 17.664 3.322 C 17.591 3.584 17.587 3.86 17.652 4.123 L 18.289 6.708 L 20.874 7.345 C 21.137 7.41 21.413 7.406 21.675 7.333 C 21.936 7.26 22.174 7.121 22.366 6.929 L 24.799 4.5 C 24.914 4.385 24.984 4.233 24.997 4.072 C 25.011 3.91 24.966 3.748 24.871 3.617 C 24.776 3.485 24.637 3.392 24.479 3.353 Z"
        fill="#ffea94"
        stroke-width="1"/>
    <path
        id="path_12"
        d="M 24.479 3.352 L 22.207 2.793 L 21.648 0.52 C 21.61 0.362 21.516 0.223 21.385 0.128 C 21.253 0.033 21.092 -0.012 20.93 0.001 C 20.768 0.014 20.616 0.084 20.501 0.199 L 19.132 1.569 C 18.94 1.761 18.801 1.999 18.728 2.26 C 18.655 2.522 18.651 2.798 18.716 3.061 L 19.353 5.646 L 21.938 6.283 C 22.201 6.348 22.477 6.344 22.739 6.271 C 23 6.198 23.238 6.059 23.43 5.867 L 24.799 4.499 C 24.914 4.384 24.984 4.232 24.997 4.071 C 25.011 3.909 24.966 3.747 24.871 3.616 C 24.776 3.484 24.637 3.391 24.479 3.352 Z"
        fill="#ffbd00"
        stroke-width="1"/>
    <path
        id="path_13"
        d="M 24.479 3.352 L 22.207 2.793 L 21.648 0.52 C 21.61 0.362 21.516 0.223 21.385 0.128 C 21.253 0.033 21.092 -0.012 20.93 0.001 C 20.768 0.014 20.616 0.084 20.501 0.199 L 20.194 0.506 C 20.002 0.698 19.863 0.936 19.79 1.198 C 19.717 1.459 19.713 1.735 19.778 1.999 L 20.415 4.584 L 23 5.221 C 23.263 5.286 23.539 5.282 23.801 5.209 C 24.062 5.136 24.3 4.997 24.492 4.805 L 24.799 4.498 C 24.914 4.383 24.984 4.231 24.997 4.07 C 25.011 3.908 24.966 3.746 24.871 3.615 C 24.776 3.483 24.637 3.39 24.479 3.351 Z"
        fill="#faa300"
        stroke-width="1"/>
    <path
        id="path_14"
        d="M 12.499 13.358 C 12.272 13.358 12.053 13.267 11.893 13.107 C 11.732 12.946 11.642 12.728 11.641 12.501 C 11.641 12.273 11.731 12.055 11.892 11.894 L 21.546 2.24 C 21.708 2.086 21.924 2.001 22.148 2.004 C 22.372 2.007 22.586 2.097 22.744 2.255 C 22.902 2.413 22.992 2.627 22.995 2.851 C 22.998 3.075 22.913 3.291 22.759 3.453 L 13.105 13.107 C 13.025 13.187 12.931 13.25 12.827 13.293 C 12.723 13.336 12.612 13.358 12.499 13.358 Z"
        fill="#e2136e"
        stroke-width="1"/>
</svg>
