<svg xmlns="http://www.w3.org/2000/svg" width="11.133" height="15.19" viewBox="0 0 11.133 15.19">
  <g id="money_bag" transform="translate(-9.001 -6.001)">
    <path id="path" d="M17.515,21.187H11.574c-1.758,0-2.566-1.6-2.573-3.091-.014-2.773,2.046-6.1,3.744-7.469a7.044,7.044,0,0,0,1.914.28,5.408,5.408,0,0,0,.907-.076,3.8,3.8,0,0,1-.639,1.47.32.32,0,0,0-.064.234.311.311,0,0,0,.12.21.316.316,0,0,0,.444-.054,3.755,3.755,0,0,0,.529-.956,5.79,5.79,0,0,0,1.13,1.648.315.315,0,0,0,.506-.08.314.314,0,0,0-.059-.368,5.61,5.61,0,0,1-1.31-2.264c.04-.013.079-.029.119-.044,1.692,1.374,3.764,4.687,3.789,7.464a3,3,0,0,1-2.607,3.1ZM12.612,9.92a5.213,5.213,0,0,1-1.53-2.663c.014-.294.063-.6.323-.72.276-.126.529.071.752.245.146.114.367.283.479.262.065-.015.15-.116.4-.482A1.049,1.049,0,0,1,13.914,6c.386.03.586.395.776.748a3.126,3.126,0,0,0,.472.679,1.991,1.991,0,0,0,.189-.211,1.632,1.632,0,0,1,2.107-.6.312.312,0,0,1,.145.116.317.317,0,0,1,.055.178,5.905,5.905,0,0,1-1.3,3.023,4.184,4.184,0,0,1-1.7.331A6.594,6.594,0,0,1,12.612,9.92Z" fill="#fde8a9"/>
    <path id="path_1" d="M15.844,16.8c0,.914-.483,1.679-1.293,1.679a.537.537,0,0,1-.543-.27.531.531,0,0,1-.066-.31V16.245h.438v-.476h-.438v-.505c0-.624-.3-1.053-.973-1.053-.067,0-.149,0-.223,0v.5h.119c.409,0,.535.186.535.572v.483h-.654v.476H13.4V17.9a1.03,1.03,0,0,0,1.152,1.083A1.961,1.961,0,0,0,16.379,16.8a1.042,1.042,0,0,0-.11-.57,1.031,1.031,0,0,0-.4-.423,1.052,1.052,0,0,0-.563-.144,1.011,1.011,0,0,0-.669.238l.29.424a.559.559,0,0,1,.379-.149C15.673,16.171,15.844,16.423,15.844,16.8Z" fill="#e2136e"/>
  </g>
</svg>
