<svg id="Error" xmlns="http://www.w3.org/2000/svg" width="104" height="104" viewBox="0 0 104 104">
  <path id="Path_21590" d="M104,52A52,52,0,1,1,52,0,52,52,0,0,1,104,52Zm0,0" fill="#ebd0e1"/>
  <path id="Path_21591" d="M128.513,6.934V80.326a52.032,52.032,0,0,1-87.228,0V6.934A6.934,6.934,0,0,1,48.219,0h73.36A6.934,6.934,0,0,1,128.513,6.934Zm0,0" transform="translate(-32.899)" fill="#fff"/>
  <path id="Path_21592" d="M140.922,40.233v62.392a52.07,52.07,0,0,1-50.3,16.875q-2.271-.481-4.46-1.163A51.914,51.914,0,0,1,66.429,107a52.444,52.444,0,0,1-4.245-4.372V23.587a2.691,2.691,0,0,1,2.69-2.689h56.714Zm0,0" transform="translate(-49.553 -16.653)" fill="#f7c9de"/>
  <path id="Path_21593" d="M135.62,34.932H62.184V23.587a2.691,2.691,0,0,1,2.69-2.689h56.714Zm0,0" transform="translate(-49.553 -16.653)" fill="#bf6076"/>
  <g id="Group_33635" transform="translate(16.202 7.583)">
    <path id="Path_21594" d="M87.119,41.01a3.679,3.679,0,1,1-3.679-3.678A3.679,3.679,0,0,1,87.119,41.01Zm0,0" transform="translate(-79.762 -37.332)" fill="#fff"/>
    <path id="Path_21595" d="M133.244,41.01a3.679,3.679,0,1,1-3.678-3.678A3.679,3.679,0,0,1,133.244,41.01Zm0,0" transform="translate(-116.518 -37.332)" fill="#fff"/>
    <path id="Path_21596" d="M179.373,41.01a3.679,3.679,0,1,1-3.679-3.678A3.679,3.679,0,0,1,179.373,41.01Zm0,0" transform="translate(-153.277 -37.332)" fill="#fff"/>
  </g>
  <path id="Path_21597" d="M373.968,40.233H357.322a2.691,2.691,0,0,1-2.689-2.689V20.9Zm0,0" transform="translate(-282.598 -16.653)" fill="#d6d6d6"/>
  <path id="Path_21598" d="M304.172,198.6l-9.229-9.229,9.229-9.229-3.827-3.826-9.229,9.229-3.827,3.826,13.056,13.056Zm0,0" transform="translate(-228.933 -140.499)" fill="#bf6076"/>
  <path id="Path_21599" d="M141.6,180.139l9.229,9.229L141.6,198.6l3.827,3.827,13.056-13.056-3.827-3.826-9.229-9.229Zm0,0" transform="translate(-112.836 -140.499)" fill="#bf6076"/>
  <rect id="Rectangle_6137" width="24" height="6" transform="translate(40 68)" fill="#bf6076"/>
</svg>
