<svg width="88" height="88" viewBox="0 0 88 88" fill="none" xmlns="http://www.w3.org/2000/svg">
    <defs>
        <filter id="filter0_d_1443_174" x="0" y="0" width="88" height="88" filterUnits="userSpaceOnUse" color-interpolation-filters="sRGB">
            <feFlood flood-opacity="0" result="BackgroundImageFix"/>
            <feColorMatrix in="SourceAlpha" type="matrix" values="0 0 0 0 0 0 0 0 0 0 0 0 0 0 0 0 0 0 127 0" result="hardAlpha"/>
            <feOffset dy="3"/>
            <feGaussianBlur stdDeviation="2"/>
            <feColorMatrix type="matrix" values="0 0 0 0 0.466667 0 0 0 0 0.466667 0 0 0 0 0.466667 0 0 0 0.2 0"/>
            <feBlend mode="normal" in2="BackgroundImageFix" result="effect1_dropShadow_1443_174"/>
            <feBlend mode="normal" in="SourceGraphic" in2="effect1_dropShadow_1443_174" result="shape"/>
        </filter>
        <linearGradient id="paint0_linear_1443_174" x1="4" y1="49.5714" x2="82.0846" y2="49.5313" gradientUnits="userSpaceOnUse">
            <stop stop-color="#ED1556"/>
            <stop offset="0.515625" stop-color="#B24198"/>
            <stop offset="1" stop-color="#2EB1E6"/>
        </linearGradient>
        <clipPath id="clip0_1443_174">
            <rect width="43.6" height="33.26" fill="white" transform="translate(22 24)"/>
        </clipPath>
    </defs>

<g filter="url(#filter0_d_1443_174)">
<rect x="4" y="1" width="80" height="80" rx="10" fill="url(#paint0_linear_1443_174)"/>
</g>
<g clip-path="url(#clip0_1443_174)">
<path d="M27.18 36.35C28.46 34.9 29.74 33.46 30.99 32C31.15 31.82 31.24 31.49 31.19 31.27C31.07 30.71 30.44 30.6 30.02 31.06C29.43 31.7 28.86 32.38 28.28 33.04C27.99 33.38 27.69 33.72 27.32 34.14C27.32 30.15 27.32 29.77 27.32 25.85C27.52 25.85 27.72 25.85 27.91 25.85C32.96 25.85 39.99 25.85 45.05 25.85C45.23 25.85 45.41 25.85 45.59 25.83C45.97 25.78 46.14 25.53 46.15 25.17C46.15 24.78 45.97 24.53 45.58 24.47C45.46 24.45 45.33 24.46 45.21 24.46C39.78 24.46 32.37 24.46 26.93 24.46C26.1 24.46 25.93 24.63 25.93 25.48C25.93 29.32 25.93 29.69 25.93 33.53C25.93 33.69 25.93 33.86 25.93 34.14C25.75 33.94 25.63 33.81 25.52 33.69C24.76 32.82 24.02 31.93 23.23 31.09C23.06 30.91 22.68 30.79 22.45 30.85C22.26 30.9 22.1 31.25 22.01 31.5C21.97 31.62 22.1 31.84 22.21 31.97C23.46 33.42 24.73 34.85 25.99 36.29C26.41 36.76 26.8 36.78 27.18 36.35Z" fill="white"/>
<path d="M65.21 33.6301C61.31 30.5201 57.41 27.4001 53.51 24.2801C53.04 23.9001 52.85 23.9101 52.39 24.2701C48.59 27.2901 44.78 30.3201 40.98 33.3401C40.77 33.5101 40.5 33.6601 40.38 33.8801C40.26 34.1001 40.22 34.4401 40.3 34.6701C40.36 34.8301 40.66 34.9701 40.88 35.0001C41.28 35.0501 41.69 35.0101 42.13 35.0101V37.1901C40.3 35.7201 38.46 34.2601 36.63 32.7901C36.17 32.4201 35.97 32.4201 35.51 32.7901C31.71 35.8101 27.91 38.8301 24.11 41.8601C23.9 42.0201 23.62 42.1701 23.5 42.4001C23.39 42.6201 23.35 42.9501 23.43 43.1801C23.48 43.3401 23.79 43.4801 24 43.5101C24.4 43.5601 24.81 43.5301 25.26 43.5301V52.9201H24.41C23.99 52.9301 23.73 53.1301 23.73 53.5501C23.71 54.5701 23.72 55.5901 23.73 56.6101C23.73 56.9901 23.96 57.1901 24.31 57.2401C24.48 57.2601 24.65 57.2601 24.81 57.2601H47.18C47.33 57.2601 47.49 57.2701 47.64 57.2501C48.02 57.2001 48.27 57.0001 48.27 56.6001C48.28 55.5901 48.29 54.5701 48.27 53.5501C48.26 53.1401 48.01 52.9301 47.59 52.9201H46.73V48.7501H64.06C64.21 48.7501 64.36 48.7501 64.51 48.7301C64.89 48.6901 65.14 48.4901 65.15 48.0901C65.16 47.0701 65.17 46.0601 65.15 45.0401C65.14 44.6301 64.88 44.4101 64.46 44.4101C64.18 44.4001 63.9 44.4101 63.61 44.4101V35.0101C64 35.0101 64.36 35.0001 64.72 35.0201C65.09 35.0301 65.41 34.9601 65.54 34.5901C65.68 34.2101 65.54 33.8901 65.21 33.6301ZM52.88 25.6201C56.23 28.2601 59.55 30.9001 62.97 33.6001H42.85C46.24 30.9001 49.55 28.2601 52.88 25.6201ZM62.19 35.0401V44.3801H60.47V35.0401H62.19ZM59 35.0501V44.3801H55.18V35.0501H59ZM53.71 35.0301V44.3701H52.03V35.0301H53.71ZM46.73 43.6501V43.5301C47.12 43.5301 47.48 43.5101 47.85 43.5301C48.21 43.5501 48.54 43.4701 48.67 43.1001C48.8 42.7201 48.66 42.4101 48.34 42.1501C47.81 41.7201 47.28 41.3001 46.74 40.8701V35.0401H50.57V44.3901H46.74V43.6501H46.73ZM43.57 35.0401H45.29V39.7101C44.72 39.2501 44.14 38.7901 43.57 38.3401V35.0401ZM36 34.1301C39.35 36.7801 42.68 39.4101 46.1 42.1101H25.97C29.37 39.4101 32.68 36.7701 36 34.1301ZM45.31 43.5501V52.9001H43.6V43.5501H45.31ZM42.12 43.5601V52.9001H38.3V43.5601H42.12ZM36.83 43.5501V52.8801H35.15V43.5501H36.83ZM33.7 43.5601V52.9101H29.87V43.5601H33.7ZM28.42 43.5501V52.9001H26.69V43.5501H28.42ZM46.86 54.3201V55.8201H25.11V54.3201H46.86ZM63.73 45.8101V47.3001H46.73V45.8101H63.73Z" fill="white"/>
<path d="M35.94 36.42C34.6 36.41 33.49 37.51 33.49 38.83C33.49 40.12 34.61 41.23 35.9 41.24C37.23 41.24 38.3 40.17 38.31 38.84C38.31 37.5 37.27 36.43 35.94 36.42ZM35.91 39.78C35.39 39.79 34.9 39.3 34.89 38.77C34.88 38.22 35.34 37.75 35.89 37.75C36.44 37.74 36.92 38.21 36.93 38.75C36.93 39.27 36.44 39.77 35.91 39.78Z" fill="white"/>
<path d="M52.7599 27.7C51.4199 27.69 50.3099 28.79 50.3099 30.11C50.3099 31.4 51.4299 32.51 52.7199 32.52C54.0499 32.52 55.1199 31.45 55.1299 30.12C55.1299 28.78 54.0899 27.71 52.7599 27.7ZM52.7299 31.06C52.2099 31.07 51.7199 30.58 51.7099 30.05C51.6999 29.5 52.1599 29.03 52.7099 29.03C53.2599 29.02 53.7399 29.49 53.7499 30.03C53.7499 30.55 53.2599 31.05 52.7299 31.06Z" fill="white"/>
</g>
</svg>
