<svg width="88" height="88" viewBox="0 0 88 88" fill="none" xmlns="http://www.w3.org/2000/svg">
    <defs>
        <filter id="filter0_d_1443_168" x="0" y="0" width="88" height="88" filterUnits="userSpaceOnUse" color-interpolation-filters="sRGB">
            <feFlood flood-opacity="0" result="BackgroundImageFix"/>
            <feColorMatrix in="SourceAlpha" type="matrix" values="0 0 0 0 0 0 0 0 0 0 0 0 0 0 0 0 0 0 127 0" result="hardAlpha"/>
            <feOffset dy="3"/>
            <feGaussianBlur stdDeviation="2"/>
            <feColorMatrix type="matrix" values="0 0 0 0 0.466667 0 0 0 0 0.466667 0 0 0 0 0.466667 0 0 0 0.2 0"/>
            <feBlend mode="normal" in2="BackgroundImageFix" result="effect1_dropShadow_1443_168"/>
            <feBlend mode="normal" in="SourceGraphic" in2="effect1_dropShadow_1443_168" result="shape"/>
        </filter>
        <filter id="filter1_d_1443_168" x="0" y="0" width="88" height="88" filterUnits="userSpaceOnUse" color-interpolation-filters="sRGB">
            <feFlood flood-opacity="0" result="BackgroundImageFix"/>
            <feColorMatrix in="SourceAlpha" type="matrix" values="0 0 0 0 0 0 0 0 0 0 0 0 0 0 0 0 0 0 127 0" result="hardAlpha"/>
            <feOffset dy="3"/>
            <feGaussianBlur stdDeviation="2"/>
            <feColorMatrix type="matrix" values="0 0 0 0 0.466667 0 0 0 0 0.466667 0 0 0 0 0.466667 0 0 0 0.2 0"/>
            <feBlend mode="normal" in2="BackgroundImageFix" result="effect1_dropShadow_1443_168"/>
            <feBlend mode="normal" in="SourceGraphic" in2="effect1_dropShadow_1443_168" result="shape"/>
        </filter>
        <linearGradient id="paint0_linear_1443_168" x1="25" y1="33.0102" x2="63.8776" y2="33.0102" gradientUnits="userSpaceOnUse">
            <stop stop-color="#ED1556"/>
            <stop offset="0.0894" stop-color="#E4205F"/>
            <stop offset="0.2708" stop-color="#D13175"/>
            <stop offset="0.5" stop-color="#B24198"/>
            <stop offset="1" stop-color="#2EB1E6"/>
        </linearGradient>
        <linearGradient id="paint1_linear_1443_168" x1="4" y1="49.5714" x2="82.0846" y2="49.5313" gradientUnits="userSpaceOnUse">
            <stop stop-color="#ED1556"/>
            <stop offset="0.515625" stop-color="#B24198"/>
            <stop offset="1" stop-color="#2EB1E6"/>
        </linearGradient>
        <clipPath id="clip0_1443_168">
            <rect width="38.9" height="38.9" fill="white" transform="translate(25 22)"/>
        </clipPath>
        <clipPath id="clip1_1443_168">
            <rect width="38.9" height="38.9" fill="white" transform="translate(25 21)"/>
        </clipPath>
    </defs>

<g filter="url(#filter0_d_1443_168)">
<rect x="4" y="1" width="80" height="80" rx="10" fill="white"/>
</g>
<g clip-path="url(#clip0_1443_168)">
<path d="M31.4982 34.3388C32.0778 34.2942 32.5682 34.2942 33.0809 34.6175C33.694 34.9964 34.3962 35.2639 35.0761 35.5091C35.5777 35.6763 36.1127 35.7209 36.67 35.8212C36.67 38.5409 36.67 41.2717 36.67 44.0136C45.7541 44.0136 54.8159 44.0136 63.8777 44.0136C63.8777 38.396 63.8777 32.7895 63.8777 27.1718C63.6994 27.1718 63.5433 27.1718 63.3984 27.1718C59.6533 27.1718 55.9082 27.1718 52.152 27.183C51.851 27.183 51.6393 27.0938 51.4275 26.882C50.3686 25.8009 49.2986 24.7197 48.2062 23.6608C47.0805 22.5573 45.7207 22 44.1379 22C41.4628 22 38.7989 22 36.1238 22C35.8786 22 35.6223 21.9777 35.4105 22.0669C34.6748 22.3567 33.9392 22.6577 33.2258 23.0032C32.6797 23.2595 32.1224 23.3153 31.487 23.2038C31.487 22.8137 31.487 22.4236 31.487 22C29.3024 22 27.1512 22 25 22C25 26.7594 25 31.5188 25 36.2894C27.1512 36.2894 29.3024 36.2894 31.4982 36.2894C31.4982 35.6095 31.4982 34.9853 31.4982 34.3388ZM62.5848 28.5205C62.5848 33.2465 62.5848 37.9613 62.5848 42.7207C54.3812 42.7207 46.2111 42.7207 38.0075 42.7207C38.0075 39.0313 38.0075 35.3531 38.0075 31.6414C39.0218 31.6303 39.9804 31.452 40.8275 30.8946C41.1842 31.2736 41.5297 31.6303 41.9087 32.0316C41.2956 32.8787 40.3482 33.0681 39.2893 33.0124C39.2893 34.7512 39.2893 36.4566 39.2893 38.2065C40.2145 38.1619 41.0727 38.2734 41.7526 38.9644C42.4103 39.6444 42.5552 40.4803 42.4883 41.4055C47.6824 41.4055 52.8542 41.4055 58.0706 41.4055C58.026 40.4915 58.1486 39.6332 58.8285 38.9533C59.5196 38.2734 60.3778 38.1508 61.303 38.2065C61.303 36.4454 61.303 34.7512 61.303 33.0013C60.3778 33.057 59.5196 32.9232 58.8397 32.2433C58.1486 31.5634 58.026 30.7052 58.0706 29.7466C57.8922 29.7466 57.7362 29.7466 57.5913 29.7466C54.2586 29.7466 50.937 29.7466 47.6044 29.7577C47.27 29.7577 47.0359 29.6686 46.813 29.4234C46.5455 29.1224 46.2334 28.8549 45.8767 28.5094C51.5055 28.5205 57.0451 28.5205 62.5848 28.5205ZM47.2142 36.7352C47.5375 37.6381 48.1505 38.2845 49.0199 38.6746C50.4132 39.2877 52.0405 38.8418 52.9545 37.6158C53.8573 36.4008 53.8016 34.6732 52.8319 33.5363C51.6504 32.1653 50.1791 32.0427 48.2174 33.1016C48.2397 32.4885 48.2731 31.8198 48.3066 31.1176C51.0597 31.1176 53.9242 31.1176 56.8111 31.1176C56.9671 31.7975 57.2458 32.4328 57.7139 32.9678C58.2601 33.6032 58.9511 34.0044 59.7425 34.2273C59.854 34.2608 59.9989 34.4057 59.9989 34.4948C60.0211 35.2974 60.01 36.111 60.01 36.9359C58.2823 37.3483 57.2123 38.396 56.8111 40.1348C52.4641 40.1348 48.1282 40.1348 43.7701 40.1348C43.3688 38.4183 42.3099 37.3483 40.5934 36.947C40.5934 36.0553 40.5934 35.1748 40.5934 34.2719C41.5074 34.0824 42.2765 33.6589 42.9118 32.9121C43.1459 33.1462 43.3911 33.3468 43.5917 33.5809C44.528 34.6732 45.9436 35.0299 47.4372 34.049C47.0025 34.9518 46.9021 35.8324 47.2142 36.7352ZM48.3511 35.6206C48.34 34.5394 49.2205 33.6812 50.3129 33.6812C51.3829 33.6923 52.2189 34.5394 52.2189 35.6206C52.2077 36.6906 51.3495 37.5489 50.2906 37.5489C49.2317 37.56 48.3511 36.6795 48.3511 35.6206ZM31.5205 24.5525C31.8995 24.5525 32.3007 24.6417 32.6462 24.5302C33.3373 24.3184 34.0172 24.0398 34.6748 23.7165C35.2544 23.4267 35.834 23.2818 36.4917 23.2818C38.9327 23.3041 41.3737 23.3041 43.8147 23.2818C45.2971 23.2707 46.5343 23.7611 47.5598 24.8312C48.2954 25.6002 49.0645 26.3359 49.8113 27.0827L49.789 27.1718C49.5884 27.1718 49.3877 27.1718 49.1983 27.1718C47.7604 27.1718 46.3337 27.1607 44.907 27.183C44.6506 27.183 44.4723 27.1161 44.3051 26.9378C43.8927 26.4919 43.4691 26.0684 43.0344 25.6337C42.7335 25.9681 42.4548 26.2801 42.1428 26.6145L42.3545 26.8263C43.7701 28.253 45.1968 29.6686 46.6235 31.0953C47.047 31.53 47.1362 32.0427 46.9133 32.5554C46.6904 33.0459 46.1888 33.4025 45.6649 33.3022C45.3305 33.2353 44.9627 33.057 44.7175 32.8229C43.5695 31.7195 42.4437 30.5826 41.3291 29.4457C41.2176 29.3453 41.1507 29.2004 41.0727 29.089C38.6874 30.7052 38.0298 30.7275 35.7672 29.2896C35.6334 29.4568 35.4997 29.624 35.3659 29.78C35.2433 29.9361 35.1207 30.0921 34.9312 30.3373C35.4439 30.6494 35.9232 30.9392 36.3913 31.2402C36.5028 31.3071 36.6477 31.4185 36.6477 31.5077C36.67 32.4774 36.6589 33.4471 36.6589 34.4614C35.8452 34.428 35.1095 34.2273 34.4073 33.9041C34.2513 33.8261 34.073 33.7592 33.9503 33.6477C33.3039 33.1016 32.5794 32.9121 31.7657 33.0236L31.5205 33.0013C31.5205 30.2036 31.5205 27.4059 31.5205 24.5525ZM30.1495 34.9407C28.8566 34.9407 27.597 34.9407 26.3152 34.9407C26.3152 31.0618 26.3152 27.1941 26.3152 23.3153C27.597 23.3153 28.8566 23.3153 30.1495 23.3153C30.1495 27.183 30.1495 31.0395 30.1495 34.9407Z" fill="url(#paint0_linear_1443_168)"/>
<path d="M57.4129 47.9482C57.4129 48.6281 57.4129 49.2857 57.4129 50.0213C56.8667 49.6981 56.3874 49.4194 55.9193 49.1296C55.3174 48.7618 54.6821 48.5723 53.9687 48.5946C53.0882 48.6169 52.1965 48.5946 51.316 48.6169C50.9927 48.6281 50.6583 48.6615 50.3351 48.7395C47.9164 49.3749 45.5088 50.0436 43.0901 50.6567C42.0758 50.913 41.2621 51.3812 40.8609 52.4066L40.638 52.2951C38.5313 51.1582 36.4359 50.0325 34.3292 48.8844C33.6382 48.5055 32.9248 48.394 32.178 48.6504C31.1526 48.9959 30.5507 49.7315 30.417 50.7793C30.2832 51.8939 30.729 52.7856 31.7099 53.3763C35.299 55.5275 38.888 57.6899 42.4882 59.8188C43.1904 60.2312 43.9484 60.5433 44.684 60.9C48.0724 60.9 51.472 60.9 54.8604 60.9C55.6852 60.599 56.51 60.2869 57.3794 59.9637C57.4017 60.2869 57.424 60.5879 57.4463 60.9C59.5975 60.9 61.7487 60.9 63.8999 60.9C63.8999 56.5864 63.8999 52.2729 63.8999 47.937C61.7264 47.9482 59.5975 47.9482 57.4129 47.9482ZM57.424 58.1357C57.424 58.4478 57.3237 58.6039 57.0451 58.6707L57.0005 58.6819C55.4623 59.4621 53.8461 59.685 52.1185 59.6182C49.8781 59.529 47.6377 59.5959 45.3974 59.5959C44.9181 59.5959 44.4834 59.4844 44.0598 59.228C40.1921 56.9096 36.3133 54.5913 32.4456 52.2729C31.866 51.9273 31.6096 51.4258 31.7211 50.8907C31.8994 49.9656 32.8134 49.5309 33.6716 49.999C35.8674 51.1694 38.0521 52.362 40.2478 53.5435C40.5599 53.7107 40.7717 53.9002 40.9055 54.2569C41.3625 55.4607 42.5551 56.096 43.9372 55.7727C46.289 55.2043 48.6297 54.5355 50.9704 53.9113L51.093 53.8333C50.9927 53.4432 50.8924 53.0419 50.7698 52.6072C49.5772 52.9305 48.4068 53.2426 47.2365 53.5435C46.0104 53.8668 44.7732 54.2011 43.536 54.4909C42.8337 54.6581 42.1984 54.2234 42.0424 53.5547C41.8863 52.9082 42.2764 52.2171 42.9564 52.0165C43.9929 51.7267 45.0295 51.4592 46.0661 51.1805C47.5263 50.7904 48.9864 50.3557 50.4577 50.0213C51.1822 49.8653 51.9401 49.8541 52.6869 49.8541C54.9162 49.843 54.3143 49.7315 56.3206 50.8239C57.1677 51.292 57.4909 51.8047 57.4463 52.7856C57.346 54.5913 57.4017 56.3635 57.424 58.1357ZM62.5847 59.5959C61.2917 59.5959 60.0434 59.5959 58.7616 59.5959C58.7616 56.1517 58.7616 52.7187 58.7616 49.2634C60.0322 49.2634 61.3029 49.2634 62.5847 49.2634C62.5847 52.7187 62.5847 56.1406 62.5847 59.5959Z" fill="white"/>
</g>
<g filter="url(#filter1_d_1443_168)">
<rect x="4" y="1" width="80" height="80" rx="10" fill="url(#paint1_linear_1443_168)"/>
</g>
<g clip-path="url(#clip1_1443_168)">
<path d="M31.4982 33.3388C32.0778 33.2942 32.5682 33.2942 33.0809 33.6175C33.694 33.9964 34.3962 34.2639 35.0761 34.5091C35.5777 34.6763 36.1127 34.7209 36.67 34.8212C36.67 37.5409 36.67 40.2717 36.67 43.0136C45.7541 43.0136 54.8159 43.0136 63.8777 43.0136C63.8777 37.396 63.8777 31.7895 63.8777 26.1718C63.6994 26.1718 63.5433 26.1718 63.3984 26.1718C59.6533 26.1718 55.9082 26.1718 52.152 26.183C51.851 26.183 51.6393 26.0938 51.4275 25.882C50.3686 24.8009 49.2986 23.7197 48.2062 22.6608C47.0805 21.5573 45.7207 21 44.1379 21C41.4628 21 38.7989 21 36.1238 21C35.8786 21 35.6223 20.9777 35.4105 21.0669C34.6748 21.3567 33.9392 21.6577 33.2258 22.0032C32.6797 22.2595 32.1224 22.3153 31.487 22.2038C31.487 21.8137 31.487 21.4236 31.487 21C29.3024 21 27.1512 21 25 21C25 25.7594 25 30.5188 25 35.2894C27.1512 35.2894 29.3024 35.2894 31.4982 35.2894C31.4982 34.6095 31.4982 33.9853 31.4982 33.3388ZM62.5848 27.5205C62.5848 32.2465 62.5848 36.9613 62.5848 41.7207C54.3812 41.7207 46.2111 41.7207 38.0075 41.7207C38.0075 38.0313 38.0075 34.3531 38.0075 30.6414C39.0218 30.6303 39.9804 30.452 40.8275 29.8946C41.1842 30.2736 41.5297 30.6303 41.9087 31.0316C41.2956 31.8787 40.3482 32.0681 39.2893 32.0124C39.2893 33.7512 39.2893 35.4566 39.2893 37.2065C40.2145 37.1619 41.0727 37.2734 41.7526 37.9644C42.4103 38.6444 42.5552 39.4803 42.4883 40.4055C47.6824 40.4055 52.8542 40.4055 58.0706 40.4055C58.026 39.4915 58.1486 38.6332 58.8285 37.9533C59.5196 37.2734 60.3778 37.1508 61.303 37.2065C61.303 35.4454 61.303 33.7512 61.303 32.0013C60.3778 32.057 59.5196 31.9232 58.8397 31.2433C58.1486 30.5634 58.026 29.7052 58.0706 28.7466C57.8922 28.7466 57.7362 28.7466 57.5913 28.7466C54.2586 28.7466 50.937 28.7466 47.6044 28.7577C47.27 28.7577 47.0359 28.6686 46.813 28.4234C46.5455 28.1224 46.2334 27.8549 45.8767 27.5094C51.5055 27.5205 57.0451 27.5205 62.5848 27.5205ZM47.2142 35.7352C47.5375 36.6381 48.1505 37.2845 49.0199 37.6746C50.4132 38.2877 52.0405 37.8418 52.9545 36.6158C53.8573 35.4008 53.8016 33.6732 52.8319 32.5363C51.6504 31.1653 50.1791 31.0427 48.2174 32.1016C48.2397 31.4885 48.2731 30.8198 48.3066 30.1176C51.0597 30.1176 53.9242 30.1176 56.8111 30.1176C56.9671 30.7975 57.2458 31.4328 57.7139 31.9678C58.2601 32.6032 58.9511 33.0044 59.7425 33.2273C59.854 33.2608 59.9989 33.4057 59.9989 33.4948C60.0211 34.2974 60.01 35.111 60.01 35.9359C58.2823 36.3483 57.2123 37.396 56.8111 39.1348C52.4641 39.1348 48.1282 39.1348 43.7701 39.1348C43.3688 37.4183 42.3099 36.3483 40.5934 35.947C40.5934 35.0553 40.5934 34.1748 40.5934 33.2719C41.5074 33.0824 42.2765 32.6589 42.9118 31.9121C43.1459 32.1462 43.3911 32.3468 43.5917 32.5809C44.528 33.6732 45.9436 34.0299 47.4372 33.049C47.0025 33.9518 46.9021 34.8324 47.2142 35.7352ZM48.3511 34.6206C48.34 33.5394 49.2205 32.6812 50.3129 32.6812C51.3829 32.6923 52.2189 33.5394 52.2189 34.6206C52.2077 35.6906 51.3495 36.5489 50.2906 36.5489C49.2317 36.56 48.3511 35.6795 48.3511 34.6206ZM31.5205 23.5525C31.8995 23.5525 32.3007 23.6417 32.6462 23.5302C33.3373 23.3184 34.0172 23.0398 34.6748 22.7165C35.2544 22.4267 35.834 22.2818 36.4917 22.2818C38.9327 22.3041 41.3737 22.3041 43.8147 22.2818C45.2971 22.2707 46.5343 22.7611 47.5598 23.8312C48.2954 24.6002 49.0645 25.3359 49.8113 26.0827L49.789 26.1718C49.5884 26.1718 49.3877 26.1718 49.1983 26.1718C47.7604 26.1718 46.3337 26.1607 44.907 26.183C44.6506 26.183 44.4723 26.1161 44.3051 25.9378C43.8927 25.4919 43.4691 25.0684 43.0344 24.6337C42.7335 24.9681 42.4548 25.2801 42.1428 25.6145L42.3545 25.8263C43.7701 27.253 45.1968 28.6686 46.6235 30.0953C47.047 30.53 47.1362 31.0427 46.9133 31.5554C46.6904 32.0459 46.1888 32.4025 45.6649 32.3022C45.3305 32.2353 44.9627 32.057 44.7175 31.8229C43.5695 30.7195 42.4437 29.5826 41.3291 28.4457C41.2176 28.3453 41.1507 28.2004 41.0727 28.089C38.6874 29.7052 38.0298 29.7275 35.7672 28.2896C35.6334 28.4568 35.4997 28.624 35.3659 28.78C35.2433 28.9361 35.1207 29.0921 34.9312 29.3373C35.4439 29.6494 35.9232 29.9392 36.3913 30.2402C36.5028 30.3071 36.6477 30.4185 36.6477 30.5077C36.67 31.4774 36.6589 32.4471 36.6589 33.4614C35.8452 33.428 35.1095 33.2273 34.4073 32.9041C34.2513 32.8261 34.073 32.7592 33.9503 32.6477C33.3039 32.1016 32.5794 31.9121 31.7657 32.0236L31.5205 32.0013C31.5205 29.2036 31.5205 26.4059 31.5205 23.5525ZM30.1495 33.9407C28.8566 33.9407 27.597 33.9407 26.3152 33.9407C26.3152 30.0618 26.3152 26.1941 26.3152 22.3153C27.597 22.3153 28.8566 22.3153 30.1495 22.3153C30.1495 26.183 30.1495 30.0395 30.1495 33.9407Z" fill="white"/>
<path d="M57.4129 46.9482C57.4129 47.6281 57.4129 48.2857 57.4129 49.0213C56.8667 48.6981 56.3874 48.4194 55.9193 48.1296C55.3174 47.7618 54.6821 47.5723 53.9687 47.5946C53.0882 47.6169 52.1965 47.5946 51.316 47.6169C50.9927 47.6281 50.6583 47.6615 50.3351 47.7395C47.9164 48.3749 45.5088 49.0436 43.0901 49.6567C42.0758 49.913 41.2621 50.3812 40.8609 51.4066L40.638 51.2951C38.5313 50.1582 36.4359 49.0325 34.3292 47.8844C33.6382 47.5055 32.9248 47.394 32.178 47.6504C31.1526 47.9959 30.5507 48.7315 30.417 49.7793C30.2832 50.8939 30.729 51.7856 31.7099 52.3763C35.299 54.5275 38.888 56.6899 42.4882 58.8188C43.1904 59.2312 43.9484 59.5433 44.684 59.9C48.0724 59.9 51.472 59.9 54.8604 59.9C55.6852 59.599 56.51 59.2869 57.3794 58.9637C57.4017 59.2869 57.424 59.5879 57.4463 59.9C59.5975 59.9 61.7487 59.9 63.8999 59.9C63.8999 55.5864 63.8999 51.2729 63.8999 46.937C61.7264 46.9482 59.5975 46.9482 57.4129 46.9482ZM57.424 57.1357C57.424 57.4478 57.3237 57.6039 57.0451 57.6707L57.0005 57.6819C55.4623 58.4621 53.8461 58.685 52.1185 58.6182C49.8781 58.529 47.6377 58.5959 45.3974 58.5959C44.9181 58.5959 44.4834 58.4844 44.0598 58.228C40.1921 55.9096 36.3133 53.5913 32.4456 51.2729C31.866 50.9273 31.6096 50.4258 31.7211 49.8907C31.8994 48.9656 32.8134 48.5309 33.6716 48.999C35.8674 50.1694 38.0521 51.362 40.2478 52.5435C40.5599 52.7107 40.7717 52.9002 40.9055 53.2569C41.3625 54.4607 42.5551 55.096 43.9372 54.7727C46.289 54.2043 48.6297 53.5355 50.9704 52.9113L51.093 52.8333C50.9927 52.4432 50.8924 52.0419 50.7698 51.6072C49.5772 51.9305 48.4068 52.2426 47.2365 52.5435C46.0104 52.8668 44.7732 53.2011 43.536 53.4909C42.8337 53.6581 42.1984 53.2234 42.0424 52.5547C41.8863 51.9082 42.2764 51.2171 42.9564 51.0165C43.9929 50.7267 45.0295 50.4592 46.0661 50.1805C47.5263 49.7904 48.9864 49.3557 50.4577 49.0213C51.1822 48.8653 51.9401 48.8541 52.6869 48.8541C54.9162 48.843 54.3143 48.7315 56.3206 49.8239C57.1677 50.292 57.4909 50.8047 57.4463 51.7856C57.346 53.5913 57.4017 55.3635 57.424 57.1357ZM62.5847 58.5959C61.2917 58.5959 60.0434 58.5959 58.7616 58.5959C58.7616 55.1517 58.7616 51.7187 58.7616 48.2634C60.0322 48.2634 61.3029 48.2634 62.5847 48.2634C62.5847 51.7187 62.5847 55.1406 62.5847 58.5959Z" fill="white"/>
</g>
</svg>
