<svg xmlns="http://www.w3.org/2000/svg" width="22" height="22" viewBox="0 0 22 22">
  <g id="Group_3508" data-name="Group 3508" transform="translate(-306 -238)">
    <rect id="Rectangle_1542" data-name="Rectangle 1542" width="22" height="22" rx="2" transform="translate(306 238)" fill="#f7f7f7"/>
    <g id="info" transform="translate(283.861 242)">
      <path id="Path_4677" data-name="Path 4677" d="M37.04,12.283l-.192.786q-.866.342-1.381.52a3.644,3.644,0,0,1-1.2.179,2.392,2.392,0,0,1-1.63-.511,1.654,1.654,0,0,1-.581-1.3,4.593,4.593,0,0,1,.043-.625q.044-.32.141-.721l.721-2.553q.1-.367.162-.7a3.021,3.021,0,0,0,.066-.6.925.925,0,0,0-.2-.682,1.14,1.14,0,0,0-.772-.193,2.022,2.022,0,0,0-.573.088c-.2.058-.364.114-.5.166l.193-.787q.709-.289,1.356-.494a4.056,4.056,0,0,1,1.226-.206,2.333,2.333,0,0,1,1.605.5,1.669,1.669,0,0,1,.564,1.307c0,.111-.012.306-.039.586a3.918,3.918,0,0,1-.145.77l-.718,2.543a6.755,6.755,0,0,0-.158.7,3.605,3.605,0,0,0-.07.594.856.856,0,0,0,.226.691,1.277,1.277,0,0,0,.786.184,2.269,2.269,0,0,0,.594-.092A3.322,3.322,0,0,0,37.04,12.283Zm.182-10.675a1.488,1.488,0,0,1-.5,1.132,1.71,1.71,0,0,1-1.21.468,1.73,1.73,0,0,1-1.216-.468,1.485,1.485,0,0,1-.507-1.132A1.5,1.5,0,0,1,34.294.472a1.795,1.795,0,0,1,2.426,0A1.5,1.5,0,0,1,37.223,1.608Z" transform="translate(-1)" fill="#e2136e"/>
    </g>
  </g>
</svg>
