x<?xml version="1.0" encoding="UTF-8"?><svg id="Layer_2" xmlns="http://www.w3.org/2000/svg" xmlns:xlink="http://www.w3.org/1999/xlink" viewBox="0 0 366 540"><defs><clipPath id="clippath"><rect width="366" height="540" fill="none"/></clipPath><clipPath id="clippath-1"><circle cx="264.57" cy="282.23" r="28.29" fill="none"/></clipPath></defs><g clip-path="url(#clippath)"><g id="Mask_Group_579"><g id="_02"><rect id="Rectangle_6136" width="366" height="539.9" fill="#feeeef"/><g id="Group_11473"><g id="Group_11474"><path id="Path_16059" d="M268.09,523.07s-2.3-6.9,5.69-21.93c8.12-14.89,12.18-24.77,13.81-37.91s5.14-25.32,5.14-34.52c0,0-21.25-12.73-34.52-39.8,0,0-8.26-3.93-16.38-7.31,0,0-10.15-4.33-12.45-4.33-2.44,0-3.79-11.91,3.25-21.12,6.9-9.21,14.21-45.08,19.76-49.41,5.69-4.33,41.7,2.71,48.33,6.9,6.63,4.06,20.71,11.91,23.69,15.84,3.11,4.06,14.21,30.46,14.89,39.8s.81,16.52,2.44,21.12c1.49,4.6,3.11,7.85,4.33,21.39s5.42,35.06,10.42,48.2,16.36,35.54,3.77,86.44c0-.14-67.67-16.3-92.18-30.24v6.89Z" fill="#f4a595"/><path id="Path_16060" d="M228.29,227.94s-1.49,136.19-1.76,138.49c-.14,2.17-.14,7.45,7.99,7.58s57.94-.14,62.55,0c4.47,.14,4.87-4.06,4.87-13.4s2.17-126.58,2.17-132.54-1.35-9.88-10.02-10.15c-8.8-.54-49.96,.54-55.1,.54-4.87,0-11.1-.54-10.7,9.48h0Z"/><path id="Path_16061" d="M243.18,355.74h-9.88c-.98,.1-1.97-.08-2.84-.54-.1-.4-.15-.81-.14-1.22,.14-1.9,1.35-88.95,1.76-115.75v-.13c-.14-2.57,.54-3.25,.54-3.25,.14-.14,1.08-.41,3.79-.41h1.22c1.35,0,5.55,0,10.97-.14,10.15-.14,25.59-.41,35.47-.41,4.06,0,6.77,0,8.26,.14,5.14,.14,5.14,.81,5.14,4.2,0,2.17-.54,23.29-.81,45.22-.54,28.43-1.22,60.65-1.22,65.12,.06,2.31-.07,4.62-.41,6.9l-51.85,.27h0Z" fill="#ee2a7b"/><path id="Path_16065" d="M226.8,350.06c-.93-1.22-2.39-1.93-3.93-1.9-2.84-.14-9.75-3.11-6.9-11.64,2.17-6.5,11.24-4.74,11.24-4.74,2.58,2.31,3.62,5.87,2.71,9.21-.6,3.16-1.65,6.21-3.11,9.07h0Z" fill="#f4a595"/><path id="Path_16066" d="M227.48,311.34l-.14,19.09s-4.06-1.76-8.26-3.39c-4.06-1.76-7.31-5.96-5.01-10.83,2.3-4.6,8.12-6.09,13.4-4.87h0Z" fill="#f4a595"/><path id="Path_16067" d="M299.37,302.81c0,9.21,1.49,13.94,5.01,18.95,3.38,5.01,6.5,7.17,5.96,14.89,0,0-3.93,1.49-7.58,6.63-3.79,5.14-11.24,22.07-13,31.95s-2.44,14.62,1.76,16.38c4.06,1.76,9.75,3.79,21.8-1.9s24.64-7.17,26.8-15.3c2.17-8.26,4.74-15.03,2.57-23.69s.81-15.03-5.69-20.71-20.31-22.33-20.17-27.34-1.35-12.45-1.08-15.3c.14-2.71-2.44-3.93-4.74-3.79-2.17,.27-11.64,2.98-11.64,19.22h0Z" fill="#e99d8f"/><path id="Path_16068" d="M228.83,376.86s3.39-.81,3.25-7.17c-.14-6.5-1.62-9.88-5.42-10.42-3.42-.5-6.63,1.76-7.31,5.14-.41,3.38,.95,10.56,9.48,12.45h0Z" fill="#f4a595"/><path id="Path_16069" d="M258.08,225.91c4.33-.27,8.67-.27,13,0,2.17,0,2.84,1.49-.14,1.35-6.23-.13-8.66,.13-12.73,0-2.44-.27-1.9-1.22-.14-1.35h0Z" fill="#fff"/><path id="Path_16070" d="M258.08,225.91c4.33-.27,8.67-.27,13,0,2.17,0,2.84,1.49-.14,1.35-6.23-.13-8.66,.13-12.73,0-2.44-.27-1.9-1.22-.14-1.35h0Z" fill="none" stroke="#717171"/><g id="Group_11471"><g clip-path="url(#clippath-1)"><g id="Group_11470"><circle id="Ellipse_1252" cx="264.57" cy="282.23" r="28.29" fill="#fff"/><g id="Group_11469"><path id="Path_16074" d="M254.28,298.21l-11.1,5.01-7.17,2.71s-1.76,9.48-1.49,9.61c.14,0,62.82,1.62,62.82,1.62l-3.93-13.14-21.8-6.9-17.33,1.08h0Z" fill="#00a79d"/><g id="Group_11467"><path id="Path_16075" d="M270.53,292.38c2.98-4.06,5.55-6.63,7.72-11.1,.95-1.9,2.3-6.09,1.49-8.8-.54-1.76-1.49-3.39-3.38-3.52,.57-1.81,.1-3.78-1.22-5.14-.94-1.16-2.47-1.69-3.93-1.35,0-1.81-1.48-3.27-3.29-3.26-.08,0-.15,0-.23,0-.76-.02-1.49,.27-2.03,.81-.53-1.34-1.81-2.24-3.25-2.3-1.53-.01-2.93,.82-3.65,2.17-.94-1.08-2.24-1.8-3.65-2.03-1.39-.19-2.76,.44-3.52,1.62-.52,1.25-.57,2.64-.14,3.93-.81-.81-1.9,2.71-1.62,6.36,.14,1.08,.27,3.11,.81,3.11l19.9,19.49h0Z" fill="#273339"/><path id="Path_16076" d="M249.68,285.89c.27,3.52,1.49,5.28,3.79,6.36,1.19,.53,2.49,.8,3.79,.81v2.84c-7.72,7.31,9.48,8.39,13.4,1.76l.41-10.15s1.22,1.9,3.93,.68c2.29-1.21,3.38-3.9,2.57-6.36-.81-2.71-3.52-2.03-4.33-1.35s-1.9,1.9-2.57,1.76c-.95-.27-1.08-1.08-1.35-1.76-.38-1.69-.43-3.44-.14-5.14-.77-.37-1.39-.99-1.76-1.76-.68-3.11,.41-3.79,1.22-5.01-2.44-2.17-6.77,.68-9.75,.68-3.39,0-3.93-2.03-5.82-2.03-1.11,1.8-1.93,3.77-2.44,5.82-.68,3.79-1.49,7.99-.95,12.86h0Z" fill="#f9b4a2"/><g id="Group_11466"><path id="Path_16077" d="M252.12,276.55c-.14,.81,0,1.49,.54,1.62s1.08-.27,1.35-1.08h0c.14-.81,0-1.49-.54-1.62-.41-.14-1.08,.27-1.35,1.08,.14-.14,.14,0,0,0h0Z" fill="#273339"/><path id="Path_16078" d="M252.39,272.89c.14,.14,.95-.27,1.9,0s1.62,.95,1.76,.81,0-.27-.27-.54c-.36-.39-.83-.68-1.35-.81-.54-.16-1.12-.11-1.62,.14-.17,.09-.31,.23-.41,.41h0Z" fill="#273339"/><path id="Path_16079" d="M260.78,278.17c-.3,.64-.06,1.4,.54,1.76,.54,.14,1.08-.27,1.35-1.08h0c.14-.81,0-1.49-.54-1.62-.54-.27-1.08,.27-1.35,.95Z" fill="#273339"/><path id="Path_16080" d="M261.32,274.92c.14,.14,.95-.27,1.9,0,1.08,.27,1.62,.95,1.76,.81s0-.27-.27-.54c-.36-.39-.83-.68-1.35-.81-.54-.16-1.12-.11-1.62,.14-.27,.13-.41,.27-.41,.41h0Z" fill="#273339"/><path id="Path_16081" d="M257.4,285.75c-.57-.17-1.16-.26-1.76-.27-.27,0-.54-.14-.54-.27-.02-.28,.02-.56,.14-.81l.81-2.03c.73-1.71,1.32-3.47,1.76-5.28-.86,1.67-1.63,3.39-2.3,5.14l-.81,2.03c-.19,.33-.23,.72-.14,1.08,.14,.14,.27,.41,.41,.41s.27,.14,.41,0h2.03Z" fill="#273339"/><path id="Path_16082" d="M254.01,287.11c-.14,.14,0,.54,.41,.95,.47,.57,1.16,.92,1.9,.95,.82,.01,1.62-.22,2.3-.68,.54-.41,.95-.81,.81-.95-.95,.35-1.96,.53-2.98,.54-1.62-.14-2.17-1.08-2.44-.81h0Z" fill="#273339"/></g><path id="Path_16083" d="M262.14,258.27c2.17,1.22,4.74-.54,7.85,1.49,2.98,2.03,5.42,6.9,5.01,9.21-.54,2.3-8.12-3.38-11.64-4.2-3.39-.81-10.7-6.36-10.7-6.36,0,0,5.42-2.3,9.48-.14h0Z" fill="#273339"/></g><g id="Group_11468"><path id="Path_16084" d="M272.29,301.59l-.54-5.96-8.66,2.44-2.57,3.79-1.22-4.47-4.6-1.76-2.3,3.79,3.25,4.74,6.23,1.49,10.42-4.06Z" fill="#00a79d"/><path id="Path_16085" d="M261.05,302.81s.14,0,.27-.27c.24-.26,.51-.49,.81-.68,.84-.95,1.57-1.99,2.17-3.11h-.27l1.49,4.74c.27,.81,.54,1.62,.81,2.3l.14,.27,.14-.14c1.76-1.49,3.11-2.71,4.2-3.65l1.22-1.08,.41-.41c-.14,.14-.41,.14-.54,.41l-1.22,.95c-1.08,.81-2.57,2.03-4.33,3.52l.27,.14-.81-2.3c-.54-1.76-1.08-3.25-1.62-4.74l-.14-.41-.14,.41c-.58,1.14-1.26,2.23-2.03,3.25l-.81,.81h0Z" fill="#273339"/><path id="Path_16086" d="M252.93,299.43c.24,.47,.51,.92,.81,1.35,.81,1.08,1.76,2.04,2.84,2.84l.14,.14,.14-.14c.27-.68,.68-1.35,1.08-2.17,.54-1.22,1.08-2.3,1.49-3.25h-.27c.12,1.05,.3,2.09,.54,3.11,.03,.42,.12,.83,.27,1.22,.02-.41-.02-.82-.14-1.22-.13-.81-.27-1.89-.41-3.25l-.14-.54-.27,.54c-.41,.95-.95,2.03-1.49,3.25-.41,.81-.68,1.49-.95,2.17l.27-.14c-1.07-.76-2.03-1.67-2.84-2.71-.41-.41-.68-.81-1.08-1.22h0Z" fill="#273339"/></g></g></g></g></g><circle id="Ellipse_1254" cx="264.57" cy="282.23" r="28.29" fill="none" stroke="#000" stroke-miterlimit="10" stroke-width=".5"/><g id="Group_11472"><path id="Path_16088" d="M250.09,229.03c-1.05,0-1.9-.85-1.9-1.9,0-1.05,.85-1.9,1.9-1.9s1.9,.85,1.9,1.9h0c.03,1.02-.78,1.87-1.8,1.9-.03,0-.07,0-.1,0Zm0-2.84v.95h0v-.95Z" fill="#717171"/></g></g><path id="Path_16062" d="M-40.93,371.46v75.23s23.21-4.6,42.72-6.84,35.43-6.61,45.97-8.07,13.79-2.02,13.79-2.02c0,0-4.6-10.99-1.79-19.51,2.8-8.63,15.58-21.41,21.41-32.29s13.79-36.66-1.79-81.17c0,0-.67-19.51-3.36-25.56s-10.09-16.82-15.81-10.2-42.49,31.95-47.2,52.92-53.93,57.62-53.93,57.51Z" fill="#f9b4a2"/><path id="Path_16063" d="M97.65,476.17c4.14,.24,8.21,1.23,12,2.92,6.28,2.8,4.82,6.17,13.45,3.81,8.74-2.47,12.11,1.46,15.92,5.27s12.11,5.72,16.93,3.81,5.27-7.29,12.11-5.94c6.84,1.46,11.55,8.74,17.49,4.82,5.83-3.81,9.53,.11,23.21-1.35,13.45-1.46,13.9-9.3,27.92-2.13s8.3,10.54,17.6,11.43c9.08,.9,21.3,4.26,27.58,4.26s14.46-1.91,18.39-5.27c3.81-3.36,23.21-14.8,37.78-6.73s25,18.27,24.55,56.73c0,0-7.06,39.35-35.2,39.35H-40.93v-80.61s16.14-2.58,36.44-6.5c0,0,46.42-9.42,53.59-10.31,7.62-.67,48.43-5.38,48.54-13.57h0Z" fill="#00a79d"/><path id="Path_16064" d="M338.02,491.08c-14.58-8.07-33.97,3.36-37.78,6.73-3.92,3.36-12.11,5.27-18.39,5.27s-18.39-3.36-27.58-4.26c-9.3-.9-3.59-4.26-17.6-11.43s-14.46,.67-27.92,2.13c-13.68,1.46-17.26-2.47-23.21,1.35-5.83,3.92-10.65-3.36-17.49-4.82-6.84-1.35-7.4,4.04-12.11,5.94-4.82,2.02-13.12,0-16.93-3.81s-7.18-7.62-15.92-5.27c-8.74,2.47-7.18-.9-13.45-3.81-3.79-1.69-7.86-2.68-12-2.92-.05,.48-.2,.94-.45,1.35,1.87,1.87,3.63,3.86,5.27,5.94,5.04,.11,9.87,1.68,13.12,5.38,9.42,10.31,19.28,20.52,27.58,31.95,7.62,10.43,13.01,22.2,18.27,33.97,1.35,2.91,2.58,5.83,3.92,8.74,.56,1.12,1.12,2.35,1.57,3.47,.09,.09,.13,.21,.11,.34,.11,.11,.11,.22,.22,.34,3.48,5.94,6.95,12.33,8.97,19.06,.09,.17,.13,.37,.11,.56h150.9c28.14,0,35.2-39.35,35.2-39.35,.56-38.57-9.75-48.77-24.44-56.84h.01Z" fill="#049385"/><path id="Path_16071" d="M60.2,274.48c-6.05,6.05-8.63,23.43-10.99,33.86s0,22.87,6.73,30.49,8.07,8.63,10.09,14.24c1.91,5.72,15.7,8.97,14.8-4.26s-.56-21.86-2.8-33.3c-2.47-11.44-7.62-12.33-7.06-21.53,.56-8.97,5.83-10.54,6.17-18.16,.22-7.62-3.48-14.69-16.93-1.35h0Z" fill="#f2a394"/><path id="Path_16072" d="M97.65,476.17s1.57,6.61-25.45,10.99c-23.32,3.81-55.38,9.53-68.17,12.33-12.89,2.92-44.96,7.51-44.96,7.51v-61.32s46.86-7.51,62-9.87c15.36-2.47,46.75-10.54,51.46-4.71s11.44,14.24,12.33,23.77c1.12,9.53,12.78,21.3,12.78,21.3h0Z" fill="#00a79d"/><path id="Path_16073" d="M-39.8,503.97c32.06-7.06,64.8-13.01,97.31-18.61,8.07-1.35,24.44-4.15,32.51-5.38l-1.12,1.91c-5.83-16.26-12.11-33.97-17.38-50.23,7.06,16.37,14.24,34.31,20.74,50.9-43.61,7.96-88.01,15.7-132.07,21.42Z" fill="#273339"/><path id="Path_16087" d="M79.71,281.76c-1.35-10.09,0-9.42-4.04-16.14s-4.04-38.23-4.04-48.32c-.06-3.68-.4-7.36-1.01-10.99,.22-.2,.41-.42,.56-.67,8.75-14.8-2.35-31.17-9.31-34.2q0-.11-.11-.11c-.45-1.35-.9-2.58-1.23-3.81,2.02-7.18-.22-19.73-11.66-23.21-7.29-6.05-18.5-13.57-31.06-15.13-1.63-1.59-3.52-2.89-5.61-3.81-4.64-2.3-10.02-2.63-14.91-.9-7.29-3.81-15.25-8.63-27.24-6.84-3.73,.61-7.37,1.62-10.88,3.03v251.81s5.72,.11,17.83-3.25c12.11-3.36,16.82-2.69,32.96-16.14,16.14-13.45,14.13-28.92,22.87-43.05s17.49-21.53,23.54-30.94,5.49-6.84,10.88-8.18,7.29,3.92,7.29,3.92c-.07,3.23-.33,6.45-.79,9.64-.67,4.04-4.04,4.71-2.69,12.78l8.52-.34c.83-5.01,.86-10.12,.11-15.14h0Z" fill="#273339"/></g></g></g></g></svg>