<svg width="38" height="38" viewBox="0 0 38 38" fill="none" xmlns="http://www.w3.org/2000/svg">
    <defs>
        <linearGradient id="paint0_linear_1441_32" x1="12" y1="20.6536" x2="26.1561" y2="20.6469" gradientUnits="userSpaceOnUse">
            <stop stop-color="#ED1556"/>
            <stop offset="0.515625" stop-color="#B24198"/>
            <stop offset="1" stop-color="#2EB1E6"/>
        </linearGradient>
    </defs>
<rect width="38" height="38" rx="8" fill="#F7F5F5"/>
<path fill-rule="evenodd" clip-rule="evenodd" d="M13.9 25.9C12.9 25.9 12.2 25.3 12 24.3V23.8V13.3C12 13 12 12.7 12.1 12.4C12.3 11.5 13.1 11 14.1 11H24.2V12.2H14.1C13.8 12.2 13.6 12.3 13.4 12.4C13.2 12.6 13.1 12.9 13.2 13.2C13.3 13.5 13.5 13.7 13.8 13.7H14H24.1V16.9H22.9V14.8H14.1C13.7 14.8 13.4 14.8 13 14.6V16.9V23.7C13 24 13.1 24.2 13.3 24.4C13.5 24.6 13.7 24.7 13.9 24.7H15.1H17.2V25.8H17H16.9H15.1C14.7 25.9 14.3 25.9 13.9 25.9H13.9ZM21.8001 26.9C19.2001 26.9 17.1001 24.8 17.1001 22.2C17.1001 19.6 19.2001 17.5 21.8001 17.5C24.4001 17.5 26.5001 19.6 26.5001 22.2C26.6001 24.8 24.4001 26.9 21.8001 26.9ZM21.8001 18.6C20.9001 18.6 20.0001 19 19.3001 19.6C18.6001 20.3 18.3001 21.2 18.3001 22.1C18.3001 24.1 19.9001 25.7 21.8001 25.7C22.7001 25.7 23.6001 25.3 24.3001 24.7C25.0001 24 25.3001 23.1 25.3001 22.2C25.4001 20.2 23.8001 18.6 21.8001 18.6ZM21.3003 19.6H22.5003V23.4H21.3003V19.6Z" fill="url(#paint0_linear_1441_32)"/>

</svg>
