<svg fill="none" height="38" viewBox="0 0 38 38" width="38" xmlns="http://www.w3.org/2000/svg" xmlns:xlink="http://www.w3.org/1999/xlink"><linearGradient id="a"><stop offset="0" stop-color="#ed1556"/><stop offset=".53125" stop-color="#b24198" stop-opacity=".807292"/><stop offset="1" stop-color="#2eb1e6" stop-opacity="0"/></linearGradient><linearGradient id="b" gradientUnits="userSpaceOnUse" x1="18.65" x2="18.65" xlink:href="#a" y1="27" y2="11"/><linearGradient id="c" gradientUnits="userSpaceOnUse" x1="18.2199" x2="18.2199" xlink:href="#a" y1="13.4076" y2="12.8671"/><linearGradient id="d" gradientUnits="userSpaceOnUse" x1="17.7769" x2="17.7769" xlink:href="#a" y1="15.2675" y2="14.7429"/><linearGradient id="e" gradientUnits="userSpaceOnUse" x1="17.3364" x2="17.3364" xlink:href="#a" y1="17.1274" y2="16.5925"/><linearGradient id="f" gradientUnits="userSpaceOnUse" x1="16.4645" x2="16.4645" xlink:href="#a" y1="19.0034" y2="18.4629"/><linearGradient id="g" gradientUnits="userSpaceOnUse" x1="16.1397" x2="16.1397" xlink:href="#a" y1="20.8793" y2="20.3388"/><linearGradient id="h" gradientUnits="userSpaceOnUse" x1="18.3225" x2="18.3225" xlink:href="#a" y1="21.9285" y2="21.4198"/><linearGradient id="i" gradientUnits="userSpaceOnUse" x1="15.8161" x2="15.8161" xlink:href="#a" y1="22.7551" y2="22.2146"/><linearGradient id="j" gradientUnits="userSpaceOnUse" x1="22.4878" x2="22.4878" xlink:href="#a" y1="25.3999" y2="22.0556"/><rect fill="#f7f5f5" height="38" rx="5" width="38"/><path d="m14.9235 11.042c-.6549.1463-1.211.7059-1.4657 1.4753-.1403.426-.1377.3497-.1377 4.057 0 1.8885-.0078 4.2318-.0182 5.2047l-.0156 1.7709h-.3898c-.3508 0-.3976.0064-.4911.07-.1975.1367-.382.6517-.4028 1.1382-.0156.3529.039.6709.1767 1.0174.0883.2162.1533.3243.3326.5405.1845.2258.2677.2989.4704.4197.4781.2862.0727.2639 4.4957.2639h3.911l.1325-.07.13-.0667.2079.0636c.2494.0763.8679.0954 1.1148.0318.6185-.1622 1.1278-.5056 1.5384-1.0334.9225-1.1891 1.0447-2.9759.2937-4.3303-.5198-.9348-1.3903-1.5103-2.2895-1.5103h-.2572v-1.2749-1.2718l.239-.3243c.5406-.7376.5665-.7853 1.8867-3.3161.5561-1.062.9147-1.7837.9147-1.8282 0-.1017-.0676-.2162-.1455-.2512-.0962-.0477-.1871.0127-.3898.2576l-.1819.2225-.1014-.248c-.1793-.4515-.5275-.8075-.9485-.9824-.1377-.0572-.3222-.0604-4.2748-.0668-3.4796-.0032-4.1631.0032-4.3346.0413zm7.6817.5278c-.0104.0223-.0754.1399-.1404.2639-.2624.4833-.4677 1.0842-.5717 1.6629-.0467.2607-.0571.4483-.0675 1.1891l-.013.8807-.8576 1.17c-.4729.6422-.8731 1.1796-.8887 1.1891-.0156.0127-.1845.089-.3716.1717-.2313.1017-.3561.1749-.3794.2194-.0468.0922-.6159 2.4799-.6159 2.588 0 .105.0779.2194.1663.248.0416.0127.3274-.1144.9277-.4133 1.2162-.6009 1.1018-.531 1.1486-.6931.0234-.0731.0858-.337.1378-.5818l.0935-.4452.1715-.2384c.0962-.1304.2417-.3211.3223-.4292l.1481-.1908.0026 1.0015v1.0015l-.1663.0573c-.3794.1335-.8368.4642-1.1564.8298-.4964.5755-.8602 1.5579-.8602 2.3273v.1717h-2.9547-2.9521l.0156-5.2079c.013-4.572.0208-5.227.0572-5.3955.1481-.6963.66-1.2749 1.2343-1.3926.0364-.0063 1.7593-.0159 3.8279-.019 3.0041-.0032 3.7577.0063 3.7421.0349zm.7718.0096c.3586.089.7016.5182.7952.9888l.0312.1653-.5172.6073-.5145.6072h-.447-.4444l.0156-.1526c.052-.426.2339-1.0587.4236-1.453.1897-.3942.4678-.8139.5275-.7948.0208.0063.0806.0222.13.0318zm.4781 2.3432c-.2338.4706-1.042 1.9808-1.1772 2.197-.1351.2226-1.4188 2.0062-1.6891 2.3496-.039.054-.0546.0445-.2443-.1367-.1091-.1049-.2001-.2035-.2001-.2162s.382-.5437.8524-1.1796c.6289-.8584 1.0577-1.4053 1.6501-2.1048.4418-.5214.8082-.9474.8134-.9474.0078 0 .0052.019-.0052.0381zm-1.1538.5628c0 .0159-.0987.1367-.2209.2734l-.2208.2448v-.2734-.2734h.2208c.1222 0 .2209.0127.2209.0286zm-2.2582 4.235c.1481.1399.2728.2607.278.2639.0104.0159-.1533.7662-.1741.7916-.0208.0255-1.2837.6582-1.2941.6486-.0078-.0127.4054-1.7137.421-1.7327.0156-.0191.4495-.2226.4833-.2258.0078-.0032.1352.1113.2859.2544zm2.5181 1.9521c.5431.1368 1.0784.5564 1.4215 1.1128.4833.7854.6107 1.895.3196 2.8075-.6237 1.9649-2.7078 2.5149-3.9214 1.0301-.4678-.5723-.7042-1.2718-.7042-2.0762 0-.7885.2157-1.4561.647-2.0094.3197-.4101.6185-.639 1.0421-.798.3924-.1494.79-.1717 1.1954-.0668zm-3.2847 3.472c.0883.5023.239.957.4469 1.3417.1274.2353.46.6581.6549.833l.1585.1399-3.6017.0095c-3.9552.0064-3.7967.0159-4.1241-.1844-.3431-.2066-.5795-.5087-.7017-.887-.0831-.2607-.0831-.8013 0-1.062.0338-.0985.078-.2034.0988-.2289.0364-.0413.4651-.0477 3.5472-.0477h3.5056z" fill="url(#b)"/><path d="m15.2691 13.1373v.2703l2.9443-.0064 2.9417-.0095.0078-.2639.0078-.2607h-2.9521-2.9495z" fill="url(#c)"/><path d="m14.3908 15.0036.0078.2639h3.3783 3.3782l.0078-.2639.0078-.2607h-3.3938-3.3939z" fill="url(#d)"/><path d="m14.4037 16.6092c-.0103.0095-.0181.1335-.0181.2702v.248h2.9495 2.952l-.0077-.2639-.0078-.2607-2.9262-.0095c-1.6085-.0032-2.9339.0032-2.9417.0159z" fill="url(#e)"/><path d="m14.1777 18.7332v.2702h2.2868 2.2868v-.2702-.2703h-2.2868-2.2868z" fill="url(#f)"/><path d="m14.1777 20.609v.2703h1.962 1.962v-.2703-.2702h-1.962-1.962z" fill="url(#g)"/><path d="m18.1017 21.6741v.2544h.2208.2209v-.2544-.2543h-.2209-.2208z" fill="url(#h)"/><path d="m14.1777 22.4849v.2702l1.6319-.0063 1.6294-.0096.0078-.2639.0078-.2607h-1.6398-1.6371z" fill="url(#i)"/><path d="m22.9092 23.4069c-.4937.7408-.9017 1.3481-.9095 1.3481-.0078.0031-.2105-.1908-.4548-.4293-.2417-.2384-.4469-.4355-.4573-.4451-.0078-.0063-.078.0827-.1508.1971-.1299.1972-.1351.2099-.0883.2512.026.0223.2806.2703.5665.5532.6003.5914.6315.6041.7978.3943.1247-.1653 1.9516-2.9028 1.9412-2.9124-.0052-.0063-.0754-.0763-.1585-.1589-.0806-.0827-.1559-.1495-.1689-.1495-.0104 0-.4236.6073-.9174 1.3513z" fill="url(#j)"/></svg>