<svg width="38" height="38" viewBox="0 0 38 38" fill="none" xmlns="http://www.w3.org/2000/svg">
    <defs>
        <linearGradient id="paint0_linear_1441_27" x1="14" y1="22.7707" x2="23.5654" y2="22.7662" gradientUnits="userSpaceOnUse">
            <stop stop-color="#ED1556"/>
            <stop offset="0.515625" stop-color="#B24198"/>
            <stop offset="1" stop-color="#2EB1E6"/>
        </linearGradient>
        <linearGradient id="paint1_linear_1441_27" x1="16.8" y1="14.1195" x2="21.0235" y2="14.1176" gradientUnits="userSpaceOnUse">
            <stop stop-color="#ED1556"/>
            <stop offset="0.515625" stop-color="#B24198"/>
            <stop offset="1" stop-color="#2EB1E6"/>
        </linearGradient>
        <clipPath id="clip0_1441_27">
            <rect width="9.8" height="16" fill="white" transform="translate(14 11)"/>
        </clipPath>
    </defs>
<rect width="38" height="38" rx="8" fill="#F7F5F5"/>
<g clip-path="url(#clip0_1441_27)">
<path d="M15.6 27.0001C15.6 27.0001 15.5 27.0001 15.5 26.9001C15.2 26.8001 15 26.6001 15 26.2001C15 25.7001 15 25.1001 15 24.6001C14.8 24.6001 14.7 24.7001 14.5 24.7001C14.4 24.7001 14.4 24.7001 14.3 24.7001C14 24.7001 14 24.6001 14 24.4001C14 23.2001 14 22.1001 14 20.9001C14 20.2001 14 19.5001 14 18.8001C14 18.4001 14.1 18.0001 14.4 17.7001C14.7 17.4001 15 17.1001 15.4 17.0001C16 16.8001 16.5 16.6001 17.1 16.3001C17.3 16.2001 17.4 16.2001 17.5 16.4001C17.9 17.1001 18.3 17.7001 18.8 18.4001C18.8 18.4001 18.9 18.5001 18.9 18.6001C18.9 18.5001 19 18.5001 19 18.5001C19.4 17.8001 19.8 17.2001 20.3 16.5001C20.4 16.3001 20.5 16.3001 20.7 16.4001C21.3 16.7001 21.8 16.9001 22.4 17.2001C22.8 17.3001 23.2 17.6001 23.5 18.0001C23.7 18.3001 23.8 18.6001 23.8 18.9001C23.8 20.7001 23.8 22.6001 23.8 24.4001C23.8 24.7001 23.7 24.8001 23.4 24.8001C23.2 24.8001 23 24.7001 22.8 24.7001C22.8 24.9001 22.8 25.1001 22.8 25.3001C22.8 25.6001 22.8 25.9001 22.8 26.2001C22.8 26.6001 22.6 26.9001 22.2 27.0001C20 27.0001 17.8 27.0001 15.6 27.0001ZM17.2 16.8001C16.6 17.1001 16 17.4001 15.4 17.7001C15.2 17.8001 15.1 17.9001 14.9 18.0001C14.6 18.3001 14.5 18.6001 14.5 19.0001C14.5 19.9001 14.5 20.8001 14.5 21.6001C14.5 21.7001 14.5 21.7001 14.5 21.8001C14.7 21.8001 14.8 21.9001 15 21.9001C15.1 21.2001 15.3 21.0001 15.9 21.0001C16.3 21.0001 16.8 21.0001 17.2 21.0001C17.1 20.4001 17.2 20.0001 17.6 19.8001C18.2 19.5001 18.6 19.8001 18.8 20.4001C19.2 19.8001 19.5 19.7001 20 19.8001C20.4 20.0001 20.6 20.3001 20.5 21.0001C20.6 21.0001 20.6 21.0001 20.7 21.0001C21.1 21.0001 21.6 21.0001 22 21.0001C22.4 21.0001 22.7 21.3001 22.8 21.6001C22.8 21.7001 22.8 21.8001 22.8 21.8001C23 21.8001 23.1 21.7001 23.3 21.7001C23.3 21.6001 23.3 21.6001 23.3 21.5001C23.3 20.6001 23.3 19.7001 23.3 18.8001C23.3 18.5001 23.2 18.3001 23.1 18.1001C22.8 17.9001 22.5 17.7001 22.1 17.6001C21.7 17.3001 21.2 17.1001 20.7 16.9001C20.6 16.8001 20.6 16.8001 20.5 17.0001C20.1 17.7001 19.6 18.4001 19.2 19.1001C19 19.3001 18.8 19.3001 18.6 19.1001C18.4 18.8001 18.3 18.6001 18.1 18.3001C17.8 17.8001 17.5 17.3001 17.2 16.8001ZM15.5 24.8001C15.5 25.3001 15.5 25.7001 15.5 26.2001C15.5 26.5001 15.6 26.6001 15.9 26.6001C16.6 26.6001 17.3 26.6001 18 26.6001C18.1 26.6001 18.1 26.6001 18.2 26.6001C18.2 26.2001 18.2 25.8001 18.2 25.4001C18.7 25.4001 19.2 25.4001 19.7 25.4001C19.7 25.8001 19.7 26.2001 19.7 26.6001C20.5 26.6001 21.3 26.6001 22 26.6001C22.2 26.6001 22.3 26.5001 22.3 26.3001C22.3 25.9001 22.3 25.5001 22.3 25.0001C22.3 24.9001 22.3 24.9001 22.3 24.8001C20 24.8001 17.8 24.8001 15.5 24.8001ZM21.7 23.2001C21.7 22.9001 21.8 22.6001 22.1 22.3001C22.2 22.2001 22.3 22.1001 22.2 21.9001V21.8001C22.2 21.6001 22.1 21.5001 21.9 21.5001C21.2 21.5001 20.5 21.5001 19.8 21.5001C19.7 21.5001 19.7 21.5001 19.6 21.5001C19.6 21.9001 19.6 22.3001 19.6 22.7001C19.1 22.7001 18.6 22.7001 18.1 22.7001C18.1 22.3001 18.1 21.9001 18.1 21.5001C18 21.5001 18 21.5001 17.9 21.5001C17.3 21.5001 16.6 21.5001 16 21.5001C15.5 21.5001 15.5 21.5001 15.5 22.0001C15.5 22.1001 15.5 22.2001 15.5 22.2001C15.8 22.5001 15.9 22.8001 16 23.2001C17.9 23.2001 19.8 23.2001 21.7 23.2001ZM14.5 22.3001C14.5 22.9001 14.5 23.6001 14.5 24.2001C15 24.2001 15.5 23.7001 15.5 23.2001C15.5 22.8001 15 22.3001 14.5 22.3001ZM23.2 24.2001C23.2 23.6001 23.2 22.9001 23.2 22.3001C22.7 22.3001 22.2 22.8001 22.2 23.3001C22.3 23.7001 22.7 24.2001 23.2 24.2001ZM18.6 21.0001C18.5 20.8001 18.4 20.6001 18.3 20.5001C18.3 20.3001 18.1 20.2001 18 20.3001C17.8 20.3001 17.7 20.5001 17.7 20.7001C17.7 20.8001 17.8 21.0001 18 21.0001C18.2 21.0001 18.4 21.0001 18.6 21.0001ZM19.2 21.0001C19.4 21.0001 19.6 21.0001 19.8 21.0001C19.9 21.0001 20 20.8001 20.1 20.7001C20.1 20.5001 20 20.4001 19.9 20.3001C19.8 20.2001 19.6 20.3001 19.5 20.4001C19.4 20.6001 19.3 20.8001 19.2 21.0001Z" fill="url(#paint0_linear_1441_27)"/>
<path d="M16.8 13.5C16.8 12.9 17 12.2 17.6 11.6C18.4 10.8 19.6 10.8 20.4 11.6C21.3 12.6 21.4 14.4 20.5 15.4C19.6 16.4 18.3 16.4 17.5 15.3C17 14.9 16.8 14.3 16.8 13.5Z" fill="url(#paint1_linear_1441_27)"/>
</g>

</svg>
