<svg fill="none" height="38" viewBox="0 0 38 38" width="38" xmlns="http://www.w3.org/2000/svg" xmlns:xlink="http://www.w3.org/1999/xlink"><linearGradient id="a" gradientUnits="userSpaceOnUse" x1="10" x2="27.0279" y1="20.0007" y2="20.0007"><stop offset="0" stop-color="#ed1556"/><stop offset=".0894" stop-color="#e4205f"/><stop offset=".2708" stop-color="#d13175"/><stop offset=".5" stop-color="#b24198"/><stop offset="1" stop-color="#2eb1e6"/></linearGradient><clipPath id="b"><path d="m0 0h38v38h-38z"/></clipPath><g clip-path="url(#b)"><rect fill="#f7f5f5" height="38" rx="8" width="38"/><path clip-rule="evenodd" d="m26.0279 16.514c0 2.9355-1.776 6.5933-3.7887 9.6289-.9892 1.492-2.0002 2.7811-2.8041 3.6888-.3692.4168-.6845.7417-.9264.9653-.2408-.2186-.5545-.5358-.9214-.9432-.8028-.8914-1.8126-2.1606-2.8006-3.6386-2.008-3.0036-3.7867-6.6632-3.7867-9.7012 0-4.1499 3.3641-7.514 7.514-7.514 4.1498 0 7.5139 3.3641 7.5139 7.514zm1 0c0 6.5028-7.7095 15.486-8.5139 15.486-.8045 0-8.514-8.7821-8.514-15.486 0-4.7022 3.8118-8.514 8.514-8.514 4.7021 0 8.5139 3.8118 8.5139 8.514zm-11.4945-.9261-.5335.2919c-.2423.1326-.5461.0437-.6787-.1986-.1325-.2422-.0436-.5461.1987-.6786l3.7866-2.0719 3.9905 2.0665c.2453.127.3411.4287.2141.6739-.127.2453-.4287.3411-.6739.2141l-.7449-.3857v2.4585h.5055c.2761 0 .5.2239.5.5s-.2239.5-.5.5h-6.5028c-.2762 0-.5-.2239-.5-.5s.2238-.5.5-.5h.4384zm1-.5472v2.9173h.3409v-2.4492c0-.2762.2238-.5.5-.5.2761 0 .5.2238.5.5v2.4492h.8772v-2.4492c0-.2762.2238-.5.5-.5.2761 0 .5.2238.5.5v2.4492h.3408v-2.9764l-1.7729-.9181zm1.9135 6.7076c2.854 0 5.1676-2.3136 5.1676-5.1676s-2.3136-5.1676-5.1676-5.1676-5.1676 2.3136-5.1676 5.1676 2.3136 5.1676 5.1676 5.1676zm0 1c3.4063 0 6.1676-2.7613 6.1676-6.1676s-2.7613-6.1676-6.1676-6.1676-6.1676 2.7613-6.1676 6.1676 2.7613 6.1676 6.1676 6.1676z" fill="url(#a)" fill-rule="evenodd"/></g></svg>