<svg width="38" height="38" viewBox="0 0 38 38" fill="none" xmlns="http://www.w3.org/2000/svg">
    <defs>
        <linearGradient id="paint0_linear_1441_28" x1="9" y1="20.7142" x2="28.9424" y2="20.7011" gradientUnits="userSpaceOnUse">
            <stop stop-color="#ED1556"/>
            <stop offset="0.515625" stop-color="#B24198"/>
            <stop offset="1" stop-color="#2EB1E6"/>
        </linearGradient>
    </defs>
<rect width="38" height="38" rx="8" fill="#F7F5F5"/>
<path fill-rule="evenodd" clip-rule="evenodd" d="M19.2659 12.1H18.6659C17.9659 12.2 17.2659 12.4 16.5659 12.8L15.0659 12.2C16.2659 11.4 17.6659 11 19.1659 11C19.6659 11 20.1659 11 20.6659 11.1C23.8659 11.7 26.3659 14.1 27.1659 17.1V17.2L28.3659 15.5C28.3659 15.4 28.5659 15.2 28.8659 15.2C28.8659 15.2 28.9659 15.3 29.0659 15.3C29.0895 15.3236 29.1187 15.3472 29.1495 15.3721C29.2492 15.4528 29.3659 15.5472 29.3659 15.7C29.4659 15.8 29.4659 16 29.2659 16.3C29.2659 16.3 27.2659 19.1 27.1659 19.2C26.9659 19.5 26.7659 19.5 26.6659 19.5C26.5659 19.5 26.3659 19.5 26.2659 19.4L23.3659 17.2C23.0659 16.9 22.9659 16.6 23.1659 16.3C23.2195 16.2732 23.2659 16.2464 23.309 16.2215C23.4267 16.1536 23.5195 16.1 23.6659 16.1C23.8659 16.1 23.9659 16.2 24.0659 16.3L25.8659 17.7C25.8659 17.5828 25.8316 17.5 25.8032 17.4314C25.7831 17.3828 25.7659 17.3414 25.7659 17.3C25.0659 14.3 22.3659 12.1 19.2659 12.1ZM21.9658 19.1C21.8658 19.3 21.9658 19.7 22.0658 19.9L22.3658 19.4L21.9658 19.1ZM21.7658 20.2C21.3658 19.8 21.3658 19.3 21.5658 18.8L18.7658 16.6C18.3658 17 17.8658 17 17.3658 16.8L16.6658 17.7C17.0658 18.1 17.0658 18.6 16.8658 19.1L19.6658 21.3C20.0658 20.9 20.5658 20.9 21.0658 21.1L21.7658 20.2ZM17.6658 16.4C17.9658 16.5 18.2658 16.5 18.4658 16.3L17.9658 16L17.6658 16.4ZM16.5658 18.8C16.6658 18.5 16.6658 18.2 16.4658 18L16.1658 18.5L16.5658 18.8ZM20.8658 21.4C20.5658 21.3 20.2658 21.3 20.0658 21.5L20.5658 21.8L20.8658 21.4ZM17.9658 15.4L23.0658 19.3L20.5658 22.5L15.4658 18.6L17.9658 15.4ZM19.6658 19.3C19.8658 19.1 19.7658 18.8 19.5658 18.6C19.3658 18.4 19.0658 18.4 18.8658 18.7C18.6658 18.9 18.7658 19.2 18.9658 19.4C19.1658 19.6 19.4658 19.5 19.6658 19.3ZM19.7657 25.6999H19.1657C16.0657 25.6999 13.3657 23.4999 12.6657 20.4999C12.6657 20.4585 12.6485 20.4171 12.6284 20.3686C12.6 20.2999 12.5657 20.2171 12.5657 20.0999L14.3657 21.4999C14.4657 21.5999 14.6657 21.6999 14.7657 21.6999C14.9121 21.6999 15.0049 21.6463 15.1226 21.5784C15.1657 21.5535 15.2121 21.5267 15.2657 21.4999C15.4657 21.1999 15.3657 20.8999 15.0657 20.5999L12.1657 18.3999C12.0657 18.2999 11.8657 18.2999 11.7657 18.2999C11.6657 18.2999 11.4657 18.2999 11.2657 18.5999C11.1657 18.6999 9.16569 21.4999 9.16569 21.4999C8.96569 21.7999 8.96569 21.9999 9.06569 22.0999C9.06569 22.2527 9.18241 22.3471 9.2821 22.4278L9.28211 22.4278C9.31291 22.4527 9.34208 22.4763 9.36569 22.4999C9.46569 22.4999 9.56569 22.5999 9.56569 22.5999C9.86569 22.5999 10.0657 22.3999 10.0657 22.2999L11.2657 20.5999V20.6999C11.9657 23.8999 14.4657 26.2999 17.6657 26.8999C18.1657 26.9999 18.6657 26.9999 19.1657 26.9999C20.6657 26.9999 22.0657 26.5999 23.2657 25.7999L21.7657 25.1999C21.2657 25.4999 20.5657 25.5999 19.7657 25.6999Z" fill="url(#paint0_linear_1441_28)"/>

</svg>
