<svg width="38" height="38" viewBox="0 0 38 38" fill="none" xmlns="http://www.w3.org/2000/svg">
    <defs>
        <linearGradient id="paint0_linear_1441_25" x1="11" y1="20.7446" x2="26.7145" y2="20.7365" gradientUnits="userSpaceOnUse">
            <stop stop-color="#ED1556"/>
            <stop offset="0.515625" stop-color="#B24198"/>
            <stop offset="1" stop-color="#2EB1E6"/>
        </linearGradient>
    </defs>
<rect width="38" height="38" rx="8" fill="#F7F5F5"/>
<path d="M23.3 27.05H14.8C12.7 27.05 11 25.35 11 23.25V17.95C11 16.75 11.6 15.65 12.5 14.95L16.8 11.75C18.1 10.75 20 10.75 21.3 11.75L22.7 12.75V11.95C22.7 11.15 23.9 11.15 24 11.95V14.05C24 14.25 23.9 14.55 23.7 14.65C23.5 14.75 23.2 14.75 23 14.55L20.6 12.75C19.7 12.05 18.5 12.05 17.6 12.75L13.3 15.95C12.7 16.45 12.3 17.15 12.3 17.95V23.25C12.3 24.65 13.4 25.75 14.8 25.75H23.3C24.7 25.75 25.8 24.65 25.8 23.25V17.95C25.8 17.15 25.4 16.45 24.8 15.95C24.5 15.75 24.5 15.35 24.7 15.05C24.9 14.75 25.3 14.75 25.6 14.95C26.5 15.65 27.1 16.75 27.1 17.95V23.25C27 25.35 25.4 27.05 23.3 27.05ZM17.8 18.25C17.4 18.25 17 18.55 17 19.05C17 20.05 18.5 20.05 18.6 19.05C18.6 18.65 18.2 18.25 17.8 18.25ZM21.1 19.05C21.1 20.05 19.6 20.05 19.5 19.05C19.5 18.05 21 18.05 21.1 19.05ZM18.6 21.55C18.6 22.55 17.1 22.55 17 21.55C17 20.55 18.5 20.55 18.6 21.55ZM21.1 21.55C21.1 22.55 19.6 22.55 19.5 21.55C19.5 20.55 21 20.55 21.1 21.55Z" fill="url(#paint0_linear_1441_25)"/>

</svg>
