<svg width="38" height="38" viewBox="0 0 38 38" fill="none" xmlns="http://www.w3.org/2000/svg">
    <defs>
        <linearGradient id="paint0_linear_1441_34" x1="11" y1="20.7143" x2="26.6423" y2="20.7062" gradientUnits="userSpaceOnUse">
            <stop stop-color="#ED1556"/>
            <stop offset="0.515625" stop-color="#B24198"/>
            <stop offset="1" stop-color="#2EB1E6"/>
        </linearGradient>
    </defs>
<rect width="38" height="38" rx="8" fill="#F7F5F5"/>
<path fill-rule="evenodd" clip-rule="evenodd" d="M11.7 26C12.3 26.7 13.1 27 14 27L25.2 26.9H26.4C26.7 26.9 27 26.7 27 26.4C27.1 26.1 26.9 25.8 26.6 25.7H26.3H19.7H14C13.6 25.7 13.1 25.5 12.8 25.2C12.5 24.9 12.3 24.5 12.3 24V17.1V13.9V13.3C12.5 12.6 13.1 12.2 13.9 12.2H26.3C26.5 12.2 26.7 12.2 26.8 12C26.9 11.9 26.9 11.7 26.9 11.5V11.5C26.9 11.2 26.6 11 26.3 11H13.9C12.3 11.1 11 12.3 11 13.9V24.2C11 24.9 11.3 25.5 11.7 26ZM20.1 23.1001C20.2 23.3001 20.4 23.5001 20.7 23.5001C20.8 23.5001 20.875 23.4751 20.95 23.4501C21.025 23.4251 21.1 23.4001 21.2 23.4001C22.1 22.7501 23 22.1251 23.9 21.5001C24.8 20.8751 25.7 20.2501 26.6 19.6001C26.8 19.5001 26.9 19.3001 26.9 19.1001C26.9 18.9001 26.8 18.7001 26.6 18.6001L21.2 14.8001C21.1464 14.7733 21.1 14.7465 21.0569 14.7216C20.9392 14.6537 20.8464 14.6001 20.7 14.6001H20.6C20.3 14.7001 20.1 14.9001 20.1 15.1001C20.1 15.4001 20.2 15.6001 20.4 15.8001L23.4 17.9001L24.2 18.5001H16.3C16 18.5001 15.8 18.6001 15.7 18.8001C15.6 18.9001 15.5 19.1001 15.6 19.3001C15.7 19.5001 16 19.7001 16.3 19.7001H23.4H24.1L23.4 20.3001L20.4 22.4001C20.1 22.6001 20 22.8001 20.1 23.1001Z" fill="url(#paint0_linear_1441_34)"/>

</svg>
