<svg width="38" height="38" viewBox="0 0 38 38" fill="none" xmlns="http://www.w3.org/2000/svg">
    <defs>
        <linearGradient id="paint0_linear_1441_30" x1="12" y1="20.7143" x2="24.884" y2="20.7088" gradientUnits="userSpaceOnUse">
            <stop stop-color="#ED1556"/>
            <stop offset="0.515625" stop-color="#B24198"/>
            <stop offset="1" stop-color="#2EB1E6"/>
        </linearGradient>
    </defs>
<rect width="38" height="38" rx="8" fill="#F7F5F5"/>
<path d="M18.6 27C17.6 27 16.8 26.2 16.5 25.2H12.7C12.2 25.2 12 25 12 24.5V22.9C12 21.7 12 20.5 12 19.3C12.1 16.5 13.4 14.4 16 13.1C16.2 13 16.5 12.9 16.7 12.8C16.8 11.6 17.3 11 18.5 11H19C19.8 11 20.4 11.8 20.4 12.6C20.4 12.7 20.4 12.8 20.4 12.8C20.4 12.8 20.5 12.8 20.6 12.9C23.1 13.8 24.7 15.6 25.1 18.2C25.2 18.6 25.2 18.9 25.2 19.3C25.2 20.7 25.2 22.1 25.2 23.5V24.5C25.2 25 25 25.2 24.5 25.2H20.7C20.3 26.3 19.6 27 18.6 27ZM17.8 25.2C18 25.5 18.3 25.8 18.6 25.8C18.9 25.8 19.2 25.4 19.4 25.2H17.8ZM24.1 24V22.8H13.2V24H24.1ZM24.1 21.6V20.8C24.1 20 24.1 19.9 24.1 19.1C24.1 18.8 24.1 18.4 24 18.1C23.6 15.6 21.3 13.6 18.7 13.6C18.3 13.6 17.9 13.6 17.5 13.7C15.1 14.3 13.3 16.4 13.2 18.9C13.2 19.7 13.2 20.5 13.2 21.3V21.5H24.1V21.6ZM19.3 12.6C19.3 12.5 19.3 12.3 19.3 12.3C19.2 12.2 19.1 12.2 19.1 12.2H18.4C18.3 12.2 18.2 12.2 18.1 12.3C18.1 12.3 18.1 12.5 18.1 12.6H19.3Z" fill="url(#paint0_linear_1441_30)"/>

</svg>
