<svg enable-background="new 0 0 38 38" viewBox="0 0 38 38" xmlns="http://www.w3.org/2000/svg" xmlns:xlink="http://www.w3.org/1999/xlink"><linearGradient id="a"><stop offset="0" stop-color="#ed1556"/><stop offset=".5156" stop-color="#b24198"/><stop offset="1" stop-color="#2eb1e6"/></linearGradient><linearGradient id="b" gradientUnits="userSpaceOnUse" x1="8.7324" x2="28.16" xlink:href="#a" y1="20.1709" y2="18.0122"/><linearGradient id="c" gradientUnits="userSpaceOnUse" x1="9.0186" x2="28.4462" xlink:href="#a" y1="22.7464" y2="20.5878"/><linearGradient id="d" gradientUnits="userSpaceOnUse" x1="8.4712" x2="27.8988" xlink:href="#a" y1="17.8195" y2="15.6608"/><linearGradient id="e" gradientUnits="userSpaceOnUse" x1="9.0573" x2="28.4849" xlink:href="#a" y1="23.0949" y2="20.9363"/><linearGradient id="f" gradientUnits="userSpaceOnUse" x1="8.4684" x2="27.896" xlink:href="#a" y1="17.795" y2="15.6364"/><linearGradient id="g" gradientUnits="userSpaceOnUse" x1="8.5138" x2="27.9414" xlink:href="#a" y1="18.2032" y2="16.0446"/><linearGradient id="h" gradientUnits="userSpaceOnUse" x1="8.5931" x2="28.0207" xlink:href="#a" y1="18.9169" y2="16.7583"/><linearGradient id="i" gradientUnits="userSpaceOnUse" x1="8.3391" x2="27.7667" xlink:href="#a" y1="16.631" y2="14.4723"/><linearGradient id="j" gradientUnits="userSpaceOnUse" x1="8.4184" x2="27.846" xlink:href="#a" y1="17.3447" y2="15.1861"/><path d="m8 0h22c4.4 0 8 3.6 8 8v22c0 4.4-3.6 8-8 8h-22c-4.4 0-8-3.6-8-8v-22c0-4.4 3.6-8 8-8z" fill="#f7f5f5"/><path d="m26 15.1c-1.1-2.2-2.8-3.5-5.2-4h-.1c-.2 0-.4-.1-.6-.1h-.1c-.1 0-.1 0-.2 0h-1.1c-.6 0-1.3.2-1.9.4-3.1 1.2-5.1 4.2-4.9 7.5v.3l.7-.1v-.1c-.1-1.4.1-2.6.8-3.7.6-1.2 1.6-2.1 2.7-2.8 1.2-.5 2.3-.8 3.4-.8h.4c1.9.1 3.6 1 4.8 2.5s1.7 3.3 1.5 5.2c-.5 3.6-3.5 5.7-6.2 5.8l.5-.4-.4-.5-1.3 1.3 1.3 1.3.5-.5-.8-.4h.1.3.3c2.1-.4 3.7-1.3 4.8-2.9 1.8-2.6 2.1-5.2.7-8z" fill="url(#b)"/><path d="m23.5 22.7c.2-.1.3-.1.4-.2.4-.3.5-.9.2-1.3-.2-.3-.6-.6-1-.6-.1 0-.2 0-.3.1l-.7.2-2.1.6c-.1 0-.2 0-.3 0s-.2 0-.2 0c-.1 0-.2 0-.3 0 .4-.3.5-.8.3-1.2-.2-.5-.5-.7-1.1-.7h-3.1c-.2 0-.5.1-.6.2-.1 0-.1.1-.2.1 0 0-.1 0-.1.1v-.3h-3.2v4.6h3.3v-.6l.6.3c.6.2 1.2.5 1.8.7.1.1.3.1.4.1s.2 0 .3-.1l2.1-.6c1.1-.5 2.4-1 3.8-1.4zm-9.8.8h-1.9v-3.2h.8v1.5h.7v-1.5h.3v3.2zm3.6.4h-.1c-.1 0-.1 0-.1 0-.5-.2-1-.4-1.5-.6l-1.1-.5c-.1 0-.1 0-.1-.1v-2c0-.1 0-.1.1-.1.4-.3.8-.4 1.3-.4h2.6c.2 0 .4.1.4.3s0 .4-.2.5c-.1 0-.2.1-.3.1h-1.8l-.1.7 1.3.2c.3 0 .6.1.9.1s.6.1.9.1h.1c.1 0 .3 0 .4-.1.7-.2 1.5-.4 2.2-.6l.7-.2h.1.1c.2 0 .3.1.3.2v.3c0 .1-.1.2-.3.2-1.9.7-4 1.4-5.8 1.9z" fill="url(#c)"/><path d="m24.2 14.2h-9.5v4.8h9.5zm-.7 4.1h-8.1v-3.4h8.1z" fill="url(#d)"/><path d="m12.6 22.2h.7v.9h-.7z" fill="url(#e)"/><path d="m19.5 17.7c.3 0 .6-.1.8-.3s.3-.5.3-.8c0-.6-.5-1.1-1.1-1.1s-1.1.5-1.1 1.1c0 .3.1.6.3.8s.5.3.8.3zm0-1.6c.1 0 .2 0 .3.2.1.1.1.2.1.3 0 .2-.2.4-.4.4-.1 0-.2-.1-.3-.2-.2-.1-.2-.2-.2-.3.1-.2.3-.4.5-.4z" fill="url(#f)"/><path d="m17 17.2h-.5v-.5h-.8v1.2h1.3z" fill="url(#g)"/><path d="m23.2 16.7h-.7v.6h-.5v.6h1.2z" fill="url(#h)"/><path d="m16.5 15.9h.5v-.7h-1.3v1.2h.8z" fill="url(#i)"/><path d="m22.5 16.4h.7v-1.2h-1.2v.7h.5z" fill="url(#j)"/></svg>