<svg fill="none" height="38" viewBox="0 0 38 38" width="38" xmlns="http://www.w3.org/2000/svg" xmlns:xlink="http://www.w3.org/1999/xlink"><linearGradient id="a" gradientUnits="userSpaceOnUse" x1="8.00003" x2="31.0575" y1="18.5004" y2="18.5004"><stop offset="0" stop-color="#ed1556"/><stop offset=".0894" stop-color="#e4205f"/><stop offset=".2708" stop-color="#d13175"/><stop offset=".5" stop-color="#b24198"/><stop offset="1" stop-color="#2eb1e6"/></linearGradient><clipPath id="b"><path d="m0 0h38v38h-38z"/></clipPath><g clip-path="url(#b)"><rect fill="#f7f5f5" height="38" rx="8" width="38"/><path clip-rule="evenodd" d="m20.2015 9.10923h.605c3.126 0 5.8487 2.21847 6.5546 5.24367 0 .0417.0173.0835.0375.1324.0287.0692.0633.1528.0633.2709l-1.8151-1.4117c-.1008-.1009-.2017-.2017-.4034-.2017-.1476 0-.2412.054-.3599.1225-.0434.0251-.0902.0521-.1442.0792-.2017.3025-.1009.605.2016.9075l2.9244 2.2185c.1008.1008.3025.1008.4033.1008.1009 0 .3025 0 .5042-.3025.1009-.1008 2.1176-2.9243 2.1176-2.9243.2017-.3026.2017-.5042.1009-.6051 0-.154-.1177-.2493-.2183-.3306l-.0001-.0001c-.031-.0251-.0604-.0489-.0841-.0726-.1009 0-.2017-.1009-.2017-.1009-.3025 0-.5042.2017-.5042.3026l-1.2101 1.7142v-.1008c-.8067-3.0252-3.3277-5.44533-6.5545-6.05036-.5042-.10084-1.0084-.10084-1.5126-.10084-1.5126 0-2.9243.40336-4.1344 1.21007l1.5126.60503c.7059-.40335 1.4117-.60503 2.1176-.70587zm-.3573 18.46017h-.6601c-3.4106 0-6.3811-2.4204-7.1512-5.721 0-.0455-.0189-.0911-.041-.1445-.0312-.0755-.069-.1666-.069-.2955l1.9803 1.5402c.11.11.3301.2201.4401.2201.1611 0 .2632-.059.3927-.1337v-.0001c.0474-.0273.0984-.0568.1574-.0863.22-.33.11-.6601-.22-.9901l-3.1906-2.4204c-.11-.1101-.33-.1101-.44-.1101-.1101 0-.3301 0-.5501.3301-.1101.11-2.31042 3.1905-2.31042 3.1905-.22003.3301-.22003.5501-.11001.6601 0 .1681.12841.272.23808.3607l.00001.0001c.03389.0274.06599.0533.09196.0793.11002 0 .22004.11.22004.11.33005 0 .55009-.22.55009-.33l1.32025-1.8703v.11c.7701 3.5206 3.5205 6.161 7.0411 6.8211.5501.11 1.1002.11 1.6503.11 1.6503 0 3.1905-.44 4.5107-1.3202l-1.6502-.6601c-.5501.3301-1.3202.4401-2.2004.5501zm-4.7013-8.52c0-2.9423 2.3935-5.3354 5.3355-5.3354.1806 0 .3591.009.5352.0266l.004-.01v-.0001c.0179-.0446.0357-.0893.0536-.125l.1428-.1428c.0715-.0715.1429-.1072.2143-.1429s.1429-.0357.2143-.0357l.2857.1786c.0882.0587.1763.0933.3043.1435.0275.0108.0569.0224.0886.035.1428.0357.3214.0715.4642.0715.1429 0 .3215-.0358.4643-.0715.1429-.0357.2857-.1071.3929-.1785l.2143-.1429c.0357 0 .0357-.0357.0357-.0357.0418 0 .0959.0122.1407.0224.0317.0072.0588.0133.0736.0133.0714.0357.1428.0714.1785.1071.0715.0715.1072.1072.1429.2143.0178.0357.0357.0804.0536.125.0178.0447.0357.0893.0535.125.0061.0184.0123.0357.0182.0526.0287.0812.0532.1505.0532.2689.0358.1071.0358.2142.0358.3214v.3214c.1071.1786.0357.2857-.0715.3929-.0641.0641-.141.1026-.2307.1232.9125.9578 1.4735 2.2535 1.4736 3.6778 0 2.9422-2.3933 5.3359-5.3356 5.3359-.7363 0-1.4382-.1499-2.0768-.4207h-1.2586c-.1786 0-.3214-.0358-.4286-.1429-.1071-.1071-.1428-.25-.1428-.4286v-.3214c0-.0536.0089-.1071.0178-.1607.009-.0536.0179-.1071.0179-.1607.0027-.0081.0052-.0163.0075-.0244-.9116-.9578-1.4719-2.2529-1.4719-3.6765zm5.2648 4.5764c.0087-.0562-.0043-.1199-.0505-.1969v-.3215c0-.1071 0-.2143-.0357-.3214 0-.1183-.0245-.1877-.0532-.2689-.006-.0168-.0121-.0341-.0182-.0525-.0179-.0357-.0357-.0804-.0536-.125-.0178-.0447-.0357-.0893-.0536-.125-.0357-.1072-.0714-.1429-.1428-.2143-.0357-.0357-.1071-.0714-.1786-.1071-.0148 0-.0418-.0062-.0735-.0133v-.0001c-.0448-.0101-.0989-.0224-.1408-.0224 0 0 0 .0358-.0357.0358l-.2143.1428c-.1071.0714-.25.1429-.3928.1786-.1429.0357-.3214.0714-.4643.0714-.1428 0-.3214-.0357-.4643-.0714-.0316-.0127-.061-.0242-.0885-.035-.128-.0502-.2162-.0848-.3043-.1436l-.2857-.1786c-.0583 0-.1166 0-.1749.0194.0893-.2482.2258-.6118.3276-.8154.0413-.0827.0758-.1469.1099-.2019.0446.0771.1006.1475.1662.2132.1786.1785.4286.2857.6786.2857.2857 0 .5-.0714.6785-.2857.1786-.1786.2857-.4286.2857-.6786s-.1071-.4643-.2857-.6785c-.1785-.1786-.3928-.25-.6785-.2858-.25 0-.5.1072-.6786.2858-.0509.0611-.0961.1222-.1345.1842-.0116-.0044-.0232-.0089-.0348-.0133-.2072-.0791-.4152-.1585-.5094-.2528-.1469-.1469-.2517-.2096-.3695-.2802-.0877-.0524-.1826-.1092-.3074-.2082-.2191-.1737-.3462.5956-.3961.9942-.086-.3493-.1325-.7143-.1325-1.0901 0-.9713.3051-1.8716.8232-2.6138-.1459.4521-.2764 1.1111.2909.911.6222-.2201.6771-.4759.6771-.4759l.3659-.6406s.0549.8964.1283 1.0244c.0733.1284.3659.4947.4757-.0179l.035-.1642c.1722-.809.2221-1.0437.5485-1.0437.0631 0 .1383-.0091.2195-.0189.3667-.0441.8574-.1031.9176.5862.0464.5354.0041.5305-.1506.5124-.0885-.0104-.2139-.0251-.3805.0549-.4573.2196-.5673.9881-.1465 1.0797.421.0917 1.3728.4757 1.3728.4757l.4757.5312.1467.5673s.0914.6404.0914.6953v.5859s.0186 1.1528.4392.8783c.421-.2747 1.5738-2.0683 1.3363-2.7454-.2382-.6771-.2563-.7505.1828-.9883.4392-.2381.7504-.5308.7322-.8601-.0086-.1534-.0011-.2672.0057-.3707l.0001-.0001c.0034-.0522.0067-.1019.0076-.1527.356.651.5589 1.3972.5589 2.19-.0006 2.5238-2.0536 4.5769-4.577 4.5769-.0236 0-.0472-.0001-.0707-.0005zm2.3423-12.7693c-.25 0-.5.1071-.6786.2857-.1785.2143-.2857.4286-.2857.6786 0 .2857.1072.5.2857.6785.1786.1786.4286.2857.6786.2857.2857 0 .5-.0714.6786-.2857.1785-.1785.2857-.4285.2857-.6785s-.1072-.4643-.2857-.6786c-.1786-.1786-.3929-.25-.6786-.2857z" fill="url(#a)" fill-rule="evenodd"/></g></svg>