<svg width="38" height="38" viewBox="0 0 38 38" fill="none" xmlns="http://www.w3.org/2000/svg">
    <defs>
        <linearGradient id="paint0_linear_1441_26" x1="12" y1="20.7143" x2="24.9816" y2="20.7087" gradientUnits="userSpaceOnUse">
            <stop stop-color="#ED1556"/>
            <stop offset="0.515625" stop-color="#B24198"/>
            <stop offset="1" stop-color="#2EB1E6"/>
        </linearGradient>
    </defs>
<rect width="38" height="38" rx="8" fill="#F7F5F5"/>
<path fill-rule="evenodd" clip-rule="evenodd" d="M21.3001 17.7C20.5001 18.5 19.6001 18.9 18.5001 18.9C17.4001 18.9 16.5001 18.5 15.8001 17.7C15.0001 16.9 14.6001 16 14.6001 14.9C14.6001 13.9 15.0001 12.9 15.7001 12.2C16.5001 11.4 17.4001 11 18.5001 11C19.6001 11 20.5001 11.4 21.2001 12.1C22.0001 12.9 22.4001 13.8 22.4001 14.9C22.4001 16 22.1001 17 21.3001 17.7ZM18.5001 12.2C17.8001 12.2 17.1001 12.5 16.6001 13C16.1001 13.6 15.8001 14.2 15.8001 14.9C15.8001 15.7 16.1001 16.3 16.6001 16.8C17.1001 17.3 17.8001 17.6 18.5001 17.6C19.3001 17.6 19.9001 17.4 20.4001 16.8C20.9001 16.3 21.2001 15.6 21.2001 14.9C21.2001 14.2 20.9001 13.6 20.4001 13C19.9001 12.5 19.3001 12.3 18.5001 12.2ZM25.2554 22.7723C25.2785 22.9215 25.3 23.0607 25.3 23.2V23.2C25.3 23.5 25.3 23.8 25.2 24.1C25.2 25 24.9 25.7 24.4 26.2C23.9 26.7 23.2 27 22.3 27H14.8C14 27 13.3 26.7 12.8 26.2C12.3 25.7 12 25 12 24.1V23.2C12 22.9 12 22.6 12.1 22.2C12.1 21.9 12.2 21.5 12.3 21.2C12.4 20.8 12.5 20.5 12.7 20.2C12.9 19.9 13.1 19.6 13.4 19.4C13.6 19.1 14 18.9 14.3 18.8L14.3 18.8C14.7 18.7 15.1 18.6 15.5 18.6C15.7 18.6 15.9 18.7 16.2 18.9L16.9 19.3C17 19.4 17.3 19.5 17.6 19.6C17.6835 19.6208 17.7626 19.6417 17.8383 19.6617C18.1252 19.7374 18.3626 19.8 18.6 19.8C18.8374 19.8 19.0748 19.7374 19.3617 19.6617C19.4374 19.6417 19.5165 19.6208 19.6 19.6C19.9 19.5 20.2 19.4 20.3 19.3L21.2 18.9C21.5 18.7 21.7 18.6 21.9 18.6C22.3 18.6 22.7 18.7 23.1 18.8L24 19.4C24.2 19.6 24.4 19.9 24.6 20.2C24.7615 20.4422 24.8578 20.7496 24.9415 21.017C24.9615 21.0807 24.9807 21.1422 25 21.2C25 21.4374 25.0626 21.6748 25.1383 21.9617C25.1583 22.0374 25.1791 22.1165 25.2 22.2C25.2 22.4143 25.2287 22.6 25.2554 22.7723ZM22.4 25.7C22.9 25.7 23.3 25.6 23.6 25.3C23.9 25 24.1 24.7 23.8 24.2V23.3V23.3C23.8 23 23.8 22.7 23.7 22.4C23.7 22.0686 23.6314 21.8745 23.551 21.6471C23.5343 21.6 23.5172 21.5514 23.5 21.5C23.45 21.4 23.4 21.275 23.35 21.15C23.3 21.025 23.25 20.9 23.2 20.8C23.1 20.5 23 20.4 22.8 20.2C22.7 20.1 22.5 20 22.3 19.9C22.2586 19.9 22.1828 19.8828 22.0941 19.8627C21.9686 19.8343 21.8172 19.8 21.7 19.8C21.7 19.8 21.7 19.9 21.6 19.9L21 20.3C20.7 20.5 20.3 20.7 19.9 20.8C19.5 20.9 19 21 18.6 21C18.2 21 17.7 20.9 17.3 20.8C17.2114 20.7646 17.1291 20.7323 17.052 20.702C16.6937 20.5614 16.4469 20.4646 16.2 20.3L15.4 19.8C15.2 19.8 15 19.8 14.8 19.9C14.6 20 14.4 20.1 14.2 20.3L13.8 20.7C13.75 20.8 13.7 20.925 13.65 21.05C13.6 21.175 13.55 21.3 13.5 21.4C13.45 21.55 13.425 21.7 13.4 21.85C13.375 22 13.35 22.15 13.3 22.3C13.3 22.45 13.275 22.6 13.25 22.75C13.225 22.9 13.2 23.05 13.2 23.2V24.1C13.2 24.6 13.3 25 13.6 25.3C13.9 25.6 14.3 25.7 14.8 25.7H22.4Z" fill="url(#paint0_linear_1441_26)"/>

</svg>
