<svg fill="none" height="38" viewBox="0 0 38 38" width="38" xmlns="http://www.w3.org/2000/svg" xmlns:xlink="http://www.w3.org/1999/xlink"><linearGradient id="a" gradientUnits="userSpaceOnUse" x1="8.46609" x2="29.1413" y1="17.915" y2="17.915"><stop offset="0" stop-color="#ed1556"/><stop offset=".0894" stop-color="#e4205f"/><stop offset=".2708" stop-color="#d13175"/><stop offset=".5" stop-color="#b24198"/><stop offset="1" stop-color="#2eb1e6"/></linearGradient><clipPath id="b"><path d="m0 0h38v38h-38z"/></clipPath><g clip-path="url(#b)"><rect fill="#f7f5f5" height="38" rx="8" width="38"/><g clip-rule="evenodd" fill="url(#a)" fill-rule="evenodd"><path d="m21.2612 11.248c-2.2281 0-4.0342 1.8062-4.0342 4.0343 0 2.228 1.8061 4.0342 4.0342 4.0342 2.228 0 4.0342-1.8062 4.0342-4.0342 0-2.2281-1.8062-4.0343-4.0342-4.0343zm-5.0342 4.0343c0-2.7804 2.2539-5.0343 5.0342-5.0343s5.0342 2.2539 5.0342 5.0343c0 2.7803-2.2539 5.0342-5.0342 5.0342s-5.0342-2.2539-5.0342-5.0342z"/><path d="m17.4315 20.04c-.2378-.4398-.2378-.4398-.2379-.4397l-.0017.0009-.0031.0017-.0104.0057-.0359.0201c-.0303.0173-.0732.0421-.1259.0739-.1053.0634-.2511.1552-.4156.27-.3234.2257-.7443.5577-1.0685.9556l.7752.6317c.2393-.2937.5741-.5638.8656-.7672.0661-.0462.1287-.088.1858-.125.1014.0916.2275.1993.3762.3148.4204.3264 1.0324.7232 1.7898.9894.7606.2674 1.6727.4045 2.6786.2009.9187-.186 1.8863-.6504 2.8668-1.5111.0831.0546.1808.1218.2893.2016.36.2651.8342.6668 1.2887 1.2105.8453 1.0114 1.6214 2.5098 1.4747 4.5622h-10.5362v1h11.4267l.057-.4351c.3423-2.6157-.6158-4.5251-1.6549-5.7684-.5171-.6186-1.0545-1.0735-1.4631-1.3744-.2047-.1508-.3784-.2637-.5027-.34-.0623-.0382-.1123-.0673-.1478-.0874-.0178-.01-.032-.0178-.0423-.0234l-.0125-.0068-.0039-.0021-.0015-.0007c-.0002-.0002-.001-.0006-.233.4423l.232-.4429-.3178-.1664-.2595.2477c-.9617.9182-1.8625 1.3531-2.6584 1.5143-.7972.1614-1.5245.0552-2.1486-.1642-.6272-.2205-1.1449-.5538-1.5081-.8358-.1806-.1403-.3205-.2658-.4137-.3548-.0465-.0444-.0813-.0794-.1035-.1024-.0111-.0115-.019-.02-.0237-.025l-.0046-.005s-.0002-.0002 0 0l-.2629-.2926-.3466.1874z"/><path d="m12 11.5c0-1.93303 1.672-3.5 3.7345-3.5 1.4052 0 2.6286.7275 3.2655 1.80077l-.8317.43353c-.4758-.80172-1.3877-1.34235-2.4338-1.34235-1.5369 0-2.7828 1.16765-2.7828 2.60805s1.2459 2.608 2.7828 2.608c.0167 0 .034-.0001.0545-.0004l.0116.8919c-.0196.0002-.0427.0005-.0661.0005-2.0625 0-3.7345-1.567-3.7345-3.5z"/><path d="m12.4468 14.7666.2595.2477c1.0198.9738 1.9401 1.2085 2.6796 1.1627l.0619.9981c-.9622.0596-2.0424-.2374-3.1426-1.1759-.0421.0289-.0878.0612-.1365.0971-.2659.1958-.6162.4925-.9517.894-.666.7968-1.27254 2.0011-1.0529 3.6794l-.9915.1297c-.26398-2.0167.47583-3.4917 1.2771-4.4504.3981-.4764.8116-.8264 1.1261-1.058.1576-.1161.2917-.2033.3882-.2625.0483-.0296.0873-.0523.1153-.0682.0141-.0079.0254-.0141.0337-.0187l.0103-.0055.0034-.0019.0013-.0006c.0002-.0002.001-.0006.233.4424l-.232-.443zm.1473 1.0517c.0002-.0001.0002-.0001 0 0z"/><path d="m12.5072 18.7811 4.1093 4.1463h-2.3394c.0324.3088.0929.7285.2053 1.188.2344.9583.6733 2.0025 1.4648 2.6285l1.3716 1.0849-1.7378-.1959.056-.4968c-.056.4968-.0557.4969-.056.4968l-.0012-.0001-.0015-.0002-.0041-.0005-.0122-.0015c-.0098-.0013-.0231-.0031-.0396-.0056-.033-.0049-.079-.0123-.1364-.0232-.1147-.0217-.2755-.0571-.4696-.1128-.3873-.1113-.9122-.3052-1.469-.6377-1.0574-.6314-2.2156-1.7559-2.7614-3.7117l-1.07619-.0377h-1.14375zm-1.7729 3.3596.747.0262.0851.3758c.4265 1.8836 1.4685 2.8976 2.3937 3.45.0704.0421.1403.0815.2093.1185-.3198-.5897-.525-1.213-.6584-1.7582-.1283-.5249-.1956-1.0001-.2308-1.3442-.0177-.1725-.0275-.3131-.0328-.4118-.0027-.0494-.0043-.0884-.0052-.1158l-.001-.0322-.0002-.0093v-.0029l-.0001-.0013c0-.0002 0-.0004.5-.0081l-.5.0081-.0078-.5081h.9844l-1.6894-1.7046z"/></g></g></svg>