<svg fill="none" height="38" viewBox="0 0 38 38" width="38" xmlns="http://www.w3.org/2000/svg" xmlns:xlink="http://www.w3.org/1999/xlink"><linearGradient id="a" gradientUnits="userSpaceOnUse" x1="10.3999" x2="27.5999" y1="19.0009" y2="19.0009"><stop offset="0" stop-color="#ed1556"/><stop offset=".0894" stop-color="#e4205f"/><stop offset=".2708" stop-color="#d13175"/><stop offset=".5" stop-color="#b24198"/><stop offset="1" stop-color="#2eb1e6"/></linearGradient><clipPath id="b"><path d="m0 0h38v38h-38z"/></clipPath><g clip-path="url(#b)"><rect fill="#f7f5f5" height="38" rx="8" width="38"/><path clip-rule="evenodd" d="m18.9999 11.6004c-4.0869 0-7.4 3.3131-7.4 7.4s3.3131 7.4 7.4 7.4 7.4-3.3131 7.4-7.4-3.3131-7.4-7.4-7.4zm-8.6 7.4c0-4.7497 3.8504-8.6 8.6-8.6 4.7497 0 8.6 3.8503 8.6 8.6 0 4.7496-3.8503 8.6-8.6 8.6-4.7496 0-8.6-3.8504-8.6-8.6zm4.1757-4.4243c.2344-.2343.6143-.2343.8486 0l3.5757 3.5757 3.5757-3.5757c.2343-.2343.6142-.2343.8485 0s.2343.6142 0 .8486l-3.5757 3.5757 3.5758 3.5757c.2343.2343.2343.6142 0 .8486-.2343.2343-.6142.2343-.8486 0l-3.5757-3.5758-3.5758 3.5758c-.2343.2343-.6142.2343-.8485 0-.2343-.2344-.2343-.6143 0-.8486l3.5758-3.5757-3.5758-3.5757c-.2343-.2344-.2343-.6143 0-.8486z" fill="url(#a)" fill-rule="evenodd"/></g></svg>