<svg width="38" height="38" viewBox="0 0 38 38" fill="none" xmlns="http://www.w3.org/2000/svg">
    <defs>
        <linearGradient id="paint0_linear_1441_31" x1="11" y1="20.7751" x2="26.3241" y2="20.7674" gradientUnits="userSpaceOnUse">
            <stop stop-color="#ED1556"/>
            <stop offset="0.515625" stop-color="#B24198"/>
            <stop offset="1" stop-color="#2EB1E6"/>
        </linearGradient>
    </defs>
<rect width="38" height="38" rx="8" fill="#F7F5F5"/>
<path fill-rule="evenodd" clip-rule="evenodd" d="M18.4003 18.9H19.6003V18.6V15.3V11.5C19.6003 11.2 19.4003 11 19.1003 11H18.7003C18.5003 11 18.3003 11.2 18.3003 11.4V11.6V16.6V18.7C18.3003 18.8 18.4003 18.9 18.4003 18.9ZM11 14.9V13.3C11 13 11.1 12.9 11.4 12.9H12.2H14.2C14.6 12.9 14.7 13 14.7 13.3V16.4C14.7 16.7 14.6 16.8 14.3 16.8H11.4C11.1 16.8 11 16.7 11 16.4V14.9ZM23.1 17.2999V15.6999C23.1 15.4401 23.175 15.4053 23.325 15.3357C23.3482 15.3249 23.3732 15.3133 23.4 15.2999H24.1H26.2C26.6 15.2999 26.7 15.3999 26.7 15.7999V18.8999C26.7 19.1999 26.6 19.2999 26.3 19.2999H23.4C23.1 19.2999 23 19.1999 23 18.8999C23.1 18.3999 23.1 17.8999 23.1 17.3V17.2999ZM20.7002 23.3001V21.7001V20.1001C20.7002 19.8001 20.6002 19.7001 20.4002 19.7001H17.5002C17.3002 19.7001 17.2002 19.9001 17.2002 20.1001V23.4001C17.2002 23.6001 17.3002 23.7001 17.5002 23.7001H20.4002C20.6002 23.7001 20.7002 23.6001 20.7002 23.3001ZM12.2001 17.7999H13.5001V17.9999V26.4999C13.5001 26.8999 13.4001 27.0999 12.9001 27.0999H12.6001C12.3001 27.0999 12.1001 26.8999 12.1001 26.5999V24.1999V18.0999C12.2001 17.9999 12.2001 17.8999 12.2001 17.7999V17.7999ZM24.3003 20.2001H25.6003V20.4001V26.5001C25.6003 26.9001 25.5003 27.1001 25.1003 27.1001H24.8003C24.5003 27.1001 24.3003 26.9001 24.3003 26.6001V23.4001V20.4001V20.2001ZM24.3003 14.5H25.6003V14V11.6C25.6003 11.3 25.5003 11.1 25.1003 11.1H24.8003C24.5003 11.1 24.3003 11.2 24.3003 11.6V14.3V14.5ZM19.6003 24.6V26.6C19.6003 26.8 19.4003 27 19.2003 27H18.7003C18.5003 27 18.3003 26.8 18.3003 26.6V25.3V24.7L18.4003 24.6H19.6003ZM12.2002 11.5001V12.1001H13.5002V11.5001C13.5002 11.4001 13.3002 11.2001 13.1002 11.2001H12.6002C12.4002 11.2001 12.2002 11.3001 12.2002 11.5001Z" fill="url(#paint0_linear_1441_31)"/>
<defs>
<linearGradient id="paint0_linear_1441_31" x1="11" y1="20.7751" x2="26.3241" y2="20.7674" gradientUnits="userSpaceOnUse">
<stop stop-color="#ED1556"/>
<stop offset="0.515625" stop-color="#B24198"/>
<stop offset="1" stop-color="#2EB1E6"/>
</linearGradient>
</defs>
</svg>
