<svg width="38" height="38" viewBox="0 0 38 38" fill="none" xmlns="http://www.w3.org/2000/svg">
    <defs>
        <linearGradient id="paint0_linear_1441_33" x1="11" y1="20.7143" x2="26.5288" y2="20.7063" gradientUnits="userSpaceOnUse">
            <stop stop-color="#ED1556"/>
            <stop offset="0.515625" stop-color="#B24198"/>
            <stop offset="1" stop-color="#2EB1E6"/>
        </linearGradient>
    </defs>
<rect width="38" height="38" rx="8" fill="#F7F5F5"/>
<path fill-rule="evenodd" clip-rule="evenodd" d="M24.6001 16.7H25.3001H25.9001C25.2001 13.4 22.3001 11 19.0001 11C15.6001 11 12.7001 13.4 12.1001 16.7H12.7001H13.4001C14.1001 14.1 16.4001 12.3 19.1001 12.3C21.7001 12.2 24.0001 14.1 24.6001 16.7ZM22.8002 19.5999C22.8002 17.4999 21.1002 15.7999 19.0002 15.7999C16.9002 15.7999 15.2002 17.4999 15.2002 19.5999C15.2002 21.6999 16.9002 23.3999 19.0002 23.3999C21.1002 23.3999 22.8002 21.6999 22.8002 19.5999ZM16.2002 19.5999C16.2002 18.0999 17.5002 16.7999 19.0002 16.7999C20.5002 16.7999 21.8002 18.0999 21.8002 19.5999C21.8002 21.0999 20.5002 22.3999 19.0002 22.3999C17.5002 22.3999 16.2002 21.0999 16.2002 19.5999ZM13.2 19.8C13.2 19.1 13.3 18.4 13.7 17.6L13.8 17.4H12.5C11.6 17.4 11 18.1 11 18.9V20.7C11 21.6 11.7 22.2 12.5 22.2H13.7L13.6 22C13.3 21.4 13.2 20.7 13.2 19.8ZM24.3002 17.2999H25.5002C26.3002 17.2999 27.0002 17.9999 26.9002 18.7999V20.5999C26.9002 21.3999 26.3002 22.0999 25.4002 22.0999H24.2002L24.3002 21.8999C24.7002 21.0999 24.8002 20.3999 24.8002 19.6999C24.8002 18.8999 24.7002 18.0999 24.4002 17.4999L24.3002 17.2999ZM21.6002 25.7C23.2002 25.7 24.5002 24.6 24.7002 23H25.3002H25.9002C25.6002 25.3 23.8002 27 21.6002 27H18.2002V25.7H21.6002Z" fill="url(#paint0_linear_1441_33)"/>

</svg>
