<svg width="38" height="38" viewBox="0 0 38 38" fill="none" xmlns="http://www.w3.org/2000/svg">
    <defs>
        <linearGradient id="paint0_linear_1441_29" x1="11" y1="20.7143" x2="26.8121" y2="20.7061" gradientUnits="userSpaceOnUse">
            <stop stop-color="#ED1556"/>
            <stop offset="0.515625" stop-color="#B24198"/>
            <stop offset="1" stop-color="#2EB1E6"/>
        </linearGradient>
    </defs>
<rect width="38" height="38" rx="8" fill="#F7F5F5"/>
<path fill-rule="evenodd" clip-rule="evenodd" d="M13.3 24.7C14.9 26.2 16.9 27 19 27C21.2 27 23.2 26.1 24.9 24.5C26.4 22.9 27.2 20.9 27.2 18.8C27.2 17.1 26.7 15.6 25.7 14.2H26.2V13H23.8L23.5 15.4L24.7 15.6L24.8 15.1C25.5 16.3 25.9 17.5 25.9 18.9C25.9 20.7 25.2 22.4 23.9 23.7C22.6 25 20.9 25.7 19.1 25.7C17.3 25.7 15.6 25 14.3 23.7C13 22.4 12.3 20.7 12.3 18.9C12.3 17.1 13 15.4 14.3 14.1C15.6 12.8 17.3 12.1 19.1 12.1C19.9 12.1 20.8 12.3 21.6 12.6L21.7 12.7L22 11.7L21.9 11.6C20.9 11.2 19.9 11 18.9 11C16.8 11 14.8 11.8 13.3 13.3C11.8 14.9 11 16.9 11 19C11 21.2 11.8 23.2 13.3 24.7ZM15.1001 18.9C15.1001 16.8 16.8001 15 19.0001 15C21.2001 15 22.9001 16.8 22.9001 18.9C22.9001 21 21.1001 22.8 19.0001 22.8C16.9001 22.8 15.1001 21.1 15.1001 18.9ZM18.5001 19.4H20.9001V18.4H19.4001V16.9H18.5001V19.4Z" fill="url(#paint0_linear_1441_29)"/>

</svg>
