<svg id="Layer_1" data-name="Layer 1" xmlns="http://www.w3.org/2000/svg" viewBox="0 0 125 105">
  <g id="Group_7217" data-name="Group 7217">
    <g id="undraw_modern_design_v3wv" data-name="undraw modern design v3wv">
      <ellipse id="Ellipse_1168" data-name="Ellipse 1168" cx="53.03" cy="101.97" rx="49.16" ry="2.51" fill="#e6e6e6"/>
      <g id="Group_7207" data-name="Group 7207">
        <path id="Path_15101" data-name="Path 15101" d="M22.62,94.2l-.27,2.26-2.52.4V93.93Z" fill="#f6b6b8"/>
        <path id="Path_15102" data-name="Path 15102" d="M8.66,93.53l-.27,3.32-2.92-.4L6,93.26Z" fill="#f6b6b8"/>
        <path id="Path_15103" data-name="Path 15103" d="M23.82,68.27l.53.13L22.89,82.49V95.13l-3.72-.67-1.86-22.2-5.72,10.9-2.79,11-4.39-.8L8,79.56,10.39,66.4Z" fill="#2f2f41"/>
        <path id="Path_15104" data-name="Path 15104" d="M21.16,95.66s1.2-.8,1.6-.27,2.13,3.19,2.13,3.19,4.25,4.39,0,4.26c0,0-2.8,0-3.33-1.6a1,1,0,0,0-1.06-.8c-.93,0-2-.93-2-1.46s.93-3.22,1.33-2.81S21.16,95.66,21.16,95.66Z" fill="#2f2f41"/>
        <path id="Path_15105" data-name="Path 15105" d="M6.88,95.66s-1.2-.8-1.6-.27-2.12,3.19-2.12,3.19-4.26,4.39,0,4.26c0,0,2.79,0,3.32-1.6a1,1,0,0,1,1.06-.8c.94,0,2-.93,2-1.46s-.93-3.22-1.33-2.81S6.88,95.66,6.88,95.66Z" fill="#2f2f41"/>
        <circle id="Ellipse_1169" data-name="Ellipse 1169" cx="23.49" cy="42.4" r="3.51" fill="#f6b6b8"/>
        <path id="Path_15106" data-name="Path 15106" d="M23.75,45.2l-1.86,2.26-3.32-2.8L21,42.8Z" fill="#f6b6b8"/>
        <path id="Path_15107" data-name="Path 15107" d="M22.76,47.52l-.11-1-3.74-2.15-5.07-.48A1.19,1.19,0,0,0,12.54,45L10.65,64.94,10,66.67s11.7,6.65,14.36,1.73L22.36,58l4.12-7.85Z" fill="#d0cce0"/>
        <path id="Path_15108" data-name="Path 15108" d="M13.71,44.2l-.23-.07a1.21,1.21,0,0,0-1.38.42l-6,8.16L3.87,62.15H7.06l2.13-6.38,3.46-4.52Z" fill="#d0cce0"/>
        <path id="Path_15109" data-name="Path 15109" d="M25.42,49.92l1.06.26L29.67,53l-1.06-6.38,2.66-.53,2.06,10.7-1.47,1.46-8.31-3.39Z" fill="#d0cce0"/>
        <path id="Path_15110" data-name="Path 15110" d="M22.09,42.39s1.44-2.11,2.27-1.42S27.5,43,28,42s-1.38-3.06-2.8-3.53-3.9-1.1-4.67,1a9.1,9.1,0,0,0-.46,4.14Z" fill="#2f2f41"/>
        <path id="Path_15099" data-name="Path 15099" d="M4.54,61.75v.67s-1.2,4.25.26,4.25,2-4.12,2-4.12v-.8Z" fill="#f6b6b8"/>
        <path id="Path_15100" data-name="Path 15100" d="M31.13,46.59l-.26-1.06s-1.47-3.33-2.66-2.66.53,3.19.53,3.19l.27.67Z" fill="#f6b6b8"/>
        <ellipse id="Ellipse_1170" data-name="Ellipse 1170" cx="22.18" cy="42.15" rx="0.69" ry="0.38" transform="translate(-25.02 48.59) rotate(-70.02)" fill="#f6b6b8"/>
      </g>
      <g id="Group_7208" data-name="Group 7208">
        <path id="Path_15111" data-name="Path 15111" d="M100.11,25.07h-.56V9.77A8.86,8.86,0,0,0,90.69.91H58.28a8.86,8.86,0,0,0-8.85,8.86h0V93.69a8.86,8.86,0,0,0,8.85,8.86H90.69a8.86,8.86,0,0,0,8.86-8.86h0V36h.56Z" fill="#403d56"/>
        <path id="Path_15112" data-name="Path 15112" d="M91.05,3.22H86.82A3.14,3.14,0,0,1,85.1,7.31a3,3,0,0,1-1.19.23H65.34A3.14,3.14,0,0,1,62.2,4.4a3.18,3.18,0,0,1,.23-1.18h-4a6.61,6.61,0,0,0-6.61,6.61v83.8a6.61,6.61,0,0,0,6.61,6.61H91.05a6.63,6.63,0,0,0,6.62-6.61h0V9.83a6.61,6.61,0,0,0-6.61-6.61Z" fill="#fff"/>
      </g>
    </g>
    <g id="Group_7214" data-name="Group 7214">
      <g id="Group_7215" data-name="Group 7215">
        <circle id="Ellipse_1178" data-name="Ellipse 1178" cx="75.69" cy="65.13" r="3.49" fill="#e6e6e6"/>
        <circle id="Ellipse_1179" data-name="Ellipse 1179" cx="75.69" cy="65.13" r="2.67" fill="#fff"/>
        <path id="Path_15176" data-name="Path 15176" d="M77,66.6a.12.12,0,0,1-.08,0l-2.68-2.68a.12.12,0,0,1,0-.17.12.12,0,0,1,.16,0l2.68,2.68a.12.12,0,0,1,0,.17.18.18,0,0,1-.09,0Z" fill="#e3146f"/>
        <path id="Path_15177" data-name="Path 15177" d="M75.64,65.59l-.4-.39s0,0,0,0,0,0,0,0a.49.49,0,0,0,.4.41,0,0,0,0,0,0,0Z" fill="#e3146f"/>
        <path id="Path_15178" data-name="Path 15178" d="M75.75,64.68l.4.39a0,0,0,0,0,0,0h0a.5.5,0,0,0-.41-.41h0S75.75,64.67,75.75,64.68Z" fill="#e3146f"/>
        <path id="Path_15179" data-name="Path 15179" d="M77.48,65.27a.23.23,0,0,0,0-.27,2.47,2.47,0,0,0-.75-.76,1.85,1.85,0,0,0-1-.32,1.65,1.65,0,0,0-.54.09s0,0,0,0v0l.36.36s0,0,0,0a.74.74,0,0,1,.89.54,1,1,0,0,1,0,.35s0,0,0,0l.52.51a0,0,0,0,0,0,0A2.56,2.56,0,0,0,77.48,65.27Z" fill="#e3146f"/>
        <path id="Path_15180" data-name="Path 15180" d="M75.69,65.86a.73.73,0,0,1-.73-.73A1.11,1.11,0,0,1,75,65a0,0,0,0,0,0,0l-.51-.51a0,0,0,0,0,0,0,3.12,3.12,0,0,0-.52.57.26.26,0,0,0,0,.27,2.51,2.51,0,0,0,.75.77,1.85,1.85,0,0,0,1,.32,1.76,1.76,0,0,0,.55-.09s0,0,0,0h0l-.36-.36h0A.55.55,0,0,1,75.69,65.86Z" fill="#e3146f"/>
        <circle id="Ellipse_1182" data-name="Ellipse 1182" cx="89.04" cy="65.13" r="3.49" fill="#e6e6e6"/>
        <circle id="Ellipse_1183" data-name="Ellipse 1183" cx="89.04" cy="65.13" r="2.67" fill="#fff"/>
        <path id="Path_15182" data-name="Path 15182" d="M89.52,66.72h-1a.12.12,0,0,1-.12-.12.12.12,0,0,1,.12-.13h1a.13.13,0,0,1,.13.13A.13.13,0,0,1,89.52,66.72Z" fill="#e3146f"/>
        <path id="Path_15183" data-name="Path 15183" d="M89,66.11a1.1,1.1,0,0,1-1.1-1.1v-.25a.12.12,0,1,1,.24,0V65a.85.85,0,0,0,.86.85.88.88,0,0,0,.85-.85v-.25a.12.12,0,1,1,.24,0V65A1.11,1.11,0,0,1,89,66.11Z" fill="#e3146f"/>
        <path id="Path_15184" data-name="Path 15184" d="M89,66.72a.13.13,0,0,1-.13-.12h0V66a.12.12,0,0,1,.13-.12.12.12,0,0,1,.12.12v.61a.13.13,0,0,1-.12.12Z" fill="#e3146f"/>
        <path id="Path_15185" data-name="Path 15185" d="M89,65.62a.57.57,0,0,1-.43-.18.6.6,0,0,1-.18-.43v-.85a.61.61,0,0,1,.6-.61h0a.61.61,0,0,1,.61.59V65A.62.62,0,0,1,89,65.62Z" fill="#e3146f"/>
      </g>
      <g id="Group_7213" data-name="Group 7213">
        <circle id="Ellipse_1180" data-name="Ellipse 1180" cx="62.45" cy="65.13" r="3.49" fill="#e6e6e6"/>
        <circle id="Ellipse_1181" data-name="Ellipse 1181" cx="62.45" cy="65.13" r="2.67" fill="#fff"/>
        <path id="Path_15181" data-name="Path 15181" d="M63.48,66.84a1.45,1.45,0,0,1-.67-.23,4.48,4.48,0,0,1-1.05-.78A3.91,3.91,0,0,1,61,64.77c-.28-.51-.23-.77-.18-.89a.73.73,0,0,1,.28-.3l.22-.11h0a.2.2,0,0,1,.17,0,.44.44,0,0,1,.15.12,2.56,2.56,0,0,1,.4.59.57.57,0,0,1,.08.24.33.33,0,0,1-.1.23l0,0c0,.08-.07.1-.06.14a1.54,1.54,0,0,0,.35.52,1.38,1.38,0,0,0,.52.34s.06,0,.14-.06l0,0a.44.44,0,0,1,.23-.1h0a.54.54,0,0,1,.24.09A3.35,3.35,0,0,1,64,66a.61.61,0,0,1,.12.16.2.2,0,0,1,0,.17v0a1.51,1.51,0,0,1-.11.22.73.73,0,0,1-.3.28A.59.59,0,0,1,63.48,66.84Z" fill="#e3146f"/>
        <path id="Path_15186" data-name="Path 15186" d="M57.88,32.15a.32.32,0,0,0-.32.32h0V58.32a.33.33,0,0,0,.32.32H92.6a.32.32,0,0,0,.32-.32h0V32.47a.32.32,0,0,0-.32-.32H57.88Z" fill="#e6e6e6"/>
        <path id="Path_15187" data-name="Path 15187" d="M58.58,33.17V57.62H91.9V33.17Z" fill="#fff"/>
        <path id="Path_15188" data-name="Path 15188" d="M81.59,57.62l.06-.24-.52-2.16,0-.21,0-.16.06,0,3.08-1,0,.57.22,3.24Z" fill="#f6b7b9"/>
        <path id="Path_15189" data-name="Path 15189" d="M69.36,55.22l-.52,2.16.06.24H66.05l.22-3.24,0-.57,3.14,1Z" fill="#f6b7b9"/>
        <path id="Path_15190" data-name="Path 15190" d="M77.81,46.57l-5,.53a7.49,7.49,0,0,0,0-4.54h3.57A12.82,12.82,0,0,0,77.81,46.57Z" fill="#f6b7b9"/>
        <circle id="Ellipse_1184" data-name="Ellipse 1184" cx="74.68" cy="41.95" r="2.7" fill="#f6b7b9"/>
        <path id="Path_15191" data-name="Path 15191" d="M82.43,47.62c-.57,2.52-1,4.92-1.33,7.21a1.1,1.1,0,0,0,0,.18l0,.24c-.1.8-.17,1.59-.22,2.37H70c0-.74,0-1.49-.07-2.25a38.93,38.93,0,0,0-1.49-7.93h0l4.76-1.64h0a3.84,3.84,0,0,0,4.09-.3h0l4.44,1.85h0Z" fill="#e3146f"/>
        <path id="Path_15192" data-name="Path 15192" d="M85.66,54l-5.4,1.48,1.31-8.19.83.28a1.92,1.92,0,0,1,1.26,1.35Z" fill="#e3146f"/>
        <path id="Path_15193" data-name="Path 15193" d="M64.83,54l5.4,1.48-1.31-8.19-.84.28a1.94,1.94,0,0,0-1.26,1.35Z" fill="#e3146f"/>
        <path id="Path_15194" data-name="Path 15194" d="M74.5,37.38h0a2.85,2.85,0,0,0-1.3.39c-.09,0,0,.24-.14.31s-.33,0-.43.12a2.88,2.88,0,0,0-.85,2.31L71.93,42l.35-.39a3.72,3.72,0,0,1,2.47-1.21h.12l-.27-.48.47.47a3.47,3.47,0,0,1,.64.06l-.36-.64.7.7h0a1.86,1.86,0,0,1,1.3,1.06l.08.17.08-1.42a2.86,2.86,0,0,0-2.8-2.93H74.5Z" fill="#2f2f41"/>
        <ellipse id="Ellipse_1185" data-name="Ellipse 1185" cx="72" cy="41.89" rx="0.22" ry="0.51" fill="#f6b7b9"/>
        <ellipse id="Ellipse_1186" data-name="Ellipse 1186" cx="77.4" cy="41.73" rx="0.22" ry="0.51" fill="#f6b7b9"/>
      </g>
    </g>
    <g id="Group_7209" data-name="Group 7209">
      <path id="Path_15132" data-name="Path 15132" d="M49.08,20.88a11.94,11.94,0,0,1,0,23.88c-2.6,0-4.84.89-7.1-.75-.26-.18-1.27.5-1.77,0-2.09-2-3.07-7.58-3.07-11.19A11.94,11.94,0,0,1,49.08,20.88Z" fill="#fff"/>
      <path id="Path_15125" data-name="Path 15125" d="M42.84,45a6.14,6.14,0,0,1-5.5.69l-1.41-.6L38.75,42A13.48,13.48,0,1,1,42.84,45Zm-5.4-12.13A11.21,11.21,0,0,0,41,41.14l.78.73-1.78,2a6,6,0,0,0,2.14-1l.56-.4.6.33a11.3,11.3,0,1,0-5.86-9.9Z" fill="#e3146f"/>
      <path id="Path_15127" data-name="Path 15127" d="M58.92,32.85A12.39,12.39,0,0,0,47.64,20.51c.36,0,.72,0,1.09,0a12.38,12.38,0,0,1,0,24.76c-.37,0-.73,0-1.09,0A12.38,12.38,0,0,0,58.92,32.85Z" opacity="0.1" style="isolation: isolate"/>
      <rect id="Rectangle_3657" data-name="Rectangle 3657" x="41.62" y="30.38" width="8.85" height="0.82" fill="#e3146f"/>
      <rect id="Rectangle_3658" data-name="Rectangle 3658" x="41.62" y="33.22" width="15.42" height="0.82" fill="#e3146f"/>
      <rect id="Rectangle_3659" data-name="Rectangle 3659" x="41.62" y="36.06" width="15.41" height="0.82" fill="#e3146f"/>
    </g>
    <g id="Group_7210" data-name="Group 7210">
      <path id="Path_5107" data-name="Path 5107" d="M95.9,81.4a7.46,7.46,0,1,0,10.28,2.37A7.45,7.45,0,0,0,95.9,81.4Z" fill="#fbdfed" stroke="#e3146f" stroke-miterlimit="10" stroke-width="1.52"/>
      <path id="Path_5108" data-name="Path 5108" d="M101.48,85.81l-.29,1a1.52,1.52,0,0,1,1.43.68,2.21,2.21,0,0,1-.7,3c-.48.31-1.19.08-1.65-.65l-1-1.63,1-.61-.51-.81-1,.61L97.89,86a1.81,1.81,0,0,0-2.28-.94l0,.82a1.25,1.25,0,0,1,1.44.68L97.86,88l-1.3.81.51.81,1.3-.81,1,1.62a2.24,2.24,0,0,0,3,.83,3.09,3.09,0,0,0,.93-4.28v0a1.86,1.86,0,0,0-1.82-1.11" fill="#e3146f"/>
    </g>
    <g id="Group_7211" data-name="Group 7211">
      <path id="Path_5107-2" data-name="Path 5107-2" d="M115.19,65.89a7.46,7.46,0,1,0,8.2,6.64A7.47,7.47,0,0,0,115.19,65.89Z" fill="#fbdfed" stroke="#e3146f" stroke-miterlimit="10.01" stroke-width="1.52"/>
      <path id="Path_5108-2" data-name="Path 5108-2" d="M118.27,72.3l-.69.75a1.53,1.53,0,0,1,1,1.24,2.23,2.23,0,0,1-2,2.42c-.57.06-1.11-.46-1.2-1.32l-.2-1.9,1.14-.13-.1-1-1.14.12L115,70.92c-.14-1.33-1.07-1.91-1.64-1.85l-.4.72a1.25,1.25,0,0,1,1,1.24l.17,1.62-1.52.16.1,1,1.53-.16.2,1.9a2.23,2.23,0,0,0,2.33,2.06,3.09,3.09,0,0,0,2.71-3.44v0a1.87,1.87,0,0,0-1.15-1.8" fill="#e3146f"/>
    </g>
  </g>
</svg>
