<?xml version="1.0" encoding="UTF-8"?><svg id="Layer_1" xmlns="http://www.w3.org/2000/svg" viewBox="0 0 1280 960"><g id="freepik--background-complete--inject-2"><rect x="249.72" y="719.17" width="55.49" height="23.45" fill="#ebebeb"/><rect x="218.77" y="748.74" width="55.49" height="23.45" fill="#ebebeb"/><rect x="280.66" y="748.74" width="55.49" height="23.45" fill="#ebebeb"/><rect x="974.81" y="92.48" width="55.49" height="23.45" fill="#ebebeb"/><rect x="1005.76" y="122.05" width="55.49" height="23.45" fill="#ebebeb"/><rect x="218.77" y="92.53" width="55.49" height="23.45" fill="#ebebeb"/><rect x="1005.78" y="718.98" width="55.49" height="23.45" fill="#ebebeb"/><rect x="873.3" y="448.83" width="55.49" height="23.45" fill="#ebebeb"/><rect x="904.25" y="419.27" width="55.49" height="23.45" fill="#ebebeb"/><rect x="309.33" y=".63" width="2.1" height="194.35" fill="#c8c7c6"/><polygon points="388.24 270.05 381.97 283.81 238.76 283.81 232.52 270.05 293.49 227.85 327.26 227.85 388.24 270.05" fill="#ebebeb"/><polygon points="331.5 187.19 327.26 227.85 293.49 227.85 289.26 187.19 331.5 187.19" fill="#dcdbdb"/><polygon points="388.22 270.07 381.95 283.83 238.74 283.83 232.52 270.07 388.22 270.07" fill="#dcdbdb"/><rect x="458.35" y=".63" width="2.1" height="149.96" fill="#c8c7c6"/><polygon points="537.26 225.65 530.99 239.41 387.77 239.41 381.54 225.65 442.51 183.45 476.28 183.45 537.26 225.65" fill="#ebebeb"/><polygon points="480.52 142.78 476.28 183.45 442.51 183.45 438.28 142.78 480.52 142.78" fill="#dcdbdb"/><polygon points="537.26 225.65 530.99 239.41 387.77 239.41 381.54 225.65 537.26 225.65" fill="#dcdbdb"/></g><g id="freepik--Shadow--inject-2"><path d="M1055.53,903.87c0,27.54-186.02,49.83-415.52,49.83s-415.52-22.29-415.52-49.83,186.02-49.83,415.52-49.83,415.52,22.29,415.52,49.83Z" fill="#ebebeb"/></g><g id="freepik--Floor--inject-2"><polygon points="214.62 833.39 320.97 832.88 427.32 832.69 640.01 832.36 852.7 832.69 959.04 832.88 1065.38 833.39 959.04 833.91 852.7 834.1 640.01 834.44 427.32 834.1 320.97 833.91 214.62 833.39" fill="#273339"/></g><g id="freepik--Screen--inject-2"><path d="M923.35,156.31V835.31c0,19.19-14.37,34.72-32.1,34.72h-316.89c-17.77,0-32.14-15.53-32.14-34.72V156.31c0-39.1,14.37-41.01,32.14-41.01h63.55c3.68,0,6.7,4.19,6.7,9.38v2.24c0,12.17,6.66,12.22,14.83,12.22h146.8c8.25,0,14.87,0,14.87-12.22v-2.24c0-5.2,2.98-9.38,6.73-9.38h63.47c17.66,0,32.04,5.2,32.04,41.01h0Z" fill="#fff"/><path d="M923.35,156.31V835.31c0,19.19-14.37,34.72-32.1,34.72h-316.89c-17.77,0-32.14-15.53-32.14-34.72V156.31c0-39.1,14.37-41.01,32.14-41.01h63.55c3.68,0,6.7,4.19,6.7,9.38v2.24c0,12.17,6.66,12.22,14.83,12.22h146.8c8.25,0,14.87,0,14.87-12.22v-2.24c0-5.2,2.98-9.38,6.73-9.38h63.47c17.66,0,32.04,5.2,32.04,41.01h0Z" fill="#fff"/><path d="M923.35,156.31l.52,562.79v114.34c.05,2.98-.17,5.95-.65,8.88-1.09,5.9-3.6,11.43-7.32,16.13-1.88,2.36-4.04,4.46-6.43,6.29-2.44,1.73-5.1,3.14-7.9,4.19-2.82,1.03-5.78,1.63-8.78,1.79-3,.19-5.88,0-8.82,.1h-105.44l-140.67,.15h-61.56c-3.01,.08-6.02-.18-8.97-.8-5.93-1.39-11.32-4.44-15.57-8.8-4.27-4.31-7.38-9.6-9.07-15.42-.82-2.91-1.3-5.9-1.42-8.91-.17-3.02,0-5.88,0-8.84v-17.58l.52-562.79v-87.96c-.09-5.87,.18-11.76,.8-17.6l.67-4.38,1.01-4.32c.42-1.4,.94-2.81,1.42-4.19,.62-1.36,1.33-2.68,2.1-3.96,1.55-2.57,3.62-4.77,6.09-6.48,2.57-1.58,5.42-2.67,8.39-3.21,5.83-.8,11.74-1.08,17.62-.84h56.97c.76-.05,1.53,0,2.26,.17,.76,.2,1.47,.54,2.1,1.01,2.36,2.06,3.67,5.04,3.62,8.17-.18,2.9,.08,5.81,.78,8.64,.36,1.36,1.08,2.61,2.1,3.58,1.06,.94,2.35,1.6,3.73,1.91,2.86,.52,5.78,.71,8.7,.57h149.48c2.92,.17,5.79-.67,8.17-2.37,1.12-.95,1.95-2.2,2.41-3.6,.43-1.36,.67-2.77,.74-4.19v-4.38c.03-1.48,.34-2.96,.9-4.34,.54-1.39,1.43-2.63,2.59-3.56,.58-.47,1.26-.81,1.97-1.03,.73-.16,1.47-.22,2.22-.17h61.56c2.94-.04,5.86,.12,8.78,.48,5.87,.47,11.39,3.04,15.53,7.25,3.84,4.53,6.38,10.02,7.34,15.88,1.04,5.74,1.55,11.56,1.53,17.39h-.02Zm0,.02c.01-5.86-.52-11.73-1.57-17.5-.97-5.8-3.49-11.24-7.3-15.73-4.15-4.19-9.66-6.76-15.55-7.2-2.91-.34-5.83-.49-8.76-.44h-61.6c-.71-.03-1.41,.03-2.1,.19-.68,.22-1.34,.55-1.91,.99-1.12,.91-1.99,2.11-2.51,3.46-1.21,2.7-.76,5.7-.94,8.64-.06,1.48-.32,2.95-.76,4.36-.4,1.43-1.18,2.74-2.26,3.77-2.43,1.76-5.39,2.63-8.39,2.45h-149.52c-2.96,.12-5.92-.07-8.82-.59-1.49-.34-2.89-1.07-4.03-2.1-1.11-1.05-1.91-2.37-2.32-3.83-.67-2.78-.95-5.65-.84-8.51,0-2.87-1.24-5.63-3.39-7.52-.57-.4-1.19-.71-1.87-.9-.69-.13-1.39-.19-2.1-.15h-57.14c-5.84-.22-11.69,.07-17.48,.86-2.83,.55-5.54,1.6-8,3.1-2.38,1.65-4.37,3.8-5.84,6.29-.76,1.21-1.3,2.57-1.95,3.85s-.97,2.74-1.36,4.19l-1.01,4.19-.63,4.32c-.62,5.81-.88,11.66-.78,17.5v87.94l.52,562.79v26.32c.12,2.83,.57,5.65,1.34,8.39,1.57,5.53,4.49,10.58,8.53,14.67,3.99,4.14,9.08,7.05,14.67,8.39,2.79,.59,5.65,.85,8.51,.78h61.68l140.67,.15h114.28c2.86-.15,5.69-.72,8.39-1.7,2.7-.99,5.25-2.34,7.59-4.01,2.3-1.72,4.38-3.74,6.19-5.97,3.59-4.53,6.03-9.86,7.1-15.55,.47-2.86,.67-5.76,.63-8.66v-114.3l.61-562.9h.01v-.03Z" fill="#273339"/><path d="M923.35,156.31v81.4h-381.13v-81.4c0-39.1,14.37-41.01,32.14-41.01h63.55c3.68,0,6.7,4.19,6.7,9.38v2.24c0,12.17,6.66,12.22,14.83,12.22h146.8c8.25,0,14.87,0,14.87-12.22v-2.24c0-5.2,2.98-9.38,6.73-9.38h63.47c17.66,0,32.04,5.2,32.04,41.01h0Z" fill="#ee3c7d"/><path d="M923.35,156.31v29.82h-381.13v-29.82c0-39.1,14.37-41.01,32.14-41.01h63.55c3.68,0,6.7,4.19,6.7,9.38v2.24c0,12.17,6.66,12.22,14.83,12.22h146.8c8.25,0,14.87,0,14.87-12.22v-2.24c0-5.2,2.98-9.38,6.73-9.38h63.47c17.66,0,32.04,5.2,32.04,41.01h0Z" fill="#010101" isolation="isolate" opacity=".1"/><g><path d="M710.39,218.07v7.67h-5.19v-22.37h8.54c2.66,0,4.75,.67,6.31,2.02s2.34,3.13,2.34,5.33-.78,3.98-2.34,5.32-3.66,2.02-6.31,2.02h-3.35Zm0-4h3.35c1.13,0,1.99-.31,2.58-.93s.89-1.41,.89-2.39-.29-1.81-.88-2.44-1.45-.95-2.59-.95h-3.35v6.72h0Z" fill="#fff"/><path d="M730.76,225.74h-5.18v-22.37h5.18v22.37Z" fill="#fff"/><path d="M753.31,225.74h-5.18l-8.19-14.07-.09,.03v14.04h-5.19v-22.37h5.19l8.19,14.05,.09-.03v-14.02h5.18v22.37Z" fill="#fff"/></g><g id="freepik--u5Zjqx--inject-2"><path d="M626.89,130.54l-.63,.61-.33,.35c-3.27-3.26-8.56-3.26-11.84,0l-.31-.35-.61-.61h0c.25-.23,.5-.46,.78-.67,1.21-.99,2.66-1.65,4.19-1.95,.39,0,.8,0,1.19-.17h1.85c.72,.09,1.42,.27,2.1,.52,.51,.19,1,.42,1.46,.7,.5,.29,.98,.62,1.42,.99l.65,.59h.08Z" fill="#fff"/><path d="M616.04,133.45l-.97-.97c2.71-2.73,7.11-2.74,9.84-.03,.01,0,.02,.02,.03,.03l-.97,.97c-2.19-2.19-5.75-2.19-7.94,0h0Z" fill="#fff"/><path d="M623.02,134.42l-.97,.97c-.55-.56-1.31-.86-2.1-.84-.79-.03-1.55,.28-2.1,.84l-.97-.97c1.58-1.69,4.23-1.77,5.93-.2,.06,.06,.13,.12,.2,.2h0Z" fill="#fff"/><path d="M620.88,136.26c0,.48-.38,.86-.86,.86h0c-.48,.07-.93-.25-1.01-.74-.07-.48,.25-.93,.74-1.01,.09,0,.18,0,.27,0,.48,0,.86,.38,.86,.86v.02h0Z" fill="#fff"/></g><path d="M567.07,132.4c0-1.4,1.13-2.53,2.53-2.53s2.53,1.13,2.53,2.53-1.13,2.53-2.53,2.53-2.53-1.13-2.53-2.53h0Z" fill="#fff"/><path d="M575.06,132.4c0-1.4,1.13-2.53,2.53-2.53s2.53,1.13,2.53,2.53-1.13,2.53-2.53,2.53h-.02c-1.39,0-2.51-1.12-2.51-2.51v-.02Z" fill="#fff"/><path d="M583,132.4c0-1.4,1.13-2.53,2.53-2.53s2.53,1.13,2.53,2.53-1.13,2.53-2.53,2.53c-1.39,0-2.52-1.1-2.53-2.49v-.04Z" fill="#fff"/><path d="M590.94,132.4c0-1.4,1.13-2.53,2.53-2.53s2.53,1.13,2.53,2.53-1.13,2.53-2.53,2.53-2.53-1.13-2.53-2.53h0Z" fill="#fff"/><path d="M598.9,132.4c0-1.4,1.13-2.53,2.53-2.53s2.53,1.13,2.53,2.53-1.13,2.53-2.53,2.53-2.53-1.13-2.53-2.53h0Z" fill="#fff"/><path d="M894.78,137.91h-20.57v-9.48h20.57v9.48Zm-19.53-1.05h18.48v-7.42h-18.48v7.42Z" fill="#fff"/><rect x="875.92" y="130.01" width="13.26" height="6.29" fill="#fff"/><rect x="894.78" y="130.63" width="1.83" height="5.1" fill="#fff"/><rect x="593.89" y="579.79" width="277.79" height="24.6" fill="#ebebeb"/><path d="M734.43,594.85c.61,0,1.11,.5,1.11,1.11-.21,.58-.84,.88-1.41,.67-.32-.11-.57-.36-.67-.67,0-.57,.43-1.05,.99-1.11h-.02Z" fill="#c8c7c6"/><polygon points="606.47 500.45 638.04 500.19 669.61 500.1 732.79 499.92 795.94 500.1 827.51 500.19 859.1 500.45 827.51 500.7 795.94 500.8 732.79 500.97 669.61 500.8 638.04 500.7 606.47 500.45" fill="#273339"/><polygon points="629.79 514.44 655.54 514.19 681.29 514.11 732.79 513.92 784.29 514.11 810.02 514.19 835.78 514.44 810.02 514.69 784.29 514.8 732.79 514.97 681.29 514.8 655.54 514.69 629.79 514.44" fill="#273339"/><polygon points="593.89 650.89 628.61 650.61 663.33 650.52 732.79 650.36 802.23 650.52 836.97 650.61 871.69 650.89 836.97 651.14 802.23 651.22 732.79 651.39 663.33 651.22 628.61 651.14 593.89 650.89" fill="#ebebeb"/><circle cx="789.64" cy="339.5" r="48.55" fill="#465b65"/><circle cx="660.58" cy="409.53" r="33.17" fill="#ebebeb"/><path d="M760.01,330.43v34.78h-9.85v-34.78c0-13.24-10.06-24.02-22.42-24.02s-22.42,10.77-22.42,24.02v34.78h-9.85v-34.78c0-18.96,14.48-34.39,32.27-34.39s32.27,15.42,32.27,34.39h0Z" fill="#c8c7c6"/><polygon points="695.47 339.48 705.32 339.89 705.32 365.25 695.47 365.25 695.47 339.48" fill="#a7a6a6"/><polygon points="760.01 342.13 760.01 365.25 750.16 365.25 750.16 341.7 760.01 342.13" fill="#a7a6a6"/><rect x="682.85" y="345.44" width="89.77" height="81.42" fill="#ee3c7d"/><rect x="727.74" y="345.44" width="44.88" height="81.42" fill="#010101" isolation="isolate" opacity=".1"/><path d="M731.53,389.12l3.77,17.83h-15.96l3.77-17.83c-3.76-2.31-4.92-7.23-2.61-10.98,2.31-3.76,7.23-4.92,10.98-2.61s4.92,7.23,2.61,10.98c-.65,1.06-1.55,1.95-2.61,2.61h.05Z" fill="#273339"/><g><path d="M596.17,570.05v3.03h-2.06v-8.85h3.38c1.05,0,1.88,.27,2.5,.8s.92,1.24,.92,2.11-.31,1.58-.92,2.11-1.45,.8-2.5,.8h-1.32Zm0-1.57h1.33c.45,0,.79-.12,1.02-.36s.35-.56,.35-.94-.11-.72-.35-.97-.57-.37-1.03-.37h-1.33v2.66h.01v-.02Z" fill="#231f20"/><path d="M603.92,567.32c.2-.3,.44-.53,.73-.7s.6-.25,.94-.25c.69,0,1.21,.24,1.61,.72s.58,1.21,.58,2.21v3.78h-2.06v-3.8c0-.5-.06-.85-.2-1.04s-.32-.29-.59-.29c-.23,0-.44,.03-.6,.1s-.31,.17-.42,.28v4.73h-2.06v-9.49h2.06v3.73h0v.02Z" fill="#231f20"/><path d="M608.66,569.73c0-.99,.28-1.8,.84-2.42s1.34-.93,2.35-.93,1.79,.31,2.35,.93,.84,1.43,.84,2.42v.12c0,1-.28,1.8-.84,2.42s-1.34,.93-2.34,.93-1.8-.31-2.36-.93-.84-1.43-.84-2.42v-.12h0Zm2.06,.12c0,.55,.08,.99,.26,1.3s.47,.47,.88,.47,.69-.16,.86-.48,.26-.75,.26-1.3v-.12c0-.54-.08-.97-.26-1.29s-.47-.49-.87-.49-.7,.17-.86,.49-.26,.75-.26,1.29v.12h-.01Z" fill="#231f20"/><path d="M617.82,566.5l.08,.92c.22-.33,.48-.58,.8-.77s.66-.28,1.06-.28c.64,0,1.15,.22,1.52,.65s.54,1.13,.54,2.09v3.95h-2.06v-3.96c0-.42-.06-.72-.2-.89s-.33-.26-.58-.26c-.22,0-.42,.04-.59,.11s-.32,.19-.44,.33v4.68h-2.04v-6.58h1.91Z" fill="#231f20"/><path d="M625.85,573.2c-1,0-1.77-.3-2.35-.9s-.85-1.37-.85-2.29v-.23c0-1.01,.27-1.83,.8-2.46s1.31-.94,2.31-.94c.89,0,1.58,.27,2.07,.8s.74,1.26,.74,2.18v1.08h-3.77v.04c.02,.34,.15,.62,.37,.84s.54,.32,.97,.32c.39,0,.72-.03,.99-.09s.56-.17,.89-.31l.49,1.26c-.28,.21-.66,.38-1.14,.52s-.99,.22-1.5,.22v-.02l-.02-.02Zm-.09-5.25c-.33,0-.57,.1-.73,.31s-.25,.49-.27,.85v.03h1.79v-.16c0-.34-.06-.6-.18-.77s-.32-.26-.61-.26h0Z" fill="#231f20"/><path d="M640.04,573.08h-2.04l-3.24-5.57h-.04v5.57h-2.06v-8.85h2.06l3.24,5.56h.04v-5.56h2.04v8.85Z" fill="#231f20"/><path d="M641.06,569.73c0-.99,.28-1.8,.84-2.42s1.34-.93,2.35-.93,1.79,.31,2.35,.93,.84,1.43,.84,2.42v.12c0,1-.28,1.8-.84,2.42s-1.34,.93-2.34,.93-1.8-.31-2.36-.93-.84-1.43-.84-2.42v-.12h0Zm2.06,.12c0,.55,.08,.99,.26,1.3s.47,.47,.88,.47,.69-.16,.86-.48,.26-.75,.26-1.3v-.12c0-.54-.08-.97-.26-1.29s-.47-.49-.87-.49-.7,.17-.86,.49-.26,.75-.26,1.29v.12h-.01Z" fill="#231f20"/><path d="M650.63,573.08h-2.04v-1.72h2.04v1.72Z" fill="#231f20"/></g></g><g id="freepik--speech-bubble--inject-2"><path d="M490.41,292.23c.64,7.49-4.91,14.09-12.41,14.74-7.49,.64-14.09-4.91-14.74-12.41-.64-7.49,4.91-14.09,12.41-14.74h.01c7.48-.64,14.07,4.89,14.73,12.38v.03h0Z" fill="#fff"/><path d="M490.41,292.23c.64,7.58-4.81,14.31-12.34,15.28-7.78,.81-14.76-4.85-15.57-12.63s4.85-14.76,12.63-15.57c.17-.02,.32-.03,.49-.04,7.61-.35,14.14,5.38,14.8,12.96h0Zm0,0c-.6-7.18-6.9-12.52-14.09-11.93-.2,.02-.39,.04-.59,.06-6.91,.98-11.87,7.15-11.35,14.12,.61,6.98,6.6,12.25,13.61,11.95,7.2-.31,12.79-6.4,12.48-13.61,0-.2-.02-.39-.04-.59h-.02Z" fill="#273339"/><path d="M461.04,317.33c.35,4.17-2.75,7.84-6.91,8.18-4.17,.35-7.84-2.75-8.18-6.91-.35-4.15,2.73-7.82,6.88-8.18,4.17-.35,7.86,2.74,8.22,6.91h-.01Z" fill="#fff"/><path d="M461.04,317.33c.39,4.3-2.62,8.16-6.87,8.83-4.45,.69-8.61-2.37-9.3-6.81-.69-4.45,2.37-8.61,6.81-9.3,4.45-.69,8.61,2.37,9.3,6.81,.02,.16,.04,.31,.06,.47h0Zm0,0c-.19-1.99-1.19-3.82-2.78-5.03-3.11-2.34-7.52-1.7-9.86,1.41s-1.7,7.52,1.41,9.86c2.86,2.15,6.89,1.81,9.35-.81,1.35-1.47,2.03-3.44,1.88-5.43h0Z" fill="#273339"/><path d="M592.31,228.86c2.68,21.79-12.82,41.62-34.61,44.3-6.91,.85-13.92-.13-20.33-2.84-11.23,14.61-32.17,17.35-46.79,6.12-2.34-1.8-4.42-3.89-6.21-6.24-1.44,.45-2.92,.75-4.42,.92-14.84,1.85-28.37-8.68-30.22-23.51-.83-6.66,.84-13.39,4.69-18.89-13.68-17.17-10.86-42.18,6.32-55.86,13.67-10.89,32.85-11.57,47.25-1.69,11.51-14.39,32.52-16.72,46.9-5.21,4.68,3.75,8.27,8.69,10.38,14.3,1.39-.47,2.82-.8,4.29-.98,11.96-1.47,22.84,7.04,24.32,18.99,.78,6.32-1.25,12.67-5.54,17.37,2.1,4.12,3.45,8.58,3.98,13.18v.04Z" fill="#fff"/><path d="M592.31,228.86c.82,6.92-.16,13.93-2.84,20.36-1.37,3.2-3.12,6.22-5.23,8.99-2.15,2.72-4.64,5.17-7.4,7.27-11.35,8.61-26.41,10.58-39.6,5.15h.37c-11.36,14.92-32.67,17.81-47.6,6.45-2.38-1.81-4.5-3.92-6.33-6.29l.8,.27c-2.75,.83-5.6,1.22-8.48,1.17-2.87,0-5.74-.48-8.46-1.41-5.51-1.85-10.31-5.36-13.73-10.05-1.67-2.36-2.98-4.95-3.91-7.68-.89-2.75-1.36-5.61-1.41-8.5-.05-5.83,1.71-11.54,5.05-16.32v1.15c-12.45-15.79-11.52-38.31,2.21-53,6.66-7.08,15.61-11.56,25.26-12.67,9.63-1.03,19.32,1.42,27.3,6.91l-.98,.16c7.7-9.5,19.93-14.1,31.98-12.06,11.96,1.98,21.93,10.22,26.14,21.58l-.29-.13c4.63-1.49,9.63-1.44,14.22,.18,11.42,4.05,17.38,16.59,13.34,28-.99,2.77-2.51,5.32-4.5,7.49h0c2.12,4.07,3.51,8.48,4.09,13.03v-.05Zm0,0c-.54-4.62-1.91-9.11-4.04-13.25h0c8.06-8.87,7.4-22.61-1.47-30.66-2.18-1.97-4.73-3.49-7.51-4.45-4.53-1.56-9.43-1.56-13.96,0h-.22v-.22c-2.11-5.44-5.61-10.22-10.16-13.87-4.53-3.66-9.94-6.05-15.7-6.91-11.65-1.8-23.36,2.81-30.65,12.08l-.39,.53-.57-.39c-15.94-10.62-37.22-8.11-50.26,5.92-12.89,14.04-13.76,35.35-2.06,50.39l.47,.59-.45,.64c-3.12,4.41-4.78,9.69-4.74,15.1,.02,2.69,.45,5.37,1.26,7.93,.84,2.55,2.06,4.97,3.6,7.18,3.18,4.39,7.63,7.71,12.75,9.52,2.55,.9,5.24,1.39,7.95,1.43,2.71,.1,5.42-.24,8.01-1l.49-.16,.33,.42c3.03,4.01,6.92,7.28,11.4,9.56,14.05,7.1,31.18,3.25,40.83-9.19l.16-.2h.22c12.96,5.6,27.94,3.8,39.2-4.72,2.76-2.09,5.25-4.5,7.42-7.2,2.11-2.72,3.87-5.69,5.25-8.83,2.69-6.39,3.67-13.37,2.87-20.25h-.03Z" fill="#273339"/><path d="M540.85,227.78l-1.26,6.03c-.37,2.41-2.63,4.06-5.04,3.69-.15-.02-.29-.05-.44-.09-2.51-.52-4.12-2.97-3.6-5.48v-.02l2.01-9.65,.13-.16c.13-.16,0,0,0-.22,.59-2.46,3.01-4.04,5.5-3.58,5.74,1.22,11.39-2.45,12.61-8.19s-2.45-11.39-8.19-12.61h0c-3.67-.76-7.47,.49-9.98,3.27-1.61,2-4.55,2.34-6.55,.73s-2.34-4.55-.73-6.55c.1-.13,.22-.26,.34-.37,7.32-8.18,19.89-8.87,28.06-1.55,8.18,7.32,8.87,19.89,1.55,28.06-3.64,4.07-8.8,6.47-14.27,6.61l-.16,.09v-.02h.02Zm-4.21,20.33l-.35,1.68c-.46,2.47-2.83,4.1-5.3,3.64-.06,0-.12-.02-.2-.04-2.5-.54-4.1-2.99-3.6-5.5l.35-1.68c.57-2.48,3.01-4.05,5.5-3.56,2.49,.52,4.1,2.96,3.6,5.46h0Z" fill="#ee3c7d"/><path d="M492.6,215.53l-.64-6.01c-.44-2.4,1.16-4.7,3.56-5.13,.16-.03,.32-.05,.48-.06,2.54-.3,4.85,1.5,5.17,4.04l1.21,9.79v.2c0,.2,0,0,.11,.18,.25,2.52-1.53,4.81-4.04,5.17-5.84,.49-10.18,5.64-9.69,11.48s5.64,10.18,11.48,9.69c.28-.02,.55-.05,.82-.1,3.73-.44,6.92-2.82,8.4-6.27,1-2.39,3.74-3.52,6.12-2.52,.02,0,.04,.02,.06,.03,2.34,1.02,3.41,3.74,2.4,6.07v.02c-4.36,10.07-16.07,14.7-26.13,10.34-10.07-4.36-14.7-16.07-10.34-26.13,2.14-4.94,6.2-8.8,11.23-10.7l-.18-.06h-.02v-.03Zm-2.54-20.59l-.22-1.7c-.43-2.41,1.18-4.69,3.59-5.12,.15-.03,.3-.04,.46-.05,2.53-.32,4.84,1.46,5.16,4v.04l.22,1.68c.28,2.53-1.52,4.84-4.04,5.19-2.51,.33-4.83-1.43-5.16-3.95,0-.03,0-.06-.01-.09h0Z" fill="#ee3c7d"/></g><g><g id="freepik--character-2--inject-2"><g id="freepik--Character--inject-2"><g id="freepik--Top--inject-2"><g id="freepik--character--inject-2"><g id="freepik--Bottom--inject-2"><path d="M452.52,735.22c-1.28-44.26-7.83-137.99-19.38-180.49l-97.89,3.47c-6.17,25.44-9.47,51.48-9.87,77.65-1.75,68.49-3.25,88.95-5.6,99.93-2.36,10.99-6.18,18.67-7.28,50.53-.33,9.47-.33,20.1-.16,30.04-.71,38.79-1.1,48.96-1.83,70.69-.06,2.04-2.26,11.76-4.62,22.84,10.79,.43,21.75-.03,32.49-.22,1.2-7.69,2.29-14.68,3.06-18.84,4.31-23.73,4.88-26.65,12.41-59.85,6.31-32.63,16.52-64.97,20.42-85.37,5.27-27.73,15.38-73.35,15.38-73.35l13.03,67.78s-5.58,29.6-2.2,51.26c2.9,18.53,11.33,83.72,11.69,89.19-.08,.49,.92,8.11,.92,9.27,.17,3.93,.64,6.85,1.75,9.35,11.65-.45,23.29-.98,34.92-1.62-3.33-4.45-5.45-9.74-6.07-15.34-.97-9.27,9.42-124.43,8.79-146.95l.03,.02h0Z" fill="#fabca8"/><g><path d="M412.13,882.94c.69,.77,3.17,.57,5.58,2.77,.81,.98,1.39,2.12,1.71,3.34,.42,.9,.61,2.09,.99,3.1,.18,.46,.63,1.81,1.16,2s.42-.51,.42-.88c.06-.9,.18-1.81,.18-2.68,.05-1.92,.59-3.79,1.56-5.45,1.45-2.04,20.59-4.74,21.75-3.91s1.24,2.7,1.4,3.98c.17,1.22,.43,2.44,.79,3.62,.13,.42,.22,.9,.37,1.32,.92,1.89,2.14,3.62,3.6,5.14,1.37,1.7,2.83,3.32,4.39,4.86,3.08,3.04,.94,1.04,4.48,3.53,3.32,2.36,7.27,4.67,10.08,6.17,14.85,7.87,16.15,14.06,12.55,19.77-2.99,4.64-11.78,7.75-24.96,6.83-10.06-1.42-13.67-1.32-21.53-7.76-5.39-5.23-6.07-4.83-12.78-8.2-5.71-2.55-17.71-6.57-18.21-10.57-.18-6.29,.61-12.58,2.32-18.63,1.08-3.43,1.26-6.15,1.77-8.24,.34-1.11,1.14-2.02,2.2-2.5,.02,.75,.22,2.38,.13,2.42l.03-.02h.02Z" fill="#273339"/><path d="M455.35,921.06c2.26-2.46,10.68-8.99,17.14-7.95,.08,.03,.18,.04,.26,.04,.52,.01,.95-.39,.97-.92,.01-.52-.39-.95-.92-.97-6.94-1.14-15.97,5.41-18.83,8.55h-.01c-.35,.37-.35,.95,.01,1.32,.16,.16,.35,.24,.57,.24,.3,.04,.61-.07,.81-.31h0Z" fill="#f1f0f0"/><path d="M447.33,915.85c2.26-2.48,10.66-9.01,17.14-7.95h.02c.51,.07,.98-.27,1.05-.78,.08-.51-.26-.99-.77-1.08-6.94-1.16-15.97,5.41-18.83,8.55-.35,.36-.35,.95,0,1.32,.16,.16,.37,.24,.59,.24,.3,.03,.59-.08,.79-.31h.01Z" fill="#f1f0f0"/><path d="M439.97,909.87c2.26-2.48,10.66-9.01,17.14-7.95,.52,.08,1.01-.26,1.09-.78s-.26-1.01-.78-1.09c-6.92-1.14-15.99,5.41-18.83,8.55-.35,.36-.35,.95,0,1.32,.16,.16,.37,.24,.59,.24,.29,.03,.58-.07,.79-.29h0Z" fill="#f1f0f0"/><path d="M432.81,903.95c3.5-3.95,12.48-8.97,18.72-7.95h0c.52,.09,1.01-.26,1.09-.77,.06-.51-.28-.99-.79-1.08-6.92-1.14-16.5,4.15-20.44,8.55h-.01c-.35,.37-.35,.95,.01,1.32,.15,.16,.35,.24,.57,.24,.31,.05,.62-.07,.83-.31h.02Z" fill="#f1f0f0"/></g><path d="M310.31,896.81c.42,.36,.61-.93,.9-2.35s.35-2.87,2.09-3.55c2.83-1.09,7.1-.64,12.02-.28,3.73,.21,7.35,1.2,10.59,2.92,1.28,.46,2.1,1.6,2.07,2.85,0,.68-.31,2.29-.31,3,.2,2.29,1.3,.87,1.61,.26,.93-2.95,1.66-5.95,2.2-8.98,2.11,1.07,.11,9.24-1.69,18.23-2.2,9.23-3.53,9.21-3.98,18.64-.35,11.26-1.32,20.05-8.04,27.57-8.26,9.22-22.85,1.6-26.57-5.59s-3.72-11.28-1.21-22.43c2.2-9.81,2.86-6,5.41-17.89,2.38-11.09,2.59-22.18,5.14-22.18,.16,1.21-1.1,8.94-.22,9.77v.02h0Z" fill="#273339"/><path d="M331.25,940.16c.25-.46,.09-1.03-.35-1.3-7.49-3.66-15.88-5.13-24.17-4.21h-.03c-.52,.08-.86,.57-.78,1.09s.57,.86,1.09,.78c11.56-1.77,22.96,3.98,22.96,3.98,.09,.05,.2,.09,.31,.11,.38,.07,.77-.1,.97-.44h0Z" fill="#f1f0f0"/><path d="M308.73,927.43c10.78-2.81,22.61,3.78,22.72,3.78h0c.44,.26,1.01,.12,1.27-.31,0-.01,.02-.02,.02-.04,.26-.43,.11-.98-.31-1.24-.44-.29-12.57-6.98-24.17-4-.32,.08-.58,.34-.66,.66-.13,.51,.16,1.03,.66,1.16,.16,.04,.31,.03,.46-.02h.01Z" fill="#f1f0f0"/><path d="M309.71,918.91c11.88-3.27,23.05,3.67,23.05,3.67h0c.43,.3,1.02,.21,1.32-.22h0c.29-.43,.19-1.01-.23-1.3-.49-.31-11.86-7.49-24.65-3.98-.5,.15-.79,.66-.66,1.16,.1,.34,.39,.6,.75,.66h.42Z" fill="#f1f0f0"/><path d="M310.99,910.49c11.12-3.23,23.21,4,23.21,4,.4,.23,.91,.12,1.19-.23,.33-.4,.26-1-.15-1.33-.46-.31-12.81-7.71-24.78-4.24-.5,.15-.78,.66-.63,1.16,.08,.35,.37,.61,.73,.68,.15,.02,.3,0,.44-.04h-.01Z" fill="#ebebeb"/><path d="M448.91,554.18c3.8,53.07,6,141.13,6,177.3-.06,34.15-9.64,140.97-9.64,140.97,0,0-3.62,4.5-18.7,5.21-6.28,.27-12.46-1.57-17.58-5.21,0,0-7.51-59.12-9.71-82.99-2.9-29.92,.75-48.34,.75-48.34l-9.89-54.94s-10.24,48.62-17.78,76.4c-5.56,20.48-27.01,120.28-27.01,120.28,0,0-5.88,4.76-18.06,4.11-13.16-.71-18.04-6.92-18.04-6.92,0,0,1.45-61.21,2.14-95.79,.73-37.69,7.61-43.44,8.34-59.44,.35-6.98,.35-15.44,2.2-73.31,1.89-59.66,2.81-66.27,5.53-93.12l121.44-4.24v.03h.01Z" fill="#58595b"/><path d="M400.04,741.1l-5.37-55.79,9.12-53.33c8.18-2.26,25.31-15.58,25.91-25.49-12.24,13.71-31.82,19.63-31.82,19.63l-7.73,60.07,9.89,54.91h0Z" fill="#58595b"/><path d="M430.17,863.21c13.51-1.02,17.19-4.29,17.19-4.29l-.63,16.48s-2.38,4.85-17.19,5.75-21.66-3.82-21.66-3.82l-2.17-17.66c7.8,2.92,16.15,4.12,24.46,3.53h0Z" fill="#6d6e71"/><path d="M331.85,870.42c13.76,1.2,17.99-1.52,17.99-1.52l-3.35,16.47s-3.07,4.34-18.1,2.87-21.14-7.36-21.14-7.36l.7-18.1c7.34,4.22,15.5,6.82,23.92,7.63h-.02Z" fill="#6d6e71"/></g><g id="freepik--top--inject-2"><path d="M428.56,471.83s27.97,14.68,47.74,21.54c25.95,9.03,32.73,1.06,32.73,1.06,8.11-6.39-29.53-42.78-48.34-60.96-12.88-12.45-23.76-17.21-39.38-19.53l7.23,57.89h.02Z" fill="#049385"/><path d="M430.61,409.07c-2.73-5.21-.37-11.12,2.42-15.69,2.13-3.26,3.18-7.1,2.99-10.99,.13-4.17-.33-9.67,3.5-8.79,2.2,.53,3.12,4.46,3.43,6.86s.04,3.89,.31,6.04,1.26,2.66,1.26,2.66l-13.89,19.91h-.02Z" fill="#f38f7f"/><path d="M458.58,392.31c-1.61,4.65-2.66,9.49-3.1,14.4-.02,2.75,4.9,10.21,12.24,18.13,7.34,7.91,11.98,13.69,17.93,19.25,5.28,4.56,10.19,9.54,14.68,14.89,5.47,6.57,9.05,16.15,11.25,28.39,1.81,10.21-12.2,11.84-24.41,6.92-12.22-4.92-17.69-14.02-22.44-21.03-3.45-5.01-4.02-6.75-10.99-20.59-8.89-17.76-11.09-22.78-13.3-26.54-2.85-5.03-5.23-8.44-8.28-13.18s-1.43-8.57,.99-12.2,6.77-6.61,9.32-9.23c3.78-3.91,3.25-4.68,3.25-7.93,.23-2.58,.98-5.1,2.2-7.38-1.03-2.21-1.82-4.54-2.32-6.92-1.06-1.98-1.73-4.14-1.98-6.37-.99-1.22-1.81-2.57-2.44-4.02-1.52-3.6,.26-4.39,.26-4.39,0,0-.49-1.16-1.1-3.14s.35-4.76,2.04-4.39,2.64,2.83,3.89,4.76,2.7,3.8,2.7,3.8c-.06-2.52,1.85-3.76,3.01-3.34s2.09,4.57,3.36,7.75c1.29,2.89,2.17,5.95,2.62,9.07,.12,4.11,.57,8.2,1.34,12.24,1.45,6.06,.77,5.88-.73,11.05h.01Z" fill="#f4a595"/><path d="M449.11,359.09c.22,1.15,.54,2.27,.97,3.36v-.46c-.18,.66-.26,1.35-.26,2.04-.03,.67,0,1.35,.11,2.02,.19,1.35,.65,2.66,1.36,3.82v-.51c-.18,.5-.32,1.02-.42,1.54-.09,.51-.15,1.02-.16,1.54-.03,1.02,.12,2.03,.46,2.99,0-.51-.04-.97,0-1.47s.13-.99,.22-1.45,.2-.94,.35-1.38,.33-.9,.51-1.3l.11-.22-.16-.33c-.53-1.08-.87-2.25-1.01-3.45-.18-1.18-.18-2.4,0-3.58v-.37c-.46-.88-.9-2.04-1.3-3.07-.39-1.07-.71-2.16-.92-3.27-.15,1.18-.09,2.39,.13,3.56h.01Z" fill="#e98b6d"/><path d="M442.03,356.25c.35,.57,.78,1.11,1.26,1.58l-.13-.24c.17,1.45,.58,2.87,1.26,4.17,.33,.67,.74,1.31,1.2,1.89,.47,.59,1,1.11,1.61,1.56l-.22-.66c-.18,.84-.24,1.69-.2,2.55,.03,.84,.15,1.67,.33,2.48,.19,.76,.45,1.49,.77,2.2,.3,.77,.67,1.5,1.12,2.2-.47-1.5-.79-3.05-.97-4.62-.05-.77-.05-1.54,0-2.3,.02-.74,.1-1.47,.24-2.2l.11-.39-.33-.26c-1.02-.85-1.86-1.88-2.5-3.03-.67-1.17-1.18-2.43-1.52-3.74v-.18h0c-.5-.39-.98-.81-1.43-1.26-.45-.47-.84-.98-1.18-1.52,.11,.61,.31,1.2,.59,1.75h-.01v.02Z" fill="#e98b6d"/><path d="M447.13,384.46c-.31,.61-.66,1.26-1.01,1.87s-.71,1.24-1.01,1.91c1.04-1.03,1.91-2.2,2.59-3.5,.7-1.29,1.08-2.73,1.12-4.19-.48,1.34-1.05,2.65-1.69,3.91h0Z" fill="#e98b6d"/><path d="M435.31,408.64c.69,1.19,1.6,2.25,2.68,3.1-.66-1.13-1.26-2.31-1.75-3.54-.47-1.17-.78-2.41-.92-3.67-.23-2.58,.1-5.2,.97-7.65-2.71,3.34-3.09,8.01-.97,11.76h0Z" fill="#e98b6d"/><g id="freepik--Chest--inject-2"><g id="freepik--chest--inject-2"><path d="M374.07,409.91c15.87-.84,31.77,.51,47.27,4.02,5.41,3.78,16.31,16.86,20.94,35.44,2.85,11.51,5.41,30.33,6.22,54.74,1.12,32.71,2.55,75.26,2.55,75.26-19.32,25.95-106.61,19.79-126.99,3.64,0,0,2.83-39.53,2.38-58.84-.49-20.22-3.14-32.93-5.45-50.14-3.56-26.57,5.1-53.72,5.1-53.72,15.46-5.56,31.6-9.06,47.99-10.39h0Z" fill="#00a79d"/></g></g><g id="freepik--Head--inject-2"><path d="M425.1,343.84c1.72,.24,2.58-5.94,3.18-9.15,1.57-11.05-.93-21.68-3.55-19.5,1.1-3.95,2.11-8.32,.37-12.06-2.07-3.8-6.17-6.04-10.48-5.71-4.26,.43-8.24,2.3-11.27,5.31-1.72-4.31-5.82-7.19-10.46-7.38-4.41-.28-8.54,2.16-10.44,6.15-1.67-1.57-3.83-2.53-6.11-2.74-5.66-.51-10.65,3.67-11.16,9.33-4.37-1.36-9.12-.09-12.24,3.25-4.2,3.91-5.97,9.8-4.62,15.38-5.8,.31-8.99,4.66-10.99,10.09-2.87,7.83,.73,21.07,3.05,26.81,5.71,14.2,13.2,22.35,21.27,35.15l63.44-54.94h0Z" fill="#273339"/><path d="M424.59,343.57c-.9-6.27-2.97-12.31-6.08-17.82-5.67-.35-7.65,5.71-18.06,5.01-9.09-.59-21.62-9.69-29.35-3.78,1.98,3.72,5.21,6.26,2.59,15.38-.73,2.5-3.5,3.72-5.49,4.94,.53,5.16,.09,10.38-1.28,15.38-.59,1.98-1.18,4.62-4.27,5.08-2,.29-4.88-3.52-7.36-5.74s-10.19-4.9-13.32,3.25c-2.8,7.32-.04,15.6,6.59,19.77,7.89,4.33,12.06-1.2,12.06-1.2l-.49,30.59c10.94,21.14,63.06,21.11,40.95-2.62l.59-8.66c3.98,.06,7.94-.55,11.71-1.83,6.98-2.87,10.92-7.95,12.57-18.55,2.22-14.5,.49-27.44-1.38-39.22h0l.02,.02Z" fill="#f9b4a2"/><path d="M401.34,408.46c-4.55-.09-9.09-.45-13.6-1.08-5.33-.92-14.18-2.52-17.98-7.51s-5.37-16.83-5.37-16.83c0,0,2.59,9.38,7.36,13.53s21.64,6.75,29.92,6.59h0l-.35,5.29h.02Z" fill="#e98b6d"/></g><path d="M353.09,453.97c4.39,12.63,8.22,33.41,8.22,33.41,0,0,5.74,37.53-7.85,40.58-14.04,3.14-23.03,.13-26.36-7.12-5.41-11.76-2.42-7.06-14.79-43.23-12.08-35.37-3.19-54.14,20.17-59.54,10.02,6.39,14.5,17.45,20.61,35.9h0Z" fill="#049385"/><g><path d="M349.16,431.35c-.05-6.86,1.97-8.12,3.32-12.41,.86-4,1.18-8.07,.98-12.15,0,0,3.9-3.21,4.35-4.87,.69-3.06,1.03-6.2,1-9.33-.18-2.98-3.89-4.09-3.89-4.09-1.1-3.95-5.7-3.8-5.7-3.8-.99-2.93-5.54-6.22-7.9-5.92-4.12,1.34-8.14,2.98-12.03,4.9l-.33-11.07s1.8-3.06,2.77-4.31,4.49-4.56,4.99-7.76c.5-3.21-.46-4.67-3.06-3.78-2.61,.89-6.26,4.86-11.04,9.71-3.46,3.49-3.61,5.01-3.96,10.32-.35,5.3-1.45,11.38-1.41,14.96s-.74,12.88,2.23,20.23c2.36,6.46,3.39,13.32,3.08,20.19l26.6-.8h.01v-.02Z" fill="#f4a595"/><path d="M316.86,391.5c.01-3.52,.54-6.93,.88-10.34,.19-1.72,.34-3.41,.45-5.14,.05-1.76,.3-3.51,.76-5.21,.62-1.7,1.63-3.23,2.95-4.46l3.61-3.72c1.17-1.16,2.41-2.38,3.71-3.56,1.29-1.27,2.81-2.25,4.48-2.92,.99-.44,2.15-.25,2.94,.49,.56,.83,.79,1.85,.65,2.83-.12,1.82-.79,3.56-1.91,4.99-1.04,1.39-2.16,2.73-3.34,4l-2.8,4.28,.05-.21,.2,11.08-.37-.24c1.98-.88,4-1.75,5.99-2.56,1.02-.4,2.01-.82,3.05-1.18,1.01-.39,2.04-.71,3.11-.91-1.06,.25-2.09,.6-3.07,1.04-1,.42-1.98,.86-2.97,1.3-1.96,.87-3.91,1.81-5.86,2.79l-.36,.18v-.42l-.48-11.06h0l.03-.1,2.75-4.42c1.17-1.26,2.29-2.58,3.33-3.95,1.01-1.31,1.61-2.87,1.71-4.53,.1-.73-.05-1.47-.44-2.1-.53-.43-1.26-.5-1.86-.18-1.53,.63-2.91,1.57-4.08,2.73-1.26,1.12-2.45,2.35-3.68,3.56l-3.58,3.59c-1.21,1.12-2.16,2.5-2.76,4.04-.44,1.63-.69,3.3-.75,4.99-.09,1.72-.29,3.45-.48,5.17-.42,3.41-1.01,6.83-1.1,10.21-.2,6.86-.55,13.87,1.86,20.4-2.67-6.42-2.67-13.57-2.62-20.47h0Z" fill="#e98b6d"/><path d="M340.27,379s-.84-2.71-3.27-2.06c-2.43,.64-1.91,2.36-3.28,4.69l6.55-2.64h0Z" fill="#e98b6d"/><path d="M349.25,384.65c-.2-.55-.48-1.07-.82-1.54-1.29,.07-2.56,.28-3.81,.62-2.45,.62-4.8,1.6-6.96,2.89,0,0,3.68-1.09,5.56-1.42,2.01-.36,4.06-.48,6.09-.32l-.07-.23h.01Z" fill="#e98b6d"/><path d="M347.22,389.3s5.54-1.34,7.82-.55c-.16-.56-.38-1.11-.69-1.62-.9,.08-1.8,.23-2.68,.42-1.55,.42-3.03,1.01-4.45,1.74h0Z" fill="#e98b6d"/><path d="M354.46,398.5c.55-.94,3.41-2.98,2.26-3.28s-3.71,1.28-3.91,3.5c-.07,3.26,.16,6.52,.7,9.74-.19-3.35,.15-6.7,.95-9.95h0Z" fill="#e98b6d"/><path d="M329.31,384.03l-.32-11.46s1.8-3.06,2.77-4.31,4.51-4.64,4.99-7.76c.09-.49,.13-.98,.12-1.47-.21,2.65-4.7,7.28-7.04,9.79s-2.52,1.87-2.78,7.42-.24,8.87-.24,8.87l2.5-1.08h0Z" fill="#e98b6d"/><path d="M349.14,431.34c.25,3.48,.69,7.39,4.91,27.47,3.41,16.2,7.27,34.13,5.69,43.17-2.63,15.06-9.7,27.43-18.15,24.03-14.09-5.64-23.91-30.56-23.32-40.77,.65-10.86,3.12-35.44,4.3-53.1,0,0,26.25-5.17,26.58-.8h0Z" fill="#f4a595"/></g></g></g></g></g></g><g><path d="M420,354c-.54-2.3-2.2-3.82-3.69-3.38-1.56,.35-2.45,2.54-1.99,4.95,0,.03,.01,.06,.02,.1,.54,2.3,2.2,3.82,3.69,3.38,1.56-.33,2.45-2.52,2-4.92,0-.04-.02-.08-.03-.12h0Z" fill="#273339"/><path d="M418.41,341.97c-1.47-.74-3.14-.98-4.77-.67-1.65,.26-3.18,1.05-4.36,2.22-.88,.89-1.41,1.46-.93,1.77s2.51-1.63,5.64-2.19,5.59,.69,5.9,.24c.15-.19-.3-.83-1.47-1.37h-.01Z" fill="#273339"/><path d="M389.89,354.2c-1.57,.33-2.46,2.54-1.99,4.95,0,.04,.02,.08,.03,.12,.54,2.3,2.2,3.82,3.69,3.38,1.59-.35,2.47-2.61,1.98-5.03-.54-2.32-2.2-3.85-3.71-3.43h0Z" fill="#273339"/><path d="M391.06,346.07c-1.48-.74-3.17-.98-4.78-.67-1.64,.27-3.17,1.05-4.36,2.21-.87,.91-1.41,1.48-.92,1.8,.49,.31,2.5-1.67,5.63-2.21s5.6,.71,5.9,.26c.11-.23-.31-.87-1.45-1.38h-.02Z" fill="#273339"/><path d="M407.68,381.32c.46,.04,.92,0,1.37-.1,.62-.12,1.14-.54,1.41-1.11,.3-1.06,.21-2.19-.25-3.19-.61-2.02-1.27-4.11-1.93-6.32-2.81-9.03-5.41-16.19-5.77-16.09s1.65,7.44,4.47,16.4c.71,2.28,1.38,4.3,2.03,6.31,.37,.75,.52,1.59,.4,2.42-.16,.55-.94,.74-1.75,.71-1.75,0-3.5,.21-5.2,.62,1.72,.34,3.47,.47,5.22,.36h0Z" fill="#273339"/><path d="M376.68,347.02c-.7,1.04-1.2,2.19-1.5,3.39-.29,1.21,.03,2.5,.88,3.43l.03,.03c.92,.86,2.37,.81,3.22-.11,.6-1.15,.42-2.54-.45-3.51-.86-.92-1.56-1.99-2.03-3.16" fill="#fff"/></g><path d="M410.75,390.78l-13.7-.36s2.39-3.6,7.44-3.26,6.26,3.62,6.26,3.62h0Z" fill="#fff"/><path d="M393.39,297.28c-6.67,3.1-14.29-2.62-23.89,3.16-9.59,5.77-17.73,19.83-16.7,26.78,1.03,6.94,25.29-8.51,35.79-10.31,10.49-1.8,33.53-17.27,33.53-17.27,0,0-16.19-8.19-28.73-2.37h0Z" fill="#273339"/><g><polygon points="356.78 418.58 359.34 402.14 383.37 410.37 390.16 421.49 394.37 409.29 407.54 405.05 413.19 415.97 403.52 428.72 385.38 432.14 356.78 418.58" fill="#00a79d"/><path d="M388.26,424.04s-.33-.19-.84-.67c-.73-.7-1.41-1.43-2.06-2.22-2.29-2.78-4.12-5.93-5.4-9.3h.82l-5.17,13.02c-.9,2.24-1.79,4.39-2.61,6.45l-.27,.67-.53-.51c-4.51-4.37-8.42-8.21-11.17-10.94l-3.2-3.26c-.4-.37-.77-.81-1.07-1.28,.48,.29,.91,.63,1.32,1.03l3.38,3.06c2.87,2.63,6.85,6.36,11.43,10.69l-.8,.17,2.56-6.45c1.93-4.72,3.74-9.13,5.29-12.99l.44-1.07,.39,1.09c1.2,3.32,2.89,6.46,4.99,9.3,1.52,1.99,2.56,3.14,2.48,3.22h.02Z" fill="#273339"/><path d="M411.82,415.96c-.71,1.32-1.59,2.53-2.63,3.61-2.44,2.95-5.32,5.5-8.56,7.56l-.49,.29-.21-.55c-.74-2.06-1.58-4.1-2.48-6.38-1.36-3.34-2.61-6.53-3.59-9.36h.88c-.74,3.72-1.66,6.76-2.22,8.88-.22,1.15-.54,2.27-.97,3.36,0-1.18,.15-2.36,.46-3.49,.42-2.18,1.19-5.25,1.83-8.93l.29-1.62,.59,1.56c1.03,2.79,2.31,5.93,3.67,9.3,.9,2.24,1.72,4.41,2.44,6.42l-.7-.25c3.18-1.96,6.07-4.35,8.6-7.1,.95-1.16,1.98-2.26,3.08-3.3h.01Z" fill="#273339"/></g></g><text transform="translate(666.25 476.9)" font-family="Roboto-Black, Roboto" font-size="20" font-weight="800"><tspan x="0" y="0" letter-spacing=".09em">F</tspan><tspan x="12.73" y="0" letter-spacing=".1em">o</tspan><tspan x="25.96" y="0" letter-spacing=".09em">r</tspan><tspan x="35.36" y="0" letter-spacing=".1em">got PIN?</tspan></text><rect x="624.2" y="687.28" width="217.39" height="33.75" fill="#ee3c7d"/><text transform="translate(681.14 711.9)" fill="#fff" font-family="Roboto-Black, Roboto" font-size="20" font-weight="800" letter-spacing=".07em"><tspan x="0" y="0">Reset PIN</tspan></text></svg>