<?xml version="1.0" encoding="UTF-8"?><svg id="Layer_1" xmlns="http://www.w3.org/2000/svg" xmlns:xlink="http://www.w3.org/1999/xlink" viewBox="0 0 325 153"><defs><clipPath id="clippath"><rect width="325" height="153" fill="none"/></clipPath></defs><rect id="Rectangle_6253" y="0" width="325" height="153" fill="#feeeef"/><g clip-path="url(#clippath)"><g id="Mask_Group_581"><g id="freepik--Screen--inject-2"><path id="Path_16338" d="M220.74,26.11V232.66c0,5.84-4.37,10.56-9.77,10.56H114.57c-5.4,0-9.78-4.72-9.78-10.56V26.11c0-11.89,4.37-12.47,9.78-12.47h19.33c1.12,0,2.04,1.28,2.04,2.85v.68c0,3.7,2.03,3.72,4.51,3.72h44.66c2.51,0,4.52,0,4.52-3.72v-.68c0-1.58,.91-2.85,2.05-2.85h19.31c5.37,0,9.75,1.58,9.75,12.47h0Z" fill="#fff"/><path id="Path_16339" d="M220.74,26.11V232.66c0,5.84-4.37,10.56-9.77,10.56H114.57c-5.4,0-9.78-4.72-9.78-10.56V26.11c0-11.89,4.37-12.47,9.78-12.47h19.33c1.12,0,2.04,1.28,2.04,2.85v.68c0,3.7,2.03,3.72,4.51,3.72h44.66c2.51,0,4.52,0,4.52-3.72v-.68c0-1.58,.91-2.85,2.05-2.85h19.31c5.37,0,9.75,1.58,9.75,12.47h0Z" fill="#fff" stroke="#707070"/><path id="Path_16340" d="M220.74,26.11l.16,171.21v34.78c.02,.9-.05,1.81-.2,2.7-.49,2.72-1.98,5.15-4.18,6.82-.74,.53-1.55,.96-2.4,1.28-.86,.31-1.76,.5-2.67,.54-.91,.06-1.79,0-2.68,.03h-32.08l-42.79,.04h-18.73c-.92,.03-1.83-.05-2.73-.24-1.8-.42-3.45-1.35-4.74-2.68-1.3-1.31-2.25-2.92-2.76-4.69-.25-.88-.39-1.79-.43-2.71-.05-.92,0-1.79,0-2.69v-5.35l.16-171.21V27.19c-.03-1.79,.05-3.58,.24-5.36l.2-1.33,.31-1.31c.13-.43,.29-.86,.43-1.28,.19-.41,.4-.82,.64-1.21,.47-.78,1.1-1.45,1.85-1.97,.78-.48,1.65-.81,2.55-.98,1.78-.24,3.57-.33,5.36-.26h17.33c.23-.02,.46,0,.69,.05,.23,.06,.45,.16,.64,.31,.72,.63,1.12,1.54,1.1,2.49-.05,.88,.03,1.77,.24,2.63,.11,.41,.33,.79,.64,1.09,.32,.29,.71,.49,1.13,.58,.87,.16,1.76,.22,2.65,.17h45.47c.89,.05,1.76-.2,2.48-.72,.34-.29,.6-.67,.73-1.1,.13-.41,.2-.84,.22-1.28v-1.33c.01-.45,.1-.9,.27-1.32,.16-.42,.44-.8,.79-1.08,.18-.14,.38-.25,.6-.31,.22-.05,.45-.07,.68-.05h18.73c.89-.01,1.78,.04,2.67,.14,1.79,.14,3.47,.93,4.72,2.21,1.17,1.38,1.94,3.05,2.23,4.83,.32,1.75,.47,3.52,.46,5.29h0Zm0,0c0-1.79-.16-3.57-.48-5.32-.29-1.77-1.06-3.42-2.22-4.79-1.26-1.28-2.94-2.05-4.73-2.19-.88-.1-1.77-.15-2.67-.13h-18.74c-.21,0-.43,0-.64,.06-.21,.07-.41,.17-.58,.3-.34,.28-.61,.64-.76,1.05-.25,.85-.35,1.74-.29,2.63-.02,.45-.1,.9-.23,1.33-.12,.44-.36,.83-.69,1.15-.74,.54-1.64,.8-2.55,.75h-45.49c-.9,.04-1.8-.02-2.68-.18-.46-.11-.88-.32-1.23-.64-.34-.32-.58-.72-.71-1.17-.2-.85-.29-1.72-.26-2.59,0-.88-.38-1.71-1.03-2.29-.17-.12-.36-.22-.57-.28-.21-.04-.42-.06-.64-.04h-17.38c-1.78-.07-3.56,.02-5.32,.26-.86,.17-1.69,.49-2.43,.94-.72,.5-1.33,1.15-1.78,1.91-.23,.37-.39,.78-.59,1.17-.18,.41-.32,.84-.41,1.28l-.31,1.28-.19,1.31c-.19,1.77-.27,3.55-.24,5.32v26.75l.16,171.21v8.01c.04,.86,.17,1.72,.41,2.55,.48,1.68,1.37,3.22,2.6,4.46,1.21,1.26,2.76,2.14,4.46,2.55,.85,.18,1.72,.26,2.59,.24h18.76l42.79,.04h34.76c.87-.04,1.73-.22,2.55-.52,.82-.3,1.6-.71,2.31-1.22,.7-.52,1.33-1.13,1.88-1.82,1.09-1.38,1.83-3,2.16-4.73,.14-.87,.21-1.75,.19-2.63v-34.77l.18-171.24h0Z" fill="#273339"/><path id="Path_16341" d="M220.74,26.11v24.76H104.79V26.11c0-11.89,4.37-12.47,9.78-12.47h19.33c1.12,0,2.04,1.28,2.04,2.85v.68c0,3.7,2.03,3.72,4.51,3.72h44.66c2.51,0,4.52,0,4.52-3.72v-.68c0-1.58,.91-2.85,2.05-2.85h19.31c5.37,0,9.75,1.58,9.75,12.48Z" fill="#ee3c7d"/><path id="Path_16342" d="M220.74,26.11v9.07H104.79v-9.07c0-11.89,4.37-12.47,9.78-12.47h19.33c1.12,0,2.04,1.28,2.04,2.85v.68c0,3.7,2.03,3.72,4.51,3.72h44.66c2.51,0,4.52,0,4.52-3.72v-.68c0-1.58,.91-2.85,2.05-2.85h19.31c5.37,0,9.75,1.58,9.75,12.48Z" fill="#010101" isolation="isolate" opacity=".1"/><g id="freepik--u5Zjqx--inject-2"><path id="Path_16346" d="M130.55,18.27l-.19,.19-.1,.11c-1-.99-2.6-.99-3.6,0l-.1-.11-.19-.19h0c.08-.07,.15-.14,.24-.21,.37-.3,.81-.5,1.28-.59,.12,0,.25,0,.36-.05h.56c.22,.03,.43,.08,.64,.16,.15,.06,.3,.13,.45,.21,.15,.09,.3,.19,.43,.3l.2,.18h.02Z" fill="#fff"/><path id="Path_16347" d="M127.25,19.15l-.29-.29c.82-.83,2.16-.83,2.99-.01,0,0,0,0,0,0,0,0,0,0,.01,0l-.29,.29c-.67-.67-1.75-.67-2.42,0Z" fill="#fff"/><path id="Path_16348" d="M129.37,19.45l-.29,.29c-.17-.17-.4-.26-.64-.26-.24,0-.47,.08-.64,.26l-.29-.29c.48-.51,1.29-.54,1.8-.06,.02,.02,.05,.04,.06,.06Z" fill="#fff"/><path id="Path_16349" d="M128.72,20.01c0,.14-.12,.26-.26,.26h0c-.15,.02-.28-.08-.31-.22s.08-.28,.22-.31h0s.05,0,.08,0c.14,0,.26,.12,.26,.26h0Z" fill="#fff"/></g><path id="Path_16350" d="M112.35,18.83c0-.43,.34-.77,.77-.77s.77,.34,.77,.77-.34,.77-.77,.77h0c-.42,0-.77-.34-.77-.77h0Z" fill="#fff"/><path id="Path_16351" d="M114.78,18.83c0-.43,.34-.77,.77-.77s.77,.34,.77,.77-.34,.77-.77,.77h0c-.42,0-.76-.34-.76-.76h0s0,0,0,0Z" fill="#fff"/><path id="Path_16352" d="M117.2,18.83c0-.42,.35-.76,.77-.76,.42,0,.76,.35,.76,.77,0,.42-.35,.76-.77,.76-.42,0-.75-.34-.76-.76h0Z" fill="#fff"/><path id="Path_16353" d="M119.61,18.83c0-.43,.34-.77,.77-.77s.77,.34,.77,.77-.34,.77-.77,.77h0c-.42,0-.77-.34-.77-.77h0Z" fill="#fff"/><path id="Path_16354" d="M122.03,18.83c0-.43,.34-.77,.77-.77s.77,.34,.77,.77-.34,.77-.77,.77h0c-.42,0-.77-.34-.77-.77h0Z" fill="#fff"/><path id="Path_16355" d="M212.04,20.51h-6.26v-2.88h6.26v2.88Zm-5.94-.32h5.62v-2.26h-5.62v2.26Z" fill="#fff"/><rect id="Rectangle_6166" x="206.31" y="18.11" width="4.03" height="1.91" fill="#fff"/><rect id="Rectangle_6167" x="212.04" y="18.3" width=".56" height="1.55" fill="#fff"/><circle id="Ellipse_1267" cx="180.05" cy="81.83" r="14.77" fill="#465b65"/><circle id="Ellipse_1268" cx="140.8" cy="103.14" r="10.09" fill="#ebebeb"/><path id="Path_16360" d="M171.05,79.08v10.58h-3v-10.58c.26-3.77-2.59-7.03-6.35-7.29-3.77-.26-7.03,2.59-7.29,6.35-.02,.31-.02,.62,0,.93v10.58h-3v-10.58c0-5.77,4.4-10.46,9.82-10.46s9.82,4.69,9.82,10.46Z" fill="#c8c7c6"/><path id="Path_16361" d="M151.41,81.83l3,.12v7.72h-3v-7.84Z" fill="#a7a6a6"/><path id="Path_16362" d="M171.05,82.64v7.04h-3v-7.16l3,.13Z" fill="#a7a6a6"/><rect id="Rectangle_6170" x="147.57" y="83.64" width="27.31" height="24.77" fill="#ee3c7d"/><path id="Path_21245" d="M161.23,83.64h13.65v24.77h-13.65v-24.77Z" fill="#010101" isolation="isolate" opacity=".1"/><path id="Path_16363" d="M162.38,96.93l1.15,5.42h-4.86l1.15-5.42c-1.14-.7-1.5-2.2-.79-3.34s2.2-1.5,3.34-.79,1.5,2.2,.79,3.34c-.2,.32-.47,.59-.79,.79h.02Z" fill="#273339"/><path id="Path_16357" d="M112.54,122.71l12.71-.1,12.71-.03,25.44-.08,25.43,.08,12.71,.03,12.72,.1-12.72,.1-12.71,.04-25.43,.07-25.44-.07-12.71-.04-12.71-.1Z" fill="#273339"/><path id="Path_16358" d="M121.93,128.35l10.37-.1,10.37-.03,20.74-.08,20.74,.08,10.36,.03,10.37,.1-10.37,.1-10.36,.05-20.74,.07-20.74-.07-10.37-.05-10.37-.1Z" fill="#273339"/></g></g></g></svg>