<?xml version="1.0" encoding="utf-8"?>
<!-- Generator: Adobe Illustrator 22.1.0, SVG Export Plug-In . SVG Version: 6.00 Build 0)  -->
<svg version="1.1" id="Layer_1" xmlns="http://www.w3.org/2000/svg" xmlns:xlink="http://www.w3.org/1999/xlink" x="0px" y="0px"
	 viewBox="0 0 1024 1024" style="enable-background:new 0 0 1024 1024;" xml:space="preserve">
<style type="text/css">
	.st0{opacity:0.7;fill:none;stroke:#FFC10E;stroke-width:0.75;stroke-miterlimit:10;}
	.st1{fill:none;stroke:#8BC53F;stroke-width:0.75;stroke-miterlimit:10;}
	.st2{opacity:0.51;fill:none;stroke:#FAAF40;stroke-width:0.75;stroke-miterlimit:10;}
	.st3{fill:none;stroke:#0054A5;stroke-width:0.75;stroke-miterlimit:10;}
	.st4{opacity:0.5;fill:none;stroke:#0054A5;stroke-width:0.75;stroke-miterlimit:10;}
	.st5{fill:none;stroke:#BE1E2D;stroke-width:0.75;stroke-miterlimit:10;}
	.st6{opacity:0.75;fill:none;stroke:#FFC10E;stroke-width:0.75;stroke-miterlimit:10;}
	.st7{opacity:0.7;fill:none;stroke:#6FCBDC;stroke-width:0.75;stroke-miterlimit:10;}
	.st8{opacity:0.87;fill:none;stroke:#00ADEE;stroke-width:0.75;stroke-miterlimit:10;}
	.st9{opacity:0.8;fill:none;stroke:#8BC53F;stroke-width:0.75;stroke-miterlimit:10;}
	.st10{opacity:0.5;fill:none;stroke:#6FCBDC;stroke-width:0.75;stroke-miterlimit:10;}
</style>
<g>
	<path class="st0" d="M769.5,791.6c5.7,0,10.4,4.6,10.4,10.2l-0.1,68.2c0,5.6-4.7,10.2-10.4,10.2l-69.7,0.1
		c-5.7,0-10.4-4.6-10.4-10.2l0-68.2c0-5.7,4.7-10.3,10.4-10.3L769.5,791.6z"/>
	<path class="st1" d="M780.6,523.5c5.7,0,10.4,4.6,10.5,10.2l0,144.7c0,5.6-4.7,10.3-10.4,10.3L632.8,689c-5.7,0-10.4-4.6-10.4-10.2
		l0.1-144.8c0-5.6,4.7-10.2,10.5-10.2L780.6,523.5z"/>
	<path class="st2" d="M878.9,610.4c5.8,0,10.5,4.5,10.5,10.1l0.9,109.5c0.1,5.6-4.6,10.3-10.4,10.3l-111.8,1.2
		c-5.7,0.1-10.5-4.5-10.5-10.1l-0.9-109.5c-0.1-5.6,4.6-10.2,10.3-10.3L878.9,610.4z"/>
	<path class="st3" d="M946.8,709c5.2-0.1,9.4,4.1,9.4,9.2l0,151.5c0,5.1-4.3,9.3-9.5,9.3l-154.7,0.2c-5.2,0-9.5-4.1-9.5-9.2
		l0.1-151.5c0-5.1,4.3-9.3,9.5-9.3L946.8,709z"/>
	<path class="st4" d="M897.9,683.7c5.2,0,9.5,4.2,9.4,9.3l0,33.8c0,5.1-4.2,9.3-9.5,9.3l-34.5,0.1c-5.2,0-9.5-4.1-9.5-9.3l0-33.8
		c0-5.1,4.2-9.3,9.5-9.3L897.9,683.7z"/>
	<path class="st1" d="M996.9,776.9c5.7-0.1,10.4-4.7,10.3-10.4l-0.5-57.8c-0.1-5.6-4.8-10.2-10.6-10.1l-59.1,0.6
		c-5.8,0-10.4,4.7-10.3,10.3l0.5,57.9c0.1,5.6,4.8,10.2,10.6,10.1L996.9,776.9z"/>
	<path class="st5" d="M976.8,833.6c5.7-0.1,10.4-4.7,10.3-10.4l-0.5-57.8c-0.1-5.6-4.8-10.2-10.6-10.1l-59.1,0.6
		c-5.8,0.1-10.4,4.7-10.3,10.3l0.5,57.9c0.1,5.6,4.8,10.2,10.6,10.1L976.8,833.6z"/>
	<path class="st5" d="M235.3,222c5.7-0.1,10.4-4.7,10.3-10.4l-0.5-57.8c-0.1-5.6-4.8-10.2-10.6-10.1l-59.1,0.6
		c-5.8,0.1-10.4,4.7-10.3,10.3l0.5,57.9c0.1,5.6,4.8,10.2,10.6,10.1L235.3,222z"/>
	<path class="st5" d="M591.3,341.4c5.7,0,10.4,4.5,10.4,10.1l-0.1,166c0,5.6-4.7,10.2-10.3,10.2L421.8,528
		c-5.7,0-10.4-4.5-10.4-10.1l0.1-166c0-5.6,4.7-10.2,10.4-10.2L591.3,341.4z"/>
	<path class="st3" d="M365,240.9c7,0,12.8,5.6,12.8,12.5l-0.1,328.4c0,6.9-5.8,12.6-12.8,12.6L29.6,595c-7,0-12.7-5.6-12.8-12.5
		L16.9,254c0-6.9,5.8-12.5,12.8-12.5L365,240.9z"/>
	<path class="st0" d="M415.3,503.4c7.1,0,12.8,5.6,12.8,12.5l0,83.7c0,6.9-5.8,12.6-12.8,12.6l-85.4,0.1c-7,0-12.8-5.7-12.8-12.6
		l0-83.7c0-6.9,5.8-12.5,12.8-12.5L415.3,503.4z"/>
	<path class="st6" d="M292.8,182.6c7.1,0,12.8,5.7,12.8,12.5l0,177.6c0,6.9-5.7,12.5-12.8,12.5l-181.3,0.2c-7,0-12.8-5.6-12.8-12.5
		l0.1-177.6c0-6.9,5.8-12.5,12.8-12.6L292.8,182.6z"/>
	<path class="st1" d="M490.2,246.5c7.1-0.1,12.9,5.5,12.9,12.4l1.2,134.4c0.1,6.8-5.6,12.6-12.7,12.7l-137.1,1.4
		c-7.1,0-12.9-5.6-12.9-12.4l-1.2-134.3c0-6.9,5.7-12.6,12.7-12.7L490.2,246.5z"/>
	<path class="st7" d="M696.4,434.7c7,0,12.8,5.7,12.8,12.5l-0.1,45.8c0,6.9-5.7,12.5-12.8,12.5l-46.8,0.1c-7,0-12.7-5.6-12.7-12.5
		l0-45.8c0.1-6.9,5.8-12.6,12.8-12.6L696.4,434.7z"/>
	<path class="st8" d="M126.2,212.4c7,0,12.8,5.7,12.8,12.5l-0.1,45.8c0,6.9-5.7,12.5-12.8,12.5l-46.8,0.1c-7,0-12.7-5.6-12.7-12.5
		l0-45.8c0-6.9,5.8-12.6,12.8-12.6L126.2,212.4z"/>
	<path class="st9" d="M253.2,278.1c7,0,12.8,5.7,12.8,12.5l-0.1,45.8c0,6.9-5.7,12.5-12.8,12.5l-46.8,0.1c-7,0-12.7-5.6-12.7-12.5
		l0-45.8c0-6.9,5.8-12.6,12.8-12.6L253.2,278.1z"/>
	<path class="st8" d="M261.7,410.6c7,0,12.8,5.7,12.8,12.5l-0.1,45.8c0,6.9-5.7,12.5-12.8,12.5l-46.8,0.1c-7,0-12.7-5.6-12.7-12.5
		l0-45.8c0-6.9,5.8-12.6,12.8-12.6L261.7,410.6z"/>
	<path class="st10" d="M318.5,410.6c-7.1,0.1-12.7,5.9-12.6,12.8l0.1,7.2c0.1,6.9,6,12.4,13,12.3l7.3-0.1c7-0.1,12.7-5.9,12.6-12.8
		l-0.1-7.2c-0.1-6.9-6-12.4-13-12.3L318.5,410.6z"/>
	<path class="st3" d="M675,550.2c7-0.1,12.8-5.8,12.7-12.7l-0.6-71c0-6.9-5.9-12.5-12.9-12.4l-72.5,0.7c-7,0-12.7,5.8-12.7,12.7
		l0.6,71c0.1,6.9,5.9,12.5,12.9,12.4L675,550.2z"/>
</g>
</svg>
