<?xml version="1.0" encoding="utf-8"?>
<!-- Generator: Adobe Illustrator 27.0.0, SVG Export Plug-In . SVG Version: 6.00 Build 0)  -->
<svg version="1.1" id="Layer_1" xmlns="http://www.w3.org/2000/svg" xmlns:xlink="http://www.w3.org/1999/xlink" x="0px" y="0px"
	 viewBox="0 0 72 72" style="enable-background:new 0 0 72 72;" xml:space="preserve">
<style type="text/css">
	.st0{fill:url(#SVGID_1_);}
	.st1{fill:url(#SVGID_00000044894072791966109610000007455501304130672039_);}
	.st2{opacity:0.21;fill:url(#SVGID_00000085949908126697547400000006170672561465824188_);}
	.st3{opacity:0.21;fill:url(#SVGID_00000167365220848708510710000005491975118187523758_);}
	.st4{fill:url(#SVGID_00000106838640553337866610000010145478452730998462_);}
	.st5{fill:#FFFFFF;}
	.st6{fill:#006F8D;}
</style>
<g id="Layer_2_1_">
</g>
<g>
	<g>
		<linearGradient id="SVGID_1_" gradientUnits="userSpaceOnUse" x1="17.9206" y1="38.796" x2="14.5321" y2="26.9789">
			<stop  offset="0" style="stop-color:#02433B"/>
			<stop  offset="0.4536" style="stop-color:#038EA4"/>
			<stop  offset="0.5098" style="stop-color:#1E9EB4"/>
			<stop  offset="0.5828" style="stop-color:#39AEC4"/>
			<stop  offset="0.662" style="stop-color:#4FBBD1"/>
			<stop  offset="0.7491" style="stop-color:#5EC4DA"/>
			<stop  offset="0.8506" style="stop-color:#67C9DF"/>
			<stop  offset="1" style="stop-color:#6ACBE1"/>
		</linearGradient>
		<path class="st0" d="M18.3,31.6l-4.2-1.1c-0.7-0.2-1.4,0.4-1.3,1.1c0,0,0,0.1,0,0.1l1,3.6l0.6,2.2l0.3,1.2c-0.2-0.7,0-1.4,0.4-2
			l0,0l3.5-3.6C19.4,32.7,19.1,31.8,18.3,31.6z M16.4,33.3l-0.9,1L15,33c-0.1-0.1,0-0.3,0.2-0.3l1,0C16.4,32.7,16.6,33,16.4,33.3z"
			/>
		<g>
			
				<linearGradient id="SVGID_00000160149906617098360830000004505714288789528214_" gradientUnits="userSpaceOnUse" x1="10.6751" y1="37.2699" x2="21.5501" y2="30.8464">
				<stop  offset="0" style="stop-color:#014139"/>
				<stop  offset="0" style="stop-color:#014139"/>
				<stop  offset="0.4032" style="stop-color:#008BA0"/>
				<stop  offset="1" style="stop-color:#69CCE1"/>
				<stop  offset="1" style="stop-color:#69CCE1"/>
			</linearGradient>
			<path style="fill:url(#SVGID_00000160149906617098360830000004505714288789528214_);" d="M12.9,31.8l1,3.6l0.6,2.2l0.3,1.2
				c0-0.1,0-0.1,0-0.2C14.4,37.1,12.9,31.8,12.9,31.8L12.9,31.8z"/>
			
				<linearGradient id="SVGID_00000000916529012931648870000014135663749697670303_" gradientUnits="userSpaceOnUse" x1="1284.9877" y1="1753.3405" x2="1281.6576" y2="1752.4097" gradientTransform="matrix(0.8703 -0.4926 0.4926 0.8703 -1965.6504 -861.9288)">
				<stop  offset="0" style="stop-color:#1C1C1B;stop-opacity:0"/>
				<stop  offset="0.9238" style="stop-color:#1C1C1B;stop-opacity:0.9238"/>
				<stop  offset="1" style="stop-color:#1C1C1B"/>
			</linearGradient>
			<path style="opacity:0.21;fill:url(#SVGID_00000000916529012931648870000014135663749697670303_);" d="M12.9,31.8
				C12.9,31.8,12.9,31.7,12.9,31.8L12.9,31.8L12.9,31.8C12.9,31.8,12.9,31.8,12.9,31.8z"/>
			
				<linearGradient id="SVGID_00000075136789814609792550000007540184028614259840_" gradientUnits="userSpaceOnUse" x1="1284.0707" y1="1756.7318" x2="1280.7179" y2="1755.7947" gradientTransform="matrix(0.8703 -0.4926 0.4926 0.8703 -1965.6504 -861.9288)">
				<stop  offset="0" style="stop-color:#1C1C1B;stop-opacity:0"/>
				<stop  offset="0.9238" style="stop-color:#1C1C1B;stop-opacity:0.9238"/>
				<stop  offset="1" style="stop-color:#1C1C1B"/>
			</linearGradient>
			<path style="opacity:0.21;fill:url(#SVGID_00000075136789814609792550000007540184028614259840_);" d="M12.9,31.7
				C12.9,31.7,12.9,31.7,12.9,31.7L12.9,31.7L12.9,31.7c0,0.1,1.5,5.3,2,6.9c-0.1-0.7,0.1-1.3,0.4-1.8l0,0l0.9-0.9
				C15.2,35.7,13,31.9,12.9,31.7z"/>
		</g>
		
			<linearGradient id="SVGID_00000086693013950058561890000002218967279786276757_" gradientUnits="userSpaceOnUse" x1="13.0577" y1="46.015" x2="8.5807" y2="30.4019">
			<stop  offset="0" style="stop-color:#02433B"/>
			<stop  offset="0.4536" style="stop-color:#038EA4"/>
			<stop  offset="0.5098" style="stop-color:#1E9EB4"/>
			<stop  offset="0.5828" style="stop-color:#39AEC4"/>
			<stop  offset="0.662" style="stop-color:#4FBBD1"/>
			<stop  offset="0.7491" style="stop-color:#5EC4DA"/>
			<stop  offset="0.8506" style="stop-color:#67C9DF"/>
			<stop  offset="1" style="stop-color:#6ACBE1"/>
		</linearGradient>
		<path style="fill:url(#SVGID_00000086693013950058561890000002218967279786276757_);" d="M15.4,40.5l-1.6-5.8l-0.5-1.9l-0.3-1.1
			c0,0,0,0,0-0.1c0.2,0.8,0,1.6-0.6,2.1l0,0l-4.7,4.8c-0.7,0.7-0.4,2,0.6,2.2l5.5,1.4C14.8,42.5,15.7,41.5,15.4,40.5z M12.4,39.7
			l-1.7-0.2c-0.4,0-0.6-0.6-0.3-0.8l1.8-1.4l0.5,2.1C12.8,39.5,12.7,39.7,12.4,39.7z"/>
		<path class="st5" d="M15.4,40.3c-0.4-1.4-0.8-2.9-1.2-4.3c-0.4-1.4-0.8-2.9-1.2-4.3c0.4,1.4,0.8,2.9,1.2,4.3
			C14.6,37.4,15,38.8,15.4,40.3z"/>
	</g>
	<g>
		<g>
			<g>
				<path class="st6" d="M30.4,33.9h-0.2c-0.3,0-0.6,0.2-0.6,0.6v0.8c0,0.3,0.2,0.6,0.6,0.6h0.2c0.3,0,0.6-0.2,0.6-0.6v-0.8
					C30.9,34.1,30.7,33.9,30.4,33.9z"/>
				<path class="st6" d="M30.4,36.2h-0.2c-0.3,0-0.6,0.2-0.6,0.6v4.5c0,0.3,0.2,0.6,0.6,0.6h0.2c0.3,0,0.6-0.2,0.6-0.6v-4.5
					C30.9,36.4,30.7,36.2,30.4,36.2z"/>
				<path class="st6" d="M35,36.1c-0.3,0-1,0-1.6,0.4c-0.1-0.2-0.3-0.3-0.5-0.3h-0.2c-0.3,0-0.6,0.2-0.6,0.6c0,0,0,0.1,0,0.2
					c0,0.2,0,0.6,0,0.9v3.4c0,0.3,0.2,0.6,0.6,0.6h0.2c0.3,0,0.6-0.2,0.6-0.6v-2.5c0-0.6,0.4-1.4,1.5-1.4c0.7,0,1.1,0.3,1.1,1v2.8
					c0,0.3,0.2,0.6,0.6,0.6h0.2c0.3,0,0.6-0.2,0.6-0.6v-2.9C37.4,37,36.4,36.1,35,36.1z"/>
				<path class="st6" d="M39.4,36.2h-0.2c-0.3,0-0.6,0.2-0.6,0.6v4.5c0,0.3,0.2,0.6,0.6,0.6h0.2c0.3,0,0.6-0.2,0.6-0.6v-4.5
					C40,36.4,39.7,36.2,39.4,36.2z"/>
				<path class="st6" d="M39.4,33.9h-0.2c-0.3,0-0.6,0.2-0.6,0.6v0.8c0,0.3,0.2,0.6,0.6,0.6h0.2c0.3,0,0.6-0.2,0.6-0.6v-0.8
					C40,34.1,39.7,33.9,39.4,33.9z"/>
				<path class="st6" d="M47.4,36.1c-0.9,0-1.5,0.3-1.9,0.6c-0.4-0.4-1-0.6-1.7-0.6c-0.6,0-1.1,0.1-1.4,0.4
					c-0.1-0.2-0.3-0.2-0.5-0.2h-0.2c-0.2,0-0.3,0.1-0.4,0.2s-0.2,0.3-0.2,0.4c0,0.2,0,0.6,0,1v3.5c0,0.3,0.2,0.6,0.6,0.6H42
					c0.3,0,0.6-0.2,0.6-0.6v-2.5c0-0.9,0.5-1.4,1.3-1.4c0.7,0,1,0.3,1,0.9v2.9c0,0.3,0.2,0.6,0.6,0.6h0.2c0.3,0,0.6-0.2,0.6-0.6
					v-2.8c0-0.7,0.5-1.1,1.3-1.1c0.7,0,1,0.3,1,1v2.9c0,0.3,0.2,0.6,0.6,0.6h0.2c0.3,0,0.6-0.2,0.6-0.6v-2.9
					C49.8,36.9,48.8,36.1,47.4,36.1z"/>
				<path class="st6" d="M53.8,36.1c-1.8,0-3,1.2-3,2.9c0,1.7,1.2,2.9,2.9,2.9c1.8,0,3-1.2,3-2.9C56.7,37.3,55.5,36.1,53.8,36.1z
					 M53.7,40.6c-1.2,0-1.6-0.9-1.6-1.6c0-0.8,0.4-1.7,1.6-1.7c1.2,0,1.6,0.9,1.6,1.7C55.4,40,54.8,40.6,53.7,40.6z"/>
				<path class="st6" d="M62.6,36.4c-0.1-0.2-0.3-0.3-0.5-0.3h-0.2c-0.2,0-0.4,0.1-0.5,0.3c-0.6,1.2-1,2.1-1.3,2.8
					c-0.1,0.2-0.2,0.4-0.3,0.5c-0.1-0.2-0.3-0.5-0.4-0.9c-0.3-0.6-0.7-1.4-1.2-2.4c-0.1-0.2-0.3-0.3-0.5-0.3h-0.2
					c-0.2,0-0.4,0.1-0.5,0.3c-0.1,0.2-0.1,0.4,0,0.5l2.1,4.3c-0.6,1.2-0.8,1.2-1.2,1.2c-0.2,0-0.3,0-0.3,0c-0.2,0-0.3,0-0.4,0.1
					C57.1,42.7,57,42.9,57,43l0,0.2c0,0.3,0.2,0.6,0.4,0.6c0.2,0,0.4,0,0.5,0c1.3,0,1.8-0.9,2.5-2.3l2.2-4.5
					C62.8,36.8,62.7,36.6,62.6,36.4z"/>
			</g>
		</g>
		<path class="st6" d="M27.8,37.7c0.1-0.2,0.2-0.5,0.2-0.8v-1.3c0-1-0.9-1.7-2-1.7l-3.8,0c-0.4,0-0.6,0.3-0.6,0.7v1.3v3.9v1.3
			c0,0.4,0.3,0.7,0.6,0.7l4,0c0,0,0,0,0,0c0.5,0,1-0.2,1.4-0.4c0.4-0.3,0.7-0.8,0.7-1.3v-1.3C28.3,38.3,28.1,38,27.8,37.7z
			 M22.9,35.2l3.1,0c0.5,0,0.8,0.2,0.8,0.4v1.3c0,0-0.1,0.2-0.3,0.2c0,0,0,0-0.1,0h-3.5v-1.3V35.2z M27,40c0,0.1-0.1,0.2-0.2,0.2
			c-0.2,0.1-0.4,0.2-0.6,0.2c0,0,0,0,0,0l-3.3,0v-0.7v-1.3h3.5c0.3,0,0.6,0.2,0.6,0.3V40z"/>
	</g>
</g>
</svg>
