<?xml version="1.0" encoding="utf-8"?>
<!-- Generator: Adobe Illustrator 25.2.1, SVG Export Plug-In . SVG Version: 6.00 Build 0)  -->
<svg version="1.1" id="Layer_1" xmlns="http://www.w3.org/2000/svg" xmlns:xlink="http://www.w3.org/1999/xlink" x="0px" y="0px"
	 viewBox="0 0 200 200" style="enable-background:new 0 0 200 200;" xml:space="preserve">
<style type="text/css">
	.st0{fill:#0071BB;}
	.st1{fill:#FFFFFF;}
	.st2{fill:#E5A812;}
	.st3{fill:#1983BE;}
	.st4{fill:#6599C9;}
	.st5{fill:#95B4D9;}
	.st6{fill:#C7D5E4;}
</style>
<g>
	<g>
		<path class="st0" d="M180,138.3c0,11.9-9.7,21.6-21.6,21.6H41.6c-11.9,0-21.6-9.7-21.6-21.6V21.6C20,9.7,29.8,0,41.6,0h116.8
			C170.2,0,180,9.7,180,21.6V138.3z"/>
		<g>
			<rect x="64.4" y="34.5" class="st1" width="69.9" height="69.9"/>
			<path class="st0" d="M120.8,52.6c-10.5,15.8-25.8,36.7-54.3,35V36.7h63.9C130.5,36.7,126.7,43.7,120.8,52.6"/>
			<path class="st2" d="M66.6,91.4v10.8h65.6V37.5C132.1,37.5,111.1,95.6,66.6,91.4"/>
			<path class="st3" d="M88.8,54.1c-8.8,0-16,7.1-16,16c0,7.3,4.9,13.4,11.6,15.3c8-2.6,14.6-7.1,20.2-12.5c0.2-0.9,0.3-1.9,0.3-2.9
				C104.9,61.3,97.7,54.1,88.8,54.1"/>
			<path class="st4" d="M100.9,70.1c0,6.6-5.4,12-12.1,12c-6.6,0-12-5.4-12-12c0-6.6,5.4-12,12-12C95.5,58.1,100.9,63.5,100.9,70.1"
				/>
			<path class="st5" d="M96.9,70.1c0,4.4-3.6,8-8,8c-4.4,0-8-3.5-8-8c0-4.4,3.6-8,8-8C93.2,62.1,96.9,65.7,96.9,70.1"/>
			<path class="st6" d="M92.8,70.1c0,2.2-1.8,4-4,4c-2.2,0-4-1.8-4-4c0-2.2,1.8-4,4-4C91,66.1,92.8,67.9,92.8,70.1"/>
		</g>
		<g>
			<path class="st1" d="M67,22.1h1.3c0.5,0,0.8,0.1,0.9,0.2c0.2,0.1,0.3,0.3,0.3,0.6c0,0.3-0.1,0.5-0.3,0.6
				c-0.2,0.2-0.5,0.2-0.9,0.2H67V22.1z M64.4,25.5h4.4c0.2,0,0.6,0,1.1-0.1c0.4-0.1,0.8-0.1,1-0.3c0.3-0.2,0.6-0.5,0.8-0.8
				c0.2-0.3,0.3-0.7,0.3-1.1c0-0.5-0.1-0.9-0.4-1.3c-0.3-0.3-0.7-0.6-1.3-0.7c0.4-0.1,0.7-0.3,0.9-0.5c0.3-0.3,0.5-0.8,0.5-1.2
				c0-0.6-0.2-1-0.6-1.4c-0.4-0.4-1-0.6-1.8-0.6h-4.8V25.5z M67,19h1.1c0.4,0,0.7,0.1,0.8,0.2c0.2,0.1,0.2,0.3,0.2,0.5
				c0,0.3-0.1,0.4-0.2,0.6c-0.2,0.1-0.4,0.2-0.8,0.2H67V19z"/>
			<path class="st1" d="M75.1,25.5v-3.3h0.2c0.2,0,0.4,0.1,0.6,0.2c0.1,0.1,0.3,0.3,0.5,0.6l1.4,2.5h2.9l-1.2-2.3
				c-0.1-0.1-0.2-0.3-0.4-0.5c-0.2-0.2-0.3-0.4-0.4-0.4c-0.1-0.1-0.4-0.2-0.7-0.3c0.4-0.1,0.7-0.2,0.9-0.3c0.3-0.2,0.6-0.5,0.8-0.8
				c0.2-0.3,0.3-0.7,0.3-1.2c0-0.5-0.1-0.9-0.4-1.3c-0.3-0.4-0.6-0.6-1-0.7c-0.4-0.1-1-0.2-1.8-0.2h-4.3v8.1H75.1z M75.1,19h1.1
				c0.5,0,0.8,0.1,0.9,0.2c0.2,0.1,0.3,0.3,0.3,0.6c0,0.2-0.1,0.3-0.2,0.5c-0.1,0.1-0.2,0.2-0.4,0.3c-0.3,0.1-0.6,0.1-0.7,0.1h-1.1
				V19z"/>
			<path class="st1" d="M87.1,25.5h2.7l-3.1-8.1h-2.8l-3.1,8.1h2.6l0.4-1.3h2.9L87.1,25.5z M84.3,22.4l0.9-2.9l0.9,2.9H84.3z"/>
			<path class="st1" d="M95.2,22.1l2.2,0.6c-0.2,0.6-0.4,1.1-0.7,1.5c-0.3,0.4-0.7,0.7-1.2,0.9c-0.5,0.2-1.1,0.3-1.8,0.3
				c-0.9,0-1.6-0.1-2.2-0.4c-0.6-0.2-1.1-0.7-1.5-1.3c-0.4-0.6-0.6-1.4-0.6-2.4c0-1.3,0.4-2.3,1.1-3c0.7-0.7,1.8-1,3.1-1
				c1,0,1.9,0.2,2.4,0.6c0.6,0.4,1,1,1.3,1.8l-2.3,0.5c-0.1-0.2-0.2-0.4-0.2-0.5c-0.1-0.2-0.3-0.3-0.5-0.4c-0.2-0.1-0.4-0.2-0.7-0.2
				c-0.6,0-1,0.2-1.3,0.7c-0.2,0.3-0.3,0.8-0.3,1.5c0,0.9,0.1,1.5,0.4,1.8c0.3,0.3,0.7,0.5,1.2,0.5c0.5,0,0.9-0.1,1.1-0.4
				C94.9,23,95.1,22.6,95.2,22.1"/>
			<path class="st1" d="M102.8,22.1h1.3c0.5,0,0.8,0.1,0.9,0.2c0.2,0.1,0.3,0.3,0.3,0.6c0,0.3-0.1,0.5-0.3,0.6
				c-0.2,0.2-0.5,0.2-0.9,0.2h-1.3V22.1z M100.2,25.5h4.4c0.2,0,0.6,0,1.1-0.1c0.4-0.1,0.8-0.1,1-0.3c0.3-0.2,0.6-0.5,0.8-0.8
				c0.2-0.3,0.3-0.7,0.3-1.1c0-0.5-0.1-0.9-0.4-1.3c-0.3-0.3-0.7-0.6-1.3-0.7c0.4-0.1,0.7-0.3,0.9-0.5c0.3-0.3,0.5-0.8,0.5-1.2
				c0-0.6-0.2-1-0.6-1.4c-0.4-0.4-1-0.6-1.8-0.6h-4.8V25.5z M102.8,19h1.1c0.4,0,0.7,0.1,0.8,0.2c0.2,0.1,0.2,0.3,0.2,0.5
				c0,0.3-0.1,0.4-0.2,0.6c-0.2,0.1-0.4,0.2-0.8,0.2h-1.1V19z"/>
			<path class="st1" d="M113.8,25.5h2.7l-3.1-8.1h-2.8l-3.1,8.1h2.6l0.4-1.3h2.9L113.8,25.5z M111,22.4l0.9-2.9l0.9,2.9H111z"/>
			<polygon class="st1" points="116.6,17.4 119,17.4 122.1,21.9 122.1,17.4 124.5,17.4 124.5,25.5 122.1,25.5 119,21 119,25.5 
				116.6,25.5 			"/>
			<polygon class="st1" points="125.5,17.4 128.1,17.4 128.1,20.4 130.8,17.4 134.2,17.4 131.2,20.4 134.3,25.5 131.2,25.5 
				129.4,22.2 128.1,23.5 128.1,25.5 125.5,25.5 			"/>
		</g>
		<g>
			<path class="st1" d="M134.9,115c-1.5-0.8-5.5-1.4-5.7-1.4h-0.1c-0.7,0-1.4,0.2-1.8,0.7c-0.8,0.8-0.8,1.9-0.8,2.4c0,0,0,0.3,0,0.7
				c-0.7-0.9-1.5-1.6-2.4-2.1c-3.2-1.7-6.7-0.5-7.4-0.3c-0.1,0-0.1,0.2-0.2,0.3c-5.5-4.1-10.5-0.3-11.7,0.7c-1-0.5-2.8-1.4-3.4-1.6
				l-0.2-0.1c-1.4-0.9-2.4-0.6-2.9-0.3c-1.1,0.6-1.3,2-1.3,2.6c-1.2-1.8-2.4-2.9-3.6-3c-1-0.2-1.6,0.3-1.9,0.5c-0.1,0-0.2,0-0.2,0
				l-0.1,0l-0.1,0.1c-1.7,1.4-2.7,10.4-3.2,16.2c-0.9-0.5-1.8-1.1-2.8-1.6c0.8-1.4,1.5-3.1,1.9-5.1c0-0.3,1.3-7.9-4.2-9.6l0,0h0
				c-0.9-0.2-3.8-0.5-6.2,1.2c-1.7,1.2-2.7,3-3,5.5c0,0-0.1,2.6,1.6,4.1c1,0.9,2.3,1.2,3.9,0.9c0.3,0,0.6-0.2,0.8-0.5
				c0.2-0.3,0.3-0.6,0.2-1c0-0.3-0.2-0.6-0.5-0.8c-0.3-0.2-0.6-0.3-1-0.2c-0.5,0.1-1.3,0.1-1.8-0.3c-0.5-0.5-0.7-1.3-0.7-1.9
				c0.2-1.7,0.9-2.9,1.9-3.6c1.4-1,3.3-0.9,4.1-0.8c2.1,0.7,2.5,3.1,2.5,5c0,0.6,0,1.2-0.1,1.7c-0.4,1.9-1,3.5-1.8,4.8l-0.9,1.2
				l-0.1,0.2c-2.2,2.3-4.6,2.2-4.7,2.2c-9.4-1.2-10-17.4-10-17.6c0-0.7-0.6-1.3-1.3-1.2c-0.4,0-0.7,0.1-0.9,0.4
				c-0.2,0.2-0.4,0.6-0.3,0.9c0,0.7,0.5,18.6,12.3,20.1h0.1c0.7,0,4.1,0,6.9-3.1c2.4,1.3,4.1,2.3,4.3,2.6c0.3,0.4,0.9,0.6,1.4,0.5
				c0.5-0.2,0.9-0.6,0.9-1.1c0.6-9,1.8-16,2.4-16.7c0.1-0.1,0.2-0.1,0.3-0.1c0,0,0.4,0.1,1.1,0.8c0.6,0.8,1.6,2.2,2.8,4.9l-0.3,12.1
				c0,0.7,0.6,1.3,1.2,1.3c0.3,0,0.7-0.1,0.9-0.4c0.2-0.2,0.4-0.5,0.4-0.9l0.3-11.3l0-1.2l0.1-4.5c0-0.2,0-0.5,0.1-0.6
				c0.1,0,0.3,0.1,0.6,0.3l0.1,0c0.7,0.3,2.4,1.1,3.5,1.7c-0.1,0.6-0.2,1.2-0.2,1.8c0,1.9,0.6,3.5,1.8,4.6c0.3,0.4,0.7,1.1,1.1,1.8
				c0,0,0.4,0.8,0.4,0.8c0.2,0.4,0.2,0.6,0.2,0.6c0,0.6-0.2,1.7-0.7,2c-0.5,0.3-1.6,0-3-0.8c-0.6-0.3-1.4-0.2-1.7,0.4
				c-0.4,0.6-0.2,1.4,0.4,1.8c2.3,1.4,4.2,1.7,5.6,0.8c1.9-1.1,2-3.5,1.9-4.3v0c0,0,0,0,0,0c0-0.5-0.2-1.1-0.6-1.9
				c0.1-0.6,0.3-1.3,0.9-1.4c0,0,2.7-0.5,4.4,2.6c0.1,0.2,0.4,0.4,0.6,0.5c-0.1,0.2-0.1,0.5-0.1,0.7c-1.3,0.6-2.2,1.4-2.6,2.4
				c-1,2.2,0.5,4.5,0.5,4.5c0,0.1,0.1,0.1,0.2,0.2c1.1,1.1,2.2,1.3,3,1.2c2.1-0.2,3.3-2.3,3.3-2.3c0.2-0.2,0.2-0.6,0.1-0.9
				c-0.1-0.3-0.3-0.6-0.5-0.8c-0.6-0.4-1.4-0.2-1.7,0.4c-0.3,0.4-0.9,1.1-1.4,1.2c-0.2,0-0.5-0.1-0.8-0.4c-0.1-0.2-0.4-0.7-0.4-1.3
				c0-0.2,0-0.5,0.1-0.7c0.3-0.8,1.6-1.4,3.4-1.8c0.4,0,3,0,4.2,1.5c0.9,1.1,1,2.7,0.4,4.9c0,0-1.1,2.6-6.8,2.6
				c-1.9,0-4.3-0.3-7.3-1c-0.4-0.1-0.9,0-1.2,0.3c-0.3,0.3-0.5,0.8-0.3,1.2c0.1,0.5,3.5,11.5,25.3,7.7c0.7-0.1,1.2-0.8,1-1.4
				c-0.1-0.7-0.8-1.2-1.5-1c-13.4,2.3-18.9-1.3-21-3.8c11.8,2.1,14.1-3.2,14.3-3.8c0.9-3.1,0.6-5.5-0.8-7.2
				c-2.1-2.6-5.7-2.5-6.5-2.5l0,0h0c1-3.6,0.3-7.8-0.2-10.1c0.1,0,0.1,0,0.2,0h0c0,0,0.1,0,0.1,0c0.5-0.2,3.1-1,5.2,0.2
				c1.6,0.8,2.7,2.5,3.3,5.1c0,0.1,0.2,0.3,0.3,0.4l0,11.3c0,0.7,0.5,1.2,1.2,1.3c0.7,0,1.3-0.6,1.3-1.3l0.1-17.6
				c0-0.2,0-0.5,0.1-0.6c1.8,0.3,3.9,0.8,4.6,1.1c0.3,0.2,0.6,0.2,0.9,0.1c0.3-0.1,0.6-0.3,0.8-0.6
				C135.8,116.1,135.5,115.4,134.9,115z M115.5,124.5c-2-2.4-4.7-2.7-6-2.5c-0.8,0.1-1.4,0.6-2,1.3c0,0-0.1-0.1-0.1-0.1
				c-0.1-0.1-0.1-0.2-0.2-0.2l0,0l0,0c-1.7-1.5-0.9-4.3-0.8-4.8l0,0l0-0.1c0,0,0,0,0-0.1c0.9-0.8,4.3-3.5,8.2-0.8
				c0.3,1.2,0.9,3.7,0.9,6.4C115.6,123.8,115.5,124.1,115.5,124.5z"/>
		</g>
	</g>
	<g>
		<path class="st0" d="M26.1,199.4c-1.1-0.7-1.9-1.3-2.2-1.9c-0.4-0.5-0.2-1,0.5-1.5c0.2-0.1,0.4,0,0.8,0.3c0.3,0.3,0.6,0.5,0.9,0.8
			c1,1,2.5,1.2,4.5,0.7c1.1-0.3,2-0.8,2.8-1.4c0.8-0.6,1.6-1.3,2.3-2.2c0.5-0.7,0.9-1.5,1.1-2.3c0.2-0.8,0.3-1.6,0.3-2.3
			c0-0.7-0.2-1.2-0.4-1.5c-0.6-0.9-1.5-1.5-2.7-1.9c-1.1-0.3-2.5-0.3-4,0.1c-0.2,0-0.5,0.1-0.8,0.2c-0.4,0.1-0.7,0.1-1,0.2
			c-0.3,0.1-0.4,0.1-0.5,0.1c-0.2,0.1-0.3,0.1-0.4,0.2c-0.1,0.1-0.2,0.3-0.4,0.6c-0.1,0.3-0.4,0.9-0.6,1.7c-0.3,0.8-0.7,2-1.3,3.6
			c-0.5,1.6-1,2.7-1.3,3.3c-0.3,0.7-0.6,1-0.9,0.9c-0.2-0.1-0.5-0.3-0.9-0.8c-0.2-0.4-0.3-0.7-0.4-1.1c-0.1-0.3,0.1-0.8,0.3-1.2
			c0.1-0.2,0.2-0.4,0.3-0.6c0.1-0.2,0.2-0.5,0.3-1c0.1-0.4,0.4-1.1,0.8-2c0.4-1,0.8-2.1,1.3-3.4c0.5-1.3,1.1-2.7,1.6-4
			c0.6-1.4,1.1-2.7,1.6-3.9c0.5-1.2,1-2.3,1.3-3.1c0.4-0.8,0.6-1.4,0.7-1.7c0.1-0.4,0.1-0.6-0.1-0.6c0-0.1,0-0.3-0.1-0.4
			c-0.1-0.1-0.1-0.2-0.1-0.3c0-0.1,0.2-0.2,0.5-0.4c0.3-0.2,0.7-0.3,1.2-0.5c0.4-0.2,0.8-0.2,1-0.2c0.1,0,0.3,0,0.5,0
			c0.2,0,0.3-0.1,0.3-0.2c0.1,0,0.3,0,0.7-0.1c0.4-0.1,0.9-0.1,1.4,0c1.7,0.2,3.1,0.7,4,1.5c1,0.8,1.4,2,1.4,3.4
			c0,0.4-0.3,1-0.7,1.8c-0.4,0.7-0.9,1.5-1.5,2.2c-0.6,0.7-1.2,1.4-1.8,1.9c-0.3,0.3-0.7,0.6-1.1,0.9c-0.4,0.3-0.8,0.6-1.4,1
			c0.4,0.2,0.7,0.3,1,0.3c1.2,0.4,2.2,1,2.9,1.7c0.8,0.7,1.3,1.6,1.6,2.8c0.1,0.4,0.1,0.9,0,1.4c-0.1,0.6-0.2,1.1-0.4,1.7
			c-0.2,0.6-0.3,1-0.5,1.4c-0.2,0.2-0.4,0.5-0.6,0.9c0,0.1-0.1,0.3-0.3,0.6c-0.2,0.3-0.5,0.7-0.7,1.1c-0.3,0.4-0.6,0.8-0.8,1.1
			c-0.4,0.3-0.9,0.7-1.5,1.1c-0.6,0.4-1.2,0.8-2,1.1c-0.7,0.3-1.5,0.5-2.3,0.6c-0.8,0.1-1.6,0.1-2.4,0
			C27.2,199.8,26.6,199.7,26.1,199.4z M28,184.5c1-0.2,1.7-0.3,2.3-0.4c0.6-0.1,1-0.2,1.2-0.3c0.1-0.1,0.3-0.2,0.6-0.3
			c0.2-0.1,0.5-0.3,0.8-0.6c0.4-0.3,0.8-0.8,1.4-1.5c0.6-0.6,1.1-1.3,1.6-2c0.5-0.7,1-1.3,1.2-1.9c0.6-0.9,0.9-1.6,1-2.1
			c0.1-0.5-0.1-0.8-0.4-1.2c-0.2-0.3-0.6-0.5-1.2-0.6c-0.6-0.1-1.1-0.1-1.8-0.1c-0.6,0-1.1,0.1-1.6,0.3c-0.3,0.1-0.6,0.2-0.8,0.4
			c-0.2,0.1-0.3,0.4-0.3,0.6c0,0.2-0.1,0.5-0.2,0.7c-0.1,0.2-0.3,0.4-0.4,0.5c0,0.2-0.1,0.4-0.3,0.7c0,0.1-0.2,0.5-0.5,1.3
			c-0.4,0.7-0.7,1.6-1.1,2.6c-0.5,1.1-0.8,2-1.1,2.7C28.1,184,28,184.4,28,184.5z"/>
		<path class="st0" d="M42.4,195.8c-0.1-0.2-0.2-0.4-0.4-0.5c-0.2-0.1-0.2-0.2-0.2-0.3c0-0.1,0-0.2,0-0.3c0-0.1-0.1-0.2-0.2-0.3
			c-0.1-0.2-0.1-0.5,0-1.1c0.2-0.6,0.4-1.2,0.8-2.1c0.4-0.8,0.8-1.7,1.3-2.6c0.2-0.2,0.4-0.5,0.6-0.8c0.2-0.3,0.4-0.6,0.5-0.7
			c0-0.1,0-0.2,0.1-0.3c0.1-0.1,0.2-0.1,0.3-0.1v-0.2c0-0.1,0.1-0.3,0.4-0.7c0.2-0.3,0.5-0.7,0.9-1c0.4-0.4,0.7-0.7,1.1-1.1
			c0.4-0.3,0.7-0.6,1-0.8c0.5-0.4,1.1-0.6,1.7-0.7c0.6-0.1,1.1,0.1,1.5,0.4c0.1,0.1,0.3,0.3,0.7,0.6c0.3,0.3,0.7,0.7,1.1,1l1.4,1.3
			l-0.7,1.9c-0.3,1-0.4,1.9-0.3,2.7c0.2,0.8,0.4,1.4,0.8,2c0.1,0.3,0.4,0.6,0.8,0.8c0.4,0.3,0.8,0.4,1.1,0.5c0.2,0,0.4,0.1,0.6,0.2
			c0.2,0.1,0.3,0.3,0.3,0.6c0,0.5-0.2,0.8-0.7,0.9c-1.7,0.2-3.2-0.8-4.4-3.2c-0.1-0.2-0.2-0.4-0.4-0.9c-0.2-0.4-0.3-0.7-0.3-0.8
			c-0.1,0.1-0.3,0.4-0.6,0.7c-0.3,0.3-0.5,0.6-0.7,0.8C46.9,195.6,44.2,196.9,42.4,195.8z M44.7,193.6c0.6-0.2,1.2-0.5,1.8-1.1
			c0.9-0.7,1.8-1.6,2.7-2.5c0.9-0.9,1.6-1.7,2.1-2.5l0.9-1.4c-0.3-0.6-0.5-1-0.8-1.2c-0.3-0.2-0.5-0.3-0.8-0.3
			c-0.3,0-0.8,0.3-1.5,0.9c-0.7,0.6-1.4,1.4-2.1,2.5c-0.7,1-1.5,2.2-2.1,3.4c-0.3,0.5-0.6,1.3-1,2.2
			C43.8,193.8,44.1,193.8,44.7,193.6z"/>
		<path class="st0" d="M72.8,195.4c-0.5,0-0.9-0.1-1.3-0.3c-0.3-0.2-0.6-0.6-0.9-1.1c-0.1-0.4-0.2-0.8-0.3-1.2
			c-0.1-0.5-0.1-0.9-0.1-1.3c0-0.4,0-0.7,0.1-0.8c0.1-0.1,0.1-0.3,0.1-0.6c0-0.3,0-0.6,0-0.9c0-0.5-0.1-0.8-0.4-0.9
			c-0.2-0.1-0.5,0-0.9,0.3c-0.5,0.3-1.1,0.7-1.8,1.1c-0.7,0.5-1.5,1-2.3,1.6c-0.8,0.6-1.6,1.2-2.3,1.8c-0.6,0.6-0.9,1.1-1,1.4
			c-0.1,0.3-0.3,0.5-0.5,0.5c-0.2,0.1-0.4,0.1-0.5,0c-0.1-0.1-0.3-0.2-0.6-0.4c-0.2-0.2-0.4-0.4-0.5-0.6c-0.2-0.2-0.3-0.3-0.3-0.4
			c0-0.1,0-0.4,0.1-0.8c0.1-0.4,0.2-0.8,0.3-1.2c0.1-0.4,0.2-0.7,0.3-0.8c0.1,0,0.2-0.1,0.3-0.4c0.1-0.3,0.2-0.5,0.4-0.9
			c0.1-0.3,0.2-0.7,0.4-1.3c0.2-0.5,0.4-1,0.6-1.4c0.4-0.6,0.6-1.1,0.8-1.5c0.1-0.4,0.2-0.9,0.3-1.5c0-0.1,0-0.2,0.1-0.3
			c0.1-0.1,0.2-0.1,0.3-0.1c0.2-0.2,0.5-0.3,0.7-0.2c0.3,0.1,0.5,0.3,0.8,0.6c0.5,0.6,0.7,1.3,0.6,1.9c-0.1,0.7-0.5,1.6-1.3,2.8
			c-0.2,0.4-0.3,0.7-0.4,0.9c-0.1,0.2-0.1,0.4-0.1,0.5c0.5-0.4,1-0.7,1.3-0.9c0.3-0.2,0.6-0.4,0.8-0.6c0.1-0.1,0.4-0.4,0.9-0.7
			c0.5-0.3,1-0.7,1.5-1c0.5-0.3,0.9-0.5,1.2-0.6c0.2-0.1,0.4-0.2,0.7-0.3c0.2-0.1,0.4-0.1,0.5-0.1c0.2,0,0.5,0.1,0.8,0.3
			c0.3,0.2,0.6,0.5,0.9,0.8c0.3,0.3,0.5,0.5,0.5,0.8c0,0.1,0,0.2,0,0.3c0,0.1,0,0.2,0.1,0.3c0.1,0.3,0.2,0.8,0.2,1.4
			c0,0.6,0,1.1-0.1,1.5c-0.1,0.5-0.1,0.7-0.3,0.8c0,0.1,0.1,0.2,0.2,0.2v0.2c-0.1,0-0.2,0.1-0.2,0.3c0,0.2,0.1,0.5,0.3,0.7
			c0.1,0.3,0.3,0.5,0.4,0.6c0.3,0.3,0.4,0.6,0.4,0.9C73.4,195.1,73.2,195.3,72.8,195.4z"/>
		<path class="st0" d="M76.8,196.3c-0.3-0.2-0.5-0.3-0.6-0.5c-0.1-0.2-0.2-0.4-0.2-0.7c0.1-0.4,0.1-0.8,0.2-1.2
			c0.1-0.4,0.2-0.8,0.4-1.3c0.1-0.5,0.2-0.9,0.3-1.4c0.1-0.5,0.3-0.9,0.6-1.3c0.3-1,0.7-1.9,1-2.8c0.4-0.9,0.7-1.9,0.9-3
			c0.4-0.9,0.7-1.8,1.1-2.5c0.3-0.7,0.7-1.7,1.2-2.8c0.3-0.6,0.5-1.3,0.7-2c0.2-0.7,0.5-1.4,0.9-2c0.2-0.2,0.3-0.4,0.4-0.6
			c0.1-0.2,0.2-0.3,0.3-0.5c0.1-0.2,0.2-0.2,0.5-0.2c0.3,0.1,0.5,0.2,0.6,0.3c0.1,0,0.3,0.1,0.5,0.5c0.2,0.4,0.2,0.6,0.2,0.9
			c0,0.3-0.1,0.6-0.3,0.9c-0.1,0.1-0.2,0.3-0.3,0.4c-0.1,0.2-0.3,0.4-0.5,0.8c-0.1,0.3-0.2,0.7-0.3,1c-0.1,0.3-0.2,0.6-0.3,0.9
			c-0.1,0.3-0.3,0.6-0.4,0.9c-0.2,0.3-0.3,0.5-0.3,0.7c-0.2,0.6-0.5,1.2-0.8,1.7c-0.3,0.6-0.5,1.1-0.7,1.8c-0.2,0.5-0.4,1-0.5,1.6
			c-0.2,0.5-0.4,1.1-0.7,1.6c0.1-0.2,0.2-0.3,0.3-0.3c0.1-0.1,0.2-0.1,0.2-0.2c0.1-0.1,0.2-0.2,0.4-0.4c0.2-0.2,0.4-0.3,0.6-0.5
			c0.4-0.3,0.9-0.6,1.4-0.9c0.5-0.4,1-0.8,1.5-1.1c0.5-0.4,0.9-0.7,1.3-1c0.3-0.3,0.6-0.5,0.6-0.5c0.1-0.1,0.2-0.2,0.3-0.2
			c0.1,0,0.3,0,0.6,0.1c0.3,0.1,0.5,0.2,0.6,0.4c0.1,0.2,0.2,0.5,0.2,0.9c0.1,0.3,0,0.6-0.3,0.9c-0.3,0.3-0.7,0.7-1.3,1.1
			c-0.2,0.1-0.5,0.3-0.8,0.6c-0.3,0.3-0.7,0.5-0.9,0.7c-0.2,0.1-0.4,0.3-0.8,0.5s-0.7,0.5-0.9,0.7c-0.2,0.1-0.4,0.3-0.7,0.5
			c-0.3,0.3-0.5,0.5-0.8,0.7c0.1,0.2,0.2,0.3,0.3,0.4c0.1,0.1,0.2,0.2,0.2,0.3c0.6,0.9,1.1,1.6,1.4,2.1c0.3,0.5,0.7,1,0.9,1.3
			c0.3,0.3,0.6,0.6,0.9,0.9c0.3,0.3,0.7,0.5,1.2,0.8c0.1,0.1,0.2,0.1,0.2,0.2c0.1,0.1,0.1,0.3,0.1,0.5c-0.1,0.3-0.2,0.5-0.3,0.5
			c-0.1,0.1-0.5,0.2-1,0.3c-0.4-0.1-0.7-0.1-0.9-0.3c-0.2-0.1-0.6-0.4-1.2-0.8c-0.3-0.3-0.7-0.7-1.1-1.3c-0.5-0.6-1-1.2-1.5-1.8
			c-0.5-0.7-0.9-1.3-1.3-1.8c-0.1,0-0.2-0.2-0.3-0.4c-0.2,0.5-0.3,0.9-0.5,1.3c-0.1,0.4-0.2,0.6-0.2,0.7c-0.2,0.6-0.3,1.1-0.4,1.7
			c-0.1,0.6-0.3,1-0.5,1.5c0,0.4-0.1,0.6-0.3,0.8C77.5,196.6,77.2,196.6,76.8,196.3z"/>
		<path class="st0" d="M102.1,199.1c-0.5-0.1-1-0.3-1.5-0.5c0.1-0.1,0-0.2-0.1-0.3c-0.1-0.1-0.3-0.2-0.6-0.2
			c-0.6-0.4-1.1-0.8-1.5-1.4c-0.4-0.6-0.7-1-0.8-1.4c-0.2-0.4-0.3-0.6-0.3-0.7c0-0.1,0.2-0.2,0.4-0.3c0.3-0.2,0.5-0.3,0.6-0.2
			c0.1,0.1,0.3,0.3,0.5,0.8c0.3,0.6,0.9,1,1.7,1.4c0.8,0.3,1.7,0.4,2.7,0.4c1,0,2-0.3,2.9-0.7c1-0.4,1.6-0.8,1.8-1.2
			c0.2-0.4,0.1-1-0.3-1.6c-0.1-0.2-0.2-0.4-0.3-0.5c-0.1-0.1-0.3-0.3-0.5-0.5c-0.2-0.2-0.6-0.5-1.1-1c-0.4-0.2-0.7-0.3-1.1-0.5
			c-0.3-0.2-0.7-0.3-1-0.5c-0.4-0.2-0.9-0.5-1.5-0.9c-0.6-0.4-1.1-0.8-1.6-1.3c-0.5-0.5-0.9-0.9-1.1-1.4c-0.4-0.4-0.7-0.9-0.9-1.6
			c-0.2-0.7-0.3-1.4-0.2-2.2c0.1-0.8,0.2-1.5,0.6-2.1c0.2-0.4,0.4-0.8,0.8-1.3c0.4-0.5,0.8-1.1,1.3-1.6c0.5-0.5,0.9-1,1.4-1.5
			c0.4-0.4,0.8-0.7,1.1-0.9c0.2-0.2,0.5-0.5,1-1c0-0.1,0.1-0.2,0.2-0.2c0.1-0.1,0.4-0.2,0.9-0.4c0.4-0.2,0.9-0.5,1.4-1
			c1.7-0.8,3.1-1.4,4.2-1.8c1.1-0.4,2-0.6,2.7-0.6c1,0.1,1.8,0.4,2.5,0.9c0.7,0.6,1.1,1.3,1.2,2.2c0.2,0.6,0.1,1.3-0.2,2.1
			c-0.3,0.8-0.7,1.6-1.3,2.3c-0.6,0.7-1.2,1.2-1.8,1.6c-0.7,0.3-1.2,0.4-1.5,0.4c-0.2,0-0.4-0.3-0.3-0.8c0-0.2,0.1-0.5,0.2-0.7
			c0.1-0.3,0.5-0.8,1.2-1.5c0.8-1.2,1.3-2.2,1.5-2.9c0.2-0.7,0-1.1-0.5-1.2c-0.2-0.1-0.4-0.1-0.8,0c-0.4,0.1-0.8,0.1-1.3,0.2
			c-0.5,0.1-0.9,0.2-1.2,0.3c-0.3,0.1-0.5,0.2-0.5,0.2c0,0.2-0.1,0.2-0.2,0.2c-0.1,0-0.3,0.1-0.7,0.3c-0.4,0.2-0.9,0.5-1.4,0.8
			c-0.5,0.3-1.1,0.7-1.6,1c-0.5,0.3-1,0.6-1.4,0.9s-0.6,0.4-0.6,0.4c-0.1,0.3-0.3,0.5-0.9,0.8c-0.5,0.3-1,0.8-1.4,1.4
			c-0.4,0.6-0.9,1.3-1.4,2.2c-0.4,0.6-0.7,1.2-0.9,1.9c-0.2,0.7-0.2,1.2,0,1.6c0.1,0.4,0.5,0.9,1.2,1.6c0.7,0.6,1.5,1.3,2.5,1.9
			c1.3,0.7,2.4,1.4,3.3,2.1c0.9,0.7,1.5,1.3,1.7,1.8c0.5,0.6,0.7,1.3,0.8,2c0.1,0.7,0.1,1.3-0.1,1.8c-0.2,0.4-0.5,0.8-0.9,1.3
			c-0.5,0.4-0.8,0.6-1.1,0.6c-0.3,0.1-0.5,0.2-0.6,0.3c-0.1,0.1-0.3,0.2-0.5,0.3c-0.2,0.1-0.6,0.2-1.1,0.3c-0.6,0.1-1.2,0.2-1.9,0.2
			C103.3,199.1,102.7,199.1,102.1,199.1z"/>
		<path class="st0" d="M132.4,195.6c-0.1-0.1-0.3-0.2-0.6-0.4c-0.3-0.2-0.5-0.6-0.7-1.1c-0.2-0.5-0.3-1.2-0.3-2.1
			c0-0.8,0-1.4,0.1-1.8c0-0.4-0.1-0.7-0.3-0.7c-0.2,0-0.6,0.2-1.2,0.6c-0.6,0.4-1.2,0.9-2,1.6c-0.7,0.7-1.5,1.4-2.3,2.2
			c-0.4,0.4-0.8,0.8-1.1,1.1c-0.3,0.3-0.7,0.3-1.2-0.1l-0.4-0.3c-0.2-0.2-0.3-0.5-0.2-0.9l0.9-2.6c0.4-0.9,0.7-1.6,0.9-2
			c0.2-0.4,0.2-0.7,0.2-0.8c0-0.1,0-0.2-0.1-0.1c-0.2,0-0.5,0.1-0.9,0.4c-0.4,0.2-0.7,0.4-0.8,0.6c-0.1,0-0.3,0.1-0.5,0.3
			c-0.2,0.2-0.5,0.5-0.8,0.7c-0.2,0.3-0.5,0.7-1.1,1.2c-0.5,0.5-1.1,1-1.6,1.5c-0.3,0.3-0.7,0.6-1,1c-0.3,0.4-0.6,0.8-0.8,1.1
			c-0.2,0.3-0.4,0.5-0.4,0.5c-0.3,0-0.6-0.1-0.9-0.3c-0.3-0.2-0.5-0.5-0.6-0.9c-0.2-0.4-0.2-1.1,0-1.8c0.2-0.8,0.4-1.8,0.7-3.1
			c0.1-0.4,0.2-0.7,0.2-0.9c0-0.2,0.1-0.4,0.1-0.6c0.1-0.2,0.2-0.5,0.3-0.9c0.2-0.4,0.4-1,0.8-1.9c0.2-0.5,0.3-0.9,0.3-1.1
			c0-0.2,0.1-0.4,0.1-0.5c0-0.4,0.2-0.7,0.5-0.9c0.3-0.2,0.6-0.3,0.9-0.2c0.3,0.1,0.5,0.2,0.8,0.4c0.2,0.2,0.3,0.6,0.4,1
			c0,0.3,0,0.6-0.1,0.8c-0.1,0.2-0.2,0.5-0.2,0.7l-0.4,1c-0.1,0.3-0.3,0.7-0.5,1.2c-0.2,0.5-0.4,1-0.5,1.5c-0.2,0.5-0.2,0.7-0.2,0.8
			c0.1,0.1,0.2,0,0.5-0.3c0.3-0.3,0.7-0.6,1.1-0.9c0.5-0.5,1.2-1,1.8-1.5c0.7-0.5,1.3-0.9,2-1.2c0.6-0.3,1.1-0.6,1.4-0.7
			c0.4,0,0.7,0.1,0.9,0.2c0.2,0.2,0.5,0.4,0.9,0.9c0.2,0.2,0.3,0.4,0.3,0.7c0,0.3,0,0.6,0,0.8c0,0.1-0.1,0.4-0.2,0.8
			c-0.1,0.4-0.3,1-0.5,1.7c0.6-0.5,1.1-0.9,1.4-1.2c0.4-0.3,0.6-0.5,0.8-0.7c1-0.8,1.9-1.3,2.6-1.5c0.7-0.2,1.4,0.1,1.8,0.8
			c0.3,0.3,0.5,0.6,0.5,0.9c0,0.3,0,0.9,0,1.7c0,0.3,0.1,0.7,0.1,1.2c0,0.5,0.1,0.9,0.1,1.3c0,0.4,0.1,0.6,0.1,0.7
			c0.1,0.2,0.6,0.3,1.3,0.4c0.4,0.1,0.6,0.2,0.7,0.5c0.1,0.3-0.1,0.6-0.5,0.8c-0.4,0.2-0.8,0.3-1.3,0.3
			C133.1,195.8,132.7,195.7,132.4,195.6z"/>
		<path class="st0" d="M136.8,195.8c-0.1-0.2-0.2-0.4-0.4-0.5c-0.2-0.1-0.2-0.2-0.2-0.3c0-0.1,0-0.2,0-0.3c0-0.1-0.1-0.2-0.2-0.3
			c-0.1-0.2-0.1-0.5,0-1.1c0.2-0.6,0.4-1.2,0.8-2.1c0.4-0.8,0.8-1.7,1.3-2.6c0.2-0.2,0.4-0.5,0.6-0.8c0.2-0.3,0.4-0.6,0.5-0.7
			c0-0.1,0-0.2,0.1-0.3c0.1-0.1,0.2-0.1,0.3-0.1v-0.2c0-0.1,0.1-0.3,0.4-0.7c0.2-0.3,0.5-0.7,0.9-1c0.4-0.4,0.7-0.7,1.1-1.1
			c0.4-0.3,0.7-0.6,1-0.8c0.5-0.4,1.1-0.6,1.7-0.7c0.6-0.1,1.1,0.1,1.5,0.4c0.1,0.1,0.3,0.3,0.7,0.6c0.3,0.3,0.7,0.7,1.1,1l1.4,1.3
			l-0.7,1.9c-0.3,1-0.4,1.9-0.3,2.7c0.2,0.8,0.4,1.4,0.8,2c0.1,0.3,0.4,0.6,0.8,0.8c0.4,0.3,0.8,0.4,1.1,0.5c0.2,0,0.4,0.1,0.6,0.2
			c0.2,0.1,0.3,0.3,0.3,0.6c0,0.5-0.2,0.8-0.7,0.9c-1.7,0.2-3.2-0.8-4.4-3.2c-0.1-0.2-0.2-0.4-0.4-0.9c-0.2-0.4-0.3-0.7-0.3-0.8
			c-0.1,0.1-0.3,0.4-0.6,0.7c-0.3,0.3-0.5,0.6-0.7,0.8C141.2,195.6,138.6,196.9,136.8,195.8z M139.1,193.6c0.6-0.2,1.2-0.5,1.8-1.1
			c0.9-0.7,1.8-1.6,2.7-2.5c0.9-0.9,1.6-1.7,2.1-2.5l0.9-1.4c-0.3-0.6-0.5-1-0.8-1.2c-0.3-0.2-0.5-0.3-0.8-0.3
			c-0.3,0-0.8,0.3-1.5,0.9c-0.7,0.6-1.4,1.4-2.1,2.5c-0.7,1-1.5,2.2-2.1,3.4c-0.3,0.5-0.6,1.3-1,2.2
			C138.2,193.8,138.5,193.8,139.1,193.6z"/>
		<path class="st0" d="M154.2,195.8c-0.2-0.2-0.4-0.4-0.5-0.5c-0.1-0.2-0.1-0.5,0-1c0.1-0.7,0.2-1.4,0.3-1.9
			c0.1-0.6,0.3-1.2,0.5-1.9c0.1-0.3,0.2-0.8,0.4-1.6c0.2-0.7,0.5-1.6,0.9-2.4c0.4-0.9,0.7-1.7,1.1-2.5c0.4-0.8,0.7-1.4,0.9-1.8
			c0.2-0.2,0.5-0.2,0.8-0.2c0.3,0,0.5,0.1,0.8,0.3c0.3,0.2,0.3,0.6,0.1,1.2c-0.2,0.6-0.6,1.5-1.2,2.7c-0.5,1.1-0.8,1.7-0.9,2
			c-0.1,0.3,0,0.3,0.3,0.1c0.2-0.3,0.4-0.6,0.9-1c0.4-0.4,0.9-0.7,1.3-1.1c0.5-0.4,0.9-0.7,1.3-1c0.4-0.3,0.7-0.5,0.9-0.5
			c0.2-0.1,0.4-0.2,0.7-0.3c0.3-0.1,0.5-0.2,0.6-0.2c0.6-0.3,1.2-0.4,1.8-0.3c0.6,0.1,1,0.3,1.2,0.7c0,0.2,0.2,0.4,0.5,0.6
			c0.1,0,0.2,0.1,0.2,0.2c0,0.2-0.1,0.3-0.4,0.3c-0.3,0-0.6,0.1-1,0.1c-0.3,0-0.6,0.1-0.9,0.2c-0.3,0.1-0.6,0.2-0.9,0.4
			c-1,0.6-1.9,1.1-2.8,1.7c-0.9,0.5-1.7,1.3-2.6,2.2c-0.2,0.2-0.4,0.5-0.5,0.7c-0.2,0.3-0.4,0.6-0.6,0.9c-0.1,0.1-0.3,0.4-0.4,0.9
			c-0.1,0.4-0.2,0.9-0.3,1.3c-0.1,0.4-0.1,0.6-0.1,0.7c-0.2,0.5-0.3,0.9-0.5,1.1c-0.3,0.4-0.6,0.6-0.8,0.6
			C154.9,196.4,154.6,196.2,154.2,195.8z"/>
		<path class="st0" d="M169.6,196.9c-0.4-0.1-0.8-0.4-1.3-0.9c-0.4-0.5-0.7-0.9-0.8-1.3c0-0.1-0.1-0.2-0.2-0.3
			c-0.1-0.1-0.2-0.4-0.2-1c0-0.6,0-1.3,0.1-2c0.1-0.7,0.2-1.3,0.3-1.8c0.1-0.4,0.3-1,0.6-1.7c0.3-0.7,0.5-1.3,0.7-1.9l1-2.2
			l-1.5-0.4c-0.2-0.1-0.3-0.2-0.4-0.3c-0.1-0.2-0.2-0.3-0.2-0.4c0-0.2,0.1-0.5,0.3-0.8c0.2-0.3,0.4-0.4,0.5-0.4c0.1,0,0.4,0,0.7,0
			c0.3,0,0.7,0,1,0c0.3,0,0.5-0.1,0.6-0.1c0.1-0.1,0.2-0.1,0.3-0.2c0.1-0.1,0.2-0.2,0.2-0.4c0.1-0.3,0.2-0.5,0.3-0.8
			s0.2-0.5,0.4-0.8c0.2-0.3,0.3-0.6,0.4-0.9c0.1-0.2,0.3-0.6,0.6-1c0.1-0.2,0.3-0.4,0.4-0.7c0.2-0.3,0.3-0.5,0.6-0.7
			c0.2-0.2,0.5-0.3,0.7-0.3c0.2,0,0.6,0.2,0.9,0.5c0.2,0.3,0.3,0.5,0.3,0.6c0,0.1-0.1,0.4-0.3,0.7c-0.2,0.4-0.4,0.9-0.7,1.3
			c-0.3,0.4-0.5,0.9-0.8,1.3c-0.4,0.6-0.5,0.9-0.2,1c0.3,0.1,1,0,2.2-0.2c0.7-0.1,1.3-0.1,1.6,0.1c0.3,0.2,0.5,0.5,0.6,0.9
			c0.1,0.6,0,1-0.2,1.1c-0.2,0.1-0.8,0.2-1.8,0.2c-0.6,0.1-1.1,0.2-1.6,0.2c-0.4,0-0.8,0-1,0c-0.3,0-0.6,0-0.7,0s-0.3,0-0.5,0.1
			c-0.2,0.1-0.4,0.1-0.4,0.3c-0.1,0.1-0.2,0.3-0.3,0.5c-0.1,0.1-0.3,0.4-0.5,0.8c-0.2,0.4-0.5,0.9-0.8,1.4c-0.4,1.1-0.7,2.2-0.9,3.2
			c-0.3,1.1-0.5,2.1-0.6,3.1c-0.1,0.6-0.1,1.1,0,1.3c0.1,0.2,0.5,0.4,1,0.4c0.3,0,0.7,0,1.4,0c0.6,0,1.1-0.1,1.5-0.2
			c0.3-0.1,0.6-0.3,0.9-0.4c0.3-0.1,0.6-0.3,0.9-0.4c0.2-0.1,0.6-0.3,1-0.6c0.1-0.2,0.3-0.3,0.4-0.2c0.2,0.1,0.3,0.3,0.4,0.6
			c0,0.3-0.1,0.6-0.2,1c-0.1,0.3-0.6,0.7-1.4,1.2c-1.2,0.7-2.2,1.2-3.2,1.3C171.1,197,170.3,197,169.6,196.9z"/>
	</g>
</g>
</svg>
