<?xml version="1.0" encoding="utf-8"?>
<!-- Generator: Adobe Illustrator 26.1.0, SVG Export Plug-In . SVG Version: 6.00 Build 0)  -->
<svg version="1.1" id="Layer_1" xmlns="http://www.w3.org/2000/svg" xmlns:xlink="http://www.w3.org/1999/xlink" x="0px" y="0px"
	 viewBox="0 0 200 200" style="enable-background:new 0 0 200 200;" xml:space="preserve">
<style type="text/css">
	.st0{fill:#0071BB;}
	.st1{fill:#FFFFFF;}
	.st2{fill:#E5A812;}
	.st3{fill:#1983BE;}
	.st4{fill:#6599C9;}
	.st5{fill:#95B4D9;}
	.st6{fill:#C7D5E4;}
</style>
<g>
	<path class="st0" d="M200,173c0,14.9-12.1,27-27,27H27c-14.9,0-27-12.1-27-27V27C0,12.1,12.3,0,27,0h146c14.8,0,27,12.1,27,27V173z
		"/>
	<g>
		<rect x="55.5" y="43.2" class="st1" width="87.4" height="87.4"/>
		<path class="st0" d="M126,65.8c-13.1,19.8-32.3,45.9-67.9,43.8V45.9H138C138.1,45.9,133.4,54.7,126,65.8"/>
		<path class="st2" d="M58.2,114.3v13.5h82V46.9C140.1,46.9,113.9,119.6,58.2,114.3"/>
		<path class="st3" d="M86,67.7c-11,0-20,8.9-20,20c0,9.1,6.1,16.8,14.5,19.1c10-3.3,18.2-8.9,25.3-15.6c0.2-1.1,0.4-2.4,0.4-3.6
			C106.1,76.7,97.1,67.7,86,67.7"/>
		<path class="st4" d="M101.1,87.7c0,8.3-6.8,15-15.1,15c-8.2,0-15-6.8-15-15s6.8-15,15-15C94.4,72.7,101.1,79.4,101.1,87.7"/>
		<path class="st5" d="M96.1,87.7c0,5.5-4.5,10-10,10c-5.5,0-10-4.4-10-10c0-5.5,4.5-10,10-10C91.5,77.7,96.1,82.2,96.1,87.7"/>
		<path class="st6" d="M91,87.7c0,2.8-2.3,5-5,5c-2.8,0-5-2.3-5-5s2.2-5,5-5C88.8,82.7,91,84.9,91,87.7"/>
	</g>
	<g>
		<path class="st1" d="M58.8,27.6h1.6c0.6,0,1,0.1,1.1,0.3c0.2,0.1,0.4,0.4,0.4,0.8c0,0.4-0.1,0.6-0.4,0.8c-0.2,0.3-0.6,0.3-1.1,0.3
			h-1.6V27.6z M55.5,31.9H61c0.2,0,0.8,0,1.4-0.1c0.5-0.1,1-0.1,1.2-0.4c0.4-0.3,0.7-0.6,1-1C64.9,30,65,29.5,65,29
			c0-0.6-0.1-1.1-0.5-1.6c-0.4-0.4-0.9-0.8-1.6-0.9c0.5-0.1,0.9-0.4,1.1-0.6c0.4-0.4,0.6-1,0.6-1.5c0-0.8-0.2-1.3-0.8-1.8
			s-1.2-0.8-2.3-0.8h-6v10H55.5z M58.8,23.8h1.4c0.5,0,0.9,0.1,1,0.3c0.2,0.1,0.2,0.4,0.2,0.6c0,0.4-0.1,0.5-0.2,0.8
			c-0.2,0.1-0.5,0.3-1,0.3h-1.4V23.8z"/>
		<path class="st1" d="M68.9,31.9v-4.1h0.2c0.2,0,0.5,0.1,0.8,0.3c0.1,0.1,0.4,0.4,0.6,0.8l1.8,3.1h3.6L74.4,29
			c-0.1-0.1-0.2-0.4-0.5-0.6c-0.2-0.3-0.4-0.5-0.5-0.5c-0.1-0.1-0.5-0.3-0.9-0.4c0.5-0.1,0.9-0.3,1.1-0.4c0.4-0.3,0.8-0.6,1-1
			c0.2-0.4,0.4-0.9,0.4-1.5c0-0.6-0.1-1.1-0.5-1.6c-0.4-0.5-0.8-0.8-1.2-0.9S72,21.9,71,21.9h-5.4V32h3.2V31.9z M68.9,23.8h1.4
			c0.6,0,1,0.1,1.1,0.3c0.2,0.1,0.4,0.4,0.4,0.8c0,0.3-0.1,0.4-0.2,0.6c-0.1,0.1-0.2,0.3-0.5,0.4c-0.4,0.1-0.8,0.1-0.9,0.1h-1.4
			v-2.1H68.9z"/>
		<path class="st1" d="M83.9,31.9h3.4l-3.9-10.1h-3.5L76,31.9h3.2l0.5-1.6h3.6L83.9,31.9z M80.4,28l1.1-3.6l1.1,3.6H80.4z"/>
		<path class="st1" d="M94,27.6l2.7,0.8c-0.2,0.8-0.5,1.4-0.9,1.9c-0.4,0.5-0.9,0.9-1.5,1.1s-1.4,0.4-2.2,0.4c-1.1,0-2-0.1-2.8-0.5
			c-0.8-0.3-1.4-0.9-1.9-1.6c-0.5-0.8-0.8-1.8-0.8-3c0-1.6,0.5-2.9,1.4-3.8c0.9-0.9,2.3-1.3,3.9-1.3c1.2,0,2.4,0.3,3,0.8
			c0.8,0.5,1.2,1.3,1.6,2.3l-2.9,0.6c-0.1-0.3-0.2-0.5-0.2-0.6c-0.1-0.3-0.4-0.4-0.6-0.5c-0.2-0.1-0.5-0.3-0.9-0.3
			c-0.8,0-1.2,0.3-1.6,0.9c-0.2,0.4-0.4,1-0.4,1.9c0,1.1,0.1,1.9,0.5,2.3c0.4,0.4,0.9,0.6,1.5,0.6s1.1-0.1,1.4-0.5
			C93.6,28.8,93.9,28.3,94,27.6"/>
		<path class="st1" d="M103.5,27.6h1.6c0.6,0,1,0.1,1.1,0.3c0.2,0.1,0.4,0.4,0.4,0.8c0,0.4-0.1,0.6-0.4,0.8
			c-0.2,0.3-0.6,0.3-1.1,0.3h-1.6V27.6z M100.2,31.9h5.5c0.2,0,0.8,0,1.4-0.1c0.5-0.1,1-0.1,1.2-0.4c0.4-0.3,0.7-0.6,1-1
			c0.2-0.4,0.4-0.9,0.4-1.4c0-0.6-0.1-1.1-0.5-1.6c-0.4-0.4-0.9-0.8-1.6-0.9c0.5-0.1,0.9-0.4,1.1-0.6c0.4-0.4,0.6-1,0.6-1.5
			c0-0.8-0.2-1.3-0.8-1.8c-0.5-0.5-1.2-0.8-2.2-0.8h-6v10H100.2z M103.5,23.8h1.4c0.5,0,0.9,0.1,1,0.3c0.2,0.1,0.2,0.4,0.2,0.6
			c0,0.4-0.1,0.5-0.2,0.8c-0.2,0.1-0.5,0.3-1,0.3h-1.4V23.8z"/>
		<path class="st1" d="M117.3,31.9h3.4l-3.9-10.1h-3.5l-3.9,10.1h3.2l0.5-1.6h3.6L117.3,31.9z M113.8,28l1.1-3.6L116,28H113.8z"/>
		<polygon class="st1" points="120.8,21.8 123.8,21.8 127.6,27.4 127.6,21.8 130.6,21.8 130.6,31.9 127.6,31.9 123.8,26.3 
			123.8,31.9 120.8,31.9 		"/>
		<polygon class="st1" points="131.9,21.8 135.1,21.8 135.1,25.5 138.5,21.8 142.8,21.8 139,25.5 142.9,31.9 139,31.9 136.8,27.8 
			135.1,29.4 135.1,31.9 131.9,31.9 		"/>
	</g>
	<g>
		<path class="st1" d="M143.6,143.8c-1.9-1-6.9-1.8-7.1-1.8h-0.1c-0.9,0-1.8,0.3-2.2,0.9c-1,1-1,2.4-1,3c0,0,0,0.4,0,0.9
			c-0.9-1.1-1.9-2-3-2.6c-4-2.1-8.4-0.6-9.3-0.4c-0.1,0-0.1,0.3-0.2,0.4c-6.9-5.1-13.1-0.4-14.6,0.9c-1.2-0.6-3.5-1.8-4.2-2
			l-0.2-0.1c-1.8-1.1-3-0.8-3.6-0.4c-1.4,0.8-1.6,2.5-1.6,3.3c-1.5-2.3-3-3.6-4.5-3.8c-1.2-0.3-2,0.4-2.4,0.6c-0.1,0-0.2,0-0.2,0H89
			l-0.1,0.1c-2.1,1.8-3.4,13-4,20.3c-1.1-0.6-2.2-1.4-3.5-2c1-1.8,1.9-3.9,2.4-6.4c0-0.4,1.6-9.9-5.2-12l0,0l0,0
			c-1.1-0.3-4.8-0.6-7.7,1.5c-2.1,1.5-3.4,3.8-3.8,6.9c0,0-0.1,3.3,2,5.1c1.2,1.1,2.9,1.5,4.9,1.1c0.4,0,0.8-0.3,1-0.6
			c0.2-0.4,0.4-0.8,0.2-1.3c0-0.4-0.2-0.8-0.6-1c-0.4-0.3-0.8-0.4-1.2-0.3c-0.6,0.1-1.6,0.1-2.3-0.4c-0.6-0.6-0.9-1.6-0.9-2.4
			c0.2-2.1,1.1-3.6,2.4-4.5c1.8-1.3,4.1-1.1,5.1-1c2.6,0.9,3.1,3.9,3.1,6.3c0,0.8,0,1.5-0.1,2.1c-0.5,2.4-1.2,4.4-2.2,6l-1.1,1.5
			l-0.1,0.3c-2.8,2.9-5.8,2.8-5.9,2.8c-11.8-1.5-12.5-21.8-12.5-22c0-0.9-0.7-1.6-1.6-1.5c-0.5,0-0.9,0.1-1.1,0.5
			c-0.2,0.3-0.5,0.8-0.4,1.1c0,0.9,0.6,23.3,15.4,25.1h0.1c0.9,0,5.1,0,8.6-3.9c3,1.6,5.1,2.9,5.4,3.3c0.4,0.5,1.1,0.8,1.8,0.6
			c0.6-0.3,1.1-0.8,1.1-1.4c0.8-11.3,2.3-20,3-20.9c0.1-0.1,0.2-0.1,0.4-0.1c0,0,0.5,0.1,1.4,1c0.8,1,2,2.8,3.5,6.1L95.9,168
			c0,0.9,0.8,1.6,1.5,1.6c0.4,0,0.9-0.1,1.1-0.5c0.2-0.3,0.5-0.6,0.5-1.1l0.4-14.1v-1.5l0.1-5.6c0-0.3,0-0.6,0.1-0.8
			c0.1,0,0.4,0.1,0.8,0.4h0.1c0.9,0.4,3,1.4,4.4,2.1c-0.1,0.8-0.2,1.5-0.2,2.3c0,2.4,0.8,4.4,2.2,5.8c0.4,0.5,0.9,1.4,1.4,2.3l0.5,1
			c0.2,0.5,0.2,0.8,0.2,0.8c0,0.8-0.2,2.1-0.9,2.5c-0.6,0.4-2,0-3.8-1c-0.7-0.4-1.8-0.3-2.1,0.5c-0.5,0.8-0.2,1.8,0.5,2.3
			c2.9,1.8,5.2,2.1,7,1c2.4-1.4,2.5-4.4,2.4-5.4l0,0l0,0c0-0.6-0.2-1.4-0.8-2.4c0.1-0.8,0.4-1.6,1.1-1.8c0,0,3.4-0.6,5.5,3.3
			c0.1,0.3,0.5,0.5,0.8,0.6c-0.1,0.3-0.1,0.6-0.1,0.9c-1.6,0.8-2.8,1.8-3.2,3c-1.2,2.8,0.6,5.6,0.6,5.6c0,0.1,0.1,0.1,0.2,0.3
			c1.4,1.4,2.7,1.6,3.8,1.5c2.6-0.3,4.1-2.9,4.1-2.9c0.2-0.3,0.2-0.8,0.1-1.1s-0.4-0.8-0.6-1c-0.8-0.5-1.8-0.3-2.1,0.5
			c-0.4,0.5-1.1,1.4-1.8,1.5c-0.2,0-0.6-0.1-1-0.5c-0.1-0.3-0.5-0.9-0.5-1.6c0-0.3,0-0.6,0.1-0.9c0.4-1,2-1.8,4.2-2.3
			c0.5,0,3.8,0,5.2,1.9c1.1,1.4,1.2,3.4,0.5,6.1c0,0-1.4,3.3-8.5,3.3c-2.4,0-5.4-0.4-9.1-1.3c-0.5-0.1-1.1,0-1.5,0.4
			c-0.4,0.4-0.6,1-0.4,1.5c0.1,0.6,4.4,14.4,31.6,9.6c0.9-0.1,1.5-1,1.2-1.8c-0.1-0.9-1-1.5-1.9-1.3c-16.8,2.9-23.6-1.6-26.2-4.8
			c14.8,2.6,17.6-4,17.9-4.8c1.1-3.9,0.8-6.9-1-9c-2.6-3.3-7.1-3.1-8.1-3.1l0,0l0,0c1.2-4.5,0.4-9.8-0.2-12.6c0.1,0,0.1,0,0.2,0l0,0
			h0.1c0.6-0.3,3.9-1.3,6.5,0.3c2,1,3.4,3.1,4.1,6.4c0,0.1,0.2,0.4,0.4,0.5v14.1c0,0.9,0.6,1.5,1.5,1.6c0.9,0,1.6-0.8,1.6-1.6
			l0.1-22c0-0.3,0-0.6,0.1-0.8c2.2,0.4,4.9,1,5.8,1.4c0.4,0.3,0.8,0.3,1.1,0.1c0.4-0.1,0.8-0.4,1-0.8
			C144.8,145.2,144.4,144.3,143.6,143.8z M119.4,155.7c-2.5-3-5.9-3.4-7.5-3.1c-1,0.1-1.8,0.8-2.5,1.6l-0.1-0.1
			c-0.1-0.1-0.1-0.3-0.2-0.3l0,0l0,0c-2.1-1.9-1.1-5.4-1-6l0,0v-0.1c0,0,0,0,0-0.1c1.1-1,5.4-4.4,10.2-1c0.4,1.5,1.1,4.6,1.1,8
			C119.5,154.8,119.4,155.2,119.4,155.7z"/>
	</g>
</g>
</svg>
