<?xml version="1.0" encoding="utf-8"?>
<!-- Generator: Adobe Illustrator 22.1.0, SVG Export Plug-In . SVG Version: 6.00 Build 0)  -->
<svg version="1.1" id="Layer_1" xmlns="http://www.w3.org/2000/svg" xmlns:xlink="http://www.w3.org/1999/xlink" x="0px" y="0px"
	 viewBox="0 0 200 41" style="enable-background:new 0 0 200 41;" xml:space="preserve">
<style type="text/css">
	.st0{fill:#FFFFFF;}
	.st1{fill:#0071BB;}
	.st2{fill:#E5A812;}
	.st3{fill:#1983BE;}
	.st4{fill:#6599C9;}
	.st5{fill:#95B4D9;}
	.st6{fill:#C7D5E4;}
</style>
<g>
	<g>
		<rect x="4.1" y="11.1" class="st0" width="20.8" height="20.8"/>
		<path class="st1" d="M20.9,16.5c-3.1,4.7-7.7,10.9-16.1,10.4V11.8h19C23.7,11.8,22.6,13.8,20.9,16.5"/>
		<path class="st2" d="M4.7,28v3.2h19.5V12C24.2,12,18,29.3,4.7,28"/>
		<path class="st3" d="M11.3,16.9c-2.6,0-4.8,2.1-4.8,4.7c0,2.2,1.5,4,3.4,4.6c2.4-0.8,4.3-2.1,6-3.7c0.1-0.3,0.1-0.6,0.1-0.8
			C16.1,19.1,14,16.9,11.3,16.9"/>
		<path class="st4" d="M14.9,21.7c0,2-1.6,3.6-3.6,3.6c-2,0-3.6-1.6-3.6-3.6c0-2,1.6-3.6,3.6-3.6C13.3,18.1,14.9,19.7,14.9,21.7"/>
		<path class="st5" d="M13.7,21.7c0,1.3-1.1,2.4-2.4,2.4C10,24,9,23,9,21.7c0-1.3,1.1-2.4,2.4-2.4C12.7,19.3,13.7,20.4,13.7,21.7"/>
		<path class="st6" d="M12.5,21.7c0,0.7-0.5,1.2-1.2,1.2c-0.7,0-1.2-0.5-1.2-1.2c0-0.7,0.5-1.2,1.2-1.2C12,20.5,12.5,21,12.5,21.7"
			/>
		<path class="st1" d="M36.8,23.1h3.1c1.1,0,1.8,0.2,2.3,0.5c0.4,0.3,0.6,0.8,0.6,1.4c0,0.6-0.2,1.1-0.6,1.5
			c-0.4,0.4-1.2,0.5-2.2,0.5h-3.1V23.1z M30.6,31.1h10.5c0.4,0,1.4-0.1,2.7-0.3c1-0.1,1.8-0.3,2.3-0.6c0.8-0.5,1.5-1.1,1.9-1.9
			c0.5-0.8,0.7-1.7,0.7-2.7c0-1.2-0.3-2.3-1-3.1c-0.7-0.8-1.7-1.4-3.1-1.7c0.9-0.3,1.6-0.7,2.1-1.3c0.7-0.8,1.1-1.8,1.1-2.9
			c0-1.4-0.5-2.5-1.5-3.4c-1-0.9-2.5-1.4-4.4-1.4H30.6V31.1z M36.8,15.7h2.7c0.9,0,1.6,0.2,2,0.5c0.4,0.3,0.5,0.7,0.5,1.3
			c0,0.6-0.2,1.1-0.5,1.4c-0.4,0.3-1.1,0.5-2,0.5h-2.6V15.7z"/>
		<path class="st1" d="M56.3,31.1v-7.8h0.5c0.6,0,1.1,0.1,1.5,0.4c0.3,0.2,0.7,0.7,1.1,1.5l3.2,5.9h6.9l-3-5.6
			c-0.2-0.3-0.4-0.7-0.9-1.2c-0.4-0.5-0.7-0.9-1-1c-0.3-0.2-0.9-0.5-1.6-0.7c0.9-0.2,1.6-0.5,2.1-0.8c0.8-0.5,1.5-1.1,1.9-1.9
			c0.5-0.8,0.7-1.7,0.7-2.8c0-1.2-0.3-2.3-0.9-3.1c-0.6-0.9-1.4-1.5-2.4-1.8c-1-0.3-2.4-0.5-4.3-0.5H50.1v19.3H56.3z M56.3,15.7h2.7
			c1.1,0,1.9,0.2,2.3,0.5c0.4,0.3,0.6,0.8,0.6,1.4c0,0.4-0.1,0.8-0.4,1.1c-0.3,0.3-0.6,0.5-1,0.6c-0.8,0.2-1.3,0.3-1.6,0.3h-2.6
			V15.7z"/>
		<path class="st1" d="M84.9,31.1h6.4l-7.4-19.3h-6.7l-7.4,19.3H76l1-3.2h6.9L84.9,31.1z M78.3,23.8l2.2-6.9l2.1,6.9H78.3z"/>
		<path class="st1" d="M104.4,23.2l5.4,1.5c-0.4,1.4-0.9,2.6-1.7,3.6c-0.8,0.9-1.7,1.7-2.9,2.1c-1.2,0.5-2.6,0.7-4.4,0.7
			c-2.2,0-3.9-0.3-5.3-0.9c-1.4-0.6-2.5-1.6-3.5-3.1c-1-1.5-1.5-3.4-1.5-5.7c0-3.1,0.9-5.5,2.6-7.1c1.7-1.7,4.2-2.5,7.4-2.5
			c2.5,0,4.4,0.5,5.9,1.4c1.4,1,2.5,2.4,3.2,4.4l-5.4,1.2c-0.2-0.6-0.4-1-0.6-1.3c-0.3-0.4-0.8-0.8-1.3-1c-0.5-0.2-1.1-0.4-1.7-0.4
			c-1.4,0-2.4,0.5-3.2,1.6c-0.6,0.8-0.8,2-0.8,3.7c0,2.1,0.3,3.5,1,4.3c0.7,0.8,1.6,1.1,2.8,1.1c1.2,0,2-0.3,2.6-0.9
			C103.7,25.2,104.1,24.3,104.4,23.2"/>
		<path class="st1" d="M122.5,23.1h3.1c1.1,0,1.8,0.2,2.3,0.5c0.4,0.3,0.6,0.8,0.6,1.4c0,0.6-0.2,1.1-0.6,1.5
			c-0.4,0.4-1.2,0.5-2.2,0.5h-3.1V23.1z M116.3,31.1h10.5c0.5,0,1.4-0.1,2.7-0.3c1-0.1,1.8-0.3,2.3-0.6c0.8-0.5,1.5-1.1,2-1.9
			c0.5-0.8,0.7-1.7,0.7-2.7c0-1.2-0.3-2.3-1-3.1c-0.7-0.8-1.7-1.4-3.1-1.7c0.9-0.3,1.6-0.7,2.1-1.3c0.7-0.8,1.1-1.8,1.1-2.9
			c0-1.4-0.5-2.5-1.5-3.4c-1-0.9-2.5-1.4-4.4-1.4h-11.4V31.1z M122.5,15.7h2.7c0.9,0,1.6,0.2,2,0.5c0.4,0.3,0.6,0.7,0.6,1.3
			c0,0.6-0.2,1.1-0.6,1.4c-0.4,0.3-1,0.5-2,0.5h-2.6V15.7z"/>
		<path class="st1" d="M148.8,31.1h6.4l-7.4-19.3h-6.7l-7.4,19.3h6.2l1-3.2h6.9L148.8,31.1z M142.2,23.8l2.2-6.9l2.1,6.9H142.2z"/>
		<polygon class="st1" points="155.6,11.8 161.2,11.8 168.7,22.5 168.7,11.8 174.5,11.8 174.5,31.1 168.7,31.1 161.3,20.5 
			161.3,31.1 155.6,31.1 		"/>
		<polygon class="st1" points="176.9,11.8 183,11.8 183,19.1 189.4,11.8 197.6,11.8 190.4,19.1 197.9,31.1 190.4,31.1 186.2,23.2 
			183,26.4 183,31.1 176.9,31.1 		"/>
	</g>
</g>
</svg>
