<svg xmlns="http://www.w3.org/2000/svg" width="55.249" height="47.549" viewBox="0 0 55.249 47.549">
  <g id="danger" transform="translate(0.559 -35.357)">
    <g id="Group_7650" data-name="Group 7650" transform="translate(0 35.857)">
      <g id="Group_7649" data-name="Group 7649" transform="translate(0)">
        <path id="Path_15581" data-name="Path 15581" d="M53.434,75.032,31.23,38.209a4.863,4.863,0,0,0-8.329,0L.7,75.032a4.863,4.863,0,0,0,4.165,7.374H49.269a4.863,4.863,0,0,0,4.165-7.374Zm-3,3.169a1.341,1.341,0,0,1-1.166.68H4.861a1.339,1.339,0,0,1-1.146-2.03l22.2-36.823a1.339,1.339,0,0,1,2.293,0l22.2,36.823A1.34,1.34,0,0,1,50.435,78.2Z" transform="translate(0 -35.857)" fill="#d0021b" stroke="#fff" stroke-width="1"/>
      </g>
    </g>
    <g id="Group_7652" data-name="Group 7652" transform="translate(24.695 50.357)">
      <g id="Group_7651" data-name="Group 7651">
        <path id="Path_15582" data-name="Path 15582" d="M235.965,173.005c-1.341,0-2.387.719-2.387,1.995,0,3.891.458,9.482.458,13.373,0,1.014.883,1.439,1.929,1.439.785,0,1.9-.425,1.9-1.439,0-3.891.458-9.482.458-13.373A2.1,2.1,0,0,0,235.965,173.005Z" transform="translate(-233.578 -173.005)" fill="#d0021b" stroke="#fff" stroke-width="1"/>
      </g>
    </g>
    <g id="Group_7654" data-name="Group 7654" transform="translate(24.597 69.42)">
      <g id="Group_7653" data-name="Group 7653" transform="translate(0 0)">
        <path id="Path_15583" data-name="Path 15583" d="M235.169,353.306a2.518,2.518,0,1,0,0,5.035,2.518,2.518,0,0,0,0-5.035Z" transform="translate(-232.651 -353.306)" fill="#d0021b" stroke="#fff" stroke-width="1"/>
      </g>
    </g>
  </g>
</svg>
