<?xml version="1.0" encoding="utf-8"?>
<!-- Generator: Adobe Illustrator 22.1.0, SVG Export Plug-In . SVG Version: 6.00 Build 0)  -->
<svg version="1.1" id="Layer_1" xmlns="http://www.w3.org/2000/svg" xmlns:xlink="http://www.w3.org/1999/xlink" x="0px" y="0px"
	 viewBox="0 0 36 36" style="enable-background:new 0 0 36 36;" xml:space="preserve">
<style type="text/css">
	.st0{fill:#D83969;}
	.st1{fill:#B11F24;}
	.st2{fill:#D93D2A;}
	.st3{fill:#9E1D20;}
	.st4{fill:#C42126;}
</style>
<g id="Layer_4">
	<g>
		<polygon class="st0" points="4.8,6.1 16.8,7.7 14,17.7 		"/>
		<path class="st0" d="M17.3,7.7l9,11.8l-10.3,5l-1.3-5.3c0,0-0.3-1.9,0.2-3.4L17.3,7.7z"/>
		<polygon class="st1" points="26.5,19.5 23.2,14.8 28.8,13.9 		"/>
		<polygon class="st1" points="29.3,13.9 31.3,16.1 28.3,16.1 		"/>
		<polygon class="st2" points="17.7,24.2 26.2,20 25.9,21 		"/>
		<polygon class="st3" points="14,18.7 10.5,30.7 15.9,26.4 		"/>
		<polygon class="st1" points="9.5,12.5 6,8.1 4.7,8.1 		"/>
		<path class="st4" d="M14.5,18.6c0,0.4,0.1,0.7,0.1,0.7l1.3,5.3l10.3-5l-0.1-0.1L14.5,18.6z"/>
	</g>
</g>
</svg>
