<?xml version="1.0" encoding="utf-8"?>
<!-- Generator: Adobe Illustrator 22.1.0, SVG Export Plug-In . SVG Version: 6.00 Build 0)  -->
<svg version="1.1" id="Layer_1" xmlns="http://www.w3.org/2000/svg" xmlns:xlink="http://www.w3.org/1999/xlink" x="0px" y="0px"
	 viewBox="0 0 36 36" style="enable-background:new 0 0 36 36;" xml:space="preserve">
<style type="text/css">
	.st0{fill-rule:evenodd;clip-rule:evenodd;fill:#231F20;}
	.st1{fill-rule:evenodd;clip-rule:evenodd;fill:#A6A8AB;}
	.st2{fill-rule:evenodd;clip-rule:evenodd;fill:#295CA9;}
</style>
<g>
	<path class="st0" d="M9.3,23.8c0,0,2.7,0.5,4.9,1.7c2.2,1.2,3.7,2.5,3.7,2.6c0,0,1.5-1.4,3.7-2.6c2.2-1.2,4.9-1.7,4.9-1.7v1.1
		c0,0-1.8,0.3-4.1,1.5c-2.3,1.2-3.7,2.6-3.7,2.6l0,0v0.8l0,0l0,0l0,0l0,0l0,0l0,0l0,0l0,0h-1.1l0,0l0,0l0,0l0,0l0,0l0,0l0,0l0,0V29
		c0,0-1.6-1.5-3.4-2.5c-1.8-1-4.5-1.6-4.5-1.6V23.8z"/>
	<path class="st1" d="M9.3,26.9c0,0,2.7,0.5,4.9,1.7c2.2,1.2,3.7,2.5,3.7,2.6c0,0,1.5-1.4,3.7-2.6c2.2-1.2,4.9-1.7,4.9-1.7V28
		c0,0-1.8,0.3-4.1,1.5c-2.3,1.2-3.7,2.6-3.7,2.6l0,0v0.8l0,0l0,0l0,0l0,0l0,0l0,0l0,0l0,0h-1.1l0,0l0,0l0,0l0,0l0,0l0,0l0,0l0,0
		v-0.7c0,0-1.6-1.5-3.4-2.5c-1.8-1-4.5-1.6-4.5-1.6V26.9z"/>
	<path class="st2" d="M18,3C25.7,3,31.9,9.3,31.9,17c0,3.6-1.4,6.9-3.6,9.4l-0.7-0.7c2.1-2.3,3.4-5.4,3.4-8.7c0-7.1-5.8-13-13-13
		S5,9.8,5,17c0,3.3,1.3,6.4,3.3,8.7l-0.7,0.7c-2.3-2.5-3.6-5.8-3.6-9.4C4.1,9.3,10.3,3,18,3z"/>
	<path class="st0" d="M12.3,13c0.3,0.1,0.5,0.2,0.7,0.3c0.2,0.2,0.3,0.4,0.3,0.7c0,0.2-0.1,0.4-0.2,0.6c-0.1,0.2-0.3,0.3-0.6,0.4
		c-0.2,0.1-0.6,0.1-1.1,0.1h-2v-0.1h0.2c0.2,0,0.3-0.1,0.4-0.2c0-0.1,0.1-0.2,0.1-0.5v-2.8c0-0.3,0-0.4-0.1-0.5
		C9.9,11.1,9.8,11,9.6,11H9.4v-0.1h1.8c0.3,0,0.6,0,0.8,0.1c0.3,0.1,0.6,0.2,0.7,0.4c0.2,0.2,0.2,0.4,0.2,0.7c0,0.2-0.1,0.4-0.2,0.6
		C12.8,12.8,12.6,12.9,12.3,13L12.3,13z M10.7,12.8c0.1,0,0.2,0,0.3,0c0.1,0,0.2,0,0.3,0c0.3,0,0.5,0,0.7-0.1
		c0.2-0.1,0.3-0.2,0.4-0.3c0.1-0.1,0.1-0.3,0.1-0.4c0-0.2-0.1-0.5-0.3-0.6c-0.2-0.2-0.5-0.3-0.9-0.3c-0.2,0-0.4,0-0.6,0.1V12.8
		L10.7,12.8z M10.7,14.9c0.2,0.1,0.5,0.1,0.7,0.1c0.4,0,0.7-0.1,0.9-0.3c0.2-0.2,0.3-0.4,0.3-0.6c0-0.2,0-0.3-0.1-0.5
		c-0.1-0.2-0.2-0.3-0.4-0.4c-0.2-0.1-0.5-0.1-0.8-0.1c-0.1,0-0.2,0-0.3,0c-0.1,0-0.2,0-0.2,0V14.9z"/>
	<path class="st0" d="M18,15.2h-1.1l-1.5-2c-0.1,0-0.2,0-0.3,0c0,0-0.1,0-0.1,0c0,0-0.1,0-0.1,0v1.2c0,0.3,0,0.4,0.1,0.5
		c0.1,0.1,0.2,0.1,0.4,0.1h0.2v0.1h-1.8v-0.1h0.2c0.2,0,0.3-0.1,0.4-0.2c0-0.1,0.1-0.2,0.1-0.5v-2.8c0-0.3,0-0.4-0.1-0.5
		c-0.1-0.1-0.2-0.1-0.4-0.1h-0.2v-0.1h1.6c0.5,0,0.8,0,1,0.1c0.2,0.1,0.4,0.2,0.5,0.4c0.2,0.2,0.2,0.4,0.2,0.6
		c0,0.3-0.1,0.5-0.3,0.7c-0.2,0.2-0.4,0.3-0.8,0.4l0.9,1.2c0.2,0.3,0.4,0.5,0.5,0.6c0.1,0.1,0.3,0.2,0.6,0.2V15.2L18,15.2z M15,13
		c0,0,0.1,0,0.1,0c0,0,0.1,0,0.1,0c0.4,0,0.7-0.1,0.9-0.3c0.2-0.2,0.3-0.4,0.3-0.7c0-0.3-0.1-0.5-0.2-0.7c-0.2-0.2-0.4-0.3-0.7-0.3
		c-0.1,0-0.3,0-0.5,0.1V13z"/>
	<path class="st0" d="M20.9,13.8h-1.7L19,14.4c-0.1,0.2-0.1,0.3-0.1,0.4c0,0.1,0,0.1,0.1,0.2c0.1,0,0.2,0.1,0.4,0.1v0.1H18v-0.1
		c0.2,0,0.3-0.1,0.3-0.1c0.1-0.1,0.2-0.3,0.4-0.6l1.5-3.5h0.1l1.5,3.6c0.1,0.3,0.2,0.5,0.3,0.6c0.1,0.1,0.2,0.1,0.4,0.1v0.1h-1.7
		v-0.1c0.2,0,0.3,0,0.3-0.1c0.1,0,0.1-0.1,0.1-0.2c0-0.1,0-0.2-0.1-0.4L20.9,13.8L20.9,13.8z M20.8,13.5l-0.7-1.7l-0.7,1.7H20.8z"/>
	<path class="st0" d="M26.5,10.8l0.1,1.5h-0.1c-0.1-0.4-0.3-0.7-0.6-0.9c-0.2-0.2-0.5-0.3-0.9-0.3c-0.3,0-0.5,0.1-0.8,0.2
		c-0.2,0.1-0.4,0.4-0.5,0.7c-0.1,0.3-0.2,0.7-0.2,1.2c0,0.4,0.1,0.7,0.2,1c0.1,0.3,0.3,0.5,0.6,0.7c0.2,0.2,0.5,0.2,0.8,0.2
		c0.3,0,0.5-0.1,0.7-0.2c0.2-0.1,0.4-0.4,0.7-0.7l0.1,0.1c-0.2,0.4-0.5,0.7-0.7,0.8c-0.3,0.2-0.6,0.3-1,0.3c-0.7,0-1.3-0.3-1.6-0.8
		c-0.3-0.4-0.4-0.9-0.4-1.4c0-0.4,0.1-0.8,0.3-1.2c0.2-0.4,0.5-0.6,0.8-0.8c0.3-0.2,0.7-0.3,1.1-0.3c0.3,0,0.6,0.1,0.9,0.2
		c0.1,0,0.2,0.1,0.2,0.1c0.1,0,0.1,0,0.1-0.1c0.1-0.1,0.1-0.1,0.1-0.2H26.5z"/>
	<path class="st0" d="M8.5,17.1L8.5,17.1L9.4,17v0.1H9.3c-0.1,0-0.2,0-0.2,0.1c0,0,0,0.1,0,0.3v1c0,0.3,0,0.5-0.1,0.6
		c-0.1,0.1-0.2,0.3-0.3,0.4c-0.1,0.1-0.4,0.2-0.6,0.2c-0.3,0-0.5,0-0.6-0.1c-0.1-0.1-0.2-0.2-0.3-0.4c0-0.1-0.1-0.3-0.1-0.6v-1
		c0-0.2,0-0.3-0.1-0.3c0,0-0.1-0.1-0.2-0.1H6.7V17h1.1v0.1H7.7c-0.1,0-0.2,0-0.2,0.1c0,0,0,0.1,0,0.3v1.1c0,0.1,0,0.2,0,0.3
		c0,0.1,0.1,0.2,0.1,0.3c0,0.1,0.1,0.1,0.2,0.2c0.1,0,0.2,0.1,0.3,0.1c0.2,0,0.3,0,0.4-0.1c0.1-0.1,0.2-0.2,0.3-0.3
		c0-0.1,0.1-0.3,0.1-0.6v-1c0-0.2,0-0.3-0.1-0.3C8.8,17.1,8.7,17.1,8.5,17.1L8.5,17.1z"/>
	<path class="st0" d="M9.4,17h0.7l1.6,1.9v-1.5c0-0.2,0-0.3-0.1-0.3c0-0.1-0.1-0.1-0.2-0.1h-0.1V17h0.9v0.1h-0.1
		c-0.1,0-0.2,0-0.2,0.1c0,0,0,0.1,0,0.3v2.2h-0.1l-1.7-2.1v1.6c0,0.2,0,0.3,0.1,0.3c0,0.1,0.1,0.1,0.2,0.1h0.1v0.1H9.5v-0.1h0.1
		c0.1,0,0.2,0,0.2-0.1c0,0,0-0.1,0-0.3v-1.8c-0.1-0.1-0.1-0.1-0.2-0.2c0,0-0.1-0.1-0.2-0.1C9.5,17.1,9.5,17.1,9.4,17L9.4,17z"/>
	<path class="st0" d="M13.4,19.5L13.4,19.5l-1.1,0.1v-0.1h0.1c0.1,0,0.2,0,0.2-0.1c0,0,0-0.1,0-0.3v-1.7c0-0.1,0-0.2,0-0.3
		c0,0,0-0.1-0.1-0.1c-0.1,0-0.1,0-0.2,0h-0.1V17h1.1v0.1h-0.1c-0.1,0-0.2,0-0.2,0.1c0,0,0,0.1,0,0.3v1.7c0,0.1,0,0.2,0,0.3
		c0,0,0,0.1,0.1,0.1C13.2,19.5,13.3,19.5,13.4,19.5L13.4,19.5z"/>
	<path class="st0" d="M16.3,17L16.3,17c-0.1,0.1-0.2,0.1-0.2,0.2c-0.1,0.1-0.1,0.2-0.2,0.3L15,19.6h-0.1l-1-2.2
		c0-0.1-0.1-0.2-0.1-0.2c0,0-0.1-0.1-0.1-0.1c0,0-0.1,0-0.2,0V17h1v0.1c-0.1,0-0.2,0-0.2,0.1c0,0-0.1,0.1-0.1,0.1
		c0,0.1,0,0.2,0.1,0.3l0.6,1.5l0.6-1.5c0.1-0.1,0.1-0.2,0.1-0.3c0,0,0-0.1-0.1-0.1c0,0-0.1-0.1-0.2-0.1c0,0,0,0,0,0V17H16.3z"/>
	<path class="st0" d="M17.1,17.1v1h0.6c0.1,0,0.2,0,0.3-0.1c0.1-0.1,0.1-0.2,0.1-0.3h0.1v0.9h-0.1c0-0.1,0-0.2-0.1-0.2
		c0,0-0.1-0.1-0.1-0.1c-0.1,0-0.1,0-0.2,0h-0.6v0.8c0,0.1,0,0.2,0,0.2c0,0,0,0,0.1,0.1c0,0,0.1,0,0.1,0h0.4c0.1,0,0.2,0,0.3,0
		c0.1,0,0.1-0.1,0.2-0.1c0.1-0.1,0.2-0.2,0.2-0.4h0.1l-0.2,0.6h-2v-0.1h0.1c0.1,0,0.1,0,0.2,0c0,0,0.1,0,0.1-0.1c0,0,0-0.1,0-0.2
		v-1.7c0-0.2,0-0.3,0-0.3c0-0.1-0.1-0.1-0.2-0.1h-0.1V17h2l0,0.6h-0.1c0-0.1-0.1-0.2-0.1-0.3c0-0.1-0.1-0.1-0.1-0.1
		c-0.1,0-0.1,0-0.3,0H17.1z"/>
	<path class="st0" d="M21.3,19.5h-0.7l-0.9-1.2c-0.1,0-0.1,0-0.2,0c0,0,0,0-0.1,0c0,0,0,0-0.1,0v0.7c0,0.2,0,0.3,0.1,0.3
		c0,0.1,0.1,0.1,0.2,0.1h0.1v0.1h-1.1v-0.1h0.1c0.1,0,0.2,0,0.2-0.1c0,0,0-0.1,0-0.3v-1.7c0-0.2,0-0.3-0.1-0.3
		c0-0.1-0.1-0.1-0.2-0.1h-0.1V17h0.9c0.3,0,0.5,0,0.6,0.1c0.1,0,0.2,0.1,0.3,0.2c0.1,0.1,0.1,0.2,0.1,0.4c0,0.2-0.1,0.3-0.2,0.4
		c-0.1,0.1-0.3,0.2-0.5,0.2l0.5,0.7c0.1,0.2,0.2,0.3,0.3,0.3C21,19.4,21.1,19.5,21.3,19.5L21.3,19.5L21.3,19.5z M19.5,18.2
		C19.5,18.2,19.5,18.2,19.5,18.2c0.1,0,0.1,0,0.1,0c0.2,0,0.4-0.1,0.5-0.2c0.1-0.1,0.2-0.2,0.2-0.4c0-0.2,0-0.3-0.1-0.4
		c-0.1-0.1-0.2-0.1-0.4-0.1c-0.1,0-0.2,0-0.3,0V18.2z"/>
	<path class="st0" d="M23,16.9v0.9h-0.1c0-0.2-0.1-0.3-0.1-0.4c-0.1-0.1-0.1-0.2-0.3-0.2c-0.1-0.1-0.2-0.1-0.3-0.1
		c-0.1,0-0.2,0-0.3,0.1c-0.1,0.1-0.1,0.2-0.1,0.3c0,0.1,0,0.1,0.1,0.2c0.1,0.1,0.3,0.2,0.6,0.4c0.2,0.1,0.4,0.2,0.5,0.3
		c0.1,0.1,0.2,0.1,0.2,0.2c0,0.1,0.1,0.2,0.1,0.3c0,0.2-0.1,0.4-0.2,0.5c-0.2,0.1-0.3,0.2-0.6,0.2c-0.1,0-0.1,0-0.2,0
		c0,0-0.1,0-0.2-0.1c-0.1,0-0.2-0.1-0.2-0.1c0,0-0.1,0-0.1,0c0,0,0,0.1,0,0.1h-0.1v-0.9h0.1c0,0.2,0.1,0.3,0.1,0.4
		c0.1,0.1,0.1,0.2,0.3,0.2c0.1,0.1,0.2,0.1,0.4,0.1c0.2,0,0.3,0,0.4-0.1c0.1-0.1,0.1-0.2,0.1-0.3c0-0.1,0-0.1-0.1-0.2
		c0-0.1-0.1-0.1-0.2-0.2c0,0-0.2-0.1-0.4-0.2c-0.2-0.1-0.4-0.2-0.5-0.3c-0.1-0.1-0.2-0.2-0.2-0.2c0-0.1-0.1-0.2-0.1-0.3
		c0-0.2,0.1-0.3,0.2-0.5c0.1-0.1,0.3-0.2,0.5-0.2c0.1,0,0.3,0,0.4,0.1c0.1,0,0.1,0,0.1,0c0,0,0.1,0,0.1,0C22.9,17,22.9,17,23,16.9
		L23,16.9z"/>
	<path class="st0" d="M24.6,19.5L24.6,19.5l-1.1,0.1v-0.1h0.1c0.1,0,0.2,0,0.2-0.1c0,0,0-0.1,0-0.3v-1.7c0-0.1,0-0.2,0-0.3
		c0,0,0-0.1-0.1-0.1c-0.1,0-0.1,0-0.2,0h-0.1V17h1.1v0.1h-0.1c-0.1,0-0.2,0-0.2,0.1c0,0,0,0.1,0,0.3v1.7c0,0.1,0,0.2,0,0.3
		c0,0,0,0.1,0.1,0.1C24.4,19.5,24.4,19.5,24.6,19.5L24.6,19.5z"/>
	<path class="st0" d="M26.9,17l0,0.6h-0.1c0-0.1,0-0.2-0.1-0.2c0-0.1-0.1-0.1-0.2-0.2c-0.1,0-0.1-0.1-0.3-0.1H26v2
		c0,0.2,0,0.3,0.1,0.3c0,0.1,0.1,0.1,0.2,0.1h0.1v0.1h-1.1v-0.1h0.1c0.1,0,0.2,0,0.2-0.1c0,0,0-0.1,0-0.3v-2h-0.3
		c-0.1,0-0.2,0-0.3,0c-0.1,0-0.1,0.1-0.2,0.1c0,0.1-0.1,0.2-0.1,0.3h-0.1l0-0.6H26.9z"/>
	<path class="st0" d="M28.9,17h0.9v0.1h0c0,0-0.1,0-0.1,0c-0.1,0-0.1,0.1-0.2,0.1c-0.1,0.1-0.1,0.1-0.2,0.3l-0.6,1v0.7
		c0,0.2,0,0.3,0.1,0.3c0,0.1,0.1,0.1,0.2,0.1h0.1v0.1h-1.1v-0.1h0.1c0.1,0,0.2,0,0.2-0.1c0,0,0-0.1,0-0.3v-0.6l-0.7-1.1
		c-0.1-0.1-0.1-0.2-0.2-0.2c0,0-0.1-0.1-0.2-0.1c0,0-0.1,0-0.1,0V17h1.1v0.1h-0.1c-0.1,0-0.1,0-0.2,0c0,0-0.1,0.1-0.1,0.1
		c0,0,0,0.1,0.1,0.2l0.5,0.8l0.5-0.8c0.1-0.1,0.1-0.2,0.1-0.3c0,0,0-0.1,0-0.1c0,0,0,0-0.1-0.1C29,17.1,28.9,17.1,28.9,17L28.9,17z"
		/>
	<path class="st2" d="M9.3,20.7c0,0,2.7,0.5,4.9,1.7c2.2,1.2,3.7,2.5,3.7,2.6c0,0,1.5-1.4,3.7-2.6c2.2-1.2,4.9-1.7,4.9-1.7v1.1
		c0,0-1.8,0.3-4.1,1.5c-2.3,1.2-3.7,2.6-3.7,2.6l0,0v0.8l0,0l0,0l0,0l0,0l0,0l0,0l0,0l0,0h-1.1l0,0l0,0l0,0l0,0l0,0l0,0l0,0l0,0
		v-0.7c0,0-1.6-1.5-3.4-2.5c-1.8-1-4.5-1.6-4.5-1.6V20.7z"/>
</g>
</svg>
