<svg xmlns="http://www.w3.org/2000/svg" width="80" height="80" viewBox="0 0 80 80">
  <g id="Layer_22" data-name="Layer 22" transform="translate(-3.25 -3.25)">
    <path id="Path_21323" data-name="Path 21323" d="M27,45.73a.74.74,0,0,0-.72-.19l-1.7.46a.75.75,0,0,0-.53.53l-.46,1.72a.75.75,0,0,0,.19.73L25,50.24a.74.74,0,0,0,.72.19L27.49,50a.75.75,0,0,0,.53-.53l.46-1.72a.76.76,0,0,0-.2-.73Zm-.34,2.9-.89.24-.64-.65.23-.88.89-.24.65.65Z" transform="translate(8.696 18.093)" fill="#ffbfe0"/>
    <path id="Path_21324" data-name="Path 21324" d="M43.25,3.25a40,40,0,1,0,40,40A40,40,0,0,0,43.25,3.25Zm6.191,52.522L41.4,63.8a6.666,6.666,0,1,1-4.73-4.786l8.042-8.042A6.957,6.957,0,0,1,52.655,42.3a1.043,1.043,0,0,1,.543,1.767L50.666,46.6l.668,2.477,2.477.668,2.532-2.532a1.057,1.057,0,0,1,1.767.529,6.957,6.957,0,0,1-8.668,8.028Zm8.612,3.117h-.111a1.045,1.045,0,0,1-.111-2.087,13.621,13.621,0,0,0,12.2-13.551,13.774,13.774,0,0,0-11.6-13.523h-.64a13.551,13.551,0,0,0-7.61,1.391,1.043,1.043,0,1,1-.96-1.85,15.847,15.847,0,0,1,7.443-1.711,13.663,13.663,0,0,0-26.824,0,15.791,15.791,0,0,1,7.43,1.711,1.043,1.043,0,1,1-.974,1.739,13.913,13.913,0,0,0-7.583-1.391,13.663,13.663,0,0,0,0,27.186,1.045,1.045,0,0,1-.111,2.087h-.111a15.75,15.75,0,0,1-5.44-29.7,15.485,15.485,0,0,1,4.7-1.5,15.722,15.722,0,0,1,31.082,0A15.75,15.75,0,0,1,58.1,58.9Z" transform="translate(0)" fill="#ffbfe0"/>
  </g>
</svg>
