<svg width="88" height="88" viewBox="0 0 88 88" fill="none" xmlns="http://www.w3.org/2000/svg">
    <defs>
        <filter id="filter0_d_1443_164" x="0" y="0" width="88" height="88" filterUnits="userSpaceOnUse" color-interpolation-filters="sRGB">
            <feFlood flood-opacity="0" result="BackgroundImageFix"/>
            <feColorMatrix in="SourceAlpha" type="matrix" values="0 0 0 0 0 0 0 0 0 0 0 0 0 0 0 0 0 0 127 0" result="hardAlpha"/>
            <feOffset dy="3"/>
            <feGaussianBlur stdDeviation="2"/>
            <feColorMatrix type="matrix" values="0 0 0 0 0.466667 0 0 0 0 0.466667 0 0 0 0 0.466667 0 0 0 0.2 0"/>
            <feBlend mode="normal" in2="BackgroundImageFix" result="effect1_dropShadow_1443_164"/>
            <feBlend mode="normal" in="SourceGraphic" in2="effect1_dropShadow_1443_164" result="shape"/>
        </filter>
        <linearGradient id="paint0_linear_1443_164" x1="30" y1="40.6422" x2="58.66" y2="40.6422" gradientUnits="userSpaceOnUse">
            <stop stop-color="#ED1556"/>
            <stop offset="0.0894" stop-color="#E4205F"/>
            <stop offset="0.2708" stop-color="#D13175"/>
            <stop offset="0.5" stop-color="#B24198"/>
            <stop offset="1" stop-color="#2EB1E6"/>
        </linearGradient>
        <clipPath id="clip0_1443_164">
            <rect width="28.66" height="35.28" fill="white" transform="translate(30 23)"/>
        </clipPath>
    </defs>
<g filter="url(#filter0_d_1443_164)">
<rect x="4" y="1" width="80" height="80" rx="10" fill="white"/>
</g>
<g clip-path="url(#clip0_1443_164)">
<path d="M48.26 58.2799C43.44 58.2799 38.61 58.2799 33.79 58.2799L33.67 58.2299C31.77 57.9699 29.99 56.1999 30 53.7399C30.02 45.0099 30.01 36.2899 30.01 27.5599C30.01 27.2399 30.03 26.9199 30.08 26.5999C30.36 24.6599 32.21 23.0099 34.16 23.0099C38.73 22.9999 43.3 22.9999 47.87 23.0099C49.93 23.0199 51.86 24.8299 51.97 26.8799C52.05 28.3899 52.01 29.9099 52.02 31.4199C52.02 31.5499 52.02 31.6799 52.02 31.8399C53.15 31.8399 54.22 31.8299 55.28 31.8399C57.06 31.8599 58.33 32.9399 58.63 34.6899C58.65 34.8499 58.66 35.0099 58.66 35.1699C58.66 40.2899 58.66 45.4099 58.66 50.5299C58.66 52.1099 57.67 53.3899 56.17 53.7499C55.86 53.8199 55.54 53.8499 55.22 53.8499C54.16 53.8599 53.11 53.8599 52.07 53.8599L52.03 53.9499C52.01 54.0799 52 54.1999 51.99 54.3299C51.77 56.1699 50.76 57.3999 49.05 58.0499C48.79 58.1599 48.52 58.2099 48.26 58.2799ZM36.54 38.2499L36.53 38.3299C36.53 42.4299 36.52 46.5299 36.54 50.6299C36.54 50.8599 36.64 51.1299 36.77 51.3299C37.04 51.7299 37.48 51.7999 37.93 51.7999C43.67 51.7999 49.41 51.7999 55.15 51.7999C55.3 51.7999 55.45 51.7899 55.6 51.7699C56.1 51.6899 56.5 51.3499 56.53 50.8599C56.58 50.0399 56.55 49.2199 56.55 48.3499C56.26 48.3499 55.98 48.3499 55.69 48.3499C54.35 48.3399 53.01 48.3799 51.67 48.2999C50.01 48.1999 48.65 46.4799 48.84 44.8299C49.04 43.0499 50.39 41.8399 52.19 41.8399C53.52 41.8399 54.85 41.8399 56.18 41.8399C56.31 41.8399 56.43 41.8399 56.53 41.8399L56.58 41.7399C56.58 41.0899 56.59 40.4299 56.59 39.7799C56.58 38.8299 56.14 38.3899 55.19 38.3899C49.53 38.3899 43.87 38.3899 38.21 38.3799C37.67 38.3599 37.12 38.2899 36.54 38.2499ZM49.93 31.8499C49.93 30.3599 49.93 28.9199 49.93 27.4899C49.92 26.0299 48.97 25.0799 47.51 25.0799C43.18 25.0799 38.85 25.0799 34.52 25.0799C33.05 25.0799 32.08 26.0499 32.08 27.5199C32.08 36.2799 32.08 45.0399 32.08 53.7999C32.08 55.2699 33.06 56.2299 34.53 56.2299C38.85 56.2299 43.17 56.2299 47.49 56.2299C47.71 56.2299 47.95 56.2099 48.17 56.1599C49.21 55.9499 50.01 54.8999 49.89 53.8799C49.76 53.8799 49.63 53.8799 49.49 53.8799C45.61 53.8799 41.73 53.8799 37.85 53.8799C35.85 53.8799 34.43 52.4799 34.43 50.4899C34.42 45.3999 34.42 40.3299 34.44 35.2499C34.44 34.8699 34.5 34.4699 34.61 34.0999C35.05 32.6899 36.29 31.8499 37.87 31.8499C41.73 31.8499 45.59 31.8499 49.45 31.8499C49.59 31.8499 49.74 31.8499 49.93 31.8499ZM56.59 36.3599C56.59 36.0999 56.57 35.7599 56.59 35.4299C56.65 34.5599 56.19 33.9299 55.12 33.9299C49.4 33.9599 43.68 33.9399 37.97 33.9399C37.85 33.9399 37.74 33.9399 37.62 33.9399C37.05 33.9699 36.59 34.3999 36.54 34.9499C36.47 35.5799 36.83 36.1099 37.42 36.2399C37.61 36.2799 37.81 36.2899 38 36.2899C43.24 36.2899 48.47 36.2899 53.71 36.2999C54.65 36.2899 55.6 36.3299 56.59 36.3599ZM56.57 43.9099L56.4 43.8899C54.98 43.8899 53.56 43.8899 52.14 43.8899C52 43.8899 51.86 43.9099 51.73 43.9499C51.24 44.0899 50.9 44.5699 50.91 45.0899C50.93 45.6199 51.31 46.1799 51.82 46.1899C53.39 46.2299 54.97 46.1999 56.57 46.1999C56.57 45.4499 56.57 44.6899 56.57 43.9099Z" fill="url(#paint0_linear_1443_164)"/>
</g>
</svg>
