<svg width="218" height="23" viewBox="0 0 218 23" fill="none" xmlns="http://www.w3.org/2000/svg">
<path d="M11.3427 7.26021H6.57614C3.66322 7.26021 2.75845 9.66558 2.73638 11.9385C2.73638 14.2556 3.64115 16.6169 6.57614 16.6169H11.3427V18.6691H5.75964C1.89781 18.6691 0 15.3811 0 11.9385C0 8.38566 1.89781 5.20793 5.75964 5.20793H11.3427V7.26021Z" fill="white"/>
<path d="M12.7772 18.6471V-3.05176e-05H15.315V5.18585H19.6623C23.5241 5.18585 25.4219 8.34151 25.4219 11.9165C25.4219 15.359 23.5241 18.6471 19.6623 18.6471H12.7772ZM18.8679 16.5948C21.7808 16.5948 22.7297 14.2556 22.7076 11.9165C22.7076 9.6435 21.7808 7.23813 18.8679 7.23813H15.3371V16.5948H18.8679Z" fill="white"/>
<path d="M29.4162 18.6471H26.8784V-3.05176e-05H29.4162V18.6471Z" fill="white"/>
<path d="M40.6925 5.20793H53.5358C55.2792 5.20793 56.6032 5.20793 57.8169 6.44371C58.8541 7.48089 59.0969 8.5622 59.0969 10.0628V18.6691H56.5812V10.4159C56.5812 9.4449 56.515 8.76081 55.8529 8.07671C55.1468 7.30435 54.2861 7.28228 53.2269 7.28228H50.9981V18.6912H48.4603V7.28228H43.2303V18.6912H40.6925V5.20793Z" fill="white"/>
<path d="M67.5931 19.0001C62.0983 19.0001 60.5094 16.021 60.5094 11.9164C60.5094 7.78977 62.0983 4.83272 67.5931 4.83272C73.0879 4.83272 74.6768 7.7677 74.6768 11.9164C74.6768 16.043 73.0879 19.0001 67.5931 19.0001ZM71.9183 11.9164C71.9183 9.18003 71.0356 6.90707 67.5931 6.90707C64.1505 6.90707 63.2678 9.18003 63.2678 11.9164C63.2678 14.6528 64.1505 16.9478 67.5931 16.9478C71.0356 16.9478 71.9183 14.6749 71.9183 11.9164Z" fill="white"/>
<path d="M76.111 5.20779H82.3782C84.1657 5.20779 85.578 5.16366 86.8359 6.44358C87.851 7.48075 87.9392 8.58413 87.9392 10.0627V18.669H85.4235V10.4157C85.4235 9.44477 85.3573 8.76067 84.6953 8.07658C83.9891 7.30421 83.1285 7.28214 82.0693 7.28214H78.6488V18.6911H76.111V5.20779Z" fill="white"/>
<path d="M93.1914 15.6459C93.9638 16.4403 94.7802 16.6169 95.8616 16.6169H100.584V18.6691H95.8836C91.095 18.6691 89.3516 15.5797 89.3516 11.9385C89.3516 8.25326 91.6687 5.20793 95.8836 5.20793H100.584V7.26021H95.8616C94.7582 7.26021 93.9858 7.6795 93.4562 8.09878C92.7721 8.69461 92.2425 9.53317 92.2425 10.46V10.791H100.562V12.8433H92.2645V13.1964C92.2645 14.1894 92.5073 14.8956 93.1914 15.6459Z" fill="white"/>
<path d="M105.174 15.8886C105.792 16.4183 106.233 16.6169 106.961 16.6169H111.265V5.20793H113.802V19.1326C113.802 20.1035 113.648 20.7656 113.052 21.5159C112.302 22.4648 111.331 22.7958 110.227 22.7958H101.996V20.7214H109.256C109.896 20.7214 110.426 20.6994 110.845 20.2359C111.176 19.8387 111.243 19.4636 111.243 18.956V18.6912H106.498C105.108 18.6912 104.291 18.4926 103.409 17.7644C102.327 16.8817 101.996 15.8224 101.996 14.4542V5.23H104.534V14.2336C104.556 14.8956 104.666 15.4473 105.174 15.8886Z" fill="white"/>
<path d="M124.571 5.20798H127.22V0.0220947H129.757V5.20798H133.796V7.26026H129.779V15.2929C129.779 15.668 129.868 15.9328 130.132 16.2197C130.375 16.4845 130.684 16.6169 131.103 16.6169H133.818V18.6692H129.801C129.117 18.6692 128.544 18.4044 128.124 17.9851C127.727 17.61 127.242 16.8817 127.242 16.0432V7.28232H124.593V5.20798H124.571Z" fill="white"/>
<path d="M139.71 5.20787C140.703 5.20787 141.321 5.31821 142.159 5.78163C143.66 6.64226 143.859 8.01046 143.859 9.0697V11.0558H141.343V9.53312C141.343 8.93729 141.299 8.23113 140.747 7.76771C140.372 7.4367 139.931 7.23809 139.114 7.23809H137.282V18.647H134.745V5.18581H139.71V5.20787Z" fill="white"/>
<path d="M153.921 5.20793C155.091 5.20793 155.996 5.73755 156.614 6.44371C157.54 7.45882 157.54 8.496 157.54 9.86419V18.6691H149.133C146.33 18.6691 144.631 17.2568 144.631 14.5866C144.631 11.8944 146.33 10.4821 149.133 10.4821H155.003V10.1069C155.003 9.15803 154.914 8.45186 154.319 7.78983C153.855 7.26021 153.215 7.26021 152.531 7.26021H145.161V5.20793H153.921ZM149.839 12.5564C148.184 12.5564 147.434 13.1964 147.434 14.5866C147.434 15.9548 148.184 16.6169 149.905 16.6169H154.981V12.5564H149.839Z" fill="white"/>
<path d="M158.931 5.20779H165.198C166.985 5.20779 168.398 5.16366 169.656 6.44358C170.671 7.48075 170.759 8.58413 170.759 10.0627V18.669H168.243V10.4157C168.243 9.44477 168.177 8.76067 167.537 8.07658C166.809 7.30421 165.97 7.28214 164.911 7.28214H161.491V18.6911H158.953V5.20779H158.931Z" fill="white"/>
<path d="M183.977 7.26016H177.004C176.519 7.26016 175.084 7.3705 175.084 9.02556C175.084 10.6806 176.519 10.791 177.004 10.791H181.131C183.36 10.791 184.838 12.2254 184.838 14.7411C184.838 17.2347 183.36 18.6691 181.131 18.6691H172.171V16.5947H179.829C180.292 16.5947 182.036 16.4623 182.036 14.8073C182.036 13.1743 180.314 13.0419 179.829 13.0419H176.563C173.253 13.0419 172.149 11.1661 172.149 9.11383C172.149 7.03948 173.231 5.18581 176.563 5.18581H183.955V7.26016H183.977Z" fill="white"/>
<path d="M195.828 -3.05176e-05V1.98605H193.489C192.65 1.98605 192.231 2.20673 191.878 2.53774C191.304 3.1115 191.304 3.9942 191.304 4.43555V5.20792H195.673V7.2602H191.304V18.6691H188.766V7.2602H186.272V5.20792H188.766V4.41348C188.766 3.9942 188.766 2.55981 189.362 1.65504C190.2 0.419253 191.171 0.0220376 192.849 0.0220376H195.828V-3.05176e-05Z" fill="white"/>
<path d="M199.91 15.6459C200.682 16.4403 201.499 16.6169 202.58 16.6169H207.303V18.6691H202.602C197.814 18.6691 196.07 15.5797 196.07 11.9385C196.07 8.25326 198.387 5.20793 202.602 5.20793H207.303V7.26021H202.58C201.477 7.26021 200.705 7.6795 200.175 8.09878C199.491 8.69461 198.961 9.53317 198.961 10.46V10.791H207.281V12.8433H198.961V13.1964C198.983 14.1894 199.226 14.8956 199.91 15.6459Z" fill="white"/>
<path d="M213.68 5.20787C214.673 5.20787 215.291 5.31821 216.13 5.78163C217.63 6.64226 217.829 8.01046 217.829 9.0697V11.0558H215.313V9.53312C215.313 8.93729 215.269 8.23113 214.717 7.76771C214.342 7.4367 213.901 7.23809 213.084 7.23809H211.253V18.647H208.715V5.18581H213.68V5.20787Z" fill="white"/>
</svg>
